<svg width="413" height="257" version="1.1" viewBox="0 0 109 68" xmlns="http://www.w3.org/2000/svg">
 <g transform="translate(-7 -226)">
  <path d="m38 226c-0.39 0-0.44 0.37-0.1 0.65 0.22 0.18 0.24 0.23 0.073 0.17-0.13-0.041-0.31 0.01-0.42 0.12-0.1 0.1-0.28 0.16-0.4 0.13-0.78-0.23-0.86-0.22-0.94 0.096-0.074 0.29-0.14 0.32-1.2 0.4-0.62 0.048-1.2 0.14-1.2 0.2-0.037 0.06-0.37 0.11-0.73 0.11-0.5 0-0.68 0.051-0.74 0.2-0.064 0.17-0.2 0.19-0.78 0.11-0.63-0.078-0.69-0.065-0.62 0.12 0.044 0.12 0.11 0.34 0.15 0.5 0.064 0.25 0.11 0.27 0.42 0.15 0.19-0.072 0.44-0.094 0.56-0.048 0.35 0.13 0.15 0.39-0.31 0.39-0.3 0-0.45 0.069-0.52 0.23-0.083 0.2-0.19 0.22-0.93 0.14-0.46-0.049-1-0.18-1.2-0.3-0.4-0.21-1.2-0.2-1.2 0.012 0 0.061 0.075 0.11 0.17 0.11 0.092 0 0.26 0.11 0.38 0.24 0.31 0.34 0.16 1.1-0.22 1.1-0.15 1e-3 -0.51 0.11-0.8 0.25-0.42 0.19-0.69 0.23-1.3 0.17-0.59-0.061-0.83-0.024-1.3 0.21l-0.61 0.28 1.4 0.43-0.58 0.25c-0.32 0.14-0.68 0.29-0.81 0.33-0.13 0.041-0.33 0.24-0.45 0.44l-0.21 0.36 0.42 0.25c0.33 0.19 0.43 0.35 0.47 0.69 0.043 0.37 0.0023 0.46-0.23 0.57-0.16 0.071-0.29 0.24-0.29 0.37 0 0.15-0.28 0.43-0.81 0.78-0.89 0.6-1 0.85-0.43 0.85 0.28 0 0.4 0.068 0.45 0.25 0.069 0.26 0.34 0.33 0.47 0.12 0.13-0.21 0.45-0.14 0.41 0.093-0.021 0.13 0.041 0.22 0.15 0.22 0.13 0 0.19-0.13 0.19-0.46 0-0.65 0.57-1.2 1.4-1.4 0.33-0.061 0.69-0.2 0.8-0.3 0.24-0.22 0.62-0.25 0.62-0.05 0 0.075-0.11 0.16-0.24 0.2-0.13 0.034-0.41 0.28-0.63 0.55-0.22 0.27-0.7 0.66-1.1 0.87-1 0.58-1.1 1.4-0.11 1.1 0.25-0.076 0.52-0.11 0.62-0.075 0.091 0.035 0.29-8.7e-4 0.43-0.08 0.22-0.12 0.31-0.11 0.49 0.053 0.12 0.11 0.34 0.2 0.49 0.2 0.37 0 0.34 0.3-0.047 0.61l-0.32 0.25 0.47 0.039c0.35 0.029 0.49 0.1 0.52 0.28 0.057 0.3-0.29 0.57-0.74 0.57-0.18 0-0.4 0.084-0.49 0.19-0.13 0.15-0.096 0.21 0.18 0.31 0.45 0.17 0.35 0.38-0.36 0.72-1.3 0.61-1.8 0.45-0.74-0.24 0.62-0.42 0.63-0.65 0.022-0.7-0.28-0.023-0.47-0.1-0.47-0.2 0-0.21 0.35-0.52 0.78-0.68 0.23-0.088 0.32-0.19 0.27-0.32-0.04-0.1-0.11-0.19-0.16-0.19-0.19 0-1.1 0.51-1.4 0.79-0.34 0.32-1.1 0.48-2.4 0.49-0.57 4e-3 -0.75-0.044-0.89-0.23-0.28-0.38-2-0.48-3-0.17-0.91 0.3-1.2 0.3-1.2 0.01-4e-6 -0.15 0.16-0.28 0.47-0.39 0.26-0.092 0.62-0.28 0.8-0.43 0.18-0.14 0.48-0.36 0.65-0.49 0.26-0.18 0.45-0.59 0.27-0.59-0.056 0-1.7 0.68-2.3 0.94-0.22 0.098-0.59 0.18-0.83 0.18-0.29 0-0.48 0.075-0.57 0.22-0.1 0.18-0.17 0.19-0.37 0.069-0.2-0.12-0.28-0.11-0.45 0.084-0.32 0.36-0.19 0.68 0.31 0.75 0.3 0.045 0.42 0.12 0.39 0.25-0.08 0.35-0.3 0.49-1 0.63-0.95 0.19-1.5 0.52-1.5 0.91 0 0.16-0.079 0.33-0.18 0.37-0.24 0.091-0.41 1.6-0.21 1.9 0.16 0.19 0.088 0.93-0.18 1.8-0.092 0.31-0.2 0.81-0.25 1.1-0.045 0.31-0.16 0.85-0.27 1.2-0.15 0.52-0.15 0.73-0.037 1.1 0.12 0.34 0.1 0.63-0.12 1.7-0.32 1.5-0.35 3.8-0.078 5.5 0.26 1.6 0.25 1.9-0.079 1.9-0.3 0-1.4-0.7-2.1-1.3-0.33-0.29-0.59-0.41-0.88-0.41-0.17 0-0.54-0.12-0.96-0.3v1.9c0.045 0.064 0.086 0.12 0.14 0.2 0.51 0.81 1.1 1.1 1.8 1 0.37-0.07 0.46-0.049 0.46 0.11 0 0.11-0.055 0.2-0.12 0.2-0.067 0-0.21 0.13-0.31 0.29-0.18 0.27-0.17 0.34 0.064 0.89 0.14 0.33 0.24 0.69 0.21 0.8-0.026 0.11 0.05 0.36 0.17 0.57 0.12 0.21 0.24 0.6 0.28 0.87 0.11 0.91 0.18 0.98 0.85 0.94 0.4-0.026 0.53 0.15 0.43 0.56-0.061 0.24-0.16 0.31-0.48 0.31-0.6 6e-3 -0.84 0.25-0.84 0.84 0 0.28 0.056 0.54 0.12 0.58 0.23 0.14 0.13 0.62-0.19 0.97-0.4 0.43-0.53 1.1-0.27 1.4 0.19 0.19 0.17 1.2-0.028 1.5-0.049 0.092-0.032 0.38 0.036 0.63 0.17 0.63 0.065 0.83-0.46 0.93-0.44 0.083-0.76 0.44-0.66 0.73 0.03 0.082-0.035 0.25-0.14 0.38-0.12 0.14-0.18 0.4-0.16 0.66 0.05 0.58-0.16 0.79-0.76 0.79-0.042 0-0.064 1e-3 -0.099 3e-3v18h48c-0.0052-4e-3 -0.014-0.013-0.019-0.016-0.22-0.15-0.43-0.32-0.47-0.38-0.07-0.1-1.2-0.76-1.8-1.1-0.18-0.094-0.54-0.48-0.8-0.85-0.26-0.37-0.81-1-1.2-1.4-0.42-0.39-1.3-1.3-1.9-2-1.2-1.4-1.7-1.9-2.9-2.7-0.41-0.29-0.9-0.69-1.1-0.89l-0.35-0.36 0.13-1.1c0.15-1.3 0.26-1.4 1.3-1.4 0.59 0 0.92-0.088 1.6-0.43 0.49-0.23 1.2-0.52 1.5-0.63 0.34-0.12 0.71-0.36 0.87-0.57 0.15-0.2 0.46-0.59 0.67-0.86 0.32-0.41 0.43-0.71 0.6-1.7 0.25-1.5 0.27-1.5 0.44-1.5 0.21 0 0.35 0.52 0.52 1.9 0.17 1.5 0.29 1.5 0.68 0.35 0.45-1.4 0.3-2.4-0.89-5.8l-0.46-1.3 0.19-0.69c0.11-0.38 0.23-0.98 0.27-1.3 0.04-0.36 0.27-1.1 0.5-1.6s0.43-1 0.43-1.1c0-0.4 0.71-2.2 1-2.6 0.6-0.76 0.98-2.1 1.1-3.9 0.05-0.86 0.13-1.7 0.19-1.8 0.057-0.13 0.23-0.22 0.44-0.22 0.48 0 0.58-0.18 0.68-1.2 0.048-0.51 0.14-1.4 0.21-2 0.32-2.7 0.34-2.6-0.84-4-0.79-0.98-1.2-1.7-1.2-2.2-0.0014-0.21-0.28-0.93-0.63-1.6-0.34-0.68-0.62-1.3-0.62-1.4 0-0.18-0.52-1.8-1.1-3.4-0.19-0.51-0.44-1.3-0.55-1.8-0.14-0.61-0.32-0.99-0.6-1.3-0.47-0.53-1.1-1.9-1.1-2.5 0-0.1-0.28-0.46-0.62-0.79l-0.62-0.61-0.42 0.2c-0.3 0.14-0.46 0.16-0.55 0.07-0.092-0.092-0.23-0.051-0.47 0.13-0.19 0.15-0.46 0.26-0.6 0.26-0.15 0-0.39 0.085-0.54 0.19-0.21 0.15-0.25 0.27-0.2 0.59 0.049 0.3 0.0032 0.46-0.18 0.63-0.32 0.29-0.85 0.23-0.79-0.083 0.057-0.34-0.21-0.58-0.63-0.58-0.25 0-0.35-0.052-0.31-0.16 0.035-0.086 0.099-0.24 0.14-0.35 0.055-0.14-0.044-0.25-0.33-0.38-0.35-0.17-0.42-0.28-0.53-0.87l-0.13-0.67-0.84-0.037c-0.78-0.034-1-0.15-0.72-0.34 0.068-0.042 0.12-0.22 0.12-0.39 0-0.17 0.09-0.45 0.2-0.61 0.18-0.28 0.18-0.31-0.0089-0.39-0.11-0.044-0.27-0.017-0.35 0.061-0.078 0.078-0.22 0.14-0.32 0.14-0.13 0-0.1-0.086 0.11-0.31 0.52-0.55 0.056-0.55-0.7 6e-3 -0.4 0.3-0.49-6e-3 -0.099-0.34 0.18-0.16 0.41-0.44 0.51-0.64 0.11-0.22 0.25-0.33 0.36-0.28 0.28 0.11 0.76-0.13 0.83-0.41 0.1-0.39-0.067-0.41-0.57-0.048-0.52 0.37-0.66 0.32-1.2-0.49-0.32-0.51-0.54-0.6-0.54-0.23 0 0.43-0.23 0.4-0.54-0.082-0.16-0.26-0.4-0.63-0.53-0.83-0.13-0.2-0.29-0.45-0.36-0.56-0.44-0.71-0.6-0.89-0.82-0.89zm-3.4 0.75c-0.068 0-0.12 0.056-0.12 0.12 0 0.068 0.056 0.12 0.12 0.12 0.068 0 0.12-0.056 0.12-0.12 0-0.068-0.056-0.12-0.12-0.12zm-7.5 0.55c-0.053-6e-3 -0.11 0.02-0.14 0.073-0.043 0.07 0.0089 0.13 0.12 0.13 0.22 0 0.25-0.075 0.079-0.18-0.016-0.01-0.033-0.016-0.051-0.018zm11 0.49c0.11 0.014 0.19 0.12 0.22 0.31 0.03 0.2-0.024 0.27-0.22 0.27-0.32 0-0.48-0.35-0.24-0.51 0.094-0.059 0.18-0.084 0.24-0.076zm-9.6 0.087c-0.33 0-0.42 0.068-0.58 0.44-0.1 0.24-0.27 0.47-0.37 0.51-0.1 0.039-0.18 0.12-0.18 0.18v7.3e-4c0 0.19 0.5 0.12 0.58-0.076 0.081-0.21 0.49-0.25 0.61-0.062 0.096 0.16 0.32 0.16 0.56 7.5e-4 0.16-0.1 0.15-0.15-0.082-0.31-0.18-0.13-0.25-0.27-0.2-0.44 0.055-0.21 0.0044-0.25-0.33-0.25zm-1.7 0.18c-0.072-3e-3 -0.14 0.013-0.18 0.055-0.098 0.098-0.068 0.19 0.11 0.32 0.26 0.2 0.45 0.19 0.52-0.026 0.053-0.16-0.23-0.34-0.45-0.35zm16 0.067c-0.072 0-0.13 0.055-0.13 0.12 0 0.068 0.025 0.12 0.055 0.12 0.03 0 0.09-0.056 0.13-0.12 0.042-0.068 0.018-0.12-0.055-0.12zm-17 0.75c-0.078 9e-3 -0.17 0.061-0.25 0.16-0.1 0.12-0.097 0.2 0.0096 0.31 0.24 0.24 0.47 0.17 0.47-0.16 0-0.21-0.1-0.32-0.23-0.31zm5.8 0.81c0.068 0.016 0.13 0.062 0.13 0.13 0 0.03-0.087 0.056-0.19 0.056-0.11 0-0.16-0.057-0.12-0.13 0.036-0.057 0.11-0.072 0.18-0.056zm-6.5 0.065c-0.13 0.013-0.28 0.075-0.37 0.18-0.089 0.11-0.36 0.19-0.64 0.19-0.33 0-0.48 0.055-0.48 0.18 0 0.097 0.07 0.21 0.16 0.24 0.22 0.096 2.1-0.051 2.3-0.17 0.16-0.15-0.022-0.37-0.29-0.37-0.13 0-0.27-0.056-0.31-0.12-0.057-0.093-0.18-0.13-0.32-0.12zm21 0.27c-0.037 9e-3 -0.075 0.026-0.12 0.052-0.12 0.074-0.23 0.23-0.26 0.35-0.036 0.18 0.019 0.2 0.34 0.13 0.3-0.065 0.38-0.042 0.38 0.1 0 0.1-0.12 0.22-0.26 0.27-0.2 0.062-0.49 0.5-0.49 0.73 0 0.016 0.2 0.02 0.45 0.013 0.33-0.012 0.52-0.11 0.75-0.38l0.3-0.36 0.24 0.28c0.26 0.31 0.51 0.37 0.51 0.12 0-0.31-0.37-0.68-0.77-0.76-0.22-0.044-0.53-0.2-0.7-0.35-0.17-0.16-0.28-0.22-0.39-0.19zm-26 1.9c-0.18 0.028-0.46 0.23-0.52 0.41-0.036 0.11 0.067 0.094 0.34-0.047 0.22-0.11 0.36-0.26 0.31-0.33-0.023-0.037-0.07-0.047-0.13-0.038zm28 0.33c-0.056 4e-3 -0.12 0.069-0.25 0.2-0.34 0.34-0.36 0.77-0.033 0.77 0.13 0 0.27 0.087 0.31 0.19 0.058 0.15 0.13 0.16 0.32 0.06 0.24-0.13 0.23-0.5-0.0037-0.5-0.059 0-0.08-0.071-0.046-0.16 0.034-0.088-0.016-0.26-0.11-0.39-0.083-0.11-0.13-0.17-0.18-0.16zm-21 0.97c0.62-4e-3 1.2 0.031 1.3 0.11 0.092 0.15-0.23 0.26-0.74 0.26-0.29 0-0.51 0.098-0.71 0.31l-0.29 0.31-0.27-0.27c-0.23-0.23-0.32-0.25-0.59-0.13-0.28 0.13-0.32 0.12-0.32-0.098 0-0.13 0.11-0.3 0.24-0.37 0.15-0.079 0.79-0.12 1.4-0.13zm-7.4 2.1c-0.19-1e-3 -0.45 0.01-0.77 0.034-0.67 0.049-1.3 0.15-1.4 0.23-0.095 0.076-0.45 0.17-0.8 0.2-0.56 0.057-0.64 0.1-0.76 0.44-0.074 0.21-0.31 0.63-0.53 0.95-0.34 0.49-0.78 1.5-0.78 1.8-0.0027 0.14 0.22 0.11 0.31-0.039 0.047-0.076 0.24-0.098 0.44-0.053 0.25 0.056 0.37 0.031 0.38-0.086 0.0079-0.091 0.022-0.24 0.031-0.34 0.0092-0.095 0.34-0.35 0.74-0.56 0.4-0.21 0.82-0.47 0.93-0.58 0.19-0.17 1.4-0.98 2.3-1.5 0.47-0.29 0.48-0.42-0.099-0.42zm9 3.9c0.042 3e-3 0.08 0.01 0.11 0.022 0.17 0.066 0.16 0.1-0.045 0.25-0.28 0.21-0.64 0.23-0.75 0.053-0.087-0.14 0.39-0.35 0.69-0.33zm-0.43 2.8c0.079 1e-3 0.13 9e-3 0.14 0.023 0.18 0.18-0.41 1.1-0.95 1.5-0.71 0.51-0.95 0.62-1.5 0.64v7.4e-4c-0.24 0.012-0.73 0.065-1.1 0.12-0.36 0.053-0.65 0.054-0.65 3e-3 0-0.052 0.11-0.3 0.25-0.55 0.14-0.25 0.3-0.61 0.37-0.8 0.078-0.22 0.28-0.41 0.53-0.51 0.41-0.17 2.3-0.44 2.9-0.42zm-11 2.6c0.067 4e-3 0.097 0.12 0.032 0.29-0.043 0.11-0.13 0.2-0.19 0.2-0.14 0-0.14-0.14 0.0089-0.37 0.055-0.087 0.11-0.12 0.15-0.12zm8.9 0.023c0.043 8.7e-4 0.089 0.01 0.14 0.025 0.4 0.13 0.57 0.5 0.33 0.75-0.11 0.11-0.29 0.19-0.4 0.18-0.68-0.047-0.8-0.26-0.42-0.73 0.12-0.15 0.23-0.22 0.36-0.22zm-7.6 0.12c0.22-4e-3 0.45 0.25 0.45 0.54 0 0.16 0.11 0.41 0.23 0.57 0.22 0.28 0.26 0.28 0.92 0.12 0.99-0.24 1.3-0.14 1.9 0.67 0.18 0.22 0.5 0.23 2.3 0.08 0.76-0.063 1.5-0.056 2 0.019 0.41 0.068 1.2 0.16 1.7 0.2 0.9 0.072 1 0.11 1 0.35 0.024 0.17-0.057 0.33-0.22 0.44-0.36 0.22-0.32 0.39 0.18 0.83 0.28 0.25 0.41 0.45 0.36 0.58-0.041 0.11-0.0066 0.36 0.076 0.56 0.12 0.28 0.12 0.47 0.0075 0.8-0.12 0.36-0.24 0.47-0.72 0.63-0.32 0.11-0.7 0.2-0.85 0.2-0.18 0-0.43 0.18-0.68 0.51-0.22 0.28-0.54 0.56-0.71 0.62-0.18 0.068-0.28 0.19-0.24 0.28 0.05 0.13-0.31 0.2-1.7 0.3-0.95 0.072-1.8 0.19-2 0.27-0.14 0.075-0.42 0.14-0.63 0.14-0.6 0-1.7 0.46-2.1 0.9-0.45 0.46-0.9 1.5-0.91 2.1-0.0024 0.51-0.1 0.65-0.53 0.76-0.4 0.098-0.45 0.39-0.095 0.58 0.35 0.19 0.58 0.7 0.67 1.5 0.043 0.38 0.22 1 0.4 1.4 0.18 0.39 0.31 0.73 0.28 0.75-0.024 0.024-0.16-0.041-0.29-0.14-0.14-0.1-0.49-0.3-0.79-0.43-0.3-0.13-0.68-0.35-0.86-0.49-0.17-0.14-0.42-0.25-0.54-0.25-0.16 0-0.25-0.13-0.32-0.47-0.12-0.58-0.11-1.7 0.0067-2.3 0.08-0.43 0.12-0.47 0.4-0.42 0.42 0.081 0.49-0.1 0.23-0.59-0.21-0.38-0.21-0.55-0.078-2 0.31-3.4 0.32-3.9 0.093-4.4-0.12-0.23-0.24-0.72-0.28-1.1-0.049-0.47-0.11-0.64-0.2-0.55-0.19 0.19-0.46 0.16-0.46-0.053 0-0.1 0.17-0.46 0.38-0.81 0.24-0.4 0.4-0.82 0.42-1.2 0.038-0.57 0.51-1.4 0.89-1.5 0.031-0.012 0.062-0.018 0.094-0.018zm4.3 0.54c0.15 3e-3 0.34 0.014 0.55 0.032l0.86 0.07-0.62 0.16v7.3e-4c-0.34 0.09-0.68 0.16-0.75 0.15-0.42-0.049-0.69-0.14-0.69-0.23 0-0.14 0.18-0.2 0.64-0.19zm4.1 0.2c0.027-4e-3 0.058-3e-3 0.092 4e-3 0.12 0.023 0.21 0.097 0.19 0.16-0.043 0.22-0.41 0.22-0.41-1e-3 0-0.096 0.046-0.15 0.13-0.17zm6.7 3.6c0.22 0.018 0.38 0.3 0.45 0.85 0.099 0.73 0.3 0.83 0.89 0.45 0.35-0.23 0.61-0.098 0.48 0.23-0.076 0.2-0.92 0.47-1.5 0.47-0.16 0-0.4 0.11-0.52 0.25-0.43 0.47-0.56 0.25-0.56-0.94 0-0.63 0.052-0.85 0.25-1 0.18-0.18 0.34-0.27 0.48-0.26zm-2.3 0.89c0.2-0.015 0.46 0.054 0.6 0.19 0.29 0.29 0.27 1.4-0.032 1.7-0.13 0.11-0.28 0.21-0.35 0.21-0.22 0-0.62-0.54-0.83-1.1-0.26-0.71-0.26-0.74 0.034-0.74 0.13 0 0.28-0.056 0.32-0.12 0.044-0.072 0.15-0.11 0.27-0.12zm-17 1c0.015 3e-3 0.031 0.01 0.048 0.02 0.068 0.042 0.12 0.1 0.12 0.13 0 0.03-0.056 0.055-0.12 0.055-0.068 0-0.12-0.059-0.12-0.13 0-0.054 0.032-0.082 0.076-0.075zm0.11 0.65c0.1-0.015 0.19 0.05 0.19 0.19 0 0.064-0.12 0.12-0.26 0.12-0.22 0-0.24-0.031-0.11-0.19 0.058-0.07 0.13-0.11 0.19-0.12zm22 1.3c0.064 0 0.12 0.056 0.12 0.12 0 0.068-0.087 0.12-0.19 0.12-0.11 0-0.16-0.056-0.12-0.12 0.042-0.068 0.13-0.12 0.19-0.12zm3.5 0.26c0.081-9e-3 0.2 0.05 0.32 0.18 0.1 0.1 0.33 0.19 0.5 0.19 0.68 0 1.1 0.52 0.51 0.67-0.15 0.041-0.37 0.076-0.49 0.077-0.3 3e-3 -0.97-0.6-0.97-0.88 0-0.14 0.049-0.22 0.13-0.23zm-7.8 2c0.068-7e-3 0.14-7e-3 0.23 7.4e-4 0.55 0.048 0.87 0.47 0.97 1.3v7.5e-4l0.077 0.65-0.48-3e-3c-0.27-1e-3 -0.57-0.056-0.67-0.12-0.1-0.065-0.4-0.084-0.67-0.042-0.33 0.052-0.51 0.025-0.58-0.083-0.16-0.26 0.088-0.89 0.52-1.3 0.25-0.25 0.4-0.36 0.6-0.38zm15 1.1c0.4 0 0.52 0.29 0.18 0.42-0.36 0.14-0.55 0.051-0.55-0.26 0-0.1 0.15-0.17 0.37-0.17zm-12 0.56c0.087 3e-3 0.23 0.19 0.37 0.53 0.1 0.24 0.16 0.46 0.13 0.48-0.11 0.11-0.59-0.55-0.59-0.81 0-0.14 0.032-0.21 0.085-0.21zm-1.4 0.83c0.2 0.019 0.37 0.088 0.48 0.22 0.11 0.13 0.21 0.43 0.21 0.67 0 0.24 0.089 0.69 0.2 0.99 0.31 0.86 0.29 1.7-0.053 2.2-0.39 0.55-1.6 1.1-2.3 1.1-0.54 0-1.6 0.47-2.6 1.1v7.3e-4c-0.41 0.29-0.44 0.28-0.54-0.025-0.1-0.33 0.29-1.1 0.92-1.9 0.47-0.57 1.1-2 0.94-2.2-0.037-0.06-0.18-0.11-0.31-0.11-0.29 0-0.32-0.28-0.053-0.5 0.15-0.13 0.23-0.12 0.42 0.048 0.21 0.19 0.24 0.19 0.41-0.014 0.1-0.12 0.32-0.44 0.48-0.7 0.36-0.61 1.2-1 1.8-0.94zm-17 4.9c0.43 0 0.67 0.56 0.88 2.1 0.11 0.82 0.23 1.7 0.27 1.9 0.084 0.53-0.24 0.56-0.46 0.04-0.083-0.2-0.26-0.47-0.4-0.59-0.42-0.38-0.58-0.83-0.66-1.8-0.089-1.1 0.04-1.7 0.37-1.7zm8.5 0.44c0.064 0 0.12 0.084 0.12 0.19 0 0.19-0.15 0.25-0.29 0.11-0.099-0.099 0.013-0.29 0.17-0.29zm-2.8 0.25c0.25 0 0.71 0.73 0.67 1.1-0.044 0.32-0.42 0.39-0.57 0.1-0.067-0.13-0.16-0.44-0.21-0.69-0.072-0.38-0.051-0.46 0.12-0.46zm7.5 1.9 0.37 0.35c0.25 0.24 0.57 0.38 1 0.45 0.94 0.15 1 0.27 0.94 1.2-0.061 0.59-0.032 0.87 0.12 1.2 0.38 0.73 0.15 0.92-1.6 1.4-0.55 0.14-1.3 0.37-1.8 0.52-0.73 0.25-0.79 0.25-1 0.058-0.31-0.28-0.71-0.26-1.3 0.059-0.56 0.33-0.76 0.58-0.76 0.91 9.3e-4 0.14-0.15 0.58-0.34 0.97-0.19 0.39-0.39 0.71-0.44 0.72-0.19 0.013-0.59-0.81-0.71-1.5-0.072-0.38-0.25-1.2-0.39-1.8-0.51-2.2-0.51-2.5-0.032-2.1 0.27 0.2 1.1 0.25 1.2 0.068 0.11-0.18 1.5-1.2 1.9-1.4 0.19-0.099 0.6-0.22 0.91-0.27 0.31-0.048 0.86-0.23 1.2-0.41zm4.2 3.1c0.083-1e-3 0.17 0.032 0.31 0.088 0.67 0.28 0.74 0.74 0.15 1-0.66 0.33-0.87 0.35-1.1 0.082-0.34-0.34-0.33-0.38 0.17-0.87 0.25-0.25 0.37-0.34 0.5-0.34zm-5.6 3.8 2.2 7e-3c1.8 6e-3 2.3 0.048 2.9 0.24l0.69 0.23-4.2 1-0.94 1c-0.52 0.55-1 1-1.2 1.1-0.32 0.11-0.27 0.39 0.11 0.64 0.31 0.2 0.42 0.21 2 6e-3 0.93-0.12 1.9-0.24 2.2-0.28 0.61-0.088 1.6 0.25 2 0.69l0.34 0.35-0.43 0.26c-0.24 0.15-0.49 0.26-0.57 0.26-0.081 0-0.5 0.36-0.93 0.8-0.74 0.76-1.3 1.1-2 1.1-0.11 3.9e-4 -0.4 0.085-0.65 0.19v-7.5e-4c-0.82 0.34-1 0.24-1.5-0.79-0.2-0.45-0.45-1.1-0.56-1.4-0.26-0.81-0.42-1.1-1-1.9-0.51-0.68-0.52-0.72-0.42-1.3 0.13-0.69 0.62-1.3 1.4-1.9zm-21 1.2c-0.045-7e-3 -0.076 0.02-0.076 0.074 0 0.073 0.056 0.13 0.12 0.13 0.068 0 0.12-0.025 0.12-0.055s-0.056-0.09-0.12-0.13c-0.017-0.01-0.033-0.017-0.048-0.019z" fill="#6d6d6d" stroke-width=".12"/>
 </g>
</svg>
