<?xml version="1.0" encoding="UTF-8"?>
<svg xmlns="http://www.w3.org/2000/svg" width="400.000mm" height="248.517mm" viewBox="5.000000 -253.517227 400.000000 248.517227">
    <g transform="matrix(2.746026 0.000000 0.000000 -2.746026 4.998600 -253.517151)">
        <g>
            <path style="stroke:#808080;stroke-width:0.05mm;fill:none" d="M31.886890,-89.735474C31.314079,-89.325195,30.615108,-88.824127,30.333622,-88.622101C30.052128,-88.420044,29.271030,-88.009125,28.597839,-87.708862C26.992916,-86.993134,25.958134,-86.469482,25.871410,-86.329193C25.832970,-86.266937,25.322098,-85.969116,24.736172,-85.667358C24.009106,-85.292877,23.340187,-84.821442,22.629395,-84.182617C22.056587,-83.667816,21.197380,-82.996918,20.720036,-82.691681C20.242699,-82.386505,19.695927,-81.994720,19.504990,-81.821014C19.099728,-81.452393,17.925114,-80.631744,17.017040,-80.082855C16.148415,-79.557770,11.572574,-76.236481,9.514506,-74.637299C8.899327,-74.159271,8.005443,-73.484283,7.528106,-73.137299C7.050761,-72.790314,6.295704,-72.189301,5.850185,-71.801727C5.404667,-71.414093,4.675639,-70.818359,4.230121,-70.477875C3.784609,-70.137329,3.315944,-69.742340,3.188652,-69.600098C2.925743,-69.306305,0.528090,-67.271271,0.213104,-67.074554C0.019106,-66.953339,0.006392,-66.589142,0.006392,-61.152618C0.006392,-56.677338,0.039326,-55.324951,0.151043,-55.206512C0.266763,-55.083832,0.266763,-55.042572,0.151043,-55.000122C-0.034047,-54.932251,-0.056825,-50.440552,0.126179,-50.098602C0.208748,-49.944305,0.208748,-49.874756,0.126179,-49.874756C0.046450,-49.874756,0.006385,-48.788849,0.006385,-46.627808C0.006385,-44.442749,0.045156,-43.404816,0.124833,-43.454071C0.202122,-43.501801,0.218608,-43.373016,0.172265,-43.083252C0.114729,-42.723541,0.147205,-42.597656,0.343111,-42.420319C0.476130,-42.299927,0.584969,-42.156952,0.584969,-42.102509C0.584969,-42.048096,0.767223,-41.744232,0.989983,-41.427277C1.212742,-41.110352,1.394999,-40.782990,1.394999,-40.699799C1.394999,-40.479218,2.237883,-39.691498,2.473907,-39.691498C2.584601,-39.691498,2.703325,-39.600311,2.737741,-39.488983C2.851833,-39.119781,2.980667,-38.939301,3.130173,-38.939301C3.211437,-38.939301,3.296112,-38.773163,3.318339,-38.570099C3.385006,-37.961182,3.826590,-37.245270,4.602878,-36.487549C5.006324,-36.093781,5.392006,-35.612091,5.459958,-35.417145C5.590038,-35.044006,5.986892,-34.897522,5.871448,-35.265259C5.836474,-35.376587,5.728135,-35.754181,5.630680,-36.104218C5.500546,-36.571625,5.327305,-36.859039,4.978500,-37.186188C4.717265,-37.431244,4.527164,-37.693329,4.556054,-37.768585C4.584922,-37.843781,4.825512,-37.914124,5.090650,-37.924713C5.513279,-37.941498,5.564235,-37.918030,5.503905,-37.727112C5.435799,-37.512543,5.602118,-37.376190,6.344933,-37.037720C6.489768,-36.971710,6.638538,-36.838837,6.675545,-36.742401C6.712544,-36.645996,6.806277,-36.567078,6.883845,-36.567078C6.961406,-36.567078,7.144576,-36.439606,7.290881,-36.283905C7.519046,-36.041046,7.534266,-35.975739,7.397841,-35.825043C6.854356,-35.224670,6.850537,-35.205231,7.266734,-35.157196C7.602033,-35.118530,7.728877,-34.854218,7.579108,-34.506317C7.532722,-34.398590,7.489295,-34.206390,7.482535,-34.079132C7.475869,-33.951782,7.392123,-33.847687,7.296653,-33.847687C7.201186,-33.847687,7.107726,-33.951813,7.088962,-34.079132C7.035829,-34.439850,6.654839,-34.876190,6.458774,-34.800964C6.314706,-34.745636,6.345760,-34.605347,6.643464,-33.966156C6.948668,-33.310883,7.035836,-33.208679,7.235785,-33.271698C7.876279,-33.473663,8.026710,-33.471222,8.209430,-33.255981C8.312030,-33.135040,8.386741,-33.054474,8.375436,-33.076752C8.364102,-33.099030,8.530860,-33.271790,8.745925,-33.460632C9.067187,-33.742706,9.177882,-33.782043,9.366385,-33.681183C9.492572,-33.613708,9.625272,-33.558380,9.661283,-33.558380C9.791482,-33.558380,9.722882,-33.949402,9.561416,-34.127838C9.414207,-34.290497,9.436404,-34.311920,9.763930,-34.323120C9.966241,-34.329803,10.248302,-34.374969,10.390727,-34.423004C10.581241,-34.487274,10.669419,-34.458862,10.724343,-34.315796C10.776437,-34.179993,10.650117,-33.982391,10.306077,-33.661591C10.034961,-33.408783,9.849038,-33.166046,9.892907,-33.122162C9.936788,-33.078308,10.242793,-33.041382,10.572948,-33.040039C11.028319,-33.037384,11.173234,-32.995758,11.173234,-32.864044C11.173234,-32.728851,11.009355,-32.688324,10.431834,-32.680695C9.806828,-32.672699,9.656940,-32.629486,9.477153,-32.407501C9.359847,-32.262634,9.263873,-32.069641,9.263873,-31.978668C9.263873,-31.887726,9.154674,-31.665497,9.021209,-31.484985C8.730805,-31.092194,8.768664,-30.736511,9.106036,-30.688141C9.240676,-30.668823,9.470532,-30.525635,9.616830,-30.369934C9.970248,-29.993744,10.115928,-30.011871,10.564155,-30.487793C11.122054,-31.080109,11.428420,-31.108490,11.978841,-30.618866C12.412822,-30.232758,12.424970,-30.203522,12.237441,-29.996277C12.049893,-29.789032,12.061025,-29.762512,12.474843,-29.430908C13.275426,-28.789337,13.661193,-28.661774,13.661193,-29.038574C13.661193,-29.162048,13.707501,-29.291809,13.764127,-29.326813C13.820739,-29.361725,13.892621,-29.560150,13.923865,-29.767578C13.955092,-29.975006,14.143123,-30.527679,14.341674,-30.995697C14.540219,-31.463715,14.702662,-31.973267,14.702662,-32.128021C14.702662,-32.282745,14.787635,-32.539093,14.891492,-32.697601C15.067861,-32.966766,15.066274,-33.001312,14.867412,-33.221008C14.597089,-33.519714,14.757998,-33.822510,15.231402,-33.905975C15.431651,-33.941315,15.658164,-34.107147,15.806346,-34.327026C16.665539,-35.601990,18.186001,-37.172485,18.376617,-36.981842C18.417297,-36.941193,18.379284,-36.583832,18.292576,-36.187805C18.205643,-35.791779,18.122292,-35.233429,18.107334,-34.947052C18.092373,-34.660645,18.024376,-34.087860,17.956200,-33.674133C17.888027,-33.260437,17.753365,-32.097565,17.656952,-31.089966C17.498657,-29.435699,17.446976,-29.194794,17.124187,-28.606659C16.525261,-27.515320,16.334557,-27.318604,15.415046,-26.843628C14.927756,-26.591888,14.336997,-26.268707,14.102252,-26.125397C13.658984,-25.854797,13.675937,-25.853668,12.808751,-26.213531C12.618800,-26.292480,12.608342,-26.274078,12.721965,-26.061798C12.916120,-25.699005,12.885325,-25.592682,12.475062,-25.209106C12.136281,-24.892365,10.042312,-23.430573,9.111026,-22.860687C8.908687,-22.736847,8.514333,-22.463501,8.234687,-22.253174C7.810534,-21.934174,7.626050,-21.870758,7.121902,-21.870758L6.517567,-21.870758L4.968820,-23.432343C4.117013,-24.291199,3.159710,-25.288483,2.841483,-25.648499C2.523256,-26.008514,2.095963,-26.403168,1.891940,-26.525421C1.687911,-26.647705,1.488735,-26.849335,1.449321,-26.973541C1.387195,-27.169220,0.242714,-28.119568,0.069178,-28.119568C0.034670,-28.119568,0.006394,-27.908203,0.006394,-27.649872C0.006394,-27.366180,0.052252,-27.208496,0.122114,-27.251678C0.189628,-27.293396,0.237835,-27.175659,0.237835,-26.969208C0.237835,-26.774506,0.185745,-26.615204,0.122114,-26.615204C0.045640,-26.615204,0.006394,-22.102203,0.006394,-13.307587L0.006394,0.000031L4.594962,0.000031L9.183532,0.000031L9.111146,-1.243927C8.977691,-3.537384,8.114490,-5.933411,6.659026,-8.050323C6.311959,-8.555145,5.941905,-9.131897,5.836689,-9.332031C5.575406,-9.829010,5.694629,-10.242218,6.144570,-10.399078C6.522262,-10.530670,7.759543,-11.530304,7.759543,-11.703796C7.759543,-11.760986,7.629357,-11.774994,7.470244,-11.735138C7.264855,-11.683533,7.180947,-11.709381,7.180947,-11.824463C7.180947,-11.913544,7.975066,-12.862457,8.945657,-13.933136C9.916249,-15.003784,10.798980,-16.017059,10.907279,-16.184845C11.015573,-16.352631,11.412255,-16.776276,11.788785,-17.126343C12.165313,-17.476410,13.020408,-18.387695,13.688987,-19.151428C14.357574,-19.915192,15.023005,-20.644196,15.167729,-20.771515C15.312453,-20.898834,15.580609,-21.207611,15.763631,-21.457764C15.946662,-21.707916,16.420002,-22.254700,16.815517,-22.672821C17.211025,-23.090912,17.841850,-23.797516,18.217358,-24.243042C18.592857,-24.688568,19.176125,-25.339478,19.513504,-25.689514C21.979332,-28.247955,23.150131,-29.723969,23.150131,-30.274200C23.150131,-30.410126,23.072010,-30.586182,22.976551,-30.665436C22.767895,-30.838593,22.755314,-31.128510,22.938961,-31.531586C23.064789,-31.807709,23.506886,-32.180573,24.704525,-33.020660C24.963406,-33.202240,25.331440,-33.494904,25.522373,-33.670990C25.713310,-33.847046,26.109230,-34.128540,26.402195,-34.296509C26.695164,-34.464478,27.032349,-34.709656,27.151501,-34.841309C27.270645,-34.972900,27.590740,-35.182098,27.862808,-35.306061C28.508453,-35.600189,28.507523,-35.821167,27.860943,-35.831451C27.415009,-35.838135,27.361668,-35.810394,27.340652,-35.556427C27.305092,-35.126770,27.226025,-35.062744,26.730934,-35.062744C26.365303,-35.062744,26.274891,-35.104889,26.274891,-35.275604C26.274891,-35.392670,26.404095,-35.547333,26.561989,-35.619293C26.803959,-35.729553,26.838066,-35.805206,26.778961,-36.100739C26.715588,-36.417633,26.737164,-36.451385,27.003399,-36.451385C27.237339,-36.451385,27.313839,-36.523651,27.375072,-36.802460C27.462555,-37.200714,27.914940,-37.554352,28.198021,-37.445709C28.490116,-37.333588,28.725513,-37.585419,28.581028,-37.855377C28.515560,-37.977783,28.412472,-38.047363,28.352024,-38.010010C28.208759,-37.921478,28.213352,-37.998016,28.372356,-38.346405C28.443981,-38.503632,28.631802,-38.664673,28.789722,-38.704315C29.028980,-38.764313,29.068691,-38.832031,29.027889,-39.110046C28.989834,-39.369171,29.038822,-39.475769,29.246967,-39.587158C29.394398,-39.666107,29.515026,-39.776947,29.515026,-39.833618C29.515026,-39.890289,29.580105,-39.899750,29.659668,-39.854950C29.775387,-39.789642,29.775387,-39.804565,29.659668,-39.929230C29.373219,-40.237823,29.495178,-40.385956,30.035759,-40.385956C30.537205,-40.385956,30.556492,-40.372589,30.556492,-40.038788C30.556492,-39.635284,30.567692,-39.631622,31.045795,-39.878876C31.320217,-40.020813,31.549976,-40.045410,31.994728,-39.980621C32.317486,-39.933685,32.867970,-39.862335,33.218021,-39.822296C33.755337,-39.760834,33.860035,-39.710449,33.890205,-39.498627C33.919258,-39.294525,33.778980,-39.166901,33.138042,-38.814301C32.291553,-38.348663,31.366520,-37.657593,31.366520,-37.490845C31.366520,-37.300323,32.052616,-37.675476,33.071575,-38.423218C33.629463,-38.832611,34.256004,-39.227570,34.463905,-39.300903C34.671795,-39.374237,35.067787,-39.642487,35.343876,-39.896973C35.619961,-40.151489,35.957584,-40.395142,36.094139,-40.438507C36.311611,-40.507568,36.452324,-40.733154,36.277901,-40.733154C36.185234,-40.733154,35.148216,-40.153137,35.017448,-40.028168C34.822109,-39.841492,34.183346,-39.916565,33.870083,-40.162933C33.409458,-40.525269,33.511547,-40.836639,34.061104,-40.745483C34.111092,-40.737457,34.344501,-40.861206,34.579769,-41.021088C34.815037,-41.180939,35.073551,-41.311737,35.154243,-41.311737C35.234936,-41.311737,35.300961,-41.406128,35.300961,-41.521332C35.300961,-41.851440,35.722664,-42.219635,36.197323,-42.303986C36.436241,-42.346405,36.761909,-42.499878,36.921017,-42.644897C37.235893,-42.931885,37.754112,-42.993500,38.161049,-42.792236C38.352520,-42.697418,38.461098,-42.701691,38.589699,-42.808350C39.126598,-43.253937,39.637112,-43.395630,40.073372,-43.220215C40.333321,-43.115692,40.479115,-43.460907,40.297691,-43.751373C40.194862,-43.916046,40.205280,-44.000824,40.345585,-44.141083C40.444172,-44.239624,40.569698,-44.320343,40.624504,-44.320343C40.679344,-44.320343,40.758083,-44.427277,40.799549,-44.557892C40.856106,-44.736115,40.912174,-44.764526,41.024117,-44.671631C41.106167,-44.603516,41.259945,-44.581085,41.365852,-44.621613C41.476238,-44.664032,41.652214,-44.610962,41.778248,-44.496552C42.010967,-44.285919,42.244102,-44.342499,42.244102,-44.609619C42.244102,-44.841095,42.470638,-44.946533,42.905098,-44.917328C43.114357,-44.903198,43.285572,-44.944672,43.285572,-45.009613C43.285572,-45.074432,43.465969,-45.202759,43.686466,-45.294891C43.948200,-45.404205,44.113232,-45.565460,44.161888,-45.759308C44.244644,-46.089111,44.457474,-46.143799,44.668484,-45.889557C44.855236,-45.664551,45.170971,-45.798370,45.099365,-46.072235C45.049446,-46.263092,45.115700,-46.287720,45.679470,-46.287720C46.218597,-46.287720,46.325176,-46.323212,46.376446,-46.519165C46.423416,-46.698853,46.534286,-46.750610,46.872177,-46.750610C47.117859,-46.750610,47.370125,-46.826202,47.451443,-46.924194C47.654236,-47.168579,48.063759,-47.139923,48.232601,-46.869537C48.397049,-46.606201,48.746284,-46.677521,48.711426,-46.967285C48.698895,-47.070892,48.722893,-47.246704,48.764442,-47.358063C48.806026,-47.469391,48.864483,-47.638672,48.894310,-47.734161C48.931896,-47.854584,49.107403,-47.907745,49.467155,-47.907745C49.778713,-47.907745,50.022713,-47.970001,50.078304,-48.063477C50.249100,-48.350861,50.900635,-48.386871,51.416943,-48.137329C51.873108,-47.916962,52.387749,-47.922363,52.249458,-48.146637C52.213364,-48.204926,52.254791,-48.225708,52.340645,-48.192505C52.520214,-48.123566,53.493542,-48.527069,53.675354,-48.745758C53.751312,-48.837128,54.091911,-48.891754,54.585674,-48.891754C55.332176,-48.891754,55.382843,-48.874542,55.527374,-48.573517C55.711082,-48.190796,55.806892,-48.174957,55.958282,-48.502319C56.046318,-48.692657,56.187096,-48.754181,56.572327,-48.770660C57.007278,-48.789185,57.063599,-48.764008,57.006271,-48.581573C56.787918,-47.883911,56.784523,-47.908234,57.100487,-47.908234C57.343536,-47.908234,57.403282,-47.963287,57.403282,-48.187897C57.403282,-48.341705,57.338203,-48.495850,57.258629,-48.530487C57.179070,-48.565155,57.252769,-48.564850,57.422188,-48.530121C57.640205,-48.485321,57.801033,-48.536774,57.971855,-48.708252C58.104652,-48.841064,58.213310,-48.917267,58.213310,-48.877686C58.213310,-48.838104,58.291435,-48.871002,58.386887,-48.949677C58.612305,-49.136749,58.608391,-49.296844,58.378487,-49.296844C58.143242,-49.296844,58.206718,-49.636383,58.473366,-49.804321C58.622932,-49.898590,58.735329,-49.894196,58.905739,-49.787811C59.155106,-49.632080,59.842110,-49.589233,59.819756,-49.730743C59.812286,-49.778473,59.812286,-49.912323,59.819756,-50.028107C59.841270,-50.359039,60.323639,-50.224121,60.509521,-49.835114C60.623924,-49.595703,60.701805,-49.540283,60.794113,-49.632599C61.016510,-49.855011,61.320244,-49.770020,61.477219,-49.441498C61.565529,-49.256683,61.741844,-49.107269,61.897804,-49.085052C62.245041,-49.035736,62.610703,-48.667358,62.610703,-48.366974C62.610703,-48.237518,62.696312,-48.000824,62.800972,-47.841064C62.947502,-47.617432,63.073181,-47.558502,63.347656,-47.584747C63.660622,-47.614746,63.711479,-47.578094,63.764908,-47.282593C63.819656,-46.979980,63.877739,-46.941498,64.345306,-46.898041C64.961006,-46.840820,65.003784,-46.811646,64.811684,-46.580170C64.684685,-46.427124,64.726585,-46.403778,65.128174,-46.403778C65.689407,-46.403778,65.881203,-46.203400,65.834862,-45.665527C65.813683,-45.419922,65.871864,-45.180756,65.983986,-45.052216C66.085075,-44.936310,66.145164,-44.779327,66.117523,-44.703278C66.018852,-44.431915,66.317726,-44.099091,66.729362,-44.021851C67.221718,-43.929443,67.317131,-43.738373,67.161652,-43.155853C67.097755,-42.916504,67.082436,-42.651093,67.127609,-42.566040C67.313408,-42.216064,67.330032,-41.303467,67.153786,-41.127228C66.909714,-40.883179,67.035454,-40.239960,67.405190,-39.841248C67.707047,-39.515717,67.796791,-39.069763,67.586586,-38.939850C67.522957,-38.900391,67.470879,-38.655853,67.470879,-38.396118C67.470879,-37.842987,67.694359,-37.618256,68.249779,-37.612762C68.548256,-37.610107,68.637970,-37.552094,68.694611,-37.326385C68.790504,-36.944305,68.666008,-36.780121,68.298363,-36.803802C67.669960,-36.844330,67.606110,-36.774200,67.503670,-35.931183C67.472694,-35.676605,67.357208,-35.312073,67.246956,-35.121155C67.136696,-34.930206,67.065918,-34.691986,67.089668,-34.591766C67.113419,-34.491486,67.025444,-34.158844,66.894081,-33.852448C66.675079,-33.341553,66.670128,-33.272736,66.834320,-33.022156C66.932785,-32.871857,67.064217,-32.748932,67.126389,-32.748932C67.188576,-32.748932,67.239441,-32.665070,67.239441,-32.562469C67.239441,-32.410431,67.161110,-32.390717,66.815117,-32.455536C66.166252,-32.577240,65.637955,-32.281158,65.163536,-31.529877C64.847130,-31.028809,64.687172,-30.884888,64.383194,-30.827881C63.856544,-30.729095,63.460518,-30.849487,63.156929,-31.200714C62.789009,-31.626373,62.364334,-31.816101,61.600708,-31.895905C60.429451,-32.018311,59.868393,-31.615906,59.667900,-30.509613C59.529022,-29.743256,59.274818,-29.350311,58.782120,-29.140350C58.386696,-28.971832,58.272453,-28.831329,57.935326,-28.098877C57.489044,-27.129272,56.756859,-25.203888,56.658134,-24.740295C56.609253,-24.510895,56.459007,-24.368500,56.096748,-24.208252C55.353844,-23.879608,54.626110,-22.882324,54.626110,-22.192871C54.626110,-21.967682,54.632645,-21.967896,55.037743,-22.207001C55.549026,-22.508698,56.598831,-22.543549,56.874359,-22.268097C57.461945,-21.680511,56.462776,-20.198242,55.831993,-20.721771C55.738487,-20.799347,55.633911,-20.834808,55.599602,-20.800446C55.466560,-20.667389,55.212379,-19.488129,55.274239,-19.291016C55.310120,-19.176605,55.290245,-19.020355,55.230019,-18.943848C55.169792,-18.867462,55.086693,-18.423828,55.045364,-17.958221C54.960526,-17.002411,54.685253,-16.368256,54.102001,-15.785004C53.746212,-15.429199,53.722160,-15.363007,53.833092,-15.044800C53.982117,-14.617279,54.421730,-14.472198,54.846176,-14.710449C55.047470,-14.823395,55.198151,-15.067871,55.324097,-15.485718C55.461739,-15.942352,55.605522,-16.160187,55.895317,-16.351044C56.108315,-16.491302,56.417595,-16.696960,56.582603,-16.808014C56.952873,-17.057190,57.171913,-17.067047,57.171913,-16.834534C57.171913,-16.676300,57.207268,-16.676300,57.513321,-16.834534C57.894066,-17.031433,58.169182,-17.060486,58.260078,-16.913483C58.397858,-16.690521,57.572884,-15.025177,56.961357,-14.291748C56.802155,-14.100800,56.504402,-13.580078,56.299675,-13.134552C56.094948,-12.689026,55.761597,-12.152374,55.558876,-11.941925C55.140076,-11.507263,55.124420,-11.127533,55.519310,-10.982452C55.736656,-10.902588,55.842621,-10.971802,56.209534,-11.432770C56.447929,-11.732269,57.174812,-12.529633,57.824806,-13.204590C59.059547,-14.486755,59.028023,-14.427826,59.200394,-15.776581C59.245071,-16.126251,59.549156,-16.884827,60.012131,-17.801666C60.601105,-18.968018,60.899635,-19.414734,61.472786,-19.987488C62.193794,-20.707977,62.391777,-20.822815,62.157181,-20.384491C62.003883,-20.098053,61.992134,-18.740662,62.139793,-18.376251C62.199036,-18.230072,62.278145,-17.967255,62.315582,-17.792206C62.491356,-16.970490,63.652153,-17.874207,63.652153,-18.832916C63.652153,-19.210236,63.803101,-19.429657,64.255127,-19.709381C64.599854,-19.922699,64.872017,-20.680084,64.761780,-21.119293C64.726128,-21.261383,64.508186,-21.652039,64.277489,-21.987396C63.868050,-22.582642,63.858261,-22.622345,63.867363,-23.651825C63.872429,-24.231842,63.780975,-25.227142,63.663986,-25.863617C63.546997,-26.500061,63.477379,-27.089447,63.509270,-27.173309C63.541161,-27.257172,63.573341,-27.673798,63.580780,-28.099091L63.594299,-28.872284L64.570564,-29.364075C65.132256,-29.647064,65.709518,-29.855896,65.929924,-29.855896C66.199898,-29.855896,66.441261,-29.969635,66.747299,-30.241150C67.407097,-30.826447,68.448311,-31.475983,68.726830,-31.475983C69.033737,-31.475983,69.045883,-31.178467,68.800056,-29.682312C68.546890,-28.141479,68.576897,-26.039307,68.872406,-24.613281C69.074272,-23.639069,69.093025,-23.368561,68.980232,-23.056641C68.870995,-22.754547,68.877930,-22.558014,69.014946,-22.072723C69.109116,-21.739166,69.220398,-21.231964,69.262245,-20.945557C69.304100,-20.659149,69.408226,-20.190491,69.493690,-19.904083C69.740685,-19.076233,69.807724,-18.392670,69.659416,-18.213959C69.473465,-17.989899,69.632912,-16.555054,69.853127,-16.470551C69.943092,-16.436005,70.016701,-16.282379,70.016701,-16.129150C70.016701,-15.765656,70.521027,-15.458557,71.402824,-15.285065C72.071487,-15.153473,72.276314,-15.027069,72.350487,-14.700043C72.376732,-14.584198,72.261147,-14.511078,71.985229,-14.469025C71.516396,-14.397552,71.394691,-14.102417,71.696510,-13.768951C71.858047,-13.590424,71.931709,-13.576752,72.118080,-13.690826C72.304619,-13.804962,72.363930,-13.793732,72.458961,-13.626434C72.534637,-13.493225,72.714539,-13.423920,72.984718,-13.423920C73.210609,-13.423920,73.559517,-13.349396,73.760071,-13.258209C74.306252,-13.010071,75.820229,-12.382416,75.872612,-12.382416C76.038582,-12.382416,75.867279,-12.754791,75.621834,-12.926697C75.458748,-13.041107,75.185356,-13.244385,75.014305,-13.378571C74.843254,-13.512756,74.508034,-13.692444,74.269363,-13.777924C73.986290,-13.879242,73.835419,-14.005646,73.835419,-14.141449C73.835419,-14.411285,74.125618,-14.408844,74.967323,-14.132111C75.840836,-13.844757,77.466248,-13.936310,77.722931,-14.287354C77.851021,-14.462524,78.024223,-14.507721,78.550629,-14.503296C79.737343,-14.492645,80.466583,-14.343842,80.786995,-14.044952C81.067299,-13.783417,81.890648,-13.308350,82.063530,-13.308350C82.106880,-13.308350,82.173004,-13.388214,82.210419,-13.485626C82.256538,-13.605774,82.176697,-13.701630,81.962646,-13.782990C81.570503,-13.932098,81.241402,-14.222137,81.241402,-14.418640C81.241402,-14.506897,81.417732,-14.581879,81.675354,-14.603210C82.239571,-14.649872,82.233162,-14.863007,81.655670,-15.256134C80.708099,-15.901123,81.162575,-16.050995,82.346397,-15.483917C83.008644,-15.166656,83.106621,-14.971893,82.684692,-14.811493C82.426392,-14.713379,82.397667,-14.663910,82.515877,-14.521484C82.594238,-14.427094,82.798225,-14.349823,82.969215,-14.349823C83.381622,-14.349823,83.706841,-14.098938,83.654167,-13.821442C83.622673,-13.655396,83.498314,-13.588287,83.172455,-13.561371L82.733223,-13.525085L83.028770,-13.292633C83.391029,-13.007660,83.412903,-12.729767,83.073051,-12.729767C82.934868,-12.729767,82.730896,-12.647491,82.619804,-12.546967C82.457787,-12.400360,82.368309,-12.390656,82.167694,-12.498047C82.030144,-12.571655,81.848236,-12.605255,81.763481,-12.572723C81.678719,-12.540192,81.421135,-12.571686,81.191078,-12.641907C80.256142,-12.928864,80.331245,-12.128876,81.290039,-11.587769C81.635765,-11.392639,82.083534,-11.027802,82.285095,-10.776978C82.486656,-10.526184,82.750854,-10.295013,82.872215,-10.263275C82.993568,-10.231537,83.092865,-10.148590,83.092865,-10.079010C83.092865,-9.895233,82.737556,-9.923981,82.514557,-10.125824C82.409218,-10.221161,82.073158,-10.345795,81.767738,-10.402863C81.015480,-10.543427,80.489189,-11.061615,80.489189,-11.661804C80.489189,-11.968201,80.438866,-12.093292,80.315613,-12.093292C80.214508,-12.093292,80.156227,-12.008759,80.176033,-11.890778C80.212456,-11.673889,79.916878,-11.606598,79.794868,-11.803986C79.674072,-11.999451,79.420189,-11.932526,79.356323,-11.688263C79.312225,-11.519745,79.198486,-11.456818,78.937813,-11.456818C78.389259,-11.456818,78.507263,-11.221375,79.335663,-10.662994C79.819519,-10.336884,80.084167,-10.080261,80.084167,-9.937256C80.084167,-9.815643,80.203499,-9.661713,80.349342,-9.595245C80.569191,-9.495087,80.606346,-9.404388,80.566689,-9.064789C80.529625,-8.747314,80.430939,-8.603241,80.128090,-8.424591L79.737328,-8.194031L79.935783,-7.858063C80.044945,-7.673248,80.231773,-7.491119,80.350975,-7.453278C80.470184,-7.415436,80.808327,-7.278046,81.102425,-7.147980L81.637146,-6.911469L81.005302,-6.712158L80.373466,-6.512848L80.943367,-6.251068C81.410149,-6.036652,81.633980,-6.001923,82.180305,-6.059021C82.703369,-6.113678,82.955009,-6.079803,83.346184,-5.902374C83.620537,-5.777832,83.956390,-5.674835,84.092506,-5.673431C84.441933,-5.670746,84.584534,-4.935089,84.297371,-4.617798C84.187958,-4.496857,84.028404,-4.397980,83.942802,-4.397980C83.857201,-4.397980,83.787163,-4.351837,83.787163,-4.295441C83.787163,-4.095215,84.497162,-4.088470,84.865540,-4.284790C85.067993,-4.392914,85.585274,-4.518768,86.015045,-4.564484C86.708984,-4.638336,86.806145,-4.623810,86.882935,-4.435822C86.942963,-4.288818,87.090309,-4.224060,87.364784,-4.224060C87.791435,-4.224060,87.983063,-3.983429,87.656288,-3.858063C87.546143,-3.815796,87.311607,-3.835663,87.135094,-3.902313C86.848450,-4.010468,86.807045,-3.995117,86.747627,-3.758423C86.711029,-3.612671,86.647491,-3.405792,86.606392,-3.298676C86.539711,-3.124908,86.601860,-3.112762,87.183075,-3.185333C87.725029,-3.253082,87.846504,-3.235352,87.906128,-3.080017C87.959663,-2.940491,88.133789,-2.893280,88.595024,-2.893280C88.934509,-2.893280,89.240242,-2.847961,89.274437,-2.792633C89.308601,-2.737274,89.806396,-2.655243,90.380562,-2.610352C91.368050,-2.533020,91.428459,-2.513031,91.497169,-2.239227C91.571373,-1.943573,91.642906,-1.936279,92.367058,-2.150421C92.471718,-2.181335,92.637093,-2.126953,92.734535,-2.029480C92.833504,-1.930542,93.004906,-1.882446,93.122810,-1.920563C93.277092,-1.970551,93.258965,-1.927216,93.055489,-1.761444C92.737114,-1.501434,92.790276,-1.157288,93.148834,-1.157288C93.350677,-1.157288,93.500023,-1.318268,93.912514,-1.980530C93.976143,-2.082672,94.127495,-2.316803,94.248802,-2.500763C94.370117,-2.684692,94.593391,-3.032349,94.744972,-3.273285C95.025978,-3.719940,95.243279,-3.752991,95.243279,-3.349152C95.243279,-2.998627,95.445946,-3.083588,95.746819,-3.560181C96.219734,-4.309326,96.341644,-4.360535,96.828156,-4.014374C97.294746,-3.682404,97.452438,-3.695770,97.357384,-4.059326C97.288246,-4.323669,96.844749,-4.543213,96.582855,-4.442719C96.478447,-4.402557,96.352394,-4.501251,96.245728,-4.706329C96.152039,-4.886505,95.938072,-5.152618,95.770287,-5.297638C95.406395,-5.612213,95.486397,-5.891785,95.861816,-5.617523C96.567558,-5.102020,96.998589,-5.098999,96.515739,-5.612213C96.319435,-5.821167,96.291573,-5.901031,96.414986,-5.901031C96.508820,-5.901031,96.644585,-5.841980,96.716675,-5.769989C96.788765,-5.697845,96.935005,-5.672394,97.041656,-5.713318C97.220695,-5.782135,97.221291,-5.809448,97.049385,-6.071777C96.947029,-6.227997,96.863274,-6.484772,96.863274,-6.642365C96.863274,-6.799957,96.811180,-6.961090,96.747551,-7.000397C96.464073,-7.175598,96.689545,-7.281647,97.412933,-7.313354L98.194031,-7.347626L98.314026,-7.973633C98.417740,-8.514679,98.484985,-8.623749,98.809486,-8.777466C99.072212,-8.901886,99.163147,-9.009247,99.112335,-9.135071C99.072426,-9.234009,99.013130,-9.379944,98.980568,-9.459503C98.941078,-9.556030,99.036110,-9.604156,99.266792,-9.604156C99.657501,-9.604156,99.903381,-9.832245,99.850052,-10.145233C99.799690,-10.440308,100.288971,-10.491547,100.586441,-10.222290C100.760941,-10.064362,100.803772,-9.917908,100.757973,-9.635712C100.709839,-9.339447,100.749832,-9.222473,100.946640,-9.084717C101.083969,-8.988586,101.307907,-8.909821,101.444283,-8.909821C101.580643,-8.909821,101.833145,-8.799042,102.005379,-8.663483C102.224686,-8.490997,102.355072,-8.453705,102.440407,-8.539093C102.525795,-8.624420,102.679970,-8.604828,102.955048,-8.473755L103.347816,-8.286469L103.924255,-8.854218C104.241280,-9.166504,104.500679,-9.498383,104.500679,-9.591705C104.500679,-10.120911,105.070816,-11.439758,105.512207,-11.931549C105.779236,-12.229095,105.941238,-12.579102,106.074631,-13.146606C106.177689,-13.585052,106.406494,-14.334290,106.583084,-14.811615C107.138504,-16.312958,107.625092,-17.776764,107.625092,-17.946350C107.625092,-18.036102,107.885468,-18.630341,108.203690,-19.266815C108.521912,-19.903259,108.783424,-20.580200,108.784821,-20.771149C108.788818,-21.280518,109.130692,-21.939758,109.865891,-22.854095C110.963745,-24.219421,110.943832,-24.124054,110.650635,-26.614929C110.586960,-27.155914,110.497971,-27.989105,110.452888,-28.466431C110.359169,-29.458557,110.269180,-29.623627,109.821960,-29.623627C109.627167,-29.623627,109.466949,-29.703094,109.413673,-29.826141C109.365448,-29.937469,109.287613,-30.679535,109.240723,-31.475128C109.141609,-33.155609,108.790138,-34.427521,108.229187,-35.135101C107.936348,-35.504486,107.277939,-37.161011,107.277939,-37.528412C107.277939,-37.583466,107.097778,-38.038361,106.877571,-38.539185C106.657364,-39.040009,106.446785,-39.725403,106.409607,-40.062256C106.372444,-40.399139,106.261429,-40.962677,106.162941,-41.314575L105.983871,-41.954437L106.407394,-43.166107C107.511414,-46.324463,107.649574,-47.221680,107.230911,-48.513306C106.871552,-49.622040,106.758705,-49.563721,106.598648,-48.186737C106.447731,-46.888458,106.317429,-46.402832,106.119995,-46.402832C105.964462,-46.402832,105.947357,-46.462555,105.713943,-47.822754C105.554703,-48.750702,105.454498,-49.035767,105.154968,-49.412994C104.954239,-49.665771,104.672256,-50.025146,104.528358,-50.211578C104.378304,-50.405975,104.032806,-50.631836,103.718330,-50.741180C103.416718,-50.845978,102.799866,-51.110474,102.347565,-51.328857C101.693726,-51.644531,101.384010,-51.725922,100.836403,-51.725922C99.856995,-51.725922,99.757240,-51.833496,99.616310,-53.042725L99.498016,-54.057495L99.819687,-54.393280C99.996620,-54.577911,100.454071,-54.951569,100.836250,-55.223602C101.898224,-55.979462,102.365517,-56.422272,103.494980,-57.743256C104.066383,-58.411530,104.856331,-59.254486,105.250404,-59.616455C105.644485,-59.978424,106.161865,-60.557648,106.400124,-60.903656C106.638397,-61.249603,106.971329,-61.604340,107.140015,-61.691925C107.704689,-61.985321,108.710037,-62.602386,108.775452,-62.695770C108.810982,-62.746552,109.006470,-62.904266,109.209755,-63.046234C109.596527,-63.316254,111.009171,-64.959625,111.634979,-65.867554C111.893112,-66.242065,112.129852,-66.438934,112.445015,-66.541138C112.689926,-66.620605,113.608795,-67.019928,114.486923,-67.428680C115.616371,-67.954346,116.190559,-68.161285,116.449295,-68.135895C116.758125,-68.105621,117.211899,-67.683105,119.365692,-65.420288C121.734711,-62.931396,122.981918,-61.596436,124.345123,-60.090454C124.645630,-59.758453,124.984543,-59.457367,125.098236,-59.421234C125.211960,-59.385223,125.904877,-58.667358,126.638062,-57.826172C127.371246,-56.984985,128.144989,-56.139374,128.357468,-55.947021C128.569931,-55.754669,129.420715,-54.849487,130.248108,-53.935455C131.075485,-53.021454,132.643234,-51.356232,133.732010,-50.235016C134.820770,-49.113800,135.966385,-47.914093,136.277802,-47.569061C136.945557,-46.829224,138.576889,-45.099121,140.212051,-43.396576C140.855194,-42.726929,141.817001,-41.710358,142.349396,-41.137573C143.918335,-39.449524,145.367645,-38.057831,145.508011,-38.104553C145.775345,-38.193481,145.698761,-38.530853,145.313828,-38.959839C145.095703,-39.202911,144.881912,-39.515411,144.838715,-39.654266C144.795517,-39.793121,144.533813,-40.039398,144.257095,-40.201569C143.980377,-40.363770,143.406189,-40.916840,142.981110,-41.430634C142.556030,-41.944427,141.495987,-43.089508,140.625458,-43.975220C139.754959,-44.860931,138.782349,-45.881317,138.464127,-46.242767C137.842651,-46.948578,137.355652,-47.450104,136.545456,-48.218719C136.264175,-48.485565,135.643463,-49.157013,135.166138,-49.710846C134.688782,-50.264679,134.060913,-50.957642,133.770844,-51.250732C133.480804,-51.543854,133.074493,-52.031372,132.867950,-52.334106C132.652832,-52.649445,132.297363,-52.984039,132.035645,-53.117554C131.784409,-53.245697,131.578857,-53.392731,131.578857,-53.444244C131.578857,-53.495728,131.303833,-53.846191,130.967712,-54.222992C130.631592,-54.599823,130.264343,-55.053619,130.151642,-55.231476C130.038971,-55.409332,129.819214,-55.603363,129.663437,-55.662567C129.507660,-55.721771,129.380188,-55.848297,129.380188,-55.943726C129.380188,-56.039185,129.229523,-56.195099,129.045349,-56.290375C128.809723,-56.412231,128.679840,-56.593048,128.607132,-56.900513C128.523407,-57.254791,128.381348,-57.418488,127.856323,-57.765961C127.500198,-58.001587,127.085541,-58.359253,126.934830,-58.560699C126.784119,-58.762177,126.512146,-59.064209,126.330429,-59.231934C125.522110,-59.977936,124.503387,-61.090546,123.980499,-61.798340C123.720703,-62.149994,123.306229,-62.608917,123.059418,-62.818237C122.161407,-63.579681,121.627045,-64.129883,121.627045,-64.293060C121.627045,-64.384766,121.502609,-64.516571,121.350510,-64.585846C121.198425,-64.655182,121.018906,-64.832672,120.951614,-64.980377C120.884293,-65.128082,120.672653,-65.364716,120.481232,-65.506226C120.289841,-65.647736,120.100296,-65.913483,120.060043,-66.096771C120.019745,-66.280029,119.853271,-66.517487,119.689972,-66.624512C119.355850,-66.843475,117.923805,-68.263275,117.924469,-68.374908C117.924469,-68.414795,118.025696,-68.612457,118.148804,-68.814453C118.398941,-69.224701,119.499664,-69.795258,121.684891,-70.647430C122.935318,-71.135040,123.421860,-71.372223,125.272171,-72.396393C126.216827,-72.919281,126.737762,-73.247711,128.535187,-74.453735C129.890289,-75.362946,130.581360,-75.810455,131.349411,-76.276154C132.084824,-76.722046,132.819763,-77.249512,133.756866,-78.003937C134.582901,-78.668976,134.835159,-78.804047,135.251083,-78.804047C135.922073,-78.804047,136.042648,-79.331451,135.573212,-80.213257C135.322800,-80.683685,135.276276,-80.957733,135.209854,-82.353149L135.133728,-83.953522L135.722626,-85.110718C136.126678,-85.904663,136.347244,-86.503998,136.425293,-87.020050C136.487823,-87.433746,136.615143,-88.068085,136.708191,-88.429688C136.801117,-88.791290,136.914032,-89.403168,136.958862,-89.789398L137.040466,-90.491669L134.938889,-90.491669C133.006683,-90.491669,132.838959,-90.475250,132.857910,-90.289154C132.869919,-90.177826,132.872589,-89.967651,132.864578,-89.822235C132.852570,-89.597137,132.817780,-89.575714,132.625870,-89.678375C132.501862,-89.744659,132.308411,-89.954834,132.195892,-90.145355C132.027161,-90.431000,131.916107,-90.491669,131.561890,-90.491669C131.251862,-90.491669,131.122040,-90.437653,131.095032,-90.297394C131.059967,-90.115570,131.045288,-90.115570,130.863358,-90.297394C130.622406,-90.538361,129.207886,-90.578156,129.100021,-90.347015C129.046021,-90.231293,129.018951,-90.231293,128.965027,-90.347015C128.912628,-90.459259,127.840408,-90.491669,124.177734,-90.491669L119.457977,-90.491669L119.396133,-89.942719C119.362122,-89.640778,119.381302,-89.305878,119.438782,-89.198456C119.496353,-89.090698,119.502136,-88.804901,119.451447,-88.561279C119.382904,-88.231232,119.302383,-88.119415,119.133377,-88.119415C118.959991,-88.119415,118.870361,-88.254639,118.749786,-88.698029C118.482697,-89.680206,118.465736,-89.970245,118.665710,-90.136200C118.766724,-90.219940,118.849319,-90.334259,118.849319,-90.390137C118.849319,-90.446014,117.970016,-90.491730,116.895294,-90.491730L114.941269,-90.491730L114.754982,-90.115631C114.508530,-89.618073,114.321747,-89.394287,114.075935,-89.302094C113.803299,-89.199829,113.812912,-89.453888,114.102142,-89.993500C114.363358,-90.480865,114.341164,-90.564423,113.999115,-90.381348C113.838760,-90.295624,113.757751,-90.292389,113.757751,-90.372040C113.757751,-90.454315,104.801094,-90.491791,85.176384,-90.491791L56.595451,-90.491791L56.660057,-87.974884C56.771378,-83.640045,56.765327,-83.720215,56.980453,-83.738281C57.085640,-83.747589,57.171707,-83.708008,57.171707,-83.651489C57.171707,-83.594971,57.087959,-83.548706,56.985588,-83.548706C56.842926,-83.548706,56.817101,-83.478424,56.874992,-83.247803C56.955101,-82.928680,57.392464,-82.275787,57.526161,-82.275787C57.640869,-82.275787,57.750313,-82.908051,57.750313,-83.570801C57.750313,-84.157349,57.919624,-84.642242,58.088066,-84.538116C58.248741,-84.438812,58.335655,-83.590332,58.394341,-81.548096L58.450706,-79.587189L58.001488,-78.761749C57.754417,-78.307739,57.518158,-77.806152,57.476463,-77.647003C57.392601,-77.326935,56.868095,-76.639160,56.777199,-76.730072C56.627739,-76.879517,56.475777,-79.146088,56.428658,-81.928589C56.296173,-89.750702,56.292610,-89.850494,56.133812,-90.173553C55.978981,-90.488525,55.965836,-90.491730,54.838783,-90.491730C53.600464,-90.491730,53.617905,-90.503754,53.831604,-89.790619C53.903885,-89.549316,53.929314,-89.264038,53.888084,-89.156616C53.759926,-88.822632,53.494865,-89.171967,53.351158,-89.864166L53.220879,-90.491791L48.780777,-90.491791L44.340675,-90.491791L44.506680,-90.173553C44.597988,-89.998535,44.673000,-89.790253,44.673393,-89.710693C44.674713,-89.487030,45.077370,-89.539795,45.307190,-89.793732C45.466019,-89.969238,45.562996,-89.994843,45.730141,-89.905365C45.959427,-89.782684,46.027431,-89.282227,45.831284,-89.161011C45.767654,-89.121552,45.715576,-88.965454,45.715576,-88.813843C45.715576,-88.662262,45.660473,-88.504150,45.593086,-88.462524C45.521248,-88.418121,45.502365,-88.242157,45.547421,-88.036957C45.605804,-87.770996,45.586647,-87.699493,45.467392,-87.738800C45.381126,-87.767212,45.293907,-87.903595,45.273567,-88.041840C45.253231,-88.180054,45.163925,-88.293121,45.075127,-88.293121C44.874985,-88.293121,44.635849,-87.870026,44.740395,-87.700836C44.782784,-87.632324,44.833191,-87.360016,44.852486,-87.095734C44.871777,-86.831451,44.946056,-86.341705,45.017555,-86.007446C45.145275,-85.410248,45.140926,-85.391479,44.766159,-84.925049L44.384796,-84.450409L44.375595,-81.077637C44.370262,-79.222626,44.327969,-77.570068,44.280941,-77.405304C44.220329,-77.192780,44.270409,-76.962036,44.453270,-76.611115C44.675613,-76.184540,44.692619,-76.065430,44.576855,-75.745331C44.503029,-75.541138,44.442623,-75.180908,44.442623,-74.944733C44.442623,-74.167633,43.944038,-74.263916,43.504261,-75.125946C43.140530,-75.838898,43.046841,-76.532959,43.020710,-78.708130C42.997551,-80.632813,42.981281,-80.768646,42.743477,-81.022491C42.216442,-81.584991,42.051182,-82.661255,42.474819,-82.772064C42.601795,-82.805267,42.739063,-82.919434,42.779858,-83.025757C42.863808,-83.244507,42.465065,-84.083374,42.296177,-84.043365C42.235615,-84.028961,42.160069,-83.768646,42.128242,-83.464752L42.070377,-82.912262L41.902702,-83.417725C41.756279,-83.859131,41.756279,-83.939789,41.902702,-84.054199C42.050236,-84.169403,42.085533,-84.408356,42.028904,-84.908447C41.994396,-85.213165,41.781078,-85.035767,41.781078,-84.702301C41.781078,-84.262054,41.549431,-84.165405,41.125050,-84.428680C40.661411,-84.716278,40.508175,-84.933838,40.508175,-85.304443C40.508175,-85.549683,40.575672,-85.644196,40.788960,-85.697754C40.943382,-85.736572,41.159748,-85.867676,41.269768,-85.989258C41.379784,-86.110840,41.570011,-86.210297,41.692493,-86.210297C41.874165,-86.210297,41.903118,-86.151733,41.849693,-85.892090C41.792747,-85.615387,41.836494,-85.549561,42.184536,-85.387543C42.404728,-85.285004,42.612316,-85.228638,42.645851,-85.262207C42.770893,-85.387299,42.700108,-85.724976,42.492794,-85.992218C42.375072,-86.144012,42.279610,-86.437469,42.280643,-86.644287C42.281963,-86.851166,42.247707,-87.055176,42.205204,-87.097687C42.085537,-87.217438,41.532398,-86.877716,41.410210,-86.609528C41.289024,-86.343536,40.330425,-85.770905,40.209251,-85.892090C40.060047,-86.041290,40.278088,-86.338409,40.651188,-86.494354C41.211277,-86.728394,41.665356,-87.123138,41.665356,-87.375946C41.665356,-87.624725,41.436352,-87.670868,41.229336,-87.463776C41.085087,-87.319550,40.314781,-87.024994,40.074223,-87.022095C39.803951,-87.019409,39.928333,-87.254852,40.537090,-87.900421C41.273258,-88.681122,41.750179,-88.971283,41.853722,-88.701416C41.891376,-88.603271,41.888096,-88.341064,41.846386,-88.118774C41.788586,-87.810791,41.809788,-87.714630,41.935360,-87.714630C42.120457,-87.714630,42.312691,-88.135162,42.426414,-88.788910C42.505974,-89.246246,43.244011,-90.253021,43.604343,-90.395660C43.739254,-90.449127,43.669994,-90.478363,43.395336,-90.483673C43.169395,-90.489014,42.915539,-90.426758,42.831203,-90.347168C42.708549,-90.231445,42.667274,-90.231445,42.624840,-90.347168C42.548923,-90.554199,41.896778,-90.534424,41.896778,-90.325043C41.896778,-90.030487,41.668186,-90.004364,41.249905,-90.251190C40.929836,-90.440033,40.645794,-90.491821,39.929783,-90.491821C39.428005,-90.491821,38.985294,-90.439697,38.945957,-90.376099C38.906597,-90.312378,38.822369,-90.260376,38.758720,-90.260376C38.695091,-90.260376,38.675190,-90.312500,38.714497,-90.376099C38.761467,-90.452118,37.781612,-90.489960,35.857292,-90.486481L32.928566,-90.481171L31.887096,-89.735138L31.886890,-89.735474z"/>
            <path style="stroke:#808080;stroke-width:0.05mm;fill:none" d="M40.617149,-89.809845C40.771793,-89.520905,40.441280,-89.186401,40.269447,-89.457977C40.107784,-89.713470,40.141407,-90.029144,40.330257,-90.029144C40.423485,-90.029144,40.552578,-89.930450,40.617130,-89.809845L40.617149,-89.809845z"/>
            <path style="stroke:#808080;stroke-width:0.05mm;fill:none" d="M131.535751,-89.537231C131.671341,-89.266815,131.950348,-88.723907,132.155746,-88.330811C132.361176,-87.937714,132.505554,-87.547150,132.476624,-87.462921C132.408356,-87.264313,131.727798,-88.328217,131.555801,-88.902252C131.484070,-89.141693,131.355652,-89.395416,131.270493,-89.466095C131.106750,-89.602020,131.055084,-90.029205,131.202484,-90.029083C131.250214,-90.029053,131.400208,-89.807739,131.535797,-89.537262L131.535751,-89.537231z"/>
            <path style="stroke:#808080;stroke-width:0.05mm;fill:none" d="M40.086906,-89.045532C40.158028,-88.860229,40.060535,-88.828888,39.765224,-88.942169C39.512012,-89.039398,39.535389,-89.219116,39.801243,-89.219116C39.921719,-89.219116,40.050270,-89.140991,40.086906,-89.045532z"/>
            <path style="stroke:#808080;stroke-width:0.05mm;fill:none" d="M133.314301,-89.031250C133.314301,-88.877472,133.282974,-88.869598,133.140732,-88.987518C133.045258,-89.066681,132.967148,-89.151245,132.967148,-89.175262C132.967148,-89.199249,133.045288,-89.218872,133.140732,-89.218872C133.236206,-89.218872,133.314301,-89.134369,133.314301,-89.031128L133.314301,-89.031250z"/>
            <path style="stroke:#808080;stroke-width:0.05mm;fill:none" d="M129.343216,-88.618683C129.306274,-88.526398,129.278809,-88.553741,129.273224,-88.688690C129.267883,-88.810669,129.295624,-88.879028,129.334015,-88.840576C129.372559,-88.802032,129.376556,-88.702301,129.343353,-88.618774L129.343216,-88.618683z"/>
            <path style="stroke:#808080;stroke-width:0.05mm;fill:none" d="M130.725372,-88.485077C130.770172,-88.347748,130.798584,-87.818817,130.788574,-87.309662C130.777908,-86.800507,130.827240,-86.211151,130.896713,-86.000031C131.016174,-85.636841,130.969788,-85.391754,130.811646,-85.549957C130.645111,-85.716522,130.168579,-88.290649,130.245621,-88.607391C130.321625,-88.919403,130.607529,-88.846466,130.725357,-88.484985L130.725372,-88.485077z"/>
            <path style="stroke:#808080;stroke-width:0.05mm;fill:none" d="M53.796577,-88.437988C54.022583,-87.861603,54.284508,-85.964813,54.213844,-85.416229C54.156578,-84.971710,54.217842,-84.692169,54.568829,-83.787506C54.913658,-82.899536,54.978592,-82.607513,54.916206,-82.225311C54.776054,-81.366730,54.831367,-80.264252,55.073296,-79.093719C55.346481,-77.771973,55.446274,-76.017242,55.252136,-75.948975C55.183029,-75.924713,54.955460,-76.257813,54.746437,-76.689209C54.537422,-77.120636,54.264023,-77.670929,54.138908,-77.912109C53.963329,-78.250519,53.902489,-78.639313,53.872311,-79.615753C53.850792,-80.311615,53.799019,-80.936249,53.757244,-81.003815C53.659283,-81.162323,53.466183,-84.203400,53.391731,-86.760040C53.342194,-88.460236,53.358665,-88.756195,53.502701,-88.756195C53.595703,-88.756195,53.727951,-88.613007,53.796581,-88.437988L53.796577,-88.437988z"/>
            <path style="stroke:#808080;stroke-width:0.05mm;fill:none" d="M113.535591,-88.340118C113.648720,-88.203827,113.803207,-88.173798,114.125862,-88.225342C114.552094,-88.293457,114.560211,-88.288116,114.454292,-88.009552C114.394592,-87.852448,114.243835,-87.622070,114.119354,-87.497559C113.807602,-87.185822,113.006805,-87.285645,112.756630,-87.667450C112.536972,-88.002686,112.646217,-88.378571,112.982224,-88.443726C113.122414,-88.470795,113.269814,-88.500244,113.309753,-88.508911C113.349655,-88.518219,113.451324,-88.441559,113.535591,-88.340057L113.535591,-88.340118z"/>
            <path style="stroke:#808080;stroke-width:0.05mm;fill:none" d="M59.349632,-87.097626C59.371284,-86.985992,59.313225,-86.904694,59.211815,-86.904694C58.996849,-86.904694,58.867096,-87.093353,58.968834,-87.257965C59.073502,-87.427338,59.304558,-87.330109,59.349632,-87.097626L59.349632,-87.097626z"/>
            <path style="stroke:#808080;stroke-width:0.05mm;fill:none" d="M46.737576,-86.516083C46.860283,-86.238678,47.143631,-85.872162,47.367241,-85.701630C47.590847,-85.531036,47.839672,-85.224274,47.920177,-85.019867C48.000683,-84.815460,48.185127,-84.518036,48.330040,-84.358917C48.783768,-83.860748,48.893654,-83.410797,49.191982,-80.829498C49.258179,-80.256714,49.368313,-79.579742,49.436722,-79.325165C49.505123,-79.070587,49.580166,-78.602814,49.603470,-78.285675C49.626766,-77.968536,49.722790,-77.473846,49.816860,-77.186371C49.910915,-76.898895,50.071648,-76.247070,50.174034,-75.737885C50.395302,-74.637482,50.898468,-72.443268,51.069756,-71.831787C51.218719,-71.300018,51.134315,-71.193207,50.759239,-71.438965C50.377052,-71.689362,49.740597,-72.850922,49.323071,-74.059967C48.825527,-75.500732,48.555984,-76.046631,48.165615,-76.404144C47.906078,-76.641815,47.727993,-77.010773,47.467430,-77.850616C46.650845,-80.482635,46.650864,-80.482513,46.796871,-83.375366C46.860641,-84.639069,46.708603,-85.563873,46.383602,-85.889160C46.148750,-86.124176,46.009735,-86.600586,46.104179,-86.846680C46.228668,-87.171112,46.513649,-87.022369,46.737576,-86.516144L46.737576,-86.516083z"/>
            <path style="stroke:#808080;stroke-width:0.05mm;fill:none" d="M61.084877,-86.040619C61.105148,-85.797943,61.190010,-85.489502,61.273430,-85.355225C61.362022,-85.212555,61.401573,-84.930634,61.368538,-84.677124C61.314484,-84.262482,61.190239,-84.128754,61.057953,-84.342773C60.952003,-84.514252,60.657600,-86.371826,60.720306,-86.473297C60.853371,-86.688629,61.050247,-86.455048,61.084877,-86.040619z"/>
            <path style="stroke:#808080;stroke-width:0.05mm;fill:none" d="M128.106979,-86.506500C128.106979,-86.478516,128.054840,-86.423309,127.991241,-86.384003C127.927521,-86.344635,127.875519,-86.367584,127.875519,-86.435059C127.875519,-86.502533,127.927643,-86.557587,127.991241,-86.557587C128.054840,-86.557587,128.106979,-86.534637,128.106979,-86.506500z"/>
            <path style="stroke:#808080;stroke-width:0.05mm;fill:none" d="M59.519310,-86.094574C59.486046,-85.967377,59.412819,-85.863251,59.356598,-85.863251C59.237289,-85.863251,59.225983,-86.001801,59.324387,-86.258148C59.423317,-86.515961,59.592430,-86.374146,59.519341,-86.094574L59.519310,-86.094574z"/>
            <path style="stroke:#808080;stroke-width:0.05mm;fill:none" d="M128.000168,-85.834320C128.005493,-85.691132,128.033508,-85.353912,128.063629,-85.084991C128.093903,-84.813812,128.055634,-84.479279,127.977905,-84.333862C127.895096,-84.179199,127.833496,-83.562622,127.827637,-82.830719C127.819641,-81.839935,127.779114,-81.551270,127.626343,-81.398468C127.272629,-81.044830,127.201187,-81.304474,127.233429,-82.825958C127.256638,-83.925293,127.312897,-84.389435,127.453705,-84.648163C127.557709,-84.839081,127.643036,-85.160278,127.643433,-85.361938C127.644440,-85.795502,127.744095,-86.094635,127.887970,-86.094635C127.944763,-86.094635,127.995300,-85.977448,128.000229,-85.834259L128.000168,-85.834320z"/>
            <path style="stroke:#808080;stroke-width:0.05mm;fill:none" d="M107.100372,-85.522064C107.189926,-85.377106,106.945015,-84.371063,106.739746,-84.040680C106.650795,-83.897491,106.507889,-83.780304,106.422249,-83.780304C106.293060,-83.780304,106.291328,-83.883789,106.412117,-84.387848C106.676071,-85.489624,106.896225,-85.852386,107.100388,-85.522064L107.100372,-85.522064z"/>
            <path style="stroke:#808080;stroke-width:0.05mm;fill:none" d="M111.769417,-84.546021C111.749306,-84.534027,111.633301,-84.448395,111.511696,-84.355103C111.302681,-84.194611,111.299202,-84.199127,111.448029,-84.438324C111.534637,-84.577393,111.650604,-84.663330,111.705757,-84.629242C111.760895,-84.595093,111.789528,-84.557770,111.769424,-84.546021L111.769417,-84.546021z"/>
            <path style="stroke:#808080;stroke-width:0.05mm;fill:none" d="M108.781952,-84.416840C108.781952,-84.321381,108.703865,-84.243256,108.608376,-84.243256C108.427673,-84.243256,108.378792,-84.380127,108.511917,-84.513275C108.645081,-84.646484,108.781929,-84.597534,108.781929,-84.416870L108.781952,-84.416840z"/>
            <path style="stroke:#808080;stroke-width:0.05mm;fill:none" d="M113.447128,-84.414154C113.562622,-84.334137,113.754128,-84.294159,113.872711,-84.325073C113.996216,-84.357330,114.301926,-84.236664,114.588470,-84.042480C114.863556,-83.856049,115.179756,-83.670319,115.291138,-83.629791C115.627937,-83.507294,115.524734,-83.232880,115.117554,-83.168365C114.869339,-83.129028,114.612137,-83.183014,114.361038,-83.327484C113.851074,-83.620605,112.639442,-84.011719,112.241241,-84.011719C111.884918,-84.011719,111.757027,-84.136627,111.854164,-84.389771C111.936409,-84.604218,113.145851,-84.622711,113.447121,-84.414185L113.447128,-84.414154z"/>
            <path style="stroke:#808080;stroke-width:0.05mm;fill:none" d="M106.236145,-83.387665C106.236145,-83.132599,105.935616,-82.885040,105.795761,-83.024902C105.705391,-83.115326,105.982033,-83.664551,106.117935,-83.664551C106.182922,-83.664551,106.236145,-83.539886,106.236145,-83.387604L106.236145,-83.387665z"/>
            <path style="stroke:#808080;stroke-width:0.05mm;fill:none" d="M104.731789,-83.005981C104.731789,-82.922638,104.685280,-82.854523,104.628456,-82.854523C104.506332,-82.854523,104.383133,-83.141388,104.388321,-83.413666C104.391388,-83.580200,104.415344,-83.575836,104.561897,-83.382050C104.655312,-83.258423,104.731789,-83.089233,104.731789,-83.005951L104.731789,-83.005981z"/>
            <path style="stroke:#808080;stroke-width:0.05mm;fill:none" d="M103.696854,-82.825592C103.964966,-82.504181,103.989334,-81.947418,103.739510,-81.851563C103.593262,-81.795563,103.572189,-81.672852,103.632935,-81.231232C103.680855,-80.882721,103.662880,-80.652557,103.583786,-80.603668C103.375404,-80.474884,103.443878,-80.093506,103.699997,-79.956421C103.891769,-79.853760,103.985519,-79.867645,104.158554,-80.024292C104.632278,-80.453003,104.929085,-79.821564,104.573837,-79.140839C104.487732,-78.975800,104.381241,-78.637329,104.337219,-78.388672C104.220078,-77.727081,103.886200,-76.953888,103.717422,-76.953369C103.584175,-76.953033,103.346893,-77.376709,103.178902,-77.914948C103.142860,-78.030426,103.060898,-78.092316,102.996689,-78.052643C102.813606,-77.939453,102.219368,-78.669830,102.150826,-79.092285C102.116806,-79.301910,102.141632,-79.674408,102.206970,-79.920044C102.271851,-80.165680,102.363045,-80.740753,102.409561,-81.198029C102.476074,-81.852051,102.564888,-82.123627,102.825745,-82.470947C103.127052,-82.872101,103.334900,-83.079498,103.440346,-83.084259C103.461975,-83.084930,103.577400,-82.968964,103.696854,-82.825684L103.696854,-82.825592z"/>
            <path style="stroke:#808080;stroke-width:0.05mm;fill:none" d="M103.311829,-79.081635C103.265427,-79.035248,103.227455,-78.917389,103.227455,-78.819824C103.227455,-78.689575,103.261665,-78.676636,103.356186,-78.771149C103.426956,-78.841949,103.464966,-78.959747,103.440559,-79.032959C103.416183,-79.106171,103.358215,-79.128174,103.311813,-79.081635L103.311829,-79.081635z"/>
            <path style="stroke:#808080;stroke-width:0.05mm;fill:none" d="M111.617065,-82.623077C111.561111,-82.532562,111.494507,-82.525879,111.417366,-82.602936C111.353699,-82.666656,111.339386,-82.779816,111.385574,-82.854523C111.441528,-82.945068,111.508133,-82.951874,111.585274,-82.874664C111.648941,-82.810944,111.663254,-82.697845,111.617065,-82.623077z"/>
            <path style="stroke:#808080;stroke-width:0.05mm;fill:none" d="M114.004303,-82.846466C114.172165,-82.756592,114.280487,-82.760101,114.399582,-82.858490C114.529373,-82.966217,114.737732,-82.907806,115.396866,-82.578979C116.259956,-82.148438,116.478912,-82.121460,116.148666,-82.486328C116.042976,-82.603119,115.956512,-82.759644,115.956512,-82.834198C115.956512,-83.087250,116.286896,-82.971161,116.527229,-82.633636C116.778061,-82.281372,116.848640,-81.812500,116.650826,-81.812500C116.587158,-81.812500,116.535103,-81.760376,116.535103,-81.696777C116.535103,-81.633179,116.661331,-81.581055,116.815590,-81.581055C116.995163,-81.581055,117.192932,-81.450928,117.365250,-81.219452C117.513306,-81.020538,117.797523,-80.691406,117.996834,-80.487915C118.221420,-80.258698,118.388275,-79.945099,118.435516,-79.663422C118.512680,-79.203094,118.458565,-79.083649,117.651894,-77.935913C116.877808,-76.834503,116.278175,-75.776611,116.007881,-75.035492C115.479675,-73.587250,115.116516,-72.965363,114.775162,-72.924683C114.568520,-72.900024,114.408722,-72.978668,114.246429,-73.185059C114.109085,-73.359650,113.896729,-73.480743,113.727859,-73.480743C113.570595,-73.480743,113.309494,-73.584869,113.147675,-73.712189C112.985840,-73.839508,112.723770,-73.943634,112.565285,-73.943634C112.406799,-73.943634,112.050491,-74.073242,111.773506,-74.231567C111.496521,-74.389893,111.152725,-74.520111,111.009529,-74.520874C110.687912,-74.523560,110.679291,-74.686249,110.980598,-75.069305C111.107887,-75.231110,111.212036,-75.432770,111.212036,-75.517426C111.212036,-75.602081,111.316177,-75.727051,111.443481,-75.795166C111.630295,-75.895172,111.674904,-76.037476,111.674904,-76.533478C111.674904,-77.000977,111.619576,-77.198029,111.443481,-77.357391C111.193787,-77.583344,111.133728,-78.047485,111.337837,-78.173615C111.428413,-78.229614,111.428413,-78.286530,111.337837,-78.377167C111.128586,-78.586426,111.194160,-78.803741,111.559189,-79.110870C111.750130,-79.271576,111.906349,-79.493408,111.906349,-79.603882C111.906349,-79.714386,111.997932,-79.901276,112.109955,-80.019257C112.251724,-80.168579,112.300735,-80.367950,112.271370,-80.675934C112.224251,-81.170258,112.094986,-81.239258,111.899704,-80.874359C111.693916,-80.489838,111.533150,-80.777435,111.694611,-81.241241C112.013718,-82.157959,112.593002,-82.799408,112.429504,-82.055023C112.342384,-81.658234,112.480988,-81.537201,112.852356,-81.685944C113.000320,-81.745270,113.214340,-81.823090,113.327950,-81.858917C113.519722,-81.919464,113.521584,-81.949066,113.353951,-82.273346C113.254646,-82.465454,113.122620,-82.622589,113.060608,-82.622589C112.834602,-82.622589,112.955116,-82.839325,113.208229,-82.888062C113.670387,-82.977142,113.769119,-82.971802,114.004318,-82.845947L114.004303,-82.846466z"/>
            <path style="stroke:#808080;stroke-width:0.05mm;fill:none" d="M113.566353,-81.518768C113.528687,-81.420624,113.526863,-81.311188,113.562355,-81.275726C113.663681,-81.174408,113.873634,-81.346222,113.873634,-81.530548C113.873634,-81.752594,113.652901,-81.744110,113.566422,-81.518555L113.566353,-81.518768z"/>
            <path style="stroke:#808080;stroke-width:0.05mm;fill:none" d="M112.560898,-79.011932C112.475296,-78.684448,112.511551,-78.655792,112.771461,-78.845856C112.887917,-78.931061,112.946121,-79.060669,112.900833,-79.133942C112.772591,-79.341431,112.634079,-79.291718,112.560913,-79.011963L112.560898,-79.011932z"/>
            <path style="stroke:#808080;stroke-width:0.05mm;fill:none" d="M59.254372,-82.484222C59.254372,-82.245697,59.214546,-82.153778,59.142433,-82.225861C59.080887,-82.287354,59.060921,-82.454071,59.098091,-82.596161C59.193398,-82.960602,59.254372,-82.916962,59.254372,-82.484131L59.254372,-82.484222z"/>
            <path style="stroke:#808080;stroke-width:0.05mm;fill:none" d="M123.254822,-81.786346C123.186798,-81.591095,123.131073,-81.256836,123.131073,-81.043579C123.131073,-80.830322,123.084564,-80.655853,123.027740,-80.655853C122.810120,-80.655853,122.808777,-81.004852,123.023743,-81.695404C123.146454,-82.089630,123.255173,-82.524780,123.265366,-82.662323C123.275497,-82.799835,123.305161,-82.738861,123.331268,-82.526855C123.357269,-82.314819,123.323120,-81.981598,123.254913,-81.786346L123.254822,-81.786346z"/>
            <path style="stroke:#808080;stroke-width:0.05mm;fill:none" d="M59.208565,-81.497223C59.090942,-81.379639,58.993874,-81.556671,59.090393,-81.712860C59.163300,-81.830841,59.190552,-81.830841,59.229752,-81.713287C59.256592,-81.632904,59.247002,-81.535645,59.208565,-81.497192L59.208565,-81.497223z"/>
            <path style="stroke:#808080;stroke-width:0.05mm;fill:none" d="M107.277626,-81.003021C107.277626,-80.638794,107.086685,-80.531372,106.971748,-80.830902C106.914375,-80.980377,107.101082,-81.350128,107.233925,-81.350128C107.257996,-81.350128,107.277596,-81.193939,107.277596,-81.002960L107.277626,-81.003021z"/>
            <path style="stroke:#808080;stroke-width:0.05mm;fill:none" d="M104.963242,-80.836273C104.963242,-80.808258,104.911148,-80.753052,104.847519,-80.713745C104.783852,-80.674408,104.731796,-80.697357,104.731796,-80.764801C104.731796,-80.832275,104.783890,-80.887329,104.847519,-80.887329C104.911194,-80.887329,104.963242,-80.864380,104.963242,-80.836273z"/>
            <path style="stroke:#808080;stroke-width:0.05mm;fill:none" d="M125.908325,-80.424438C125.908325,-80.240356,125.581635,-79.935272,125.463013,-80.008575C125.293884,-80.113129,125.292999,-80.371063,125.460342,-80.684326C125.587143,-80.921265,125.596298,-80.922150,125.749634,-80.712433C125.836700,-80.593384,125.907990,-80.463715,125.907990,-80.424408L125.908325,-80.424438z"/>
            <path style="stroke:#808080;stroke-width:0.05mm;fill:none" d="M122.775360,-79.386932C122.613556,-78.657501,122.503174,-78.528534,122.378082,-78.922699C122.279587,-79.233002,122.411896,-79.804443,122.633575,-80.026123C122.909027,-80.301605,122.943665,-80.145477,122.775360,-79.386932z"/>
            <path style="stroke:#808080;stroke-width:0.05mm;fill:none" d="M120.152756,-79.127319C120.147690,-78.917847,120.105942,-78.573883,120.060669,-78.362946C120.003082,-78.095184,120.041168,-77.839874,120.186829,-77.516937C120.386642,-77.073822,120.386810,-77.039825,120.190826,-76.707520C120.078110,-76.516724,119.982452,-76.131500,119.978226,-75.851410C119.971161,-75.408600,119.916290,-75.299774,119.554840,-75.017120C119.326202,-74.838379,118.835266,-74.569061,118.463844,-74.418671L117.788528,-74.145172L117.480232,-74.379425C117.067993,-74.692719,117.100403,-74.936737,117.746918,-76.387238C118.731277,-78.595825,118.858063,-78.828735,119.347046,-79.327667C119.761429,-79.750488,119.857849,-79.800568,119.998169,-79.666046C120.088745,-79.579132,120.158493,-79.336761,120.153137,-79.127289L120.152756,-79.127319z"/>
            <path style="stroke:#808080;stroke-width:0.05mm;fill:none" d="M128.917007,-78.818512C128.917007,-78.672699,128.577316,-78.411163,128.494904,-78.493561C128.376373,-78.612091,128.553162,-78.920074,128.739792,-78.920074C128.837250,-78.920074,128.917007,-78.874359,128.917007,-78.818481L128.917007,-78.818512z"/>
            <path style="stroke:#808080;stroke-width:0.05mm;fill:none" d="M106.721107,-77.749878C106.725105,-77.534302,106.802032,-77.273560,106.891754,-77.170410C107.023354,-77.019165,107.028076,-76.924103,106.916214,-76.678619C106.839966,-76.511261,106.738434,-76.374298,106.690590,-76.374298C106.563087,-76.374298,106.398560,-77.711273,106.456345,-78.277863C106.484772,-78.556732,106.714401,-78.098785,106.721107,-77.749847L106.721107,-77.749878z"/>
            <path style="stroke:#808080;stroke-width:0.05mm;fill:none" d="M104.701332,-76.512054C104.538399,-75.812531,104.394379,-75.708618,104.238007,-76.177734C104.147736,-76.448578,104.184189,-76.580231,104.459793,-76.978027C104.838600,-77.524811,104.906662,-77.393524,104.701332,-76.512054z"/>
            <path style="stroke:#808080;stroke-width:0.05mm;fill:none" d="M53.648857,-76.434052C53.788296,-76.140228,54.017204,-75.942474,54.493248,-75.704681C55.136497,-75.383331,55.145775,-75.371582,55.109009,-74.923431C55.088478,-74.673187,55.019783,-74.405884,54.956329,-74.329437C54.878876,-74.236084,54.885918,-74.106537,54.977715,-73.934937C55.125984,-73.657867,55.061996,-72.829987,54.878090,-72.646088C54.733047,-72.501007,53.601532,-73.007904,53.530212,-73.249847C53.502068,-73.345306,53.423256,-74.142303,53.355068,-75.020905C53.208900,-76.904419,53.274925,-77.222015,53.648846,-76.434052L53.648857,-76.434052z"/>
            <path style="stroke:#808080;stroke-width:0.05mm;fill:none" d="M107.086426,-75.632721C107.239288,-75.399445,107.243446,-75.332794,107.112007,-75.223724C106.915871,-75.060944,106.583298,-75.353180,106.583298,-75.688232C106.583298,-75.998566,106.867233,-75.967255,107.086441,-75.632660L107.086426,-75.632721z"/>
            <path style="stroke:#808080;stroke-width:0.05mm;fill:none" d="M79.707634,-70.983276C80.039116,-70.916351,80.038536,-70.682861,79.705757,-70.296173C79.533928,-70.096436,79.313713,-69.984619,79.066124,-69.971527C78.741127,-69.954315,78.652802,-70.013397,78.431953,-70.395233C78.185059,-70.822174,78.183372,-70.844757,78.387230,-70.993866C78.583557,-71.137421,78.958870,-71.134399,79.707436,-70.983185L79.707634,-70.983276z"/>
            <path style="stroke:#808080;stroke-width:0.05mm;fill:none" d="M5.356048,-62.084442C5.720722,-62.062958,6.278720,-61.959106,6.596042,-61.853729C6.982444,-61.725464,7.236680,-61.697754,7.365840,-61.770111C7.572093,-61.885590,8.924933,-61.438873,9.272998,-61.140472C9.550530,-60.902496,10.022502,-60.948883,10.210904,-61.232758C10.364732,-61.464447,10.395633,-61.469360,10.658967,-61.304352C10.814528,-61.206909,11.084064,-61.094147,11.257928,-61.053864C11.599666,-60.974701,11.986564,-60.384430,11.879561,-60.105591C11.789962,-59.872070,11.177306,-59.903564,10.675433,-60.167450C9.808879,-60.623047,9.252402,-60.868164,9.084569,-60.868164C8.989863,-60.868164,8.542394,-60.997467,8.090178,-61.155426C7.637967,-61.313446,7.226726,-61.417206,7.176314,-61.386078C7.125928,-61.354858,6.946635,-61.382080,6.777953,-61.446075C6.319622,-61.620361,4.860761,-61.909546,4.439462,-61.909637C4.052915,-61.909698,3.835110,-62.077393,4.084752,-62.182709C4.164700,-62.216431,4.334266,-62.216949,4.461558,-62.183716C4.588852,-62.150635,4.991371,-62.105988,5.356046,-62.084503L5.356048,-62.084442z"/>
            <path style="stroke:#808080;stroke-width:0.05mm;fill:none" d="M13.131557,-59.720123C13.309588,-59.534302,13.436490,-59.330353,13.413577,-59.266937C13.355643,-59.106567,12.486699,-59.419678,12.306739,-59.665802C11.948253,-60.156097,12.668456,-60.203522,13.131557,-59.720093L13.131557,-59.720123z"/>
            <path style="stroke:#808080;stroke-width:0.05mm;fill:none" d="M14.871650,-59.343994C15.279807,-59.298553,15.991412,-58.407471,15.784690,-58.200714C15.600270,-58.016327,14.291823,-59.047882,14.133273,-59.502716L14.005340,-59.869720L14.267215,-59.625977C14.411242,-59.491913,14.683238,-59.365021,14.871646,-59.344025L14.871650,-59.343994z"/>
            <path style="stroke:#808080;stroke-width:0.05mm;fill:none" d="M43.913685,-55.949951C44.333580,-55.727203,44.771847,-55.544922,44.887611,-55.544922C45.260567,-55.544922,45.252529,-55.408295,44.852051,-54.940460C44.488892,-54.516205,42.424129,-53.002960,42.204750,-53.000336C42.151482,-52.999664,41.891140,-52.849030,41.626163,-52.665558C41.034630,-52.256012,40.647221,-52.010101,36.168461,-49.200897C35.850231,-49.001312,35.295002,-48.682251,34.934593,-48.491913C34.415218,-48.217621,34.251488,-48.061493,34.145115,-47.739166C34.015568,-47.346649,33.481789,-46.931030,31.751171,-45.875031C31.385624,-45.652008,29.736301,-44.576263,28.746429,-43.915253C27.781765,-43.271088,25.597202,-41.911377,24.612469,-41.342194C24.476448,-41.263672,24.193264,-41.198486,23.983166,-41.197540C23.655293,-41.196533,23.577190,-41.253296,23.431877,-41.601044C23.295532,-41.927368,23.287975,-42.107056,23.393036,-42.524414C23.560661,-43.190094,23.469795,-43.527588,22.975582,-44.074585C22.556824,-44.538086,22.115501,-45.389191,22.111156,-45.741669C22.105289,-46.224152,21.369141,-47.348358,20.214233,-48.638763C19.792301,-49.110199,19.447083,-49.550873,19.447083,-49.618011C19.447083,-49.807343,21.309235,-50.752533,22.006104,-50.916870C22.596260,-51.056061,24.443977,-51.824707,24.943726,-52.138916C25.071007,-52.218903,25.774006,-52.448853,26.505928,-52.649780C27.237850,-52.850739,28.427959,-53.248749,29.150616,-53.534271C29.873272,-53.819733,30.810593,-54.134674,31.233551,-54.234161C31.656509,-54.333618,32.272007,-54.516357,32.601337,-54.640259L33.200100,-54.865509L33.650700,-54.567352C33.981129,-54.348663,34.361504,-54.237274,35.077007,-54.149628L36.052723,-54.030151L38.772114,-54.946411C40.267769,-55.450317,41.777905,-55.971710,42.127953,-56.105072C42.478001,-56.238403,42.851208,-56.349213,42.957302,-56.351288C43.063396,-56.353973,43.493748,-56.172821,43.913643,-55.950043L43.913685,-55.949951z"/>
            <path style="stroke:#808080;stroke-width:0.05mm;fill:none" d="M7.149610,-54.433563C7.111171,-54.395020,7.011348,-54.391022,6.927815,-54.424225C6.835509,-54.461182,6.862935,-54.488647,6.997735,-54.494110C7.119721,-54.499420,7.188066,-54.471680,7.149615,-54.433441L7.149610,-54.433563z"/>
            <path style="stroke:#808080;stroke-width:0.05mm;fill:none" d="M0.914289,-51.219696C1.083221,-51.132080,1.481131,-50.998749,1.798537,-50.923492C2.115944,-50.848297,2.454416,-50.718048,2.550711,-50.634247C2.646997,-50.550385,2.934076,-50.416656,3.188654,-50.337036C3.993002,-50.085480,4.172265,-49.998993,4.172265,-49.862427C4.172265,-49.683868,3.366645,-49.815338,2.740301,-50.096069C2.477733,-50.213776,2.132727,-50.349762,1.973610,-50.398346C1.814501,-50.446899,1.528091,-50.604034,1.337156,-50.747528C1.146222,-50.890991,0.890168,-51.026703,0.768150,-51.049072C0.646140,-51.071503,0.524634,-51.154938,0.498143,-51.234406C0.436213,-51.420410,0.534096,-51.416962,0.914291,-51.219757L0.914289,-51.219696z"/>
            <path style="stroke:#808080;stroke-width:0.05mm;fill:none" d="M86.061073,-51.089813C86.289558,-50.994354,86.561279,-50.915924,86.664886,-50.915558C87.268250,-50.912872,87.800011,-50.623627,88.488396,-49.921539C88.888069,-49.513916,89.276367,-49.180420,89.351280,-49.180420C89.426201,-49.180420,89.666420,-49.069916,89.885139,-48.934662L90.282806,-48.688873L89.966896,-48.359131C89.571068,-47.945953,88.659843,-47.632721,88.090569,-47.714111C87.855568,-47.747711,86.954979,-47.863281,86.089241,-47.970917C84.599510,-48.156128,84.498779,-48.155884,84.208809,-47.965576C83.856834,-47.734955,83.810478,-47.468353,84.104942,-47.368134C84.216331,-47.330109,84.701530,-46.881256,85.183174,-46.370453L86.058899,-45.441650L88.018280,-44.960205L89.977661,-44.478760L89.341209,-44.261139C88.817207,-44.082031,88.346947,-44.042389,86.679680,-44.037079L84.654602,-44.030396L84.142204,-44.377563C83.425842,-44.862915,82.968102,-45.478607,82.848785,-46.117279C82.751129,-46.640015,82.764717,-46.681763,83.238220,-47.311890C83.786888,-48.042084,83.930626,-48.310638,84.176170,-49.064178C84.269501,-49.350586,84.501595,-49.930420,84.691956,-50.352783C85.124260,-51.311890,85.300865,-51.406891,86.061066,-51.089264L86.061073,-51.089813z"/>
            <path style="stroke:#808080;stroke-width:0.05mm;fill:none" d="M56.303528,-49.180450C56.264168,-49.116730,56.183006,-49.064728,56.123123,-49.064728C56.063225,-49.064728,56.014229,-49.116852,56.014229,-49.180450C56.014229,-49.244171,56.095421,-49.296173,56.194633,-49.296173C56.293861,-49.296173,56.342865,-49.244049,56.303528,-49.180450z"/>
            <path style="stroke:#808080;stroke-width:0.05mm;fill:none" d="M52.079800,-48.436554C52.079800,-48.336548,52.022133,-48.254730,51.951706,-48.254730C51.881252,-48.254730,51.854614,-48.335541,51.892532,-48.434296C51.930450,-48.533081,51.913586,-48.584259,51.855080,-48.548126C51.718090,-48.463470,51.581070,-48.681610,51.675377,-48.834198C51.769333,-48.986237,52.079845,-48.680939,52.079845,-48.436554L52.079800,-48.436554z"/>
            <path style="stroke:#808080;stroke-width:0.05mm;fill:none" d="M2.562587,-48.184296C2.763565,-47.942139,2.506823,-47.986359,2.188937,-48.248688C1.917709,-48.472534,1.917591,-48.473663,2.172338,-48.409790C2.313459,-48.374298,2.489069,-48.272949,2.562598,-48.184326L2.562587,-48.184296z"/>
            <path style="stroke:#808080;stroke-width:0.05mm;fill:none" d="M3.651533,-47.676056C3.742591,-47.528717,3.474501,-47.528717,3.246519,-47.676056C3.105404,-47.767242,3.120356,-47.788605,3.326477,-47.790070C3.465926,-47.790741,3.612197,-47.739655,3.651533,-47.676056z"/>
            <path style="stroke:#808080;stroke-width:0.05mm;fill:none" d="M81.965698,-44.227203C82.141579,-43.864655,82.284782,-43.460846,82.283928,-43.329803C82.282051,-43.021851,82.471916,-42.795013,82.990334,-42.486481C83.493134,-42.187225,83.867180,-42.169525,84.156433,-42.431274C84.357513,-42.613251,84.415504,-42.609863,85.091301,-42.376862C85.487572,-42.240265,86.228386,-42.022797,86.737541,-41.893585C88.386200,-41.475220,88.594666,-41.299408,88.244659,-40.622559C88.106331,-40.355072,88.080025,-40.092682,88.136360,-39.542725C88.225136,-38.676270,88.140358,-38.568268,87.263519,-38.429657C86.854774,-38.365143,86.562469,-38.233795,86.328918,-38.010040L85.989082,-37.684479L85.379700,-37.984985C85.044533,-38.150269,84.535980,-38.321594,84.249580,-38.365692C83.963173,-38.409821,83.581970,-38.521088,83.402443,-38.612976C83.027611,-38.804871,81.743744,-39.764557,81.642311,-39.928680C81.538567,-40.096527,80.748238,-40.052429,80.500603,-39.865082C80.054207,-39.527222,80.058289,-39.796173,80.530457,-41.832275C80.663277,-42.405060,80.826668,-43.161469,80.893517,-43.513153C81.012367,-44.138397,81.381317,-44.904999,81.557404,-44.892609C81.606079,-44.889923,81.789803,-44.589752,81.965675,-44.227203L81.965698,-44.227203z"/>
            <path style="stroke:#808080;stroke-width:0.05mm;fill:none" d="M2.233978,-43.627533C2.855875,-43.624847,2.443794,-42.819611,1.729613,-42.642456C1.446045,-42.572052,1.423727,-42.597534,1.361357,-43.062622C1.281504,-43.657959,1.342200,-43.782990,1.668444,-43.695435C1.804461,-43.659027,2.058952,-43.628387,2.233978,-43.627441L2.233978,-43.627533z"/>
            <path style="stroke:#808080;stroke-width:0.05mm;fill:none" d="M90.285431,-41.588623C90.836784,-41.308319,90.776314,-40.876129,90.149406,-40.616486C89.811409,-40.476471,89.769447,-40.489716,89.392815,-40.854767C88.926483,-41.306763,88.917686,-41.350922,89.231415,-41.664673C89.480072,-41.913330,89.674469,-41.899323,90.285439,-41.588654L90.285431,-41.588623z"/>
            <path style="stroke:#808080;stroke-width:0.05mm;fill:none" d="M4.518926,-40.516968C4.518658,-40.476685,4.362657,-40.209351,4.172268,-39.922943C3.784422,-39.339508,3.744567,-39.136536,3.998692,-39.039032C4.094159,-39.002472,4.172268,-38.899872,4.172268,-38.811218C4.172268,-38.612152,4.175601,-38.612091,3.673714,-38.821869C3.275345,-38.988342,3.263424,-39.011261,3.288755,-39.562592C3.316177,-40.160156,3.489275,-40.470459,3.874640,-40.613007C4.116943,-40.702606,4.519779,-40.642578,4.518926,-40.516998L4.518926,-40.516968z"/>
            <path style="stroke:#808080;stroke-width:0.05mm;fill:none" d="M5.758500,-39.266296C6.243749,-38.981903,6.298129,-38.972504,6.428321,-39.150543C6.549867,-39.316772,6.833793,-39.424408,6.833793,-39.304260C6.833793,-39.173859,6.453996,-38.534302,6.376578,-38.534302C6.325337,-38.534302,6.096526,-38.612427,5.868039,-38.707886C5.313323,-38.939667,5.127971,-38.926727,5.040160,-38.650024C4.999747,-38.522675,4.898480,-38.418579,4.815090,-38.418579C4.616645,-38.418579,4.308167,-38.790039,4.461562,-38.844299C4.814731,-38.969238,4.921310,-39.104462,4.778825,-39.246948C4.347207,-39.678558,5.031940,-39.692078,5.758502,-39.266418L5.758500,-39.266296z"/>
            <path style="stroke:#808080;stroke-width:0.05mm;fill:none" d="M74.726112,-38.968262C74.693184,-38.761414,74.580368,-37.967285,74.475388,-37.203522C74.276955,-35.759827,74.059212,-35.236328,73.657166,-35.236328C73.352890,-35.236328,73.232582,-35.781708,73.314880,-36.787872C73.388535,-37.688507,73.542397,-38.107025,73.928200,-38.456146C74.056190,-38.572021,74.224068,-38.819214,74.301239,-39.005554C74.500641,-39.486938,74.804420,-39.460266,74.726112,-38.968231L74.726112,-38.968262z"/>
            <path style="stroke:#808080;stroke-width:0.05mm;fill:none" d="M7.041423,-37.889923C7.301969,-37.707428,7.291827,-37.492828,7.022662,-37.492828C6.779782,-37.492828,6.446177,-37.796631,6.533648,-37.938141C6.642901,-38.114929,6.732291,-38.106476,7.041419,-37.889893L7.041423,-37.889923z"/>
            <path style="stroke:#808080;stroke-width:0.05mm;fill:none" d="M79.593910,-36.855194C79.635315,-36.547241,79.209160,-35.872772,78.973206,-35.872772C78.818626,-35.872772,78.799500,-35.949860,78.866058,-36.304596C78.910606,-36.542084,78.998039,-36.831635,79.060326,-36.948029C79.204674,-37.217743,79.553352,-37.157074,79.593910,-36.855225L79.593910,-36.855194z"/>
            <path style="stroke:#808080;stroke-width:0.05mm;fill:none" d="M85.967499,-36.587219C86.872498,-35.964630,87.863869,-35.525604,88.364876,-35.525604C89.035500,-35.525604,90.150063,-34.973114,90.516876,-34.458832C90.838013,-34.008575,90.857262,-33.216461,90.566475,-32.415588C90.465370,-32.137085,90.382652,-31.724609,90.382652,-31.498932C90.382652,-31.273285,90.296478,-30.993439,90.191139,-30.877014C89.763458,-30.404449,88.516792,-30.798492,88.067078,-31.548553C87.919456,-31.794769,87.720703,-32.087738,87.625397,-32.199615C87.464294,-32.388763,87.437325,-32.389679,87.241638,-32.212952C87.070007,-32.057648,86.998711,-32.049408,86.855408,-32.168427C86.609093,-32.372833,86.636452,-32.633087,86.904289,-32.633087C87.027824,-32.633087,87.156883,-32.678436,87.191093,-32.733765C87.319145,-32.940948,86.757301,-34.274048,86.318886,-34.803314C85.731880,-35.511932,85.367638,-36.261963,85.463631,-36.564423C85.554695,-36.851349,85.582397,-36.852631,85.967506,-36.587616L85.967499,-36.587219z"/>
            <path style="stroke:#808080;stroke-width:0.05mm;fill:none" d="M81.703766,-35.814911C81.703766,-35.719452,81.654755,-35.641327,81.594872,-35.641327C81.448952,-35.641327,81.344444,-35.822052,81.436890,-35.914490C81.567207,-36.044769,81.703758,-35.993958,81.703758,-35.814880L81.703766,-35.814911z"/>
            <path style="stroke:#808080;stroke-width:0.05mm;fill:none" d="M76.796745,-33.492096C76.630623,-33.129272,76.461830,-32.540100,76.421638,-32.182861C76.336891,-31.429596,76.126770,-30.954895,75.800911,-30.780487C75.472374,-30.604675,75.516518,-30.335938,75.888893,-30.244781C76.283607,-30.148254,76.376671,-30.014618,76.378929,-29.541443C76.381592,-28.995789,76.806694,-28.001190,77.221779,-27.569672C77.615868,-27.159973,78.612389,-26.730988,79.169891,-26.730988C79.362617,-26.730988,79.626709,-26.674042,79.756744,-26.604462C79.886772,-26.534851,80.711876,-26.422821,81.590294,-26.355499C82.839417,-26.259796,83.174492,-26.199463,83.128136,-26.078644C83.093422,-25.988098,83.186455,-25.879456,83.352753,-25.816223C83.508904,-25.756744,83.804970,-25.495758,84.010704,-25.236053C84.248634,-24.935608,84.478966,-24.763763,84.643700,-24.763763C84.786125,-24.763763,85.143532,-24.681763,85.437935,-24.581360C85.881256,-24.430298,85.996071,-24.329742,86.106224,-23.995941C86.207886,-23.687958,86.206207,-23.513214,86.099152,-23.254669C86.022095,-23.068634,85.990242,-22.835114,86.028358,-22.735718C86.073090,-22.619049,85.954681,-22.429474,85.694389,-22.200928C85.229652,-21.792877,85.196648,-21.638275,85.529839,-21.430206C85.679565,-21.336761,85.755089,-21.186066,85.732338,-21.026306C85.699471,-20.795380,85.609306,-20.764526,84.770348,-20.697266C84.261177,-20.656464,83.532158,-20.571686,83.150276,-20.508789C82.728035,-20.439331,82.002525,-20.432251,81.298775,-20.490662C79.602234,-20.631500,79.301857,-20.621185,79.133614,-20.416138C78.519127,-19.667114,78.252495,-19.574921,77.336609,-19.794647C76.718086,-19.943024,76.689362,-19.939240,76.480804,-19.681702C76.362122,-19.535126,76.265015,-19.297150,76.265015,-19.152893C76.265015,-18.843323,75.988800,-18.578827,75.758003,-18.667389C75.404930,-18.802887,74.962555,-19.556213,74.927422,-20.081848C74.905113,-20.415222,74.764038,-20.812897,74.537300,-21.181396C74.341927,-21.498901,74.182083,-21.836029,74.182083,-21.930511C74.182083,-22.129486,74.426994,-22.158325,74.604973,-21.980255C74.690536,-21.894653,74.746422,-22.046509,74.791992,-22.487946C74.827736,-22.834320,74.946388,-23.290558,75.055664,-23.501862C75.270493,-23.917297,75.260170,-24.399933,74.968452,-27.577881C74.843262,-28.941589,74.849098,-29.092438,75.040840,-29.448456C75.286736,-29.905060,75.221039,-30.076385,74.828804,-30.001404C74.576309,-29.953156,74.534798,-29.997406,74.460350,-30.393036C74.349632,-30.981567,74.346466,-32.005096,74.453682,-32.545868C74.515343,-32.856842,74.599403,-32.979828,74.750313,-32.979828C74.866135,-32.979828,75.092720,-33.083557,75.253830,-33.210236C75.414940,-33.336914,75.773460,-33.540070,76.050537,-33.661621C76.327614,-33.783081,76.658379,-33.961609,76.785576,-34.058197C76.912758,-34.154755,77.035271,-34.215363,77.057808,-34.192841C77.080383,-34.170288,76.962883,-33.854980,76.796776,-33.492157L76.796745,-33.492096z"/>
            <path style="stroke:#808080;stroke-width:0.05mm;fill:none" d="M13.290877,-33.766693C13.493321,-33.564240,13.461143,-33.442657,13.205131,-33.442657C12.950824,-33.442657,12.802165,-33.616943,12.909007,-33.789825C13.003699,-33.943054,13.121669,-33.935883,13.290875,-33.766632L13.290877,-33.766693z"/>
            <path style="stroke:#808080;stroke-width:0.05mm;fill:none" d="M13.256171,-32.401215C13.295531,-32.337616,13.275599,-32.285461,13.211944,-32.285461C13.148318,-32.285461,13.064046,-32.337585,13.024711,-32.401215C12.985339,-32.464935,13.005298,-32.516937,13.068923,-32.516937C13.132564,-32.516937,13.216830,-32.464813,13.256160,-32.401215L13.256171,-32.401215z"/>
            <path style="stroke:#808080;stroke-width:0.05mm;fill:none" d="M11.219033,-32.063934C11.439170,-31.924561,11.291860,-31.591156,11.010123,-31.591156C10.711505,-31.591156,10.596606,-31.789398,10.772431,-32.001251C10.933837,-32.195740,10.996909,-32.204559,11.219033,-32.064056L11.219033,-32.063934z"/>
            <path style="stroke:#808080;stroke-width:0.05mm;fill:none" d="M10.305350,-31.258179C10.305350,-31.065155,9.960410,-30.871246,9.757159,-30.950012C9.566194,-31.024017,9.567512,-31.039612,9.777827,-31.194397C10.029262,-31.379456,10.305369,-31.412811,10.305369,-31.258148L10.305350,-31.258179z"/>
            <path style="stroke:#808080;stroke-width:0.05mm;fill:none" d="M91.384865,-30.402740C91.174614,-29.899506,90.961266,-29.747772,90.961266,-30.101471C90.961266,-30.341888,91.407051,-30.952484,91.508522,-30.851044C91.533195,-30.826385,91.477547,-30.624603,91.384865,-30.402740z"/>
            <path style="stroke:#808080;stroke-width:0.05mm;fill:none" d="M90.111732,-29.596680C90.019104,-28.814667,89.728401,-28.419403,89.212944,-28.374664C88.892876,-28.346802,88.747154,-28.413879,88.441406,-28.729340C88.035522,-29.148102,87.805687,-29.733429,87.953331,-29.972321C88.015388,-30.072723,88.187866,-30.097382,88.490471,-30.049377C88.735626,-30.010437,89.014313,-30.028168,89.109779,-30.088837C89.205254,-30.149506,89.485893,-30.199921,89.733421,-30.200836L90.183479,-30.203522L90.111725,-29.597626L90.111732,-29.596680z"/>
            <path style="stroke:#808080;stroke-width:0.05mm;fill:none" d="M13.140483,-29.799103C13.140483,-29.543823,12.780721,-29.416718,12.592090,-29.605316C12.397593,-29.799835,12.589421,-30.107208,12.879600,-30.066010C13.050300,-30.041748,13.140483,-29.949493,13.140483,-29.799103z"/>
            <path style="stroke:#808080;stroke-width:0.05mm;fill:none" d="M102.812973,-29.785126C103.135422,-29.661377,103.023041,-29.392487,102.648865,-29.392487C102.436722,-29.392487,102.301704,-29.452484,102.301704,-29.546783C102.301704,-29.832245,102.477119,-29.913971,102.812973,-29.785126z"/>
            <path style="stroke:#808080;stroke-width:0.05mm;fill:none" d="M63.854240,-29.537140C63.884476,-29.446320,63.791161,-29.392487,63.603462,-29.392487C63.311401,-29.392487,63.222946,-29.503815,63.385666,-29.666504C63.504723,-29.785553,63.798531,-29.704376,63.854240,-29.537170L63.854240,-29.537140z"/>
            <path style="stroke:#808080;stroke-width:0.05mm;fill:none" d="M97.528320,-27.468048C98.055008,-27.326904,97.687180,-26.846680,97.052391,-26.846680C96.893639,-26.846680,96.685638,-26.768555,96.590172,-26.673126C96.351875,-26.434814,96.168617,-26.455505,96.168617,-26.720581C96.168617,-26.978333,96.791725,-27.541626,97.074318,-27.539307C97.180817,-27.538666,97.385109,-27.506256,97.528305,-27.467987L97.528320,-27.468048z"/>
            <path style="stroke:#808080;stroke-width:0.05mm;fill:none" d="M93.159943,-26.383789C93.159943,-26.320038,93.110939,-26.268036,93.051048,-26.268036C92.991150,-26.268036,92.909973,-26.320160,92.870644,-26.383789C92.831291,-26.447540,92.880249,-26.499542,92.979546,-26.499542C93.078766,-26.499542,93.159950,-26.447418,93.159950,-26.383789L93.159943,-26.383789z"/>
            <path style="stroke:#808080;stroke-width:0.05mm;fill:none" d="M88.319580,-25.266541C88.596718,-25.015717,88.616814,-23.940155,88.349365,-23.672668C88.145874,-23.469177,87.657387,-23.428894,87.547600,-23.606537C87.508240,-23.670258,87.375008,-23.722260,87.251472,-23.722260C86.978432,-23.722260,86.977028,-23.752533,87.219727,-24.412720C87.419151,-24.955139,87.790977,-25.458038,87.992592,-25.458038C88.056030,-25.458038,88.203186,-25.371796,88.319580,-25.266541z"/>
            <path style="stroke:#808080;stroke-width:0.05mm;fill:none" d="M72.562019,-25.233490C72.562019,-25.032990,72.358345,-24.995911,72.213806,-25.170013C72.094810,-25.313385,72.112038,-25.342316,72.316406,-25.342316C72.451492,-25.342316,72.562019,-25.293243,72.562019,-25.233368L72.562019,-25.233490z"/>
            <path style="stroke:#808080;stroke-width:0.05mm;fill:none" d="M89.746246,-24.763763C89.861450,-24.636444,90.080780,-24.532318,90.233673,-24.532318C90.737885,-24.532318,91.522919,-24.280579,91.593666,-24.096222C91.712067,-23.787628,91.465912,-23.668335,91.144875,-23.878693C90.601891,-24.234467,90.413918,-24.139313,90.321686,-23.461945C90.210976,-22.648956,89.910957,-22.458282,89.456940,-22.912262C89.273582,-23.095642,89.225502,-23.298004,89.225502,-23.886444C89.225502,-24.994232,89.349144,-25.202545,89.746239,-24.763763L89.746246,-24.763763z"/>
            <path style="stroke:#808080;stroke-width:0.05mm;fill:none" d="M72.446297,-24.597015C72.446297,-24.568878,72.394203,-24.513824,72.330582,-24.474487C72.266945,-24.435028,72.214867,-24.458099,72.214867,-24.525543C72.214867,-24.593018,72.266960,-24.648102,72.330582,-24.648102C72.394211,-24.648102,72.446297,-24.625153,72.446297,-24.597015z"/>
            <path style="stroke:#808080;stroke-width:0.05mm;fill:none" d="M83.937492,-19.500153C83.950020,-19.437347,83.869179,-19.368439,83.757805,-19.347015C83.631134,-19.322632,83.555298,-19.379425,83.555298,-19.498566C83.555298,-19.699890,83.897278,-19.701324,83.937500,-19.499603L83.937492,-19.500153z"/>
            <path style="stroke:#808080;stroke-width:0.05mm;fill:none" d="M80.604469,-19.400299L81.183067,-19.248688L80.381073,-19.182831C79.570557,-19.116150,79.273705,-19.155487,79.273705,-19.329376C79.273705,-19.412170,79.518806,-19.492737,79.910156,-19.538483C79.973785,-19.545135,80.286247,-19.483795,80.604469,-19.400360L80.604469,-19.400299z"/>
            <path style="stroke:#808080;stroke-width:0.05mm;fill:none" d="M83.373222,-19.259064C83.598022,-19.034241,83.445580,-18.684875,83.070801,-18.565887C82.885109,-18.506958,82.761528,-18.555237,82.607796,-18.744476C82.249397,-19.187073,82.361351,-19.383270,82.997368,-19.427246C83.104187,-19.433929,83.273323,-19.358856,83.373222,-19.259064z"/>
            <path style="stroke:#808080;stroke-width:0.05mm;fill:none" d="M74.693153,-18.787659C74.790031,-18.535187,74.661407,-18.417847,74.524719,-18.634003C74.387871,-18.850372,74.384964,-18.977783,74.516853,-18.977783C74.573662,-18.977783,74.653023,-18.892181,74.693153,-18.787659L74.693153,-18.787659z"/>
            <path style="stroke:#808080;stroke-width:0.05mm;fill:none" d="M82.282387,-18.115204C82.794365,-18.089447,83.021912,-17.992279,83.680305,-17.517548C84.180687,-17.156799,84.728539,-16.293762,84.562538,-16.127777C84.458466,-16.023651,82.169914,-16.325562,81.731987,-16.501129C81.499420,-16.594330,81.310371,-16.776215,81.238167,-16.976044C81.173805,-17.154144,81.017944,-17.489227,80.891754,-17.720642C80.765564,-17.952057,80.662315,-18.180634,80.662315,-18.228577C80.662315,-18.276459,80.935699,-18.275238,81.269836,-18.225922C81.603981,-18.176300,82.059624,-18.126587,82.282379,-18.115509L82.282387,-18.115204z"/>
            <path style="stroke:#808080;stroke-width:0.05mm;fill:none" d="M84.892876,-13.720856C85.087769,-13.577423,85.093330,-13.546173,84.934929,-13.484711C84.695549,-13.391754,84.099266,-13.620850,84.191597,-13.770233C84.294518,-13.936768,84.631752,-13.913025,84.892853,-13.720917L84.892876,-13.720856z"/>
            <path style="stroke:#808080;stroke-width:0.05mm;fill:none" d="M0.749111,-13.353058C0.917839,-13.288239,1.016023,-12.960419,0.866688,-12.960419C0.716047,-12.960419,0.353563,-13.208527,0.353563,-13.311615C0.353563,-13.439911,0.486582,-13.453766,0.749111,-13.353088L0.749111,-13.353058z"/>
            <path style="stroke:#808080;stroke-width:0.05mm;fill:none" d="M83.839806,-8.215942C84.318825,-8.215942,84.617027,-8.110870,84.531403,-7.972382C84.442284,-7.828186,82.317192,-7.842010,82.043335,-7.988678C81.920227,-8.054535,81.819511,-8.209656,81.819511,-8.333344C81.819511,-8.532257,81.853546,-8.542755,82.113708,-8.424286C82.366333,-8.309235,82.443565,-8.325897,82.660164,-8.542572L82.912415,-8.794830L83.180672,-8.505524C83.364777,-8.306976,83.571556,-8.216217,83.839806,-8.216217L83.839806,-8.215942z"/>
            <path style="stroke:#808080;stroke-width:0.05mm;fill:none" d="M87.489716,-4.693359C87.489716,-4.571228,87.267647,-4.519897,87.201591,-4.626678C87.161629,-4.691345,87.210121,-4.744293,87.309303,-4.744293C87.408531,-4.744293,87.489708,-4.721344,87.489708,-4.693207L87.489716,-4.693359z"/>
            <path style="stroke:#808080;stroke-width:0.05mm;fill:none" d="M5.755666,-3.797028C5.718732,-3.704742,5.691306,-3.732086,5.685746,-3.867035C5.680547,-3.989044,5.708054,-4.057343,5.746493,-4.018890C5.784932,-3.980377,5.789066,-3.880646,5.755559,-3.797089L5.755666,-3.797028z"/>
            <path style="stroke:#808080;stroke-width:0.05mm;fill:none" d="M93.254768,-3.104523C93.212334,-2.815948,93.057304,-2.736115,92.824852,-2.883148C92.599037,-3.026001,92.755196,-3.355835,93.048637,-3.355835C93.232368,-3.355835,93.282722,-3.294373,93.254784,-3.104523L93.254768,-3.104523z"/>
            <path style="stroke:#808080;stroke-width:0.05mm;fill:none" d="M57.470322,-81.365753C57.420456,-81.285126,57.410950,-81.187866,57.449135,-81.149658C57.552711,-81.046051,57.665627,-81.198334,57.609688,-81.366211C57.570442,-81.483795,57.543243,-81.483673,57.470329,-81.365753L57.470322,-81.365753z"/>
            <path style="stroke:#808080;stroke-width:0.05mm;fill:none" d="M58.965065,-48.949005C58.868202,-48.792267,58.998924,-48.601837,59.203331,-48.601837C59.295036,-48.601837,59.370079,-48.705963,59.370079,-48.833282C59.370079,-49.072876,59.090904,-49.152618,58.965065,-48.949005z"/>
            <path style="stroke:#808080;stroke-width:0.05mm;fill:none" d="M58.328613,-48.139008C58.328613,-48.075287,58.380707,-48.023285,58.444328,-48.023285C58.507957,-48.023285,58.560051,-48.075409,58.560051,-48.139008C58.560051,-48.202606,58.507957,-48.254730,58.444328,-48.254730C58.380692,-48.254730,58.328613,-48.202606,58.328613,-48.139008z"/>
            <path style="stroke:#808080;stroke-width:0.05mm;fill:none" d="M49.039688,-47.258942C48.913662,-47.132935,49.065945,-46.981812,49.319027,-46.981812C49.454971,-46.981812,49.533066,-47.042480,49.505119,-47.126465C49.450081,-47.291718,49.156124,-47.375397,49.039688,-47.259003L49.039688,-47.258942z"/>
            <path style="stroke:#808080;stroke-width:0.05mm;fill:none" d="M65.387451,-45.239166C65.387451,-45.171722,65.439545,-45.148773,65.503166,-45.188110C65.566795,-45.227448,65.618889,-45.282623,65.618889,-45.310638C65.618889,-45.338623,65.566795,-45.361694,65.503166,-45.361694C65.439537,-45.361694,65.387451,-45.306641,65.387451,-45.239166z"/>
            <path style="stroke:#808080;stroke-width:0.05mm;fill:none" d="M38.424999,-42.295197C38.275520,-42.136078,38.045132,-42.005890,37.913021,-42.005890C37.708965,-42.005890,37.036369,-41.344757,37.036369,-41.144165C37.036369,-40.979156,37.390785,-41.120575,38.078804,-41.559814C38.491970,-41.823639,38.948833,-42.112335,39.094067,-42.201385C39.239296,-42.290436,39.327351,-42.412994,39.289745,-42.473846C39.161640,-42.681122,38.697472,-42.585175,38.424995,-42.295166L38.424999,-42.295197z"/>
            <path style="stroke:#808080;stroke-width:0.05mm;fill:none" d="M30.398563,-37.087860C30.359673,-36.986542,30.396698,-36.914276,30.487736,-36.914276C30.573418,-36.914276,30.708336,-36.992401,30.787567,-37.087860C30.907513,-37.232391,30.892593,-37.261444,30.698395,-37.261444C30.570126,-37.261444,30.435200,-37.183319,30.398563,-37.087860z"/>
            <path style="stroke:#808080;stroke-width:0.05mm;fill:none" d="M40.970814,-36.127411C40.970814,-35.864258,41.189289,-35.641388,41.447186,-35.641388C41.693306,-35.641388,41.783398,-35.864899,41.645420,-36.133179C41.503498,-36.409119,40.970814,-36.404572,40.970814,-36.126495L40.970814,-36.127411z"/>
            <path style="stroke:#808080;stroke-width:0.05mm;fill:none" d="M10.382504,-29.778290C10.224875,-29.620667,10.313010,-29.002472,10.547137,-28.623657C10.853143,-28.128540,11.109918,-27.991547,11.524257,-28.102356C11.869163,-28.194489,12.061416,-28.466827,11.781661,-28.466827C11.551784,-28.466827,11.169271,-28.910614,10.958812,-29.421478C10.793044,-29.823883,10.567647,-29.963440,10.382504,-29.778290L10.382504,-29.778290z"/>
            <path style="stroke:#808080;stroke-width:0.05mm;fill:none" d="M25.976696,-26.537323C25.528202,-26.053375,25.223804,-25.501221,25.298374,-25.306885C25.335827,-25.209290,25.739986,-24.843079,26.196564,-24.492920C28.162792,-22.985046,29.465687,-20.827209,29.934696,-18.301880C30.037041,-17.750824,30.141232,-16.518860,30.166225,-15.564178C30.207947,-13.971130,30.229668,-13.825470,30.430286,-13.792938C30.749542,-13.741180,31.456524,-14.415741,31.599178,-14.908295C31.840992,-15.743317,31.876019,-18.141846,31.661633,-19.185699C31.137119,-21.739624,30.102776,-23.709320,28.360783,-25.471558C27.453960,-26.388916,26.826405,-26.845581,26.471519,-26.846313C26.357105,-26.846527,26.134434,-26.707489,25.976696,-26.537292L25.976696,-26.537323z"/>
            <path style="stroke:#808080;stroke-width:0.05mm;fill:none" d="M51.783932,-18.200409C51.187263,-17.797028,48.908363,-15.803741,48.609509,-15.423798C48.075279,-14.744629,48.415215,-14.767761,49.397720,-15.477417C49.816277,-15.779755,50.415764,-16.157745,50.729912,-16.317474C51.213181,-16.563202,51.381439,-16.746063,51.823212,-17.505829C52.110390,-17.999695,52.321693,-18.427429,52.292793,-18.456329C52.263855,-18.485260,52.034904,-18.370087,51.783936,-18.200409L51.783932,-18.200409z"/>
            <path style="stroke:#808080;stroke-width:0.05mm;fill:none" d="M56.071465,-15.621338C55.955917,-15.493622,55.885887,-15.364655,55.915863,-15.334686C55.992455,-15.258148,56.477119,-15.611847,56.477119,-15.744324C56.477119,-15.923767,56.295265,-15.868591,56.071465,-15.621399L56.071465,-15.621338z"/>
            <path style="stroke:#808080;stroke-width:0.05mm;fill:none" d="M53.861877,-12.978149C53.039223,-12.377502,52.311249,-11.502319,52.311249,-11.113983C52.311249,-10.920319,52.349693,-10.761871,52.396729,-10.761871C52.511532,-10.761871,54.394180,-12.727386,54.394180,-12.847229C54.394180,-12.899078,54.425793,-13.023956,54.464424,-13.124634C54.568756,-13.396515,54.368050,-13.347748,53.861877,-12.978149z"/>
            <path style="stroke:#808080;stroke-width:0.05mm;fill:none" d="M71.753662,-13.220886C71.758995,-12.947784,72.159279,-12.047974,72.479660,-11.589020C72.684074,-11.296173,72.907806,-10.899139,72.976860,-10.706696C73.089104,-10.393951,73.164101,-10.350525,73.684410,-10.297272C74.004501,-10.264465,74.338554,-10.179535,74.426750,-10.108398C74.514946,-10.037323,75.094810,-9.942108,75.715355,-9.896820C76.919762,-9.808960,77.112427,-9.895813,76.525383,-10.259827C75.700409,-10.772064,74.567299,-11.527771,74.387245,-11.685791C74.277328,-11.782318,73.886780,-12.022949,73.519356,-12.220673C73.151932,-12.418365,72.844299,-12.652710,72.835732,-12.741394C72.827065,-12.830048,72.814140,-12.971893,72.806793,-13.056488C72.797462,-13.164886,72.694138,-13.188507,72.457306,-13.136505C72.264481,-13.094238,72.088890,-13.114899,72.045464,-13.185150C71.958778,-13.325409,71.751137,-13.350830,71.753662,-13.220886z"/>
            <path style="stroke:#808080;stroke-width:0.05mm;fill:none" d="M50.339279,-11.565216C50.200714,-11.370636,50.118740,-11.180023,50.157116,-11.141632C50.240292,-11.058441,50.667580,-11.427277,50.821693,-11.715240C51.014832,-12.076141,50.614418,-11.951599,50.339275,-11.565216L50.339279,-11.565216z"/>
            <path style="stroke:#808080;stroke-width:0.05mm;fill:none" d="M102.576912,-8.047455C102.539139,-7.949310,102.409805,-7.868866,102.289322,-7.868866C101.988388,-7.868866,102.005142,-7.471161,102.319275,-7.156952C102.560928,-6.915314,102.573029,-6.914337,102.726845,-7.124695C102.814072,-7.243896,102.859818,-7.408051,102.828590,-7.489471C102.797318,-7.570923,102.816589,-7.637421,102.871445,-7.637421C103.090950,-7.637421,103.092987,-7.986420,102.874512,-8.103516C102.696075,-8.199127,102.630569,-8.186707,102.577133,-8.047516L102.576912,-8.047455z"/>
            <path style="stroke:#808080;stroke-width:0.05mm;fill:none" d="M75.940285,-7.049438C76.016403,-6.821075,76.462959,-6.563873,76.547066,-6.699982C76.587029,-6.764618,76.456047,-6.902222,76.255959,-7.005646C76.002991,-7.136444,75.906830,-7.149811,75.940292,-7.049408L75.940285,-7.049438z"/>
            <path style="stroke:#808080;stroke-width:0.05mm;fill:none" d="M100.450211,-6.405182C100.450211,-6.192596,100.723511,-5.788239,100.906448,-5.730194C101.037399,-5.688721,101.144531,-5.575897,101.144531,-5.479645C101.144531,-5.344269,101.063507,-5.322479,100.786659,-5.383270C100.485947,-5.449249,100.435120,-5.429657,100.468430,-5.260193C100.490158,-5.149261,100.596870,-5.002625,100.705383,-4.934296C100.859863,-4.836945,100.961548,-4.865356,101.173828,-5.064667C101.322945,-5.204773,101.613556,-5.353119,101.819626,-5.394318C102.187836,-5.467926,102.533157,-5.809906,102.533157,-6.100861C102.533157,-6.330170,102.303925,-6.275696,102.059464,-5.988342L101.837967,-5.727997L101.558258,-6.065582C101.351181,-6.315521,101.170990,-6.406738,100.864380,-6.416901C100.636597,-6.423584,100.450226,-6.419586,100.450226,-6.404907L100.450211,-6.405182z"/>
            <path style="stroke:#808080;stroke-width:0.05mm;fill:none" d="M80.112663,-5.367096C80.033104,-5.332306,79.968018,-5.230011,79.968018,-5.139862C79.968018,-5.026642,80.106750,-4.975922,80.416725,-4.975922C80.674400,-4.975922,80.926758,-4.902039,81.009491,-4.802338C81.173393,-4.604858,81.539101,-4.571625,81.645943,-4.744476C81.685303,-4.808228,81.815460,-4.860229,81.935242,-4.860229C82.188477,-4.860229,82.353813,-5.069183,82.208672,-5.205811C82.087608,-5.319794,80.316017,-5.456116,80.112671,-5.367126L80.112663,-5.367096z"/>
            <path style="stroke:#808080;stroke-width:0.05mm;fill:none" d="M81.729683,-4.261200C81.630302,-4.161743,81.627869,-4.083771,81.720619,-3.971924C81.929054,-3.720764,82.166573,-3.793274,82.166573,-4.108032C82.166573,-4.414764,81.956718,-4.488342,81.729591,-4.261200L81.729683,-4.261200z"/>
            <path style="stroke:#808080;stroke-width:0.05mm;fill:none" d="M83.092415,-3.946838C83.092415,-3.889923,83.168877,-3.814178,83.262337,-3.778290C83.355797,-3.742401,83.509361,-3.528564,83.603584,-3.303040C83.748665,-2.955811,83.831078,-2.892975,84.141479,-2.892975C84.451515,-2.892975,84.498665,-2.928864,84.447289,-3.125275C84.407005,-3.279236,84.470764,-3.416931,84.636299,-3.533569C84.849174,-3.683533,84.860420,-3.725891,84.712486,-3.820221C84.486725,-3.964203,84.281281,-3.963593,84.191750,-3.819214C84.082573,-3.642548,83.704247,-3.681458,83.629173,-3.877075C83.558449,-4.061371,83.092430,-4.122375,83.092430,-3.947357L83.092415,-3.946838z"/>
            <path style="stroke:#808080;stroke-width:0.05mm;fill:none" d="M82.462181,-3.409363C82.299774,-3.286713,82.272102,-3.204132,82.362968,-3.113251C82.518707,-2.957489,83.013428,-3.187775,82.947563,-3.385376C82.880432,-3.586761,82.708351,-3.595276,82.462181,-3.409393L82.462181,-3.409363z"/>
            <path style="stroke:#808080;stroke-width:0.05mm;fill:none" d="M97.325806,-3.240143C97.325806,-3.176544,97.380981,-3.124390,97.448349,-3.124390C97.515755,-3.124390,97.538712,-3.176514,97.499390,-3.240143C97.460030,-3.303864,97.404907,-3.355865,97.376839,-3.355865C97.348763,-3.355865,97.325806,-3.303741,97.325806,-3.240143z"/>
            <path style="stroke:#808080;stroke-width:0.05mm;fill:none" d="M82.919991,-2.428223C82.959953,-2.363556,83.041161,-2.340607,83.100403,-2.377167C83.260918,-2.476349,83.230980,-2.545776,83.027710,-2.545776C82.928490,-2.545776,82.880013,-2.492828,82.919991,-2.428192L82.919991,-2.428223z"/>
            <path style="stroke:#808080;stroke-width:0.05mm;fill:none" d="M89.919807,-1.967255C89.919807,-1.903503,89.971901,-1.851501,90.035530,-1.851501C90.099159,-1.851501,90.151253,-1.903625,90.151253,-1.967255C90.151253,-2.030975,90.099159,-2.082977,90.035530,-2.082977C89.971901,-2.082977,89.919807,-2.030853,89.919807,-1.967255z"/>
        </g>
    </g>
</svg>
