<?xml version="1.0" encoding="UTF-8" standalone="no"?>
<!-- Created with Inkscape (http://www.inkscape.org/) -->

<svg
   xmlns:dc="http://purl.org/dc/elements/1.1/"
   xmlns:cc="http://creativecommons.org/ns#"
   xmlns:rdf="http://www.w3.org/1999/02/22-rdf-syntax-ns#"
   xmlns:svg="http://www.w3.org/2000/svg"
   xmlns="http://www.w3.org/2000/svg"
   xmlns:sodipodi="http://sodipodi.sourceforge.net/DTD/sodipodi-0.dtd"
   xmlns:inkscape="http://www.inkscape.org/namespaces/inkscape"
   width="412.91177"
   height="256.53766"
   viewBox="0 0 109.24957 67.875589"
   version="1.1"
   id="svg8"
   inkscape:version="0.92.3 (2405546, 2018-03-11)"
   sodipodi:docname="mcgyver3.svg">
  <defs
     id="defs2" />
  <sodipodi:namedview
     id="base"
     pagecolor="#ffffff"
     bordercolor="#666666"
     borderopacity="1.0"
     inkscape:pageopacity="0.0"
     inkscape:pageshadow="2"
     inkscape:zoom="1.979899"
     inkscape:cx="252.24356"
     inkscape:cy="108.71259"
     inkscape:document-units="mm"
     inkscape:current-layer="layer1"
     showgrid="false"
     inkscape:window-width="1920"
     inkscape:window-height="1001"
     inkscape:window-x="-9"
     inkscape:window-y="-9"
     inkscape:window-maximized="1"
     fit-margin-top="0"
     fit-margin-left="0"
     fit-margin-right="0"
     fit-margin-bottom="0"
     units="px" />
  <metadata
     id="metadata5">
    <rdf:RDF>
      <cc:Work
         rdf:about="">
        <dc:format>image/svg+xml</dc:format>
        <dc:type
           rdf:resource="http://purl.org/dc/dcmitype/StillImage" />
        <dc:title></dc:title>
      </cc:Work>
    </rdf:RDF>
  </metadata>
  <g
     inkscape:label="Calque 1"
     inkscape:groupmode="layer"
     id="layer1"
     transform="translate(-6.9802888,-225.78449)">
    <path
       style="fill:#6d6d6d;stroke-width:0.12450978"
       d="m 38.031392,226.38538 c -0.385799,0 -0.44339,0.36965 -0.100825,0.64944 0.218925,0.17837 0.238648,0.22505 0.07265,0.17125 -0.126878,-0.041 -0.311636,0.01 -0.418127,0.11707 -0.104843,0.10487 -0.282528,0.16376 -0.395149,0.13041 -0.779164,-0.23042 -0.856502,-0.22249 -0.936339,0.0957 -0.07394,0.2946 -0.138499,0.31564 -1.201009,0.39885 -0.617797,0.0483 -1.15386,0.13686 -1.19063,0.19647 -0.0368,0.0595 -0.365712,0.10817 -0.730984,0.10817 -0.496279,0 -0.683024,0.0508 -0.740626,0.20092 -0.06414,0.16714 -0.195307,0.1863 -0.778431,0.11348 -0.625369,-0.0782 -0.692267,-0.0654 -0.620519,0.12151 0.04422,0.1152 0.112604,0.3384 0.15198,0.49524 0.06393,0.25469 0.108975,0.27128 0.417388,0.15494 0.189921,-0.0717 0.441953,-0.0937 0.560469,-0.0482 0.3516,0.13486 0.145458,0.39441 -0.313596,0.39441 -0.295319,0 -0.453626,0.0694 -0.518214,0.2276 -0.08263,0.20229 -0.187463,0.21811 -0.934115,0.13859 -0.462426,-0.0492 -1.018763,-0.18464 -1.236598,-0.30099 -0.396367,-0.21124 -1.160234,-0.20432 -1.160234,0.0115 0,0.0607 0.0747,0.11047 0.166809,0.11047 0.0921,0 0.264077,0.1063 0.3818,0.23648 0.308972,0.34141 0.15579,1.13291 -0.220183,1.13578 -0.146463,0.001 -0.507696,0.11219 -0.802898,0.24612 -0.420888,0.19095 -0.692329,0.22787 -1.255129,0.16905 -0.58783,-0.0614 -0.828513,-0.0245 -1.330747,0.2061 l -0.613106,0.28171 0.679827,0.215 0.679832,0.21424 -0.575299,0.25429 c -0.31644,0.14002 -0.680558,0.28769 -0.808828,0.32843 -0.128255,0.0407 -0.328848,0.2371 -0.446301,0.43592 l -0.213512,0.36104 0.420355,0.24837 c 0.32585,0.19224 0.432367,0.34713 0.472249,0.68872 0.04267,0.36542 0.0023,0.46311 -0.234271,0.57085 -0.156926,0.0714 -0.285425,0.23687 -0.285425,0.36771 0,0.15386 -0.284512,0.4305 -0.805122,0.78139 -0.891326,0.60081 -1.017991,0.85407 -0.427767,0.85407 0.280475,0 0.402566,0.0677 0.450009,0.24909 0.06871,0.26282 0.34153,0.33486 0.471504,0.12453 0.131269,-0.2124 0.449896,-0.14002 0.410715,0.0934 -0.02132,0.12696 0.04097,0.21722 0.149759,0.21722 0.132617,0 0.186822,-0.13443 0.186822,-0.46409 0,-0.64578 0.566565,-1.20325 1.37597,-1.35447 0.328624,-0.0614 0.690304,-0.19546 0.80364,-0.29803 0.239943,-0.21718 0.622002,-0.24815 0.622002,-0.0504 0,0.0749 -0.10665,0.16379 -0.237235,0.19794 -0.130566,0.0341 -0.414767,0.28321 -0.631642,0.55306 -0.216868,0.26987 -0.699285,0.66264 -1.071271,0.87258 -1.031625,0.58222 -1.111974,1.44304 -0.106019,1.13429 0.247538,-0.0756 0.524874,-0.10989 0.61607,-0.0749 0.0912,0.035 0.286438,-8.7e-4 0.434444,-0.08 0.215842,-0.11549 0.312008,-0.10516 0.486334,0.0526 0.119533,0.10817 0.339129,0.19646 0.487814,0.19646 0.365675,0 0.342342,0.29907 -0.04744,0.6057 l -0.318044,0.24984 0.472248,0.0393 c 0.350621,0.029 0.485071,0.10157 0.518956,0.28022 0.05668,0.29859 -0.293919,0.56788 -0.737658,0.56788 -0.183973,0 -0.403503,0.0838 -0.487819,0.18534 -0.127194,0.15326 -0.09628,0.2058 0.181637,0.31139 0.453986,0.17258 0.349291,0.38223 -0.363268,0.72357 -1.273751,0.61017 -1.763145,0.44935 -0.743589,-0.24465 0.621358,-0.42296 0.628588,-0.65261 0.02151,-0.70282 -0.277184,-0.023 -0.467057,-0.10373 -0.467057,-0.19868 0,-0.21144 0.354279,-0.52314 0.776207,-0.68355 0.230317,-0.0875 0.315772,-0.191 0.266149,-0.32026 -0.04026,-0.10487 -0.111255,-0.19053 -0.157912,-0.19053 -0.186016,0 -1.072152,0.51114 -1.373746,0.79251 -0.344759,0.32162 -1.128854,0.48153 -2.405725,0.49301 -0.566399,0.004 -0.753292,-0.0436 -0.891116,-0.23205 -0.276186,-0.37771 -2.024844,-0.47674 -2.964714,-0.16754 -0.90565,0.29776 -1.218059,0.30072 -1.218059,0.0101 -4e-6,-0.14613 0.162474,-0.28241 0.467055,-0.39144 0.256804,-0.092 0.617369,-0.28487 0.801416,-0.42926 0.184045,-0.14436 0.478409,-0.36323 0.653884,-0.48632 0.264098,-0.18498 0.448429,-0.58569 0.269857,-0.58569 -0.05637,0 -1.685354,0.67528 -2.273024,0.94228 -0.215787,0.0981 -0.590985,0.17867 -0.834032,0.17867 -0.290704,0 -0.484972,0.0746 -0.566403,0.21796 -0.102246,0.18005 -0.16553,0.19175 -0.366231,0.069 -0.200528,-0.12266 -0.279906,-0.10832 -0.453715,0.0838 -0.324744,0.35881 -0.193824,0.67633 0.310628,0.75322 0.296876,0.0453 0.421157,0.12438 0.392924,0.24911 -0.07981,0.35186 -0.29992,0.48782 -1.019375,0.62941 -0.94879,0.18668 -1.491621,0.51709 -1.491621,0.90818 0,0.1649 -0.0789,0.32981 -0.175703,0.36696 -0.236949,0.091 -0.409148,1.6353 -0.209068,1.87639 0.159571,0.19227 0.08784,0.92783 -0.177928,1.81858 -0.09195,0.30814 -0.204064,0.81204 -0.249097,1.1202 -0.04502,0.30817 -0.164821,0.85399 -0.266149,1.21286 -0.147421,0.52216 -0.154607,0.73361 -0.03707,1.05867 0.121355,0.3356 0.100811,0.62653 -0.116391,1.67474 -0.317965,1.53437 -0.350244,3.79632 -0.07784,5.45421 0.264501,1.60981 0.251634,1.92978 -0.07859,1.92978 -0.299684,0 -1.42002,-0.69875 -2.129938,-1.32852 -0.3292877,-0.29215 -0.5887787,-0.41444 -0.8792585,-0.41444 -0.1707382,0 -0.5430549,-0.11922 -0.9622876,-0.29801 v 1.89715 c 0.044592,0.0645 0.086066,0.12151 0.1371488,0.20238 0.5104642,0.80837 1.0788901,1.12664 1.7770482,0.99566 0.3722821,-0.0697 0.4566821,-0.0486 0.4566821,0.11491 0,0.11032 -0.05467,0.20092 -0.121583,0.20092 -0.066897,0 -0.2083927,0.13184 -0.3143405,0.29358 -0.1766672,0.26961 -0.1711367,0.34362 0.064498,0.89334 0.1413465,0.32968 0.2360975,0.68761 0.2105482,0.79549 -0.025556,0.10788 0.050399,0.36465 0.1690303,0.57011 0.118633,0.20542 0.243203,0.59717 0.27653,0.87109 0.110213,0.90707 0.178652,0.98293 0.854791,0.93932 0.39558,-0.0255 0.529461,0.15085 0.426284,0.56194 -0.06094,0.24288 -0.157024,0.30555 -0.478181,0.30842 -0.597615,0.006 -0.83848,0.24777 -0.83848,0.84293 0,0.27945 0.05609,0.54247 0.124547,0.58494 0.226168,0.13973 0.129817,0.61941 -0.194978,0.96969 -0.3978239,0.42902 -0.5332042,1.12152 -0.270597,1.38413 0.189637,0.1896 0.171744,1.17141 -0.02817,1.54797 -0.048605,0.0915 -0.03242,0.37709 0.03633,0.63461 0.167284,0.62674 0.06492,0.83247 -0.4648348,0.93189 -0.442907,0.0831 -0.7644932,0.44125 -0.6583327,0.73321 0.029747,0.0818 -0.035051,0.25045 -0.1438223,0.37512 -0.1206377,0.1383 -0.1829337,0.39554 -0.1601364,0.65982 0.049865,0.57872 -0.1567695,0.79474 -0.7606405,0.79474 -0.042076,0 -0.064415,0.001 -0.099339,0.003 v 17.92024 H 55.331124 c -0.0052,-0.004 -0.01439,-0.0129 -0.01928,-0.0163 -0.218732,-0.15274 -0.428824,-0.32196 -0.46706,-0.37662 -0.07038,-0.10043 -1.151675,-0.76452 -1.759253,-1.08016 -0.181488,-0.0943 -0.539856,-0.4759 -0.796226,-0.84812 -0.256368,-0.37225 -0.813319,-0.99538 -1.237334,-1.38486 -0.424015,-0.3895 -1.274183,-1.29673 -1.888998,-2.01578 -1.215269,-1.4213 -1.717526,-1.8979 -2.860178,-2.71116 -0.411223,-0.29269 -0.903882,-0.69467 -1.094255,-0.89334 l -0.346213,-0.36105 0.12751,-1.09202 c 0.151641,-1.30108 0.259142,-1.41676 1.312957,-1.41676 0.589203,0 0.922295,-0.0881 1.62581,-0.42776 0.486661,-0.23498 1.150781,-0.51887 1.475313,-0.63165 0.338364,-0.11764 0.709652,-0.36095 0.871101,-0.57011 0.15483,-0.20058 0.458664,-0.58725 0.67464,-0.85924 0.322292,-0.40588 0.42991,-0.71263 0.601247,-1.71106 0.251149,-1.46352 0.269323,-1.52795 0.436663,-1.52795 0.21244,0 0.352868,0.52251 0.515248,1.91939 0.172215,1.48161 0.293167,1.54434 0.679832,0.35141 0.450464,-1.38975 0.301951,-2.35467 -0.885932,-5.75298 l -0.455197,-1.30406 0.192013,-0.68872 c 0.105976,-0.37864 0.225427,-0.98459 0.265409,-1.34707 0.04001,-0.36245 0.267196,-1.10026 0.504129,-1.63915 0.236933,-0.53889 0.430729,-1.02834 0.430729,-1.08757 0,-0.3953 0.708001,-2.17732 1.023085,-2.57477 0.603567,-0.76134 0.981685,-2.12998 1.088319,-3.93812 0.05046,-0.85601 0.134195,-1.6543 0.186084,-1.77409 0.05731,-0.13241 0.230041,-0.21796 0.439628,-0.21796 0.48121,0 0.578249,-0.178 0.679088,-1.24549 0.0485,-0.51359 0.14427,-1.40995 0.212773,-1.99203 0.315475,-2.68013 0.336833,-2.57731 -0.844413,-4.04637 -0.791049,-0.98379 -1.158894,-1.69307 -1.1632,-2.24114 -0.0014,-0.20544 -0.283317,-0.9336 -0.62571,-1.6184 -0.342407,-0.68481 -0.622004,-1.32465 -0.622004,-1.4212 0,-0.18248 -0.524069,-1.75709 -1.121684,-3.37246 -0.190009,-0.51361 -0.436245,-1.32014 -0.547127,-1.79188 -0.143523,-0.61062 -0.317642,-0.98688 -0.604954,-1.30701 -0.474912,-0.52916 -1.088318,-1.94827 -1.088318,-2.51767 0,-0.10043 -0.279408,-0.45801 -0.620524,-0.79401 l -0.619778,-0.61088 -0.422576,0.20165 c -0.295965,0.14103 -0.461928,0.16225 -0.553802,0.0704 -0.09183,-0.092 -0.232567,-0.0514 -0.468539,0.13414 -0.185315,0.14583 -0.456747,0.26468 -0.603472,0.26468 -0.146722,0 -0.3875,0.0849 -0.535262,0.1883 -0.211752,0.14824 -0.254926,0.2743 -0.203136,0.59309 0.04928,0.30364 0.0032,0.46099 -0.184601,0.63091 -0.320067,0.28969 -0.846702,0.23447 -0.792517,-0.0831 0.05738,-0.33675 -0.206804,-0.58197 -0.627191,-0.58197 -0.248204,0 -0.350901,-0.0518 -0.308408,-0.15568 0.03503,-0.0856 0.09941,-0.24274 0.142344,-0.34919 0.05467,-0.13543 -0.04351,-0.25092 -0.326202,-0.38477 -0.34916,-0.16537 -0.421439,-0.28301 -0.533039,-0.86516 l -0.129001,-0.67317 -0.840705,-0.037 c -0.778341,-0.0341 -1.020428,-0.14806 -0.715418,-0.33657 0.06846,-0.0423 0.124554,-0.21596 0.124554,-0.38552 0,-0.16957 0.09004,-0.44575 0.200166,-0.61384 0.184965,-0.28225 0.183747,-0.31149 -0.0089,-0.38552 -0.114741,-0.044 -0.27161,-0.0168 -0.34918,0.0608 -0.07757,0.0775 -0.223762,0.14088 -0.324718,0.14088 -0.132789,0 -0.102977,-0.0858 0.108243,-0.31062 0.519532,-0.55219 0.05581,-0.54876 -0.703551,0.006 -0.403948,0.29507 -0.490134,-0.006 -0.0986,-0.344 0.180535,-0.15606 0.410729,-0.44295 0.511542,-0.63683 0.11477,-0.22066 0.25092,-0.32638 0.363267,-0.2832 0.281788,0.10818 0.758906,-0.12854 0.833293,-0.41294 0.102274,-0.39116 -0.06733,-0.40539 -0.569368,-0.0482 -0.523469,0.37244 -0.655099,0.3175 -1.163942,-0.48856 -0.323723,-0.51282 -0.541936,-0.604 -0.541936,-0.22686 0,0.43453 -0.233653,0.39904 -0.536006,-0.0815 -0.1631,-0.25923 -0.403245,-0.63389 -0.533781,-0.83181 -0.130523,-0.19792 -0.293327,-0.44984 -0.361787,-0.55973 -0.443838,-0.71257 -0.60425,-0.88519 -0.82143,-0.88519 z m -3.350222,0.74657 c -0.06846,0 -0.124554,0.056 -0.124554,0.12452 0,0.0684 0.05609,0.12453 0.124554,0.12453 0.06846,0 0.124555,-0.0559 0.124555,-0.12453 0,-0.0684 -0.05609,-0.12452 -0.124555,-0.12452 z m -7.512979,0.54785 c -0.05348,-0.006 -0.110839,0.0205 -0.143075,0.0726 -0.04301,0.0696 0.0089,0.12682 0.11566,0.12682 0.218706,0 0.251284,-0.0749 0.07859,-0.18162 -0.01594,-0.01 -0.03333,-0.0156 -0.05116,-0.0178 z m 10.758669,0.48634 c 0.113952,0.0143 0.189421,0.12022 0.217961,0.31434 0.03007,0.20426 -0.02397,0.26985 -0.221666,0.26985 -0.315729,0 -0.483909,-0.35488 -0.240945,-0.50857 0.0938,-0.0594 0.176284,-0.0839 0.24465,-0.0756 z m -9.587312,0.0868 c -0.333984,0 -0.422901,0.0676 -0.579005,0.44112 -0.101385,0.24266 -0.266423,0.47296 -0.366976,0.51155 -0.100567,0.0386 -0.183117,0.11965 -0.183117,0.18089 v 7.3e-4 c 0,0.18832 0.50143,0.12266 0.577521,-0.0756 0.08077,-0.21049 0.488214,-0.25237 0.605697,-0.0623 0.09633,0.15536 0.316818,0.15565 0.559729,7.5e-4 0.159169,-0.10157 0.147485,-0.14704 -0.08156,-0.3084 -0.178105,-0.12553 -0.246472,-0.27324 -0.203131,-0.4389 0.05528,-0.21136 0.0044,-0.24984 -0.329166,-0.24984 z m -1.73479,0.18164 c -0.07236,-0.003 -0.136777,0.0129 -0.178671,0.0548 -0.09777,0.0977 -0.06799,0.18681 0.10675,0.31879 0.264885,0.20002 0.449687,0.19075 0.52192,-0.026 0.05315,-0.15945 -0.232925,-0.33875 -0.450005,-0.3477 z M 42.6575,228.502 c -0.07249,0 -0.131956,0.0554 -0.131956,0.12381 0,0.0684 0.02465,0.12452 0.05486,0.12452 0.0302,0 0.08961,-0.0559 0.131957,-0.12452 0.04231,-0.0684 0.01766,-0.12381 -0.05486,-0.12381 z m -16.672525,0.74951 c -0.07777,0.009 -0.16648,0.061 -0.250579,0.16237 -0.09979,0.12036 -0.0973,0.2036 0.0096,0.31062 0.244376,0.24438 0.470764,0.16547 0.470764,-0.16458 0,-0.21166 -0.100194,-0.32176 -0.229823,-0.30841 z m 5.8286,0.81032 c 0.06836,0.0158 0.127797,0.0623 0.128256,0.12753 0,0.0303 -0.08747,0.0557 -0.194237,0.0557 -0.106722,0 -0.15865,-0.0572 -0.115645,-0.12682 0.03554,-0.0574 0.113019,-0.0722 0.181632,-0.0564 z m -6.478775,0.0646 c -0.134784,0.0129 -0.277317,0.0746 -0.365493,0.1809 -0.08902,0.10731 -0.360322,0.18681 -0.637574,0.18681 -0.33352,0 -0.482625,0.0547 -0.482625,0.17645 0,0.097 0.07008,0.20647 0.155687,0.24391 0.218796,0.0958 2.124962,-0.0508 2.255225,-0.17349 0.156171,-0.14697 -0.02185,-0.37141 -0.294321,-0.37141 -0.128872,0 -0.269022,-0.0559 -0.311371,-0.12452 -0.05748,-0.093 -0.184741,-0.13084 -0.319528,-0.11865 z m 20.943519,0.2706 c -0.0372,0.009 -0.07485,0.0257 -0.116392,0.0519 -0.116749,0.0736 -0.23164,0.2313 -0.255026,0.35066 -0.03585,0.18234 0.01895,0.20372 0.342509,0.1327 0.297874,-0.0654 0.384766,-0.0419 0.384766,0.10387 0,0.10358 -0.115616,0.22449 -0.256511,0.26911 -0.196838,0.0624 -0.490783,0.4978 -0.490783,0.72654 0,0.0158 0.200478,0.0198 0.445561,0.0129 0.329905,-0.0115 0.523745,-0.10918 0.746553,-0.3781 l 0.300995,-0.36327 0.238716,0.28024 c 0.263024,0.30919 0.509318,0.36753 0.509318,0.12079 0,-0.31308 -0.371132,-0.6807 -0.76731,-0.75989 -0.221727,-0.0443 -0.534954,-0.20365 -0.695397,-0.35438 -0.171312,-0.16085 -0.275397,-0.21828 -0.386996,-0.19274 z m -26.239079,1.9142 c -0.177149,0.0275 -0.462717,0.22941 -0.524145,0.41368 -0.03601,0.10803 0.06736,0.094 0.339545,-0.0468 0.215286,-0.11133 0.356595,-0.25959 0.313599,-0.32917 -0.02262,-0.0366 -0.06995,-0.047 -0.129001,-0.0379 z m 28.113246,0.3299 c -0.05644,0.004 -0.124282,0.0694 -0.254287,0.19943 -0.337995,0.33804 -0.356419,0.76583 -0.03262,0.76583 0.129633,0 0.269251,0.0872 0.309892,0.19276 0.0575,0.14977 0.12827,0.1629 0.320269,0.0601 0.235065,-0.12596 0.232473,-0.50189 -0.0037,-0.50189 -0.05902,0 -0.07961,-0.071 -0.04597,-0.15866 0.0336,-0.0875 -0.01587,-0.26467 -0.109721,-0.39293 -0.08275,-0.11319 -0.127409,-0.16904 -0.18386,-0.16458 z m -20.657352,0.96823 c 0.620454,-0.004 1.216081,0.0314 1.264025,0.10903 0.09212,0.14902 -0.228915,0.26171 -0.74433,0.26171 -0.288627,0 -0.511401,0.0977 -0.709484,0.31137 l -0.288392,0.31137 -0.271338,-0.27135 c -0.233061,-0.23312 -0.316087,-0.25131 -0.587902,-0.12753 -0.279923,0.12739 -0.316561,0.1162 -0.316561,-0.0978 0,-0.13313 0.108487,-0.2998 0.240941,-0.37067 0.147329,-0.0789 0.792587,-0.12195 1.413041,-0.12611 z m -7.449961,2.1455 c -0.191806,-0.001 -0.447785,0.01 -0.771762,0.0341 -0.667686,0.0488 -1.29219,0.15114 -1.38709,0.22761 -0.0949,0.0765 -0.454036,0.16783 -0.798449,0.20312 -0.559829,0.0574 -0.640614,0.10387 -0.761381,0.44038 -0.0743,0.20706 -0.314583,0.6346 -0.534521,0.94969 -0.344722,0.49383 -0.775661,1.4617 -0.781401,1.75554 -0.0027,0.13988 0.220334,0.11233 0.313601,-0.0386 0.04673,-0.0756 0.235862,-0.0981 0.443332,-0.0526 0.254826,0.056 0.36583,0.0307 0.375874,-0.0859 0.0079,-0.0911 0.02181,-0.2434 0.03113,-0.3388 0.0092,-0.0954 0.340098,-0.34777 0.735434,-0.56048 0.395337,-0.21272 0.815846,-0.47143 0.934118,-0.5753 0.193729,-0.17003 1.412805,-0.98345 2.300453,-1.53462 0.473732,-0.29374 0.476063,-0.4193 -0.09935,-0.42406 z m 9.035736,3.87214 c 0.04201,0.003 0.07975,0.01 0.111944,0.0222 0.170438,0.0661 0.164479,0.1 -0.04523,0.25428 -0.280942,0.20671 -0.643226,0.23181 -0.753964,0.0527 -0.08692,-0.1406 0.39325,-0.34677 0.687242,-0.32917 z m -0.432215,2.84313 c 0.07898,10e-4 0.129834,0.009 0.143827,0.023 0.178602,0.1786 -0.411296,1.10717 -0.94969,1.49534 -0.708422,0.51077 -0.952611,0.61507 -1.503482,0.64276 v 7.4e-4 c -0.239681,0.0115 -0.730278,0.0653 -1.089806,0.11865 -0.359519,0.0531 -0.653881,0.0545 -0.653881,0.003 0,-0.0516 0.111097,-0.29739 0.246873,-0.5464 0.135773,-0.24899 0.303656,-0.60977 0.372905,-0.80141 0.07768,-0.21502 0.281329,-0.41051 0.531558,-0.5108 0.412298,-0.16531 2.348913,-0.4351 2.901696,-0.4248 z m -10.507345,2.59773 c 0.06728,0.004 0.09702,0.11721 0.03188,0.28691 -0.04318,0.11248 -0.128658,0.20462 -0.189789,0.20462 -0.141913,0 -0.138341,-0.13715 0.0089,-0.36994 0.05516,-0.0872 0.108644,-0.1241 0.149015,-0.12166 z m 8.907484,0.023 c 0.04315,8.7e-4 0.08869,0.01 0.138628,0.0252 0.403256,0.12796 0.567336,0.50392 0.325458,0.74582 -0.107482,0.10731 -0.289842,0.18881 -0.404782,0.18163 -0.684346,-0.0473 -0.804501,-0.25846 -0.418873,-0.7347 0.124053,-0.1527 0.23012,-0.22056 0.359564,-0.21796 z m -7.635305,0.11635 c 0.223252,-0.004 0.45075,0.24899 0.45075,0.54045 0,0.15521 0.105086,0.41165 0.232791,0.56936 0.224391,0.27708 0.255266,0.28123 0.920773,0.12151 0.98546,-0.23641 1.272297,-0.13715 1.933476,0.66871 0.181021,0.22064 0.503939,0.23159 2.32936,0.08 0.75721,-0.0628 1.537729,-0.0555 1.992046,0.0192 0.41089,0.0677 1.195845,0.15923 1.743688,0.20313 0.902689,0.0725 0.99958,0.10516 1.034942,0.35364 0.02446,0.17192 -0.05685,0.33461 -0.217959,0.43518 -0.358503,0.22389 -0.322854,0.3898 0.177184,0.82884 0.280076,0.24591 0.406953,0.44977 0.358823,0.5753 -0.04102,0.10688 -0.0066,0.35807 0.07636,0.55825 0.115186,0.27819 0.116807,0.46629 0.0075,0.7977 -0.118515,0.35913 -0.242122,0.46763 -0.719122,0.63016 -0.316774,0.10803 -0.700805,0.19647 -0.854052,0.19647 -0.177248,0 -0.425305,0.18457 -0.681315,0.50783 -0.221356,0.27946 -0.539992,0.56025 -0.708001,0.62423 -0.178929,0.068 -0.279028,0.18504 -0.241686,0.28245 0.04988,0.12998 -0.3107,0.19503 -1.65472,0.29803 -0.945151,0.0725 -1.832866,0.19274 -1.972771,0.26763 -0.139919,0.0749 -0.424266,0.13644 -0.631641,0.13644 -0.599859,0 -1.671817,0.46143 -2.095837,0.90223 -0.44663,0.4643 -0.903817,1.53468 -0.906686,2.12178 -0.0024,0.50914 -0.102404,0.65233 -0.527109,0.7562 -0.400671,0.0981 -0.448385,0.38759 -0.0949,0.57677 0.35062,0.18765 0.576785,0.69821 0.667971,1.50868 0.04324,0.38438 0.224566,1.0182 0.403302,1.40859 0.178716,0.39041 0.305264,0.72972 0.280974,0.75397 -0.02426,0.0242 -0.155986,-0.0407 -0.292837,-0.14457 -0.136849,-0.10401 -0.492904,-0.29633 -0.791037,-0.42703 -0.298128,-0.13084 -0.683665,-0.3493 -0.857015,-0.48559 -0.173349,-0.13629 -0.417312,-0.24762 -0.541939,-0.24762 -0.162364,0 -0.252434,-0.13256 -0.318784,-0.46705 -0.115358,-0.58189 -0.11246,-1.68278 0.0067,-2.31602 0.08011,-0.42567 0.124956,-0.47377 0.396628,-0.42184 0.422034,0.0806 0.49292,-0.10329 0.228339,-0.59456 -0.206296,-0.38308 -0.212537,-0.54551 -0.07784,-2.01281 0.313873,-3.41936 0.324558,-3.93893 0.09341,-4.38591 -0.117568,-0.22736 -0.24474,-0.71789 -0.283199,-1.09055 -0.04904,-0.47499 -0.109591,-0.63848 -0.201651,-0.54638 -0.191509,0.19161 -0.455197,0.1607 -0.455197,-0.0534 0,-0.10172 0.172331,-0.46498 0.382543,-0.80661 0.243965,-0.3965 0.395611,-0.82378 0.419612,-1.18248 0.0378,-0.56555 0.514192,-1.37622 0.894085,-1.522 0.03105,-0.0115 0.06226,-0.0178 0.09415,-0.0185 z m 4.325858,0.54118 c 0.15258,0.003 0.335776,0.0144 0.553798,0.0318 l 0.862947,0.0704 -0.622742,0.1631 v 7.3e-4 c -0.342402,0.0898 -0.678095,0.15546 -0.746555,0.14829 -0.421075,-0.0492 -0.685021,-0.13629 -0.685021,-0.22538 0,-0.14031 0.179829,-0.19864 0.637573,-0.18906 z m 4.095292,0.20462 c 0.02681,-0.004 0.05786,-0.003 0.09193,0.004 0.119849,0.0231 0.206981,0.097 0.193494,0.16458 -0.04327,0.21705 -0.411455,0.21511 -0.411455,-0.001 0,-0.0961 0.04558,-0.15468 0.126032,-0.1668 z m 6.701926,3.58153 c 0.224309,0.0178 0.377783,0.30288 0.452233,0.8496 0.09925,0.72882 0.301694,0.83132 0.885928,0.44852 0.345416,-0.22633 0.610024,-0.0977 0.48263,0.23428 -0.07614,0.19838 -0.920193,0.46928 -1.462712,0.46928 -0.164504,0 -0.400932,0.11204 -0.524884,0.2491 -0.42726,0.47211 -0.56047,0.24748 -0.56047,-0.9445 0,-0.63313 0.05181,-0.851 0.249095,-1.04829 0.183191,-0.18317 0.343597,-0.26864 0.47818,-0.25799 z m -2.264867,0.88592 c 0.202069,-0.0148 0.458474,0.0537 0.595316,0.19054 0.287766,0.28778 0.266324,1.44491 -0.03188,1.71478 -0.125243,0.11319 -0.283889,0.20609 -0.352149,0.20609 -0.216937,0 -0.617236,-0.54101 -0.831807,-1.12464 -0.261135,-0.71034 -0.259685,-0.74285 0.0341,-0.74285 0.132918,0 0.276435,-0.0559 0.318788,-0.12453 0.0443,-0.0717 0.146389,-0.11046 0.267629,-0.11936 z m -16.688833,1.03347 c 0.01488,0.003 0.03107,0.01 0.04819,0.0201 0.06846,0.0423 0.124554,0.10172 0.124554,0.13199 0,0.0303 -0.05609,0.0548 -0.124554,0.0548 -0.06846,0 -0.124555,-0.0594 -0.124555,-0.13199 0,-0.0545 0.03172,-0.0825 0.07636,-0.0749 z m 0.109721,0.65091 c 0.102174,-0.0151 0.187564,0.0505 0.187564,0.18534 0,0.0644 -0.118572,0.11707 -0.263924,0.11707 -0.219901,0 -0.238505,-0.031 -0.110466,-0.18534 0.05832,-0.0703 0.125515,-0.10803 0.186826,-0.11707 z m 22.233493,1.29887 c 0.06444,0 0.117137,0.056 0.117137,0.12453 0,0.0684 -0.08747,0.12452 -0.194238,0.12452 -0.106837,0 -0.159483,-0.0559 -0.117137,-0.12452 0.04232,-0.0684 0.12979,-0.12453 0.194238,-0.12453 z m 3.48441,0.258 c 0.08134,-0.009 0.195039,0.0498 0.323234,0.17793 0.102719,0.10272 0.326646,0.18681 0.497455,0.18681 0.683017,0 1.078982,0.51611 0.512279,0.66798 -0.154079,0.0412 -0.373971,0.0763 -0.488555,0.077 -0.304061,0.003 -0.974893,-0.60339 -0.974893,-0.88073 0,-0.1426 0.04914,-0.21992 0.13048,-0.22908 z m -7.842886,2.00761 c 0.06826,-0.007 0.142243,-0.007 0.22834,7.4e-4 0.554616,0.0482 0.867814,0.47376 0.96748,1.31518 v 7.5e-4 l 0.0771,0.65239 -0.484111,-0.003 c -0.266334,-10e-4 -0.568956,-0.0555 -0.671674,-0.12079 -0.10272,-0.0653 -0.401967,-0.0842 -0.665746,-0.0422 -0.325595,0.0516 -0.511481,0.025 -0.578262,-0.0831 -0.158856,-0.25706 0.08817,-0.88686 0.524886,-1.33743 0.246732,-0.25456 0.397183,-0.35899 0.601987,-0.38255 z m 14.68493,1.09573 c 0.402604,0 0.523392,0.28945 0.176443,0.42259 -0.361373,0.13873 -0.550093,0.0506 -0.550093,-0.25651 0,-0.10143 0.145391,-0.16608 0.37365,-0.16608 z M 35.762079,257.321 c 0.08714,0.003 0.229288,0.19314 0.37068,0.53155 0.09972,0.23871 0.159986,0.45534 0.133449,0.48188 -0.109175,0.10918 -0.588643,-0.54791 -0.588643,-0.8066 0,-0.14275 0.03224,-0.20835 0.08451,-0.20683 z m -1.39673,0.82661 c 0.198026,0.0191 0.368323,0.0878 0.48337,0.215 0.113335,0.12524 0.206095,0.42664 0.206095,0.66945 0,0.2428 0.08916,0.68634 0.197947,0.98601 0.312871,0.86172 0.292157,1.71368 -0.05338,2.19814 -0.39467,0.55334 -1.594452,1.14838 -2.316019,1.14838 -0.539065,0 -1.605451,0.4718 -2.579202,1.1417 v 7.3e-4 c -0.41437,0.28515 -0.443951,0.28353 -0.541936,-0.0252 -0.103293,-0.32545 0.288426,-1.13248 0.920029,-1.89493 0.471729,-0.56946 1.076351,-2.00338 0.938568,-2.22631 -0.0368,-0.0595 -0.175491,-0.10817 -0.308408,-0.10817 -0.288183,0 -0.317664,-0.28046 -0.05264,-0.50041 0.154192,-0.12812 0.230491,-0.11893 0.415164,0.0482 0.210555,0.19016 0.239601,0.18943 0.41294,-0.0143 0.102547,-0.12036 0.316373,-0.43571 0.475212,-0.7006 0.362912,-0.60529 1.208179,-0.99525 1.802256,-0.93781 z m -17.307131,4.90561 c 0.432583,0 0.66723,0.5632 0.880738,2.11659 0.112963,0.82177 0.23442,1.67606 0.269858,1.89862 0.08425,0.52944 -0.242869,0.558 -0.457422,0.04 -0.08304,-0.20049 -0.26337,-0.4662 -0.401077,-0.59086 -0.415115,-0.37568 -0.580566,-0.82579 -0.659813,-1.79485 -0.08854,-1.08263 0.04033,-1.66955 0.367716,-1.66955 z m 8.541249,0.43591 c 0.06443,0 0.117137,0.0841 0.117137,0.18683 0,0.19267 -0.146688,0.24691 -0.286908,0.10674 -0.09948,-0.0994 0.01277,-0.29359 0.169775,-0.29359 z m -2.820888,0.24911 c 0.253875,0 0.712512,0.72509 0.667966,1.05644 -0.04364,0.32479 -0.419241,0.39029 -0.574557,0.10014 -0.06701,-0.12524 -0.161134,-0.43689 -0.209063,-0.69244 -0.07162,-0.38169 -0.05067,-0.46409 0.115659,-0.46409 z m 7.548563,1.94904 0.366233,0.34992 c 0.251287,0.24074 0.565495,0.38205 1.005289,0.45149 0.943456,0.14914 1.034825,0.26578 0.939308,1.19804 -0.06063,0.59175 -0.03244,0.8739 0.116391,1.16172 0.376595,0.72824 0.152549,0.91764 -1.621364,1.36781 -0.547841,0.13902 -1.345483,0.37272 -1.77186,0.51971 -0.727127,0.25069 -0.789674,0.25435 -1.00603,0.0585 -0.311228,-0.28164 -0.713391,-0.26269 -1.254384,0.0592 -0.557813,0.33199 -0.761908,0.57609 -0.7599,0.90743 9.26e-4,0.14103 -0.153259,0.5759 -0.342508,0.96599 -0.18924,0.39009 -0.38725,0.71255 -0.439628,0.71542 -0.189467,0.0129 -0.586054,-0.81148 -0.713933,-1.4842 -0.07193,-0.37839 -0.247782,-1.19186 -0.390701,-1.80819 -0.508034,-2.19082 -0.512183,-2.48014 -0.03188,-2.11659 0.266447,0.20156 1.116809,0.24881 1.228436,0.0681 0.109132,-0.1766 1.490133,-1.20878 1.893445,-1.41526 0.193157,-0.0988 0.603708,-0.21866 0.911876,-0.26615 0.30816,-0.0475 0.855209,-0.23213 1.215835,-0.40997 z m 4.165722,3.06628 c 0.08258,-10e-4 0.174253,0.0317 0.310631,0.0882 0.674541,0.27941 0.740026,0.74444 0.146787,1.04607 -0.657388,0.33424 -0.866735,0.34909 -1.134286,0.0815 -0.337566,-0.33757 -0.328274,-0.3848 0.173479,-0.87111 0.253285,-0.24549 0.365758,-0.34281 0.503389,-0.34472 z m -5.601002,3.76168 2.178867,0.007 c 1.793935,0.006 2.299335,0.0482 2.863146,0.24095 l 0.685021,0.23426 -2.10844,0.51821 -2.107695,0.51747 -0.942275,0.99936 c -0.518239,0.54962 -1.040387,1.03262 -1.160234,1.0735 -0.316837,0.10774 -0.266772,0.39463 0.111944,0.64276 0.311994,0.20476 0.420272,0.20525 2.023181,0.006 0.931497,-0.11578 1.900069,-0.24039 2.152922,-0.27654 0.612521,-0.0875 1.592824,0.25011 2.018733,0.69466 l 0.340284,0.35437 -0.427765,0.26467 c -0.235335,0.14551 -0.493945,0.26466 -0.574556,0.26466 -0.0806,0 -0.498151,0.35836 -0.92819,0.79698 -0.740675,0.7554 -1.313188,1.06691 -1.962389,1.06977 -0.111485,3.9e-4 -0.403589,0.0848 -0.649436,0.18758 v -7.5e-4 c -0.81796,0.34177 -1.007939,0.23945 -1.473085,-0.79252 -0.20482,-0.45441 -0.45486,-1.07819 -0.555281,-1.38635 -0.264198,-0.8108 -0.418648,-1.09961 -1.008998,-1.88528 -0.509475,-0.67802 -0.523944,-0.72307 -0.418869,-1.28553 0.12837,-0.68718 0.620758,-1.34974 1.391537,-1.87194 z m -20.6551315,1.22621 c -0.044645,-0.007 -0.076359,0.0197 -0.076359,0.0742 0,0.0726 0.05609,0.13199 0.1245471,0.13199 0.06846,0 0.1245514,-0.0247 0.1245514,-0.0548 0,-0.0301 -0.05609,-0.0897 -0.1245514,-0.13199 -0.017115,-0.01 -0.033305,-0.0168 -0.048188,-0.0192 z"
       id="path828"
       inkscape:connector-curvature="0" />
  </g>
</svg>
