<?xml version="1.0" encoding="UTF-8" standalone="no"?>
<svg
   xmlns:dc="http://purl.org/dc/elements/1.1/"
   xmlns:cc="http://creativecommons.org/ns#"
   xmlns:rdf="http://www.w3.org/1999/02/22-rdf-syntax-ns#"
   xmlns:svg="http://www.w3.org/2000/svg"
   xmlns="http://www.w3.org/2000/svg"
   id="svg8"
   version="1.1"
   viewBox="0 0 109.24957 67.875589"
   height="256.53766"
   width="412.91177">
  <defs
     id="defs2" />
  <metadata
     id="metadata5">
    <rdf:RDF>
      <cc:Work
         rdf:about="">
        <dc:format>image/svg+xml</dc:format>
        <dc:type
           rdf:resource="http://purl.org/dc/dcmitype/StillImage" />
        <dc:title></dc:title>
      </cc:Work>
    </rdf:RDF>
  </metadata>
  <g
     transform="translate(-6.9802888,-225.78449)"
     id="layer1">
    <path
       style="fill:#6d6d6d;stroke-width:0.08678901"
       d="m 30.895458,293.08608 c -0.429608,-0.30772 -0.953834,-0.68349 -1.16495,-0.83502 -0.211122,-0.15155 -0.796944,-0.45976 -1.301838,-0.68493 -1.203694,-0.53679 -1.979781,-0.92952 -2.044823,-1.03475 -0.02883,-0.0467 -0.411983,-0.27005 -0.851427,-0.49638 -0.545299,-0.28086 -1.04699,-0.63443 -1.580083,-1.11356 -0.429608,-0.38611 -1.074013,-0.88929 -1.43202,-1.11818 -0.358002,-0.22889 -0.768082,-0.52274 -0.911283,-0.653 -0.303948,-0.27647 -1.184907,-0.89194 -1.865963,-1.30363 -0.651471,-0.3938 -4.083351,-2.88477 -5.626901,-4.08418 -0.461384,-0.35851 -1.131797,-0.86476 -1.4898,-1.12499 -0.358008,-0.26023 -0.924302,-0.71099 -1.258441,-1.00169 -0.334139,-0.2907 -0.88091,-0.73751 -1.215049,-0.9929 -0.3341342,-0.2554 -0.6856322,-0.55165 -0.7811012,-0.65833 -0.1971819,-0.22034 -1.9954218,-1.74662 -2.2316612,-1.89416 -0.1454989,-0.0909 -0.1550345,-0.36404 -0.1550345,-4.44144 0,-3.35649 0.0247,-4.37075 0.1084882,-4.45959 0.08679,-0.092 0.08679,-0.12296 0,-0.15478 -0.1388171,-0.0509 -0.1559004,-3.41969 -0.018648,-3.67616 0.061927,-0.11571 0.061927,-0.16787 0,-0.16787 -0.059797,0 -0.089845,-0.81442 -0.089845,-2.43522 0,-1.63878 0.029079,-2.41725 0.088836,-2.3803 0.057966,0.0358 0.070331,-0.0608 0.035574,-0.27812 -0.043152,-0.26978 -0.018795,-0.3642 0.1281349,-0.49719 0.099764,-0.0903 0.1813927,-0.19755 0.1813927,-0.23837 0,-0.0408 0.1366914,-0.26871 0.3037609,-0.5064 0.1670696,-0.23769 0.3037611,-0.48322 0.3037611,-0.54562 0,-0.16543 0.632163,-0.75621 0.8091814,-0.75621 0.083021,0 0.1720636,-0.0684 0.1978756,-0.15188 0.085569,-0.27692 0.1821946,-0.41226 0.2943239,-0.41226 0.060948,0 0.1244545,-0.1246 0.1411246,-0.2769 0.05,-0.45669 0.3811872,-0.99363 0.9634036,-1.56192 0.302585,-0.29533 0.591846,-0.6566 0.642811,-0.8028 0.09756,-0.27986 0.3952,-0.38973 0.308617,-0.11392 -0.02623,0.0835 -0.107484,0.36668 -0.180575,0.62922 -0.0976,0.35054 -0.227531,0.5661 -0.489135,0.81148 -0.195927,0.18378 -0.338503,0.38034 -0.316834,0.4368 0.02165,0.0564 0.202093,0.10915 0.400947,0.11708 0.316972,0.0126 0.355188,-0.005 0.309941,-0.14819 -0.05108,-0.16094 0.07366,-0.26318 0.630771,-0.51704 0.108626,-0.0495 0.220204,-0.14917 0.247959,-0.22149 0.02775,-0.0723 0.09805,-0.13148 0.156226,-0.13148 0.05817,0 0.195548,-0.0956 0.305276,-0.21237 0.171124,-0.18215 0.182539,-0.23112 0.08022,-0.34415 -0.407614,-0.45028 -0.410478,-0.46486 -0.09833,-0.50089 0.251473,-0.029 0.346607,-0.22725 0.234281,-0.48817 -0.03479,-0.0808 -0.06736,-0.22493 -0.07243,-0.32039 -0.005,-0.0955 -0.06781,-0.17358 -0.139412,-0.17358 -0.0716,0 -0.141696,0.0781 -0.155768,0.17358 -0.03985,0.27054 -0.325593,0.59781 -0.472642,0.54138 -0.10805,-0.0415 -0.08476,-0.14672 0.138518,-0.6261 0.228903,-0.49147 0.294279,-0.56811 0.444241,-0.52084 0.480371,0.15146 0.593194,0.14964 0.730234,-0.0118 0.07695,-0.0907 0.132982,-0.15114 0.124504,-0.13442 -0.0085,0.0167 0.116568,0.14627 0.277866,0.2879 0.240948,0.21155 0.323969,0.24106 0.465345,0.1654 0.09464,-0.0506 0.194165,-0.0921 0.221173,-0.0921 0.09765,0 0.0462,0.29327 -0.0749,0.42711 -0.110407,0.122 -0.09376,0.13805 0.151886,0.14645 0.151732,0.005 0.363277,0.0389 0.470097,0.0749 0.142886,0.0482 0.20902,0.0269 0.250213,-0.0804 0.03907,-0.10185 -0.05567,-0.25004 -0.3137,-0.49066 -0.203337,-0.1896 -0.342779,-0.37166 -0.309877,-0.40455 0.03291,-0.0329 0.262415,-0.0606 0.510031,-0.0616 0.341529,-0.002 0.450214,-0.0332 0.450214,-0.13199 0,-0.10141 -0.12291,-0.13181 -0.55605,-0.13753 -0.468754,-0.006 -0.58117,-0.0384 -0.71601,-0.20489 -0.08798,-0.10865 -0.15996,-0.25338 -0.15996,-0.32163 0,-0.0682 -0.0819,-0.23486 -0.181998,-0.37025 -0.217803,-0.29458 -0.189408,-0.56135 0.06362,-0.59762 0.10098,-0.0145 0.273373,-0.12188 0.383096,-0.23867 0.265063,-0.28214 0.374323,-0.26856 0.710494,0.0884 0.418425,0.44424 0.648199,0.46552 1.061014,0.0983 0.325485,-0.28957 0.334597,-0.31151 0.19395,-0.46693 -0.140662,-0.15543 -0.132313,-0.17532 0.178051,-0.42402 0.600437,-0.48117 0.889762,-0.57685 0.889762,-0.29425 0,0.0926 0.03473,0.18993 0.0772,0.21617 0.04246,0.0262 0.09637,0.175 0.119805,0.33058 0.02342,0.15558 0.164442,0.57007 0.313356,0.92108 0.148908,0.35101 0.27074,0.73318 0.27074,0.84925 0,0.11606 0.06373,0.3083 0.141622,0.42718 0.132277,0.20187 0.131087,0.22778 -0.01806,0.39257 -0.202742,0.22403 -0.08206,0.45113 0.272994,0.51372 0.150187,0.0265 0.320072,0.15088 0.431207,0.3158 0.644395,0.95622 1.784743,2.13409 1.927704,1.99112 0.03051,-0.0305 0.002,-0.29851 -0.06303,-0.59553 -0.0652,-0.29702 -0.127712,-0.71578 -0.138931,-0.93058 -0.01122,-0.2148 -0.06222,-0.6444 -0.113349,-0.95468 -0.05113,-0.31027 -0.152126,-1.18242 -0.224435,-1.93812 -0.118723,-1.24069 -0.157485,-1.42137 -0.399575,-1.86249 -0.449196,-0.81849 -0.592224,-0.96603 -1.281857,-1.32227 -0.365467,-0.18879 -0.808537,-0.43119 -0.984596,-0.53866 -0.332451,-0.20295 -0.319737,-0.20381 -0.970125,0.0661 -0.142463,0.0592 -0.150306,0.0454 -0.06509,-0.1138 0.145616,-0.27209 0.122521,-0.35184 -0.185177,-0.63953 -0.254085,-0.23757 -1.824563,-1.33389 -2.523028,-1.7613 -0.151754,-0.0929 -0.447519,-0.2979 -0.657253,-0.45564 -0.318114,-0.23926 -0.456478,-0.28681 -0.83459,-0.28681 h -0.453251 l -1.16156,1.17118 c -0.638855,0.64415 -1.3568329,1.39211 -1.5955029,1.66213 -0.2386701,0.27002 -0.5591405,0.56599 -0.7121576,0.6577 -0.153022,0.0917 -0.302403,0.24294 -0.3319643,0.33609 -0.046595,0.14674 -0.9049554,0.85951 -1.0351078,0.85951 -0.025881,0 -0.047087,-0.15852 -0.047087,-0.35228 0,-0.21275 0.034393,-0.33103 0.08679,-0.29864 0.050635,0.0313 0.08679,-0.057 0.08679,-0.21185 0,-0.14601 -0.039067,-0.26549 -0.08679,-0.26549 -0.057356,0 -0.08679,-3.38476 -0.08679,-9.98073 v -9.98072 h 3.4414256 3.441428 l -0.05429,0.93298 c -0.100091,1.72009 -0.747493,3.5171 -1.83909,5.1048 -0.2603,0.37861 -0.537841,0.81118 -0.616753,0.96128 -0.195962,0.37274 -0.106545,0.68264 0.230911,0.80028 0.283268,0.0987 1.21123,0.84844 1.21123,0.97854 0,0.0429 -0.09764,0.0534 -0.216975,0.0235 -0.154041,-0.0387 -0.216972,-0.0193 -0.216972,0.067 0,0.0668 0.59559,0.7785 1.323532,1.5815 0.727944,0.80299 1.389992,1.56296 1.471217,1.68879 0.08122,0.12583 0.378732,0.44358 0.661129,0.70612 0.282397,0.26254 0.923717,0.94601 1.425152,1.51881 0.50144,0.57281 1.000514,1.11958 1.109056,1.21505 0.108543,0.0955 0.30966,0.32708 0.446927,0.5147 0.137273,0.18762 0.492279,0.5977 0.788915,0.91129 0.296631,0.31358 0.76975,0.84354 1.05138,1.17768 0.281624,0.33413 0.719075,0.82232 0.972108,1.08486 1.849371,1.91884 2.727472,3.02585 2.727472,3.43851 0,0.10196 -0.05859,0.23399 -0.130187,0.29342 -0.156491,0.12987 -0.165928,0.34732 -0.02819,0.64961 0.09437,0.2071 0.425942,0.48675 1.324172,1.11682 0.194161,0.13619 0.470186,0.35568 0.613387,0.48773 0.143201,0.13205 0.440142,0.34317 0.659864,0.46915 0.219727,0.12598 0.472617,0.30986 0.561979,0.4086 0.08936,0.0987 0.329431,0.2556 0.533482,0.34855 0.484233,0.22059 0.483535,0.38633 -0.0014,0.39406 -0.334449,0.005 -0.374457,-0.0158 -0.390217,-0.20627 -0.02667,-0.32225 -0.08597,-0.37027 -0.457289,-0.37027 -0.274224,0 -0.342031,0.0316 -0.342031,0.15965 0,0.0878 0.0969,0.20379 0.215323,0.25775 0.181476,0.0827 0.207057,0.13945 0.16273,0.36109 -0.04753,0.23768 -0.03135,0.26298 0.168329,0.26298 0.175453,0 0.232829,0.0542 0.278755,0.2633 0.06561,0.29871 0.404899,0.56392 0.61721,0.48245 0.219073,-0.0841 0.395619,0.10478 0.287254,0.30725 -0.0491,0.0918 -0.126418,0.14398 -0.171753,0.11596 -0.107446,-0.0664 -0.104002,-0.009 0.01525,0.25229 0.05372,0.11792 0.194584,0.23871 0.313026,0.26843 0.179444,0.045 0.209227,0.0958 0.178623,0.30431 -0.02854,0.19433 0.0082,0.27429 0.164309,0.35784 0.110574,0.0592 0.201044,0.14235 0.201044,0.18484 0,0.0425 0.04881,0.0496 0.108483,0.016 0.08679,-0.049 0.08679,-0.0378 0,0.0557 -0.214836,0.23145 -0.123367,0.34253 0.282068,0.34253 0.376084,0 0.390551,-0.01 0.390551,-0.26036 0,-0.30263 0.0084,-0.30537 0.366977,-0.11994 0.205816,0.10644 0.378136,0.1249 0.711699,0.0763 0.24207,-0.0352 0.65493,-0.0887 0.917469,-0.11873 0.402988,-0.0461 0.481512,-0.0839 0.50414,-0.24277 0.02179,-0.15308 -0.08342,-0.2488 -0.564124,-0.51325 -0.634865,-0.34923 -1.32864,-0.86753 -1.32864,-0.99259 0,-0.1429 0.514573,0.13848 1.278792,0.69928 0.418415,0.30704 0.88832,0.60325 1.044245,0.65826 0.15592,0.055 0.45291,0.25619 0.659977,0.44705 0.207067,0.19088 0.460281,0.37364 0.562698,0.40615 0.163104,0.0518 0.26864,0.22098 0.137823,0.22098 -0.0695,0 -0.847264,-0.43501 -0.945341,-0.52874 -0.146502,-0.14 -0.625575,-0.0837 -0.860525,0.10109 -0.345471,0.27175 -0.268901,0.50525 0.143265,0.43689 0.03749,-0.006 0.212548,0.0868 0.389,0.2067 0.176448,0.1199 0.370334,0.218 0.430853,0.218 0.06052,0 0.110039,0.0708 0.110039,0.15721 0,0.24758 0.316278,0.52375 0.672273,0.58701 0.179188,0.0318 0.423438,0.1469 0.542771,0.25568 0.236156,0.21525 0.624821,0.26144 0.930024,0.11051 0.143605,-0.0711 0.225036,-0.0679 0.321489,0.0121 0.402674,0.33419 0.785559,0.44047 1.112755,0.30889 0.194963,-0.0784 0.304307,0.18052 0.168241,0.39839 -0.07712,0.12349 -0.06931,0.18706 0.03592,0.29227 0.07394,0.0739 0.168087,0.13445 0.209192,0.13445 0.04113,0 0.100187,0.0802 0.131284,0.17815 0.04242,0.13368 0.08447,0.15497 0.168427,0.0853 0.06154,-0.0511 0.176871,-0.0679 0.2563,-0.0375 0.08279,0.0318 0.214772,-0.008 0.309297,-0.0938 0.174543,-0.15795 0.349392,-0.11554 0.349392,0.0848 0,0.17361 0.169903,0.2527 0.495747,0.23076 0.156943,-0.0106 0.285354,0.0205 0.285354,0.0692 0,0.0486 0.135298,0.14488 0.30067,0.21397 0.196301,0.082 0.320077,0.20294 0.356567,0.34832 0.06207,0.24733 0.22169,0.28835 0.379947,0.0977 0.140066,-0.16877 0.376867,-0.0684 0.323162,0.13699 -0.03744,0.14316 0.01225,0.16161 0.435079,0.16161 0.404347,0 0.484278,0.0266 0.52273,0.17358 0.03523,0.13476 0.118383,0.17358 0.371799,0.17358 0.184262,0 0.373458,0.0567 0.43445,0.13018 0.152097,0.18328 0.459238,0.16179 0.585867,-0.041 0.123338,-0.1975 0.385262,-0.144 0.35912,0.0733 -0.0094,0.0777 0.0086,0.20955 0.03976,0.29308 0.03119,0.0835 0.07503,0.21046 0.0974,0.28207 0.02819,0.0903 0.159822,0.13018 0.429633,0.13018 0.233671,0 0.416668,0.0467 0.458362,0.11678 0.128096,0.21555 0.616748,0.24254 1.003977,0.0554 0.342125,-0.16529 0.728105,-0.16122 0.624384,0.007 -0.02707,0.0437 0.004,0.0593 0.06839,0.0344 0.134679,-0.0517 0.864673,0.25091 1.001034,0.41494 0.05697,0.0685 0.312416,0.1095 0.68274,0.1095 0.559878,0 0.597878,-0.0129 0.706277,-0.23868 0.137779,-0.28704 0.209636,-0.29892 0.323182,-0.0534 0.06603,0.14275 0.17161,0.18889 0.460532,0.20125 0.326213,0.0139 0.368453,-0.005 0.32546,-0.14183 -0.163764,-0.52324 -0.166312,-0.50501 0.07066,-0.50501 0.182288,0 0.227097,0.0413 0.227097,0.20974 0,0.11536 -0.04881,0.23097 -0.108488,0.25692 -0.05967,0.026 -0.0044,0.0258 0.122664,-2.6e-4 0.163512,-0.0336 0.284138,0.005 0.412249,0.13362 0.0996,0.0996 0.181097,0.15677 0.181097,0.12706 0,-0.0297 0.05859,-0.005 0.130182,0.054 0.169062,0.14031 0.166125,0.26037 -0.0063,0.26037 -0.176433,0 -0.128824,0.25467 0.07116,0.38061 0.112178,0.0707 0.196473,0.0674 0.324279,-0.0124 0.187026,-0.11679 0.702277,-0.14894 0.685513,-0.0428 -0.0056,0.0358 -0.0056,0.13617 0,0.22302 0.01614,0.24821 0.377915,0.147 0.517328,-0.14475 0.0858,-0.17956 0.14421,-0.22112 0.213444,-0.15188 0.166798,0.1668 0.394595,0.10306 0.512328,-0.14335 0.06623,-0.13861 0.198471,-0.25068 0.315442,-0.26732 0.260427,-0.037 0.534672,-0.31325 0.534672,-0.53853 0,-0.0971 0.06421,-0.27464 0.142704,-0.39443 0.109899,-0.16773 0.204154,-0.21192 0.41001,-0.19222 0.234725,0.0225 0.272867,-0.005 0.312939,-0.22662 0.04106,-0.22696 0.08462,-0.25582 0.435299,-0.28842 0.461772,-0.0429 0.49386,-0.0648 0.34978,-0.23839 -0.09525,-0.11477 -0.06382,-0.13228 0.23737,-0.13228 0.420924,0 0.564775,-0.15027 0.530017,-0.55367 -0.01589,-0.18421 0.02775,-0.3636 0.111839,-0.45998 0.07582,-0.0869 0.120887,-0.20466 0.100153,-0.26168 -0.074,-0.20351 0.150154,-0.45315 0.458879,-0.51107 0.369266,-0.0693 0.440826,-0.21263 0.32422,-0.6495 -0.04792,-0.1795 -0.05941,-0.37856 -0.02553,-0.44235 0.139349,-0.26248 0.151816,-0.94694 0.01963,-1.0791 -0.183051,-0.18305 -0.08875,-0.66545 0.188552,-0.9645 0.226395,-0.24416 0.2937,-0.57861 0.136051,-0.67604 -0.04772,-0.0296 -0.08678,-0.21302 -0.08678,-0.40781 0,-0.41485 0.167607,-0.58341 0.584172,-0.58751 0.223859,-0.002 0.291144,-0.0455 0.333627,-0.2148 0.07192,-0.28655 -0.02145,-0.4097 -0.297188,-0.39193 -0.471299,0.0304 -0.519189,-0.0222 -0.596014,-0.65447 -0.02323,-0.19094 -0.109847,-0.46433 -0.192538,-0.60752 -0.08269,-0.14321 -0.135776,-0.32187 -0.11796,-0.39705 0.01781,-0.0752 -0.04817,-0.32468 -0.146694,-0.55448 -0.16425,-0.38318 -0.167965,-0.4348 -0.04482,-0.62273 0.07385,-0.11271 0.172423,-0.20492 0.219053,-0.20492 0.04664,0 0.08479,-0.0629 0.08479,-0.13984 0,-0.11403 -0.05875,-0.12882 -0.318246,-0.0802 -0.486649,0.0913 -0.882868,-0.13077 -1.238685,-0.69424 -0.237306,-0.3758 -0.357271,-0.48373 -0.585256,-0.52649 -0.394984,-0.0741 -0.692007,0.0162 -0.9197,0.27964 -0.27594,0.31925 -0.594446,0.46153 -1.167162,0.52139 -0.878445,0.0918 -1.299235,-0.21 -1.449605,-1.03974 -0.104159,-0.57475 -0.294816,-0.86947 -0.664338,-1.02694 -0.296567,-0.12637 -0.382249,-0.23175 -0.635095,-0.78109 -0.334714,-0.72721 -0.883852,-2.17125 -0.957898,-2.51893 -0.03666,-0.17204 -0.149346,-0.27886 -0.421037,-0.39904 -0.557177,-0.24647 -1.102983,-0.99445 -1.102983,-1.51154 0,-0.16889 0.0049,-0.16873 0.308725,0.0106 0.383465,0.22625 1.17082,0.25241 1.377464,0.0458 0.440689,-0.44068 -0.308691,-1.55238 -0.781775,-1.15975 -0.07013,0.0582 -0.14856,0.0848 -0.174288,0.059 -0.09978,-0.0998 -0.290422,-0.98422 -0.244023,-1.13207 0.02691,-0.0858 0.012,-0.20299 -0.03317,-0.26037 -0.04517,-0.0573 -0.107495,-0.39002 -0.138488,-0.73922 -0.06363,-0.71686 -0.270086,-1.19248 -0.707523,-1.62991 -0.266843,-0.26685 -0.284881,-0.3165 -0.201683,-0.55515 0.111769,-0.32063 0.44148,-0.42945 0.759815,-0.25077 0.150971,0.0847 0.26398,0.26806 0.358441,0.58145 0.103228,0.34247 0.211072,0.50585 0.428412,0.64899 0.159753,0.10521 0.391712,0.25945 0.515468,0.34273 0.277698,0.18689 0.441978,0.19429 0.441978,0.0199 0,-0.11868 0.02652,-0.11868 0.256059,0 0.285555,0.14767 0.491899,0.16947 0.560065,0.0592 0.103336,-0.1672 -0.515394,-1.41622 -0.974042,-1.96629 -0.119401,-0.14321 -0.342715,-0.53375 -0.496259,-0.8679 -0.153544,-0.33413 -0.403559,-0.73663 -0.555602,-0.89445 -0.314099,-0.32601 -0.325839,-0.6108 -0.02967,-0.7196 0.16301,-0.0599 0.242483,-0.008 0.517667,0.33772 0.1788,0.22464 0.723957,0.82264 1.211457,1.32888 0.926054,0.96163 0.902412,0.91743 1.031689,1.92898 0.03351,0.26226 0.261569,0.83119 0.608801,1.51882 0.441732,0.87477 0.665626,1.20981 1.09549,1.63937 0.540758,0.54036 0.689242,0.62649 0.513297,0.29774 -0.114973,-0.21483 -0.123785,-1.23286 -0.01304,-1.50617 0.04443,-0.10965 0.10376,-0.30676 0.13184,-0.43803 0.131832,-0.61628 1.002427,0.0615 1.002427,0.78051 0,0.28301 0.113211,0.44757 0.452234,0.65736 0.258544,0.15998 0.462667,0.72801 0.379989,1.05742 -0.02674,0.10658 -0.190197,0.39957 -0.36322,0.6511 -0.307079,0.44642 -0.314419,0.47621 -0.307596,1.2483 0.0038,0.43502 -0.06479,1.18151 -0.152531,1.65885 -0.08774,0.47734 -0.139953,0.91937 -0.116036,0.98229 0.02392,0.0629 0.04805,0.37537 0.05363,0.69432 l 0.01014,0.5799 0.732202,0.36885 c 0.42127,0.21223 0.854213,0.36886 1.019521,0.36886 0.202476,0 0.383499,0.0853 0.613028,0.28894 0.494846,0.43898 1.275757,0.92611 1.484649,0.92611 0.230178,0 0.23929,-0.22313 0.05492,-1.34524 -0.189875,-1.15563 -0.167375,-2.73225 0.05426,-3.80178 0.151403,-0.73065 0.165461,-0.93355 0.08087,-1.16748 -0.08193,-0.22658 -0.07673,-0.37397 0.02603,-0.73794 0.07063,-0.25015 0.154091,-0.63056 0.185473,-0.84537 0.03139,-0.2148 0.109491,-0.5663 0.173583,-0.78109 0.185251,-0.62089 0.235526,-1.13358 0.124298,-1.2676 -0.139467,-0.16805 -0.01988,-1.24418 0.145282,-1.30757 0.06747,-0.0259 0.122678,-0.14111 0.122678,-0.25605 0,-0.27261 0.378245,-0.50294 1.039595,-0.63306 0.501494,-0.0987 0.655117,-0.1935 0.710746,-0.43876 0.01968,-0.0869 -0.06701,-0.14172 -0.273944,-0.17327 -0.351626,-0.0536 -0.442903,-0.27496 -0.216543,-0.52507 0.121153,-0.13388 0.176403,-0.14413 0.31618,-0.0586 0.139899,0.0856 0.184389,0.0772 0.255659,-0.0483 0.05676,-0.0999 0.191686,-0.15188 0.39432,-0.15188 0.169416,0 0.431099,-0.0559 0.581513,-0.12426 0.409632,-0.18611 1.545119,-0.65685 1.584408,-0.65685 0.124474,0 -0.004,0.27926 -0.188089,0.4082 -0.122314,0.0858 -0.327354,0.23827 -0.455642,0.3389 -0.128288,0.10064 -0.379706,0.23542 -0.558708,0.29951 -0.212307,0.076 -0.325459,0.1708 -0.325459,0.27266 0,0.20238 0.217651,0.20055 0.848932,-0.007 0.655132,-0.21553 1.874191,-0.14686 2.066703,0.11642 0.09607,0.13138 0.225966,0.16527 0.620773,0.16195 0.890037,-0.008 1.436965,-0.11958 1.677279,-0.34376 0.210225,-0.19613 0.827736,-0.55244 0.9574,-0.55244 0.03252,0 0.08211,0.0599 0.110171,0.13296 0.03459,0.0901 -0.02529,0.16198 -0.185831,0.22302 -0.294102,0.11181 -0.540929,0.32935 -0.540929,0.47673 0,0.0662 0.132248,0.12244 0.325459,0.13843 0.423167,0.035 0.418355,0.19486 -0.01476,0.48968 -0.710677,0.48375 -0.369822,0.59616 0.518041,0.17084 0.496687,-0.23793 0.570171,-0.384 0.253721,-0.5043 -0.193723,-0.0736 -0.215274,-0.11068 -0.12661,-0.21751 0.05877,-0.0708 0.211765,-0.12875 0.340004,-0.12875 0.309306,0 0.553217,-0.18815 0.513712,-0.39628 -0.02362,-0.12452 -0.116888,-0.17487 -0.361285,-0.19506 l -0.32942,-0.0272 0.22166,-0.17435 c 0.2717,-0.21373 0.2881,-0.42213 0.03321,-0.42213 -0.103641,0 -0.256614,-0.0617 -0.339935,-0.1371 -0.121512,-0.10996 -0.188625,-0.11723 -0.339079,-0.0367 -0.103165,0.0552 -0.23959,0.0804 -0.303161,0.056 -0.06357,-0.0244 -0.256756,-7.6e-4 -0.429302,0.0519 -0.701201,0.21521 -0.644872,-0.38477 0.07422,-0.7906 0.259291,-0.14634 0.595122,-0.41998 0.74629,-0.60809 0.151172,-0.1881 0.349322,-0.36148 0.440338,-0.38529 0.09102,-0.0238 0.165491,-0.086 0.165491,-0.13819 0,-0.13783 -0.26648,-0.11628 -0.433731,0.0351 -0.079,0.0715 -0.331049,0.16499 -0.560115,0.20779 -0.564194,0.10541 -0.958912,0.49406 -0.958912,0.9442 0,0.2298 -0.03774,0.32362 -0.130181,0.32362 -0.07583,0 -0.11954,-0.0634 -0.104681,-0.15188 0.02731,-0.16267 -0.194367,-0.21315 -0.28587,-0.0651 -0.0906,0.14659 -0.281015,0.0964 -0.328909,-0.0868 -0.03307,-0.12639 -0.118378,-0.17357 -0.313882,-0.17357 -0.411413,0 -0.322911,-0.17659 0.298383,-0.59538 0.362889,-0.24459 0.561379,-0.43704 0.561379,-0.54429 0,-0.0912 0.0895,-0.20667 0.198884,-0.25651 0.164885,-0.0751 0.192749,-0.14313 0.163011,-0.39785 -0.0278,-0.2381 -0.101816,-0.34615 -0.328949,-0.48015 l -0.293078,-0.17292 0.148844,-0.25198 c 0.08187,-0.13859 0.221995,-0.27519 0.311392,-0.30357 0.08941,-0.0284 0.343021,-0.13142 0.563594,-0.22898 l 0.401036,-0.1774 -0.473881,-0.14947 -0.473877,-0.14947 0.427429,-0.19633 c 0.350081,-0.16081 0.517962,-0.18688 0.927707,-0.14405 0.392297,0.041 0.581026,0.0156 0.874405,-0.1175 0.205768,-0.0934 0.457654,-0.17065 0.559746,-0.1717 0.262071,-0.002 0.369019,-0.55374 0.153651,-0.79172 -0.08206,-0.0907 -0.201727,-0.16486 -0.265933,-0.16486 -0.0642,0 -0.11673,-0.0346 -0.11673,-0.0769 0,-0.15017 0.532502,-0.15525 0.808788,-0.008 0.151842,0.0811 0.539799,0.17548 0.862129,0.20976 0.520452,0.0554 0.593322,0.0445 0.65092,-0.0965 0.04502,-0.11024 0.155536,-0.15881 0.361387,-0.15881 0.319983,0 0.463706,-0.18047 0.218625,-0.27451 -0.08261,-0.0317 -0.258514,-0.0168 -0.3909,0.0332 -0.214979,0.0811 -0.246036,0.0696 -0.290594,-0.10793 -0.02745,-0.10932 -0.0751,-0.26448 -0.105925,-0.3448 -0.05001,-0.13032 -0.0034,-0.13945 0.432511,-0.085 0.406463,0.0508 0.497577,0.0375 0.542293,-0.079 0.04015,-0.10465 0.170746,-0.14004 0.516673,-0.14004 0.254613,0 0.483914,-0.034 0.509559,-0.0755 0.02563,-0.0415 0.398969,-0.10302 0.829601,-0.1367 0.740616,-0.058 0.785918,-0.073 0.837458,-0.27835 0.05565,-0.22174 0.109301,-0.22721 0.652415,-0.0666 0.0785,0.0232 0.202531,-0.0176 0.275612,-0.0907 0.07423,-0.0742 0.202772,-0.11027 0.291209,-0.0817 0.115707,0.0375 0.102112,0.005 -0.05049,-0.11933 -0.238784,-0.19503 -0.19891,-0.45313 0.07001,-0.45313 0.151384,0 0.26339,0.12074 0.572765,0.61743 0.04772,0.0766 0.161229,0.25221 0.252211,0.39017 0.09099,0.13796 0.258445,0.39869 0.372133,0.57939 0.210753,0.33499 0.373729,0.35979 0.373729,0.0569 0,-0.26288 0.152003,-0.19918 0.377654,0.15828 0.354687,0.56186 0.446125,0.60026 0.811007,0.34065 0.349943,-0.24899 0.468218,-0.23896 0.396922,0.0337 -0.05185,0.19826 -0.384474,0.36291 -0.580893,0.28754 -0.07831,-0.0301 -0.172841,0.0439 -0.252846,0.19771 -0.07027,0.13514 -0.230743,0.33472 -0.356585,0.4435 -0.272915,0.23593 -0.212917,0.4456 0.06865,0.23992 0.529308,-0.38664 0.852579,-0.3889 0.490442,-0.004 -0.147225,0.15672 -0.168122,0.21663 -0.07556,0.21663 0.07037,0 0.172192,-0.0443 0.226266,-0.0983 0.05407,-0.0541 0.163753,-0.0732 0.243733,-0.0425 0.13428,0.0516 0.134728,0.0721 0.0058,0.26884 -0.07677,0.11717 -0.139585,0.30974 -0.139585,0.42794 0,0.11819 -0.03907,0.23904 -0.08679,0.26854 -0.212607,0.1314 -0.0435,0.21094 0.499038,0.23471 l 0.585825,0.0257 0.09,0.46952 c 0.07779,0.40579 0.12822,0.4876 0.371601,0.60287 0.197047,0.0933 0.265242,0.17384 0.227135,0.2682 -0.02993,0.0742 -0.0744,0.18365 -0.09882,0.24331 -0.02962,0.0724 0.04166,0.10849 0.214669,0.10849 0.29303,0 0.477443,0.17108 0.437447,0.40581 -0.03777,0.22132 0.329188,0.25973 0.552292,0.0578 0.130877,-0.11844 0.162991,-0.22828 0.128646,-0.43993 -0.0361,-0.22221 -0.0061,-0.30993 0.1415,-0.41326 0.102997,-0.0721 0.270953,-0.13117 0.373227,-0.13117 0.102274,0 0.291652,-0.0831 0.420823,-0.18475 0.164484,-0.12937 0.262265,-0.15735 0.326271,-0.0933 0.06404,0.064 0.179676,0.0493 0.385976,-0.049 l 0.294576,-0.14047 0.43233,0.42582 c 0.237773,0.23421 0.432322,0.48311 0.432322,0.55312 0,0.3969 0.427608,1.38603 0.758646,1.75488 0.200268,0.22315 0.321778,0.48565 0.421821,0.91128 0.07729,0.32882 0.248892,0.89076 0.381338,1.24877 0.416566,1.12599 0.7815,2.22384 0.7815,2.35104 0,0.0673 0.19528,0.513 0.433952,0.99034 0.238664,0.47734 0.434797,0.98505 0.435848,1.12825 0.003,0.38203 0.259408,0.87646 0.810804,1.56221 0.823384,1.024 0.808458,0.95247 0.588558,2.82064 -0.04775,0.40574 -0.114496,1.03062 -0.148309,1.38862 -0.07029,0.74409 -0.137776,0.86789 -0.473201,0.86789 -0.146092,0 -0.266262,0.0596 -0.306212,0.15189 -0.03617,0.0835 -0.09454,0.64006 -0.129712,1.23674 -0.07433,1.26036 -0.337938,2.21431 -0.758654,2.745 -0.219626,0.27704 -0.713435,1.51943 -0.713435,1.79496 0,0.0413 -0.135126,0.38246 -0.30028,0.75809 -0.165153,0.37563 -0.323088,0.88967 -0.350975,1.14231 -0.02787,0.25266 -0.11113,0.67531 -0.184999,0.93924 l -0.134304,0.47988 0.317643,0.90874 c 0.828007,2.36878 0.931636,3.0417 0.617641,4.01042 -0.269522,0.83153 -0.354158,0.78781 -0.474199,-0.24494 -0.113186,-0.97369 -0.210914,-1.33792 -0.358994,-1.33792 -0.116644,0 -0.129476,0.0448 -0.304537,1.06494 -0.119431,0.69595 -0.194587,0.90976 -0.419239,1.19268 -0.150547,0.18959 -0.362033,0.45912 -0.469957,0.59894 -0.112539,0.14579 -0.371666,0.3152 -0.60752,0.39719 -0.226214,0.0786 -0.688853,0.27697 -1.028077,0.44076 -0.490382,0.23676 -0.722665,0.29779 -1.133367,0.29779 -0.734557,0 -0.80937,0.0807 -0.915071,0.98761 l -0.08872,0.76109 0.241253,0.25183 c 0.132698,0.13849 0.475781,0.41873 0.762422,0.62275 0.79648,0.56688 1.146952,0.89903 1.994051,1.88974 0.428552,0.50121 1.02101,1.13342 1.316568,1.40492 0.295559,0.27149 0.68359,0.70591 0.862291,0.96538 0.178702,0.25946 0.428408,0.52551 0.554914,0.59123 0.423511,0.22002 1.17752,0.68283 1.226578,0.75287 0.02665,0.0381 0.173264,0.15638 0.325731,0.26284 0.290075,0.20252 1.349565,1.43506 1.818913,2.11599 0.193605,0.28089 0.371156,0.42852 0.607528,0.50519 0.183682,0.0596 0.872831,0.35911 1.531435,0.66565 0.847083,0.39425 1.277723,0.54946 1.471776,0.53044 0.231621,-0.0227 0.57195,-0.33961 2.187298,-2.0367 1.776762,-1.86666 2.712168,-2.86788 3.734577,-3.99737 0.22537,-0.24898 0.47956,-0.47483 0.56483,-0.50191 0.0853,-0.027 0.60498,-0.5654 1.15488,-1.1963 0.54989,-0.63089 1.13019,-1.26511 1.28955,-1.40936 0.15935,-0.14425 0.79744,-0.82316 1.41798,-1.50868 0.62054,-0.68551 1.79635,-1.93442 2.61293,-2.77533 0.81657,-0.84092 1.67578,-1.74068 1.90935,-1.99947 0.50082,-0.55486 1.72431,-1.85245 2.95068,-3.12936 0.48236,-0.50223 1.20371,-1.26465 1.60301,-1.69425 1.1767,-1.26603 2.26369,-2.3098 2.36896,-2.27476 0.2005,0.0667 0.14306,0.31974 -0.14564,0.64146 -0.1636,0.18231 -0.32394,0.41668 -0.35633,0.52082 -0.0324,0.10414 -0.22868,0.28887 -0.43622,0.41049 -0.20754,0.12163 -0.63818,0.53643 -0.95699,0.92178 -0.31881,0.38535 -1.11384,1.24416 -1.76673,1.90845 -0.65288,0.66429 -1.38233,1.42958 -1.621,1.70065 -0.46611,0.52937 -0.83135,0.90551 -1.439,1.48196 -0.21096,0.20014 -0.67649,0.70374 -1.03449,1.11911 -0.35801,0.41537 -0.82891,0.93509 -1.04646,1.15492 -0.21754,0.21984 -0.52227,0.58548 -0.67717,0.81252 -0.16134,0.2365 -0.42795,0.48746 -0.62423,0.58759 -0.18843,0.0961 -0.3426,0.20638 -0.3426,0.24502 0,0.0386 -0.20626,0.30145 -0.45835,0.58405 -0.2521,0.28261 -0.52753,0.62298 -0.61206,0.75638 -0.0845,0.1334 -0.24931,0.27889 -0.36615,0.32331 -0.11683,0.0444 -0.21243,0.13931 -0.21243,0.21087 0,0.0716 -0.11301,0.18855 -0.25114,0.25997 -0.17671,0.0914 -0.27413,0.22701 -0.32866,0.45761 -0.0628,0.26573 -0.16934,0.38849 -0.56311,0.64907 -0.26709,0.17673 -0.57809,0.44497 -0.69112,0.59608 -0.11303,0.1511 -0.31702,0.37763 -0.4533,0.50342 -0.60624,0.55952 -1.37028,1.39395 -1.762454,1.9248 -0.194838,0.26374 -0.505696,0.60794 -0.690809,0.76491 -0.673507,0.57109 -1.074272,0.98374 -1.074272,1.10612 0,0.0688 -0.09333,0.16763 -0.207403,0.21961 -0.11407,0.052 -0.248701,0.18513 -0.299168,0.29591 -0.05049,0.11077 -0.209224,0.28824 -0.35278,0.39437 -0.143549,0.10614 -0.285705,0.30544 -0.315892,0.44289 -0.03023,0.13744 -0.155086,0.31556 -0.277556,0.3958 -0.25059,0.1642 -1.324625,1.22905 -1.32413,1.3128 0,0.0299 0.07592,0.17816 0.168253,0.32964 0.187604,0.30768 1.013151,0.7356 2.652068,1.37472 0.937821,0.36571 1.302724,0.54362 2.690463,1.31174 0.70849,0.39216 1.0992,0.63849 2.44726,1.54299 1.01633,0.68192 1.53464,1.01756 2.11067,1.36682 0.55156,0.33442 1.10276,0.73001 1.80559,1.29585 0.61953,0.49878 0.80872,0.60008 1.12067,0.60008 0.50324,0 0.59367,0.39558 0.2416,1.05693 -0.18781,0.35281 -0.22271,0.55835 -0.27252,1.60491 l -0.0571,1.20028 0.44168,0.86789 c 0.30303,0.59547 0.46846,1.04496 0.52699,1.43201 0.0469,0.31027 0.14239,0.78602 0.21217,1.05721 0.0697,0.2712 0.15439,0.73009 0.188,1.01977 l 0.0612,0.52669 h -1.57618 c -1.44916,0 -1.57494,-0.0123 -1.56073,-0.15188 0.009,-0.0835 0.011,-0.24113 0.005,-0.3502 -0.009,-0.16883 -0.0351,-0.18487 -0.17903,-0.10787 -0.093,0.0497 -0.23809,0.20735 -0.32248,0.35021 -0.12656,0.21424 -0.20985,0.25974 -0.47551,0.25974 -0.23252,0 -0.32988,-0.0405 -0.35014,-0.14568 -0.0263,-0.13638 -0.0373,-0.13638 -0.17375,0 -0.18072,0.18073 -1.2416,0.21057 -1.3225,0.0372 -0.0405,-0.0868 -0.0608,-0.0868 -0.10125,0 -0.0393,0.0842 -0.84346,0.10849 -3.59046,0.10849 h -3.539827 l -0.04638,-0.41172 c -0.02551,-0.22645 -0.01112,-0.47763 0.03198,-0.55819 0.04318,-0.0808 0.04752,-0.29516 0.0095,-0.47787 -0.0514,-0.24753 -0.111793,-0.3314 -0.23855,-0.3314 -0.130032,0 -0.19726,0.10142 -0.287699,0.43395 -0.200314,0.73664 -0.213039,0.95417 -0.06306,1.07862 0.07577,0.0628 0.137708,0.14856 0.137708,0.19045 0,0.0419 -0.65948,0.0762 -1.465524,0.0762 h -1.465517 l -0.139718,-0.28206 c -0.18484,-0.37316 -0.324931,-0.54101 -0.509283,-0.61018 -0.204479,-0.0767 -0.197268,0.11387 0.01965,0.51854 0.195912,0.36553 0.179265,0.42819 -0.07727,0.29089 -0.120262,-0.0643 -0.181024,-0.0667 -0.181024,-0.007 0,0.0617 -6.717489,0.0898 -21.436023,0.0898 H 49.426881 l 0.04846,-1.88765 c 0.08349,-3.25114 0.07895,-3.19101 0.240294,-3.17745 0.07889,0.007 0.143442,-0.0227 0.143442,-0.0651 0,-0.0424 -0.06281,-0.0771 -0.139589,-0.0771 -0.106998,0 -0.126369,-0.0527 -0.08295,-0.22568 0.06008,-0.23935 0.388105,-0.729 0.488381,-0.729 0.08603,0 0.168108,0.47419 0.168108,0.97124 0,0.43991 0.126983,0.80358 0.253318,0.7255 0.120503,-0.0745 0.185688,-0.71084 0.229705,-2.24251 l 0.04227,-1.47067 -0.336915,-0.61907 c -0.185299,-0.3405 -0.362495,-0.71671 -0.393763,-0.83605 -0.0629,-0.24005 -0.456281,-0.75588 -0.524452,-0.68771 -0.11209,0.11209 -0.226065,1.81202 -0.261407,3.8989 -0.09936,5.86659 -0.102033,5.94144 -0.221129,6.18373 -0.116124,0.23624 -0.125985,0.23866 -0.971276,0.23866 -0.928736,0 -0.915657,0.009 -0.755383,-0.52584 0.05421,-0.18096 0.07328,-0.39493 0.04236,-0.47549 -0.09612,-0.25048 -0.294914,0.0115 -0.402694,0.53066 l -0.09771,0.4707 h -3.330074 -3.330079 l 0.124504,-0.23867 c 0.06848,-0.13127 0.12474,-0.28749 0.125035,-0.34715 9.9e-4,-0.16777 0.302984,-0.12817 0.475348,0.0623 0.119121,0.13163 0.191853,0.15083 0.317213,0.0837 0.171965,-0.092 0.222969,-0.46736 0.07586,-0.55827 -0.04772,-0.0296 -0.08678,-0.14667 -0.08678,-0.26038 0,-0.11369 -0.04133,-0.23227 -0.09187,-0.2635 -0.05388,-0.0333 -0.06804,-0.16529 -0.03425,-0.31917 0.04379,-0.19947 0.02942,-0.25309 -0.06002,-0.22361 -0.0647,0.0213 -0.130117,0.1236 -0.14537,0.22726 -0.01525,0.10367 -0.08223,0.18848 -0.14883,0.18848 -0.150105,0 -0.329455,-0.31733 -0.25105,-0.4442 0.03179,-0.0514 0.0696,-0.25562 0.08407,-0.45384 0.01447,-0.19822 0.07018,-0.56551 0.123801,-0.81621 0.09579,-0.44792 0.09253,-0.46196 -0.188547,-0.81181 l -0.286023,-0.356 -0.0069,-2.52957 c -0.004,-1.39126 -0.03572,-2.63068 -0.07099,-2.75425 -0.04546,-0.1594 -0.0079,-0.33246 0.129247,-0.59565 0.16676,-0.31994 0.179513,-0.40926 0.09269,-0.64936 -0.05537,-0.15313 -0.100674,-0.42332 -0.100674,-0.60043 0,-0.58283 -0.37394,-0.51061 -0.703774,0.13591 -0.272798,0.53473 -0.343064,1.05528 -0.362662,2.68665 -0.01737,1.4435 -0.02957,1.54539 -0.207923,1.73577 -0.395274,0.42188 -0.519222,1.22906 -0.201492,1.31215 0.09523,0.0249 0.198181,0.11053 0.22878,0.19027 0.06296,0.16406 -0.236097,0.79322 -0.362761,0.7632 -0.04542,-0.0108 -0.102082,-0.20604 -0.12595,-0.43395 l -0.0434,-0.41437 -0.125754,0.37908 c -0.109817,0.33104 -0.109817,0.39154 0,0.47735 0.110649,0.0864 0.137125,0.26564 0.09465,0.64068 -0.02588,0.22856 -0.185869,0.0955 -0.185869,-0.1546 0,-0.33021 -0.173737,-0.40267 -0.492023,-0.20523 -0.347729,0.21571 -0.462653,0.37887 -0.462653,0.65682 0,0.18394 0.05062,0.25483 0.210585,0.29498 0.115819,0.0291 0.278091,0.12745 0.360606,0.21863 0.08251,0.0912 0.225182,0.16577 0.317045,0.16577 0.136254,0 0.157972,-0.0439 0.117901,-0.23866 -0.04271,-0.20752 -0.0099,-0.25691 0.251133,-0.37842 0.165141,-0.0769 0.320834,-0.11918 0.345987,-0.094 0.09378,0.0938 0.04069,0.34708 -0.114791,0.54753 -0.08829,0.11384 -0.159891,0.33391 -0.159113,0.48904 9.9e-4,0.15514 -0.0247,0.30817 -0.05658,0.34006 -0.08975,0.0898 -0.504604,-0.16499 -0.596245,-0.36612 -0.09089,-0.19948 -0.809836,-0.62897 -0.900718,-0.53808 -0.111904,0.1119 0.05163,0.33476 0.331452,0.45169 0.420068,0.17554 0.760627,0.47158 0.760627,0.66118 0,0.18657 -0.171753,0.22118 -0.327014,0.0659 -0.108188,-0.10818 -0.685917,-0.3291 -0.866336,-0.33127 -0.202702,-0.002 -0.109418,0.17457 0.347154,0.65876 0.552124,0.58551 0.909816,0.80312 0.987474,0.60075 0.02824,-0.0736 0.02578,-0.27027 -0.0055,-0.43698 -0.04335,-0.23099 -0.02745,-0.3031 0.06673,-0.3031 0.138822,0 0.282998,0.3154 0.368291,0.80569 0.05967,0.34301 0.613196,1.09807 0.883445,1.20509 0.101186,0.0401 0.04924,0.062 -0.156752,0.066 -0.169456,0.004 -0.359848,-0.0427 -0.423099,-0.10238 -0.09199,-0.0868 -0.122949,-0.0868 -0.154774,0 -0.05694,0.15528 -0.546047,0.14043 -0.546047,-0.0166 0,-0.22092 -0.171444,-0.2405 -0.485153,-0.0554 -0.240053,0.14164 -0.453083,0.18047 -0.990093,0.18047 -0.37633,0 -0.708368,-0.0391 -0.737871,-0.0868 -0.02952,-0.0478 -0.09269,-0.0868 -0.140426,-0.0868 -0.04772,0 -0.06265,0.0391 -0.03317,0.0868 0.03523,0.057 -0.69966,0.0854 -2.142903,0.0828 l -2.196545,-0.004 -0.781101,-0.5595 z m 6.547694,0.0558 c 0.115981,-0.21672 -0.131899,-0.46758 -0.260777,-0.26391 -0.121247,0.19161 -0.09603,0.42837 0.04561,0.42837 0.06992,0 0.16674,-0.074 0.215151,-0.16446 z m 68.188958,-0.20447 c 0.10169,-0.20283 0.31095,-0.61 0.465,-0.90482 0.15407,-0.29483 0.26236,-0.58774 0.24066,-0.65092 -0.0512,-0.14895 -0.56162,0.64895 -0.69062,1.0795 -0.0538,0.17957 -0.15011,0.36986 -0.21398,0.42287 -0.12281,0.10193 -0.16156,0.42234 -0.051,0.42223 0.0358,-4e-5 0.14829,-0.16602 0.24998,-0.36886 z m -68.586643,-0.36878 c 0.05334,-0.13899 -0.01978,-0.16249 -0.241259,-0.0775 -0.189909,0.0729 -0.172378,0.20769 0.02701,0.20769 0.09036,0 0.18677,-0.0586 0.21425,-0.13018 z m 69.920553,-0.0107 c 0,-0.11532 -0.0235,-0.12126 -0.13018,-0.0328 -0.0716,0.0594 -0.13019,0.12279 -0.13019,0.14081 0,0.018 0.0586,0.0327 0.13019,0.0327 0.0716,0 0.13018,-0.0634 0.13018,-0.14081 z m -2.97832,-0.30941 c -0.0277,-0.0692 -0.0483,-0.0487 -0.0525,0.0525 -0.004,0.0915 0.0168,0.14275 0.0456,0.11391 0.0289,-0.0289 0.0319,-0.1037 0.007,-0.16635 z m 1.03662,-0.10023 c 0.0336,-0.10299 0.0549,-0.49969 0.0474,-0.88156 -0.008,-0.38188 0.029,-0.82387 0.0811,-0.9822 0.0896,-0.2724 0.0548,-0.45621 -0.0638,-0.33755 -0.1249,0.1249 -0.48231,2.05551 -0.42452,2.29306 0.057,0.23402 0.27143,0.17932 0.3598,-0.0918 z m -57.696605,-0.0353 c 0.169505,-0.43228 0.365949,-1.8549 0.312952,-2.26633 -0.04295,-0.33337 0.003,-0.54303 0.266238,-1.22154 0.258622,-0.666 0.307324,-0.885 0.260537,-1.17165 -0.105113,-0.64393 -0.06363,-1.47079 0.117816,-2.3487 0.204888,-0.99131 0.27973,-2.30735 0.134128,-2.35854 -0.05183,-0.0182 -0.222507,0.23162 -0.379273,0.55518 -0.156766,0.32358 -0.361811,0.7363 -0.455651,0.91717 -0.131682,0.25381 -0.177313,0.5454 -0.199947,1.27774 -0.01614,0.52189 -0.05497,0.99036 -0.0863,1.04106 -0.07347,0.11888 -0.218296,2.39968 -0.274136,4.31717 -0.03715,1.27516 -0.0248,1.4971 0.08323,1.4971 0.06975,0 0.168939,-0.1074 0.220411,-0.23866 z m 44.804265,-0.0734 c 0.08485,-0.10223 0.200717,-0.12476 0.442702,-0.0861 0.319668,0.0511 0.32576,0.0471 0.246325,-0.16182 -0.04478,-0.11783 -0.157843,-0.29063 -0.251207,-0.384 -0.233813,-0.23381 -0.834411,-0.15893 -1.022038,0.12742 -0.164742,0.25142 -0.08281,0.53335 0.169198,0.58222 0.105144,0.0203 0.215688,0.0424 0.24564,0.0489 0.02993,0.007 0.10618,-0.0505 0.16938,-0.12666 z m -40.639468,-0.93188 c 0.01624,-0.0837 -0.02731,-0.14469 -0.103362,-0.14469 -0.161229,0 -0.258543,0.14147 -0.182234,0.26495 0.0785,0.12701 0.251793,0.0541 0.285596,-0.12026 z m -9.459044,-0.43617 c 0.09203,-0.20804 0.304543,-0.48293 0.472247,-0.61084 0.167704,-0.12792 0.354323,-0.35801 0.414705,-0.51133 0.06038,-0.1533 0.198712,-0.37638 0.307397,-0.49571 0.340299,-0.37364 0.42271,-0.71108 0.646457,-2.64706 0.04965,-0.42961 0.132248,-0.93733 0.183557,-1.12827 0.0513,-0.19093 0.107583,-0.54175 0.12506,-0.7796 0.01747,-0.23785 0.08949,-0.60888 0.160043,-0.8245 0.07054,-0.21562 0.191091,-0.70448 0.267878,-1.08635 0.165952,-0.8253 0.543326,-2.47096 0.67179,-2.92956 0.111726,-0.39884 0.04842,-0.47894 -0.232888,-0.29463 -0.286639,0.18782 -0.763979,1.05895 -1.077127,1.96575 -0.373158,1.08056 -0.575314,1.48998 -0.868093,1.75811 -0.194653,0.17826 -0.328215,0.45498 -0.52364,1.08486 -0.612438,1.97399 -0.612423,1.9739 -0.502917,4.14354 0.04783,0.94777 -0.0662,1.64139 -0.30995,1.88534 -0.176138,0.17627 -0.280399,0.53356 -0.209567,0.71814 0.09337,0.24331 0.307102,0.13179 0.475048,-0.24789 z m 10.760478,-0.3566 c 0.0152,-0.182 0.07885,-0.41332 0.141411,-0.51403 0.06645,-0.10698 0.09611,-0.31845 0.07133,-0.50858 -0.04054,-0.31097 -0.133719,-0.41128 -0.232937,-0.25075 -0.07946,0.12859 -0.300268,1.5218 -0.253234,1.59789 0.0998,0.16149 0.247457,-0.0137 0.273431,-0.32453 z m 50.266574,0.34943 c 0,-0.021 -0.0391,-0.0624 -0.0868,-0.0919 -0.0478,-0.0295 -0.0868,-0.0123 -0.0868,0.0383 0,0.0506 0.0391,0.0919 0.0868,0.0919 0.0477,0 0.0868,-0.0172 0.0868,-0.0383 z m -51.440759,-0.30896 c -0.02495,-0.0954 -0.07987,-0.1735 -0.122034,-0.1735 -0.08948,0 -0.09796,0.10391 -0.02416,0.29617 0.0742,0.19337 0.201029,0.087 0.146212,-0.12267 z m 51.360649,-0.19519 c 0.004,-0.1074 0.025,-0.36029 0.0476,-0.56198 0.0227,-0.2034 -0.006,-0.45427 -0.0643,-0.56336 -0.0621,-0.116 -0.1083,-0.57843 -0.11269,-1.12734 -0.006,-0.7431 -0.0364,-0.9596 -0.15098,-1.07419 -0.26528,-0.26523 -0.31886,-0.0705 -0.29468,1.07063 0.0174,0.8245 0.0596,1.1726 0.16521,1.36665 0.078,0.1432 0.142,0.3841 0.14229,0.53534 7.6e-4,0.32518 0.0755,0.54953 0.1834,0.54953 0.0426,0 0.0805,-0.0879 0.0842,-0.19528 z m -15.67485,-0.23418 c 0.06717,-0.10871 -0.116515,-0.86326 -0.270466,-1.11102 -0.06671,-0.1074 -0.173889,-0.19528 -0.238124,-0.19528 -0.09689,0 -0.09819,0.0776 -0.0076,0.45565 0.197968,0.82633 0.363083,1.0984 0.516205,0.85065 z m 3.501787,-0.73202 c -0.01508,-0.009 -0.102091,-0.0732 -0.193293,-0.14319 -0.156761,-0.12037 -0.159373,-0.11696 -0.04775,0.0624 0.06496,0.10431 0.151934,0.16875 0.1933,0.14319 0.04135,-0.0256 0.06283,-0.0536 0.04775,-0.0624 z m -2.240597,-0.0969 c 0,-0.0716 -0.05856,-0.13018 -0.130177,-0.13018 -0.13553,0 -0.17219,0.10265 -0.07234,0.20251 0.09987,0.0999 0.202506,0.0632 0.202506,-0.0723 z m 3.498885,-0.002 c 0.08662,-0.06 0.230249,-0.09 0.319181,-0.0668 0.09263,0.0242 0.321915,-0.0663 0.53682,-0.21195 0.206314,-0.13983 0.443463,-0.27911 0.527003,-0.30952 0.252601,-0.0919 0.175199,-0.2977 -0.130191,-0.34608 -0.186157,-0.0295 -0.379061,0.011 -0.56738,0.11932 -0.38248,0.21986 -1.291202,0.51319 -1.589852,0.51319 -0.267245,0 -0.36316,0.0937 -0.290304,0.28353 0.06168,0.16083 0.968769,0.17471 1.194715,0.0183 z m -5.408239,-0.76986 c 0,-0.19129 -0.225398,-0.37695 -0.330284,-0.27206 -0.06778,0.0678 0.139703,0.47975 0.241634,0.47975 0.04874,0 0.08865,-0.0935 0.08865,-0.20769 z m -1.128264,-0.28624 c 0,-0.0625 -0.03488,-0.1136 -0.0775,-0.1136 -0.09159,0 -0.183994,0.21514 -0.180102,0.41935 0.0023,0.1249 0.02026,0.12164 0.130184,-0.0237 0.07006,-0.0927 0.127419,-0.21959 0.127419,-0.28206 z m -0.7762,-0.13529 c 0.201083,-0.24105 0.21936,-0.65862 0.03199,-0.73053 -0.109684,-0.042 -0.125486,-0.13403 -0.07993,-0.46525 0.03594,-0.26137 0.02246,-0.43403 -0.03686,-0.47067 -0.156289,-0.0966 -0.104932,-0.38264 0.08716,-0.48544 0.143831,-0.077 0.214144,-0.0666 0.343916,0.0509 0.355293,0.32153 0.577897,-0.15203 0.31146,-0.6626 -0.06458,-0.12377 -0.144448,-0.37763 -0.177468,-0.56413 -0.08785,-0.49618 -0.338265,-1.07609 -0.46484,-1.07647 -0.09994,-2.5e-4 -0.277898,0.31749 -0.403894,0.72119 -0.02703,0.0866 -0.0885,0.13304 -0.136657,0.10328 -0.137312,-0.0849 -0.582991,0.4629 -0.634402,0.77972 -0.02551,0.15722 -0.0069,0.43658 0.04211,0.62081 0.04866,0.18423 0.117056,0.61555 0.151949,0.95851 0.04988,0.49051 0.116492,0.69418 0.312137,0.95467 0.225985,0.30087 0.381863,0.45643 0.460956,0.45999 0.01622,4.9e-4 0.102792,-0.0865 0.192386,-0.19394 z m -0.288773,-2.80799 c -0.0348,-0.0348 -0.06328,-0.12316 -0.06328,-0.19636 0,-0.0977 0.02566,-0.1074 0.09655,-0.0365 0.05308,0.0531 0.08158,0.14146 0.06328,0.19636 -0.01828,0.0549 -0.06176,0.0714 -0.09656,0.0365 z m 6.228927,2.65611 c -0.04196,-0.0679 -0.09192,-0.0729 -0.14977,-0.0151 -0.04775,0.0478 -0.05849,0.13265 -0.02384,0.1887 0.04196,0.0679 0.09192,0.073 0.14977,0.0151 0.04775,-0.0478 0.05849,-0.13264 0.02384,-0.18869 z m 1.790432,0.16755 c 0.125897,-0.0674 0.207137,-0.0648 0.296465,0.009 0.09734,0.0808 0.253606,0.037 0.747962,-0.20961 0.647319,-0.32291 0.811528,-0.34314 0.563847,-0.0695 -0.07927,0.0876 -0.14412,0.20499 -0.14412,0.26091 0,0.18979 0.247787,0.10272 0.428042,-0.15042 0.188122,-0.2642 0.241056,-0.61583 0.0927,-0.61583 -0.04775,0 -0.08679,-0.0391 -0.08679,-0.0868 0,-0.0477 0.09467,-0.0868 0.210366,-0.0868 0.134684,0 0.283008,-0.0976 0.412248,-0.2712 0.111039,-0.14916 0.3242,-0.39604 0.473688,-0.54864 0.168444,-0.17192 0.293579,-0.40711 0.329013,-0.61839 0.05788,-0.34526 0.01729,-0.4348 -0.587713,-1.29563 -0.58057,-0.82606 -1.030285,-1.61947 -1.233013,-2.17531 -0.396157,-1.08619 -0.668527,-1.55257 -0.924539,-1.58311 -0.154987,-0.0185 -0.274837,0.0405 -0.396553,0.19528 -0.103005,0.13095 -0.262279,0.22177 -0.388922,0.22177 -0.117954,0 -0.313775,0.0781 -0.43514,0.17357 -0.121373,0.0955 -0.317925,0.17358 -0.436792,0.17358 -0.118868,0 -0.38609,0.0972 -0.593836,0.21593 -0.207739,0.11875 -0.465586,0.2164 -0.572985,0.21697 -0.241208,0.002 -0.247681,0.12401 -0.0217,0.41131 0.09547,0.12137 0.173576,0.27261 0.173576,0.3361 0,0.0635 0.07811,0.15722 0.173584,0.20831 0.140115,0.075 0.173569,0.18173 0.173569,0.55374 0,0.35061 -0.0415,0.4984 -0.173569,0.61792 -0.187268,0.16946 -0.232313,0.51758 -0.07923,0.61219 0.06793,0.042 0.06793,0.0847 0,0.15266 -0.156936,0.15694 -0.107757,0.31994 0.166015,0.5503 0.143206,0.1205 0.260368,0.28689 0.260368,0.36976 0,0.0829 0.06869,0.22306 0.152702,0.31152 0.106333,0.11199 0.143092,0.26154 0.121061,0.49252 -0.03534,0.37074 -0.132286,0.42248 -0.278751,0.14879 -0.15434,-0.28838 -0.274914,-0.0727 -0.153822,0.27517 0.239334,0.68753 0.673796,1.16861 0.551174,0.61031 -0.06534,-0.29759 0.03861,-0.38836 0.31714,-0.2768 0.110979,0.0445 0.271495,0.10283 0.356695,0.12973 0.143831,0.0454 0.145224,0.0676 0.0195,0.31082 -0.07448,0.14406 -0.1735,0.26193 -0.220007,0.26193 -0.169502,0 -0.07912,0.16255 0.11072,0.19911 0.346619,0.0668 0.42067,0.0628 0.597072,-0.0316 z m -0.328464,-0.99579 c -0.02825,-0.0736 -0.02962,-0.15568 -0.003,-0.18227 0.076,-0.076 0.233463,0.0529 0.233463,0.19113 0,0.16654 -0.16555,0.16017 -0.230409,-0.009 z m -0.754093,-1.88013 c -0.0642,-0.24561 -0.03701,-0.26708 0.15792,-0.12454 0.08734,0.0639 0.130998,0.1611 0.09703,0.21607 -0.09618,0.15562 -0.200062,0.11832 -0.254946,-0.0915 z m -39.979902,2.60422 c 0,-0.17888 -0.02987,-0.24784 -0.08395,-0.19377 -0.04616,0.0461 -0.06114,0.17113 -0.03326,0.27772 0.07148,0.27335 0.117216,0.2406 0.117216,-0.084 z m 48.000343,-0.5234 c -0.05102,-0.14643 -0.09281,-0.39711 -0.09281,-0.55706 0,-0.15994 -0.03488,-0.29081 -0.0775,-0.29081 -0.163212,0 -0.164232,0.26176 -0.003,0.77966 0.09203,0.2957 0.173568,0.62204 0.181214,0.72519 0.0076,0.10315 0.02985,0.0574 0.04942,-0.10159 0.0195,-0.15902 -0.0061,-0.40895 -0.05727,-0.55539 z m -48.034697,-0.21684 c -0.08822,-0.0882 -0.161018,0.0446 -0.08863,0.16172 0.05468,0.0885 0.07512,0.0885 0.104518,3.5e-4 0.02013,-0.0603 0.01294,-0.13323 -0.01589,-0.16207 z m 36.051796,-0.37066 c 0,-0.27316 -0.143207,-0.35374 -0.229412,-0.12908 -0.04303,0.11213 0.097,0.38945 0.196635,0.38945 0.01805,0 0.03275,-0.11717 0.03275,-0.26037 z m -1.735785,-0.12506 c 0,-0.021 -0.03907,-0.0624 -0.08679,-0.0919 -0.04775,-0.0295 -0.08679,-0.0123 -0.08679,0.0383 0,0.0506 0.03907,0.0919 0.08679,0.0919 0.04775,0 0.08679,-0.0172 0.08679,-0.0383 z m 15.708814,-0.30888 c 0,-0.13807 -0.24502,-0.36688 -0.33399,-0.3119 -0.12684,0.0784 -0.1275,0.27184 -0.002,0.50682 0.0951,0.17771 0.10197,0.17838 0.21697,0.0211 0.0653,-0.0893 0.11876,-0.18654 0.11876,-0.21603 z m -2.349724,-0.77813 c -0.12135,-0.54706 -0.204144,-0.64379 -0.297965,-0.34818 -0.07387,0.23273 0.02536,0.66133 0.191625,0.82757 0.206581,0.20659 0.232557,0.0895 0.10634,-0.47939 z m -1.966955,-0.19469 c -0.0038,-0.1571 -0.03511,-0.41507 -0.06907,-0.57326 -0.04318,-0.20085 -0.01462,-0.3923 0.09462,-0.63453 0.149862,-0.33233 0.149984,-0.35782 0.003,-0.60705 -0.08453,-0.14309 -0.156274,-0.43202 -0.159449,-0.64209 -0.0053,-0.33209 -0.04645,-0.41373 -0.317544,-0.62569 -0.171475,-0.13406 -0.539676,-0.33605 -0.818244,-0.44884 l -0.506488,-0.2051 -0.231224,0.17569 c -0.309183,0.23494 -0.284875,0.41797 0.200009,1.50585 0.738275,1.65642 0.83336,1.83113 1.200099,2.20532 0.310789,0.31711 0.383112,0.35469 0.488348,0.25378 0.06793,-0.0652 0.120239,-0.24699 0.116218,-0.40408 z m 6.573189,-0.23161 c 0,-0.10939 -0.25477,-0.30551 -0.31658,-0.2437 -0.0889,0.0889 0.0437,0.31987 0.18367,0.31987 0.0731,0 0.13291,-0.0343 0.13291,-0.0762 z M 87.021127,284.0969 c 0.003,-0.16167 0.06069,-0.35724 0.127984,-0.43459 0.0987,-0.11344 0.102243,-0.18473 0.01835,-0.36884 -0.05719,-0.12553 -0.133337,-0.22823 -0.169221,-0.22823 -0.09563,0 -0.219024,1.00271 -0.175685,1.42768 0.02132,0.20914 0.193543,-0.13431 0.198569,-0.39602 z m -1.514833,-0.92836 c -0.122203,-0.52464 -0.230219,-0.60257 -0.347495,-0.25072 -0.0677,0.20311 -0.04036,0.30188 0.166341,0.60022 0.284106,0.4101 0.335151,0.31161 0.181154,-0.3495 z m -38.28936,-0.0585 c 0.104581,-0.22038 0.276261,-0.36868 0.633294,-0.54704 0.482438,-0.241 0.4894,-0.24983 0.461822,-0.58594 -0.0154,-0.18769 -0.06692,-0.38816 -0.114511,-0.44549 -0.05809,-0.07 -0.05281,-0.16719 0.01604,-0.29588 0.111204,-0.20778 0.06321,-0.8287 -0.07472,-0.96663 -0.108783,-0.10878 -0.95742,0.27135 -1.010909,0.45283 -0.02111,0.0716 -0.08022,0.66935 -0.131358,1.3283 -0.109625,1.41264 -0.06011,1.65083 0.220332,1.05985 z m 40.078178,-0.60098 c 0.114648,-0.17496 0.117771,-0.22493 0.01919,-0.30676 -0.147105,-0.12208 -0.39653,0.0971 -0.39653,0.34839 0,0.23277 0.212955,0.20927 0.377355,-0.0417 z m -20.534099,-3.48709 c 0.248609,-0.0502 0.248176,-0.22531 -0.0014,-0.51531 -0.128873,-0.14982 -0.294038,-0.23366 -0.479727,-0.2435 -0.243747,-0.0129 -0.309989,0.0314 -0.475623,0.31777 -0.185176,0.32022 -0.18644,0.33716 -0.03355,0.44897 0.14725,0.10767 0.428737,0.10541 0.990156,-0.008 z M 10.997325,272.3478 c 0.273506,-0.0161 0.692004,-0.094 0.929996,-0.17303 0.289802,-0.0962 0.480479,-0.11698 0.57735,-0.0627 0.15469,0.0866 1.16932,-0.24841 1.430367,-0.47223 0.20815,-0.17847 0.562128,-0.14368 0.70343,0.0692 0.115371,0.17376 0.138546,0.17746 0.336047,0.0537 0.116671,-0.0731 0.318823,-0.15765 0.449221,-0.18788 0.256304,-0.0594 0.546476,-0.50209 0.466226,-0.71121 -0.0672,-0.17513 -0.526692,-0.15151 -0.903096,0.0464 -0.649916,0.34172 -1.067273,0.52555 -1.193149,0.52555 -0.07103,0 -0.406631,0.097 -0.745793,0.21545 -0.339158,0.1185 -0.647589,0.19633 -0.685397,0.17296 -0.03779,-0.0234 -0.17226,-0.003 -0.298771,0.045 -0.343749,0.1307 -1.437895,0.34758 -1.753869,0.34767 -0.28991,7e-5 -0.4532645,0.12583 -0.266032,0.2048 0.05996,0.0253 0.187135,0.0257 0.282604,7.7e-4 0.09547,-0.0248 0.39736,-0.0583 0.670866,-0.0744 z m 5.831631,-1.77322 c 0.133523,-0.13937 0.228701,-0.29232 0.211515,-0.3399 -0.04345,-0.12028 -0.695158,0.11457 -0.830128,0.29915 -0.268866,0.3677 0.271287,0.40328 0.618613,0.0407 z m 1.305071,-0.28209 c 0.306118,-0.0341 0.83982,-0.7024 0.684781,-0.85744 -0.138315,-0.13831 -1.119649,0.63537 -1.238563,0.97649 l -0.09595,0.27523 0.196405,-0.18281 c 0.10802,-0.10056 0.312018,-0.19571 0.453324,-0.21147 z m 21.781527,-2.54553 c 0.314921,-0.16706 0.643623,-0.30376 0.730447,-0.30376 0.279715,0 0.273688,-0.10247 -0.02667,-0.45335 -0.272369,-0.31821 -1.820943,-1.45314 -1.985478,-1.45512 -0.03995,-5e-4 -0.235206,-0.11347 -0.433942,-0.25107 -0.443651,-0.30717 -0.734206,-0.49161 -4.093276,-2.59851 -0.23867,-0.1497 -0.655096,-0.38898 -0.925399,-0.53174 -0.389532,-0.20572 -0.512328,-0.3228 -0.592111,-0.56455 -0.09716,-0.29439 -0.497494,-0.60612 -1.795455,-1.39811 -0.274161,-0.16728 -1.511154,-0.97409 -2.253557,-1.46985 -0.723499,-0.48312 -2.361922,-1.5029 -3.100472,-1.92977 -0.102014,-0.0589 -0.314404,-0.10778 -0.471977,-0.10849 -0.245903,-7.6e-4 -0.30448,0.0418 -0.413465,0.30261 -0.102259,0.24475 -0.107927,0.37953 -0.02913,0.69254 0.12572,0.49927 0.05757,0.75237 -0.31309,1.16264 -0.314069,0.34763 -0.645064,0.98596 -0.648321,1.25029 -0.0044,0.36188 -0.556513,1.20502 -1.422691,2.17282 -0.316451,0.35357 -0.575363,0.68407 -0.575363,0.73444 0,0.14201 1.396613,0.85088 1.919265,0.97415 0.442617,0.10439 1.828406,0.68087 2.203216,0.91653 0.09546,0.06 0.622712,0.23244 1.171652,0.38316 0.548941,0.15072 1.441522,0.44922 1.983515,0.66335 0.541993,0.21411 1.244984,0.45033 1.562202,0.52492 0.317218,0.0746 0.778843,0.21164 1.025838,0.30457 l 0.449073,0.16896 0.337947,-0.22364 c 0.247822,-0.164 0.533103,-0.24755 1.069733,-0.31328 l 0.731784,-0.0896 2.039543,0.68718 c 1.121744,0.37794 2.254344,0.76899 2.516882,0.869 0.262534,0.1 0.542441,0.1831 0.622013,0.18466 0.07957,0.002 0.402334,-0.13385 0.717255,-0.30093 z m -27.573057,-1.13729 c -0.02883,-0.0289 -0.103696,-0.0319 -0.166346,-0.007 -0.06923,0.0277 -0.04866,0.0483 0.05244,0.0524 0.09149,0.004 0.142748,-0.0168 0.11391,-0.0455 z m -4.6764905,-2.4104 c 0.1266983,-0.0657 0.4251306,-0.16571 0.6631856,-0.22214 0.238055,-0.0564 0.4919092,-0.15407 0.5641297,-0.21696 0.072215,-0.0629 0.2875239,-0.16319 0.478457,-0.2229 0.603261,-0.18865 0.7377092,-0.25353 0.7377092,-0.35596 0,-0.13391 -0.6042159,-0.0353 -1.0739738,0.17522 -0.1969261,0.0883 -0.4556809,0.19028 -0.5750184,0.22671 -0.1193325,0.0364 -0.334139,0.15426 -0.4773401,0.26187 -0.1432011,0.1076 -0.3352413,0.20938 -0.4267543,0.22618 -0.091508,0.0168 -0.1826374,0.0794 -0.2025057,0.13902 -0.046448,0.1395 0.026964,0.13691 0.3121108,-0.011 z m 63.8600925,-0.0974 c 0.171365,-0.0716 0.37515,-0.13041 0.452857,-0.13067 0.452522,-0.002 0.851343,-0.21895 1.367627,-0.7455 0.299757,-0.30573 0.59098,-0.55585 0.647161,-0.55585 0.05619,0 0.236362,-0.0829 0.400401,-0.18433 l 0.298245,-0.18433 -0.236928,-0.2473 c -0.296877,-0.30987 -0.980295,-0.54481 -1.407252,-0.48376 -0.17625,0.0252 -0.851693,0.11188 -1.500988,0.19261 -1.117302,0.13893 -1.192849,0.13873 -1.410322,-0.004 -0.263985,-0.17296 -0.298752,-0.37294 -0.0779,-0.44808 0.08354,-0.0285 0.447439,-0.36514 0.808675,-0.74825 l 0.656793,-0.69658 1.469538,-0.36109 1.469538,-0.36108 -0.47734,-0.1632 c -0.393001,-0.13435 -0.745694,-0.16405 -1.99615,-0.16807 l -1.518805,-0.005 -0.384302,0.26037 c -0.537269,0.364 -0.880575,0.82577 -0.970061,1.30477 -0.07324,0.39206 -0.06305,0.42336 0.292076,0.89597 0.411501,0.54765 0.519305,0.74904 0.703462,1.31421 0.07,0.2148 0.244073,0.6497 0.386842,0.96645 0.324229,0.71933 0.456679,0.79059 1.026836,0.55236 z m -22.318162,-1.43202 c -0.02952,-0.0478 -0.09039,-0.0868 -0.135304,-0.0868 -0.04492,0 -0.08167,0.0391 -0.08167,0.0868 0,0.0478 0.06089,0.0868 0.135304,0.0868 0.07442,0 0.11117,-0.0391 0.08167,-0.0868 z m -3.167797,-0.55793 c 0,-0.075 -0.04325,-0.13638 -0.09607,-0.13638 -0.05284,0 -0.07282,0.0606 -0.04438,0.13468 0.02844,0.0741 0.01579,0.1125 -0.02809,0.0854 -0.102742,-0.0635 -0.205507,0.10009 -0.134778,0.21454 0.07047,0.11403 0.303353,-0.11492 0.303353,-0.29822 z m -37.1379124,-0.1892 c 0.150734,-0.18162 -0.041823,-0.14844 -0.2802369,0.0483 -0.2034209,0.16787 -0.2035095,0.16874 -0.012449,0.12081 0.1058411,-0.0266 0.2375483,-0.10264 0.2926952,-0.16909 z m 0.8167094,-0.38117 c 0.068294,-0.1105 -0.1327748,-0.1105 -0.303761,0 -0.1058361,0.0684 -0.094623,0.0844 0.059969,0.0855 0.1045864,4.9e-4 0.2142899,-0.0378 0.243792,-0.0855 z m 58.735631,-2.58664 c 0.131915,-0.27191 0.239315,-0.57478 0.238671,-0.67306 -0.0014,-0.23096 0.140991,-0.40108 0.52981,-0.63249 0.377098,-0.22445 0.65763,-0.23772 0.874572,-0.0414 0.150808,0.13647 0.194304,0.13394 0.701146,-0.0408 0.297202,-0.10246 0.85281,-0.26557 1.234681,-0.36247 1.236497,-0.31379 1.392845,-0.44565 1.130341,-0.95327 -0.103745,-0.20062 -0.123476,-0.3974 -0.08122,-0.80987 0.06658,-0.64984 0.003,-0.73084 -0.654634,-0.8348 -0.306556,-0.0484 -0.52579,-0.1469 -0.700949,-0.31471 l -0.254873,-0.24418 -0.457038,0.22538 c -0.251375,0.12396 -0.632788,0.25245 -0.84759,0.28552 -0.214807,0.0331 -0.500712,0.11655 -0.635352,0.18547 -0.281127,0.14392 -1.244024,0.86369 -1.320097,0.98679 -0.07781,0.12589 -0.670556,0.0928 -0.856284,-0.0477 -0.334794,-0.25341 -0.331733,-0.0517 0.02239,1.4754 0.09962,0.42961 0.222157,0.99689 0.272296,1.26064 0.08914,0.46892 0.365855,1.04389 0.497921,1.0346 0.03651,-0.002 0.174298,-0.22713 0.306207,-0.49904 z M 8.6557736,258.50512 c 0.4664219,-0.002 0.1573617,-0.60593 -0.3782744,-0.73879 -0.212676,-0.0528 -0.229415,-0.0337 -0.2761924,0.31512 -0.05989,0.4465 -0.014367,0.54029 0.2303153,0.47462 0.102013,-0.0273 0.2928822,-0.0503 0.4241515,-0.051 z m 66.0385944,-1.52916 c 0.413514,-0.21025 0.368164,-0.53435 -0.102023,-0.72911 -0.253495,-0.105 -0.284965,-0.0951 -0.567446,0.1787 -0.349746,0.33898 -0.356349,0.37211 -0.121049,0.60741 0.186494,0.18649 0.332288,0.17598 0.790518,-0.057 z m -64.324886,-0.80375 c -2.01e-4,-0.0302 -0.117202,-0.23072 -0.259994,-0.44552 -0.2908849,-0.43758 -0.3207758,-0.5898 -0.1301822,-0.66293 0.071601,-0.0274 0.1301822,-0.10436 0.1301822,-0.17085 0,-0.14929 0.0025,-0.14935 -0.3739154,0.008 -0.2987766,0.12484 -0.3077169,0.14204 -0.2887195,0.55554 0.020567,0.44817 0.1503896,0.68088 0.4394142,0.7878 0.1817277,0.0672 0.4838547,0.0222 0.4832147,-0.072 z m 0.929681,-0.93801 c 0.363936,-0.21329 0.404721,-0.22033 0.502365,-0.0868 0.09116,0.12467 0.304105,0.20539 0.304105,0.11528 0,-0.0978 -0.284848,-0.57747 -0.342912,-0.57747 -0.03843,0 -0.210039,0.0586 -0.381404,0.13019 -0.416038,0.17383 -0.555052,0.16412 -0.62091,-0.0434 -0.03031,-0.0955 -0.106259,-0.17358 -0.168802,-0.17358 -0.148834,0 -0.380193,0.2786 -0.265146,0.31929 0.264876,0.0937 0.344811,0.19512 0.237947,0.30198 -0.323713,0.32371 0.189836,0.33385 0.734757,0.0146 z m 51.725717,-0.22352 c -0.0247,-0.15514 -0.10931,-0.75073 -0.188045,-1.32354 -0.148825,-1.08278 -0.312135,-1.47541 -0.613667,-1.47541 -0.228205,0 -0.318434,0.40902 -0.256714,1.16366 0.05524,0.67548 0.170638,0.98935 0.459992,1.25121 0.09599,0.0869 0.221896,0.2723 0.279779,0.41205 0.149553,0.36104 0.377389,0.34104 0.318655,-0.028 z m -50.763524,-0.80874 c 0.19541,-0.13687 0.187804,-0.29782 -0.01407,-0.29782 -0.18216,0 -0.432364,0.22784 -0.366761,0.33398 0.08194,0.13259 0.148983,0.12623 0.380828,-0.0362 z m 54.414373,-0.77605 c 0.03105,-0.23097 -0.288567,-0.73682 -0.465531,-0.73682 -0.115937,0 -0.130276,0.0578 -0.08036,0.32386 0.03341,0.17813 0.09898,0.39529 0.145696,0.48257 0.108262,0.20229 0.369777,0.15679 0.400194,-0.0696 z m 4.780192,-0.20099 c 0.678748,-0.46695 1.422278,-0.7962 1.798033,-0.7962 0.502965,0 1.338893,-0.41439 1.613998,-0.80009 0.240855,-0.33769 0.255286,-0.93176 0.0372,-1.53242 -0.07583,-0.20888 -0.137872,-0.51824 -0.137872,-0.68748 0,-0.16925 -0.06463,-0.37914 -0.143634,-0.46644 -0.320761,-0.35443 -1.25576,-0.0589 -1.593048,0.50366 -0.110718,0.18464 -0.259783,0.40437 -0.331261,0.48829 -0.120824,0.14186 -0.141051,0.14255 -0.287819,0.01 -0.128725,-0.11649 -0.182195,-0.12266 -0.289674,-0.0334 -0.184738,0.15332 -0.164216,0.34851 0.03666,0.34851 0.09265,0 0.189447,0.034 0.215102,0.0755 0.09604,0.15539 -0.325337,1.15521 -0.654152,1.55215 -0.440256,0.53146 -0.713437,1.09399 -0.641443,1.32084 0.0683,0.2152 0.08907,0.21616 0.377906,0.0174 z m -3.197796,-0.57922 c 0,-0.0716 -0.03676,-0.13019 -0.08167,-0.13019 -0.109438,0 -0.187819,0.13553 -0.118481,0.20486 0.09774,0.0977 0.200149,0.0596 0.200149,-0.0747 z m -3.680264,-1.74211 c -0.124587,-0.27212 -0.251182,-0.714 -0.281324,-0.98193 -0.06356,-0.56494 -0.221154,-0.92097 -0.465551,-1.05177 -0.2464,-0.13187 -0.213296,-0.33342 0.06599,-0.40178 0.296036,-0.0724 0.365831,-0.17262 0.367524,-0.52751 0.002,-0.40924 0.32082,-1.15519 0.632143,-1.47883 0.295559,-0.30726 1.042956,-0.62901 1.461085,-0.62901 0.144549,0 0.342612,-0.0427 0.440138,-0.0949 0.09752,-0.0522 0.716349,-0.13621 1.37516,-0.1867 0.936845,-0.0718 1.18815,-0.11704 1.153383,-0.20766 -0.02603,-0.0679 0.04374,-0.14939 0.168462,-0.19681 0.117109,-0.0446 0.339163,-0.24034 0.493459,-0.43514 0.17845,-0.22533 0.351198,-0.35421 0.474747,-0.35421 0.106821,0 0.374875,-0.0615 0.595679,-0.13679 0.332491,-0.11329 0.418602,-0.18872 0.501213,-0.43905 0.07625,-0.23101 0.07499,-0.36205 -0.0053,-0.55596 -0.05779,-0.13954 -0.08168,-0.31468 -0.05309,-0.38922 0.03355,-0.0875 -0.05526,-0.22969 -0.250484,-0.4011 -0.34855,-0.30603 -0.373309,-0.42198 -0.123416,-0.57804 0.112296,-0.0701 0.168934,-0.1831 0.15188,-0.30294 -0.02465,-0.1732 -0.09228,-0.19633 -0.721496,-0.24678 -0.381871,-0.0306 -0.928642,-0.0942 -1.215049,-0.14136 -0.316681,-0.0521 -0.860815,-0.0574 -1.388623,-0.0136 -1.272405,0.10562 -1.497692,0.0979 -1.623874,-0.0559 -0.460871,-0.56176 -0.660843,-0.63091 -1.347755,-0.46612 -0.463887,0.11128 -0.485439,0.10844 -0.641851,-0.0847 -0.08901,-0.10993 -0.161844,-0.28841 -0.161844,-0.3966 0,-0.23218 -0.20716,-0.43055 -0.380262,-0.36413 -0.264802,0.10162 -0.596584,0.66663 -0.622938,1.06085 -0.01673,0.25003 -0.122535,0.54828 -0.292591,0.82466 -0.146527,0.23813 -0.266411,0.49096 -0.266411,0.56184 0,0.14922 0.18368,0.17086 0.317169,0.0373 0.06417,-0.0642 0.106087,0.0497 0.140263,0.38079 0.02681,0.25976 0.1158,0.60196 0.197753,0.76044 0.161121,0.31157 0.153376,0.67355 -0.06541,3.057 -0.09389,1.02278 -0.08951,1.13591 0.05429,1.40293 0.184424,0.34246 0.135152,0.47096 -0.159024,0.41472 -0.189374,-0.0362 -0.220504,-0.003 -0.276345,0.29371 -0.08304,0.4414 -0.08541,1.20904 -0.005,1.61464 0.04625,0.23321 0.109295,0.32545 0.222472,0.32545 0.08687,0 0.256806,0.0778 0.377639,0.17282 0.120834,0.095 0.389719,0.24738 0.597529,0.33853 0.20781,0.0911 0.455883,0.22499 0.551278,0.29744 0.09539,0.0724 0.187273,0.11787 0.204179,0.10096 0.01693,-0.0169 -0.0712,-0.25339 -0.195775,-0.52552 z m -47.629401,0.20594 c 0.151832,-0.15183 0.127698,-0.24301 -0.06431,-0.24301 -0.190731,0 -0.302226,0.13071 -0.222094,0.26037 0.07102,0.11491 0.159497,0.10954 0.286402,-0.0174 z m -0.02603,-1.02411 c 0.02952,-0.0477 0.01457,-0.0868 -0.03317,-0.0868 -0.04772,0 -0.110923,0.0391 -0.140425,0.0868 -0.02953,0.0478 -0.01456,0.0868 0.03316,0.0868 0.04773,0 0.110929,-0.0391 0.140426,-0.0868 z m -1.527854,-0.25294 c 0.165102,-0.10454 0.05462,-0.35458 -0.156682,-0.35458 -0.223964,0 -0.310138,0.14866 -0.178269,0.30756 0.121055,0.14587 0.168359,0.1525 0.334951,0.0471 z m -0.685263,-0.60432 c 0,-0.14478 -0.258705,-0.29021 -0.411142,-0.23112 -0.143225,0.0555 -0.142236,0.0672 0.0155,0.18329 0.188577,0.13879 0.395658,0.16382 0.395658,0.0478 z m 60.809641,-0.64157 c -0.157691,-0.37742 -0.3177,-0.49122 -0.3177,-0.22597 0,0.18032 0.334346,0.63828 0.410443,0.56219 0.0185,-0.0185 -0.02323,-0.16983 -0.09274,-0.33622 z M 74.564092,247.982 c -0.06947,-0.58651 -0.2875,-0.88295 -0.674094,-0.91651 -0.240048,-0.0209 -0.349342,0.0294 -0.578654,0.26599 -0.304411,0.31407 -0.476789,0.75306 -0.366058,0.93224 0.04655,0.0753 0.175902,0.0938 0.402857,0.0578 0.183867,-0.0292 0.392887,-0.0159 0.464488,0.0296 0.0716,0.0455 0.282082,0.0833 0.467731,0.084 l 0.337549,0.002 -0.05382,-0.45441 z m -57.728445,0.15183 c 0,-0.19146 -0.269821,-0.28681 -0.411295,-0.14534 -0.145873,0.14587 -0.002,0.37642 0.215634,0.34552 0.128026,-0.0182 0.195661,-0.0874 0.195661,-0.20018 z m 67.254379,-0.0105 c 0.24184,-0.0928 0.157546,-0.29448 -0.123087,-0.29448 -0.159107,0 -0.260368,0.045 -0.260368,0.11573 0,0.21409 0.131562,0.27541 0.383455,0.17875 z m -29.219055,-0.18599 c 0.02268,-0.0681 -0.04731,-0.10849 -0.188083,-0.10849 -0.219043,0 -0.285386,0.0835 -0.163345,0.20552 0.08929,0.0893 0.309652,0.0284 0.351428,-0.097 z m 25.25556,-1.5518 c 0.395016,-0.10586 0.119145,-0.46604 -0.35695,-0.46604 -0.119062,0 -0.275061,-0.0586 -0.346661,-0.13018 -0.178716,-0.17872 -0.31616,-0.16321 -0.31616,0.0356 0,0.19332 0.467332,0.61578 0.679275,0.61405 0.07987,-4.9e-4 0.233095,-0.0248 0.340496,-0.0535 z m -3.276285,-0.8132 c 0,-0.0478 -0.03675,-0.0868 -0.08167,-0.0868 -0.04492,0 -0.105802,0.0391 -0.135303,0.0868 -0.02952,0.0478 0.0072,0.0868 0.08167,0.0868 0.07442,0 0.135304,-0.0391 0.135304,-0.0868 z m -3.630273,-0.83794 c 0.207859,-0.18811 0.222925,-0.9948 0.02234,-1.1954 -0.152618,-0.15262 -0.518981,-0.18283 -0.601327,-0.0496 -0.02952,0.0478 -0.129444,0.0868 -0.222093,0.0868 -0.204784,0 -0.205833,0.0227 -0.02381,0.51784 0.149568,0.40682 0.428436,0.78399 0.579653,0.78399 0.04758,0 0.157942,-0.0647 0.245237,-0.14363 z m -11.81817,-0.0248 c 0,-0.15036 -0.152757,-0.17818 -0.261161,-0.0476 -0.08925,0.10754 -0.07633,0.12922 0.07695,0.12922 0.101314,0 0.184207,-0.0368 0.184207,-0.0817 z m 12.888168,-0.35228 c 0.0864,-0.0955 0.250902,-0.17358 0.36557,-0.17358 0.378161,0 0.966932,-0.18881 1.019998,-0.32709 0.0888,-0.23143 -0.09582,-0.32091 -0.33659,-0.16315 -0.40724,0.26683 -0.548217,0.19547 -0.617392,-0.31255 -0.08303,-0.60974 -0.308046,-0.75276 -0.648557,-0.41226 -0.137523,0.13752 -0.173579,0.2893 -0.173579,0.73062 0,0.83086 0.09273,0.98709 0.39055,0.65801 z m -12.974958,-0.12506 c 0,-0.0211 -0.03907,-0.0624 -0.08679,-0.0919 -0.04773,-0.0296 -0.08679,-0.0123 -0.08679,0.0383 0,0.0506 0.03907,0.0919 0.08679,0.0919 0.04772,0 0.08679,-0.0172 0.08679,-0.0383 z m 8.618392,-3.82265 c 0.0094,-0.0471 -0.05123,-0.0988 -0.134768,-0.11485 -0.095,-0.0183 -0.15188,0.0243 -0.15188,0.11367 0,0.15098 0.256487,0.15205 0.286648,7.6e-4 z m -2.499765,-0.0749 0.433943,-0.11371 -0.601495,-0.0494 c -0.607886,-0.05 -0.830525,-0.0205 -0.830525,0.10991 0,0.0621 0.183833,0.12253 0.47734,0.15683 0.04772,0.005 0.282067,-0.041 0.520737,-0.10357 z m 2.076563,-0.10592 c 0.1686,-0.16861 0.05427,-0.43064 -0.226817,-0.51986 -0.13927,-0.0442 -0.231959,-0.008 -0.347252,0.13392 -0.268802,0.33196 -0.184841,0.47911 0.292179,0.51208 0.08012,0.005 0.206973,-0.0513 0.28189,-0.12614 z m -6.510049,-0.35355 c 0.07266,-0.18935 -0.02381,-0.27736 -0.126329,-0.11525 -0.102633,0.16228 -0.104817,0.25785 -0.0059,0.25785 0.04261,0 0.102126,-0.0642 0.132224,-0.1426 z m 5.691927,-0.50435 c 0.383983,-0.0193 0.554639,-0.0922 1.048442,-0.44823 0.375283,-0.27057 0.786169,-0.91785 0.661675,-1.04234 -0.07806,-0.0781 -1.794471,0.14834 -2.122917,0.28003 -0.174421,0.0699 -0.316209,0.2063 -0.370358,0.35618 -0.04827,0.13358 -0.165169,0.38488 -0.259812,0.55844 -0.09464,0.17357 -0.172078,0.345 -0.172078,0.38095 0,0.0359 0.205039,0.035 0.455641,-0.002 0.250607,-0.0372 0.592338,-0.0745 0.759407,-0.0828 z m 1.957861,-3.29576 c 0.146172,-0.10756 0.150345,-0.13101 0.03154,-0.17711 -0.179532,-0.0697 -0.626745,0.10211 -0.557496,0.21416 0.07719,0.12489 0.330113,0.10708 0.525942,-0.037 z M 7.5421227,235.79927 c 0.1265458,-0.0486 0.2001833,-0.29448 0.088182,-0.29448 -0.1129804,0 -0.384843,0.18608 -0.384843,0.26342 0,0.0962 0.099764,0.10661 0.296661,0.0311 z m 62.3180243,-3.85283 c 0.359267,0 0.582915,-0.0788 0.5187,-0.18267 -0.06684,-0.10815 -1.660663,-0.0978 -1.866052,0.0122 -0.09233,0.0494 -0.167871,0.16574 -0.167871,0.25851 0,0.14917 0.02553,0.15704 0.220651,0.0682 0.189467,-0.0863 0.24739,-0.0738 0.409844,0.0887 l 0.189187,0.1892 0.201196,-0.21698 c 0.138074,-0.14891 0.293158,-0.21698 0.494345,-0.21698 z m 2.737435,-2.64194 c 0,-0.0916 -0.166552,-0.13009 -0.216095,-0.05 -0.02997,0.0485 0.0064,0.0882 0.08079,0.0882 0.07442,0 0.135303,-0.0172 0.135303,-0.0383 z m -61.30054,-0.67226 c -0.0277,-0.0692 -0.04827,-0.0487 -0.05244,0.0525 -0.0039,0.0915 0.01673,0.14274 0.04556,0.11391 0.02883,-0.0289 0.03193,-0.1037 0.0068,-0.16635 z m 65.624333,-0.51936 c -0.03183,-0.21645 -0.148102,-0.2763 -0.322443,-0.16603 -0.169358,0.10713 -0.05224,0.35451 0.167836,0.35451 0.137799,0 0.175567,-0.0461 0.154607,-0.18848 z M 50.083036,286.8088 c -0.0374,-0.0605 -0.04453,-0.13343 -0.01589,-0.16207 0.07768,-0.0777 0.162366,0.0365 0.120411,0.16242 -0.02943,0.0882 -0.04983,0.0881 -0.104518,-3.5e-4 z m 1.121061,-24.31257 c -0.07265,-0.11755 0.02539,-0.26037 0.178701,-0.26037 0.06878,0 0.12506,0.0781 0.12506,0.17358 0,0.17968 -0.20938,0.2395 -0.303761,0.0868 z m -0.47734,-0.60752 c 0,-0.0478 0.03907,-0.0868 0.08679,-0.0868 0.04772,0 0.08679,0.0391 0.08679,0.0868 0,0.0477 -0.03907,0.0868 -0.08679,0.0868 -0.04773,0 -0.08679,-0.0391 -0.08679,-0.0868 z m -6.966694,-0.66003 c -0.09452,-0.0945 0.01969,-0.20786 0.209502,-0.20786 0.101959,0 0.160531,0.0455 0.13957,0.10848 -0.04128,0.12394 -0.261746,0.1867 -0.349072,0.0994 z m 12.260824,-1.51483 c 0,-0.0506 0.03907,-0.0678 0.08679,-0.0383 0.04772,0.0295 0.08679,0.0709 0.08679,0.0919 0,0.021 -0.03907,0.0383 -0.08679,0.0383 -0.04772,0 -0.08679,-0.0413 -0.08679,-0.0919 z m -20.221841,-2.20799 c -0.11211,-0.11934 -0.284902,-0.21697 -0.383982,-0.21697 -0.153042,0 -0.657488,-0.49585 -0.657488,-0.64629 0,-0.12375 0.265811,-0.0177 0.781825,0.31174 0.309877,0.19787 0.652523,0.41439 0.761449,0.48116 0.108921,0.0668 0.174962,0.15872 0.146759,0.20435 -0.09608,0.15546 -0.444207,0.0835 -0.648563,-0.13399 z m -6.019827,-3.9055 c -0.02917,-0.076 -0.0014,-0.13019 0.06688,-0.13019 0.06426,0 0.16545,0.0586 0.224873,0.13019 0.08996,0.10839 0.07877,0.13017 -0.06688,0.13017 -0.0962,0 -0.197398,-0.0586 -0.224873,-0.13017 z m 7.929187,-0.72035 c 0,-0.19735 0.163857,-0.36452 0.35728,-0.36452 0.18459,0 0.252161,0.16764 0.148673,0.36885 -0.106442,0.20696 -0.505953,0.20354 -0.505953,-0.005 z m -22.941233,-4.76183 c -0.118221,-0.11823 -0.05212,-0.58186 0.123475,-0.86598 0.229504,-0.37134 0.422085,-0.47408 0.732839,-0.39097 0.25868,0.0691 0.402871,0.27334 0.193053,0.27334 -0.172408,0 -0.459292,0.33285 -0.617137,0.71601 -0.124326,0.30179 -0.293373,0.40646 -0.43223,0.2676 z m 11.695645,-2.43074 c -0.336373,-0.36296 -0.56467,-0.77707 -0.508741,-0.92282 0.02809,-0.0732 0.331207,-0.34786 0.673641,-0.61047 1.47467,-1.1309 2.451841,-2.74928 2.803599,-4.64328 0.07676,-0.41329 0.154902,-1.33726 0.173649,-2.05327 0.03129,-1.19479 0.04758,-1.30403 0.198043,-1.32844 0.239442,-0.0388 0.769681,0.46711 0.876669,0.83654 0.181362,0.62626 0.207632,2.42515 0.04684,3.20805 -0.393385,1.91543 -1.169142,3.39271 -2.475635,4.71439 -0.680116,0.68802 -1.150785,1.03051 -1.416949,1.03106 -0.08581,1.7e-4 -0.252816,-0.10411 -0.371117,-0.23176 z m 19.355426,-6.25267 c -0.447503,-0.30253 -2.156676,-1.79752 -2.380817,-2.08246 -0.400671,-0.50938 -0.14572,-0.49204 0.591158,0.0402 0.313916,0.22674 0.76353,0.51025 0.99914,0.63004 0.362455,0.18429 0.488647,0.32145 0.819976,0.89127 0.215383,0.3704 0.373861,0.69121 0.352183,0.71289 -0.0217,0.0217 -0.193418,-0.0647 -0.38164,-0.19194 z m 3.215647,-1.93431 c -0.08666,-0.0958 -0.139182,-0.1925 -0.116701,-0.21498 0.05744,-0.0574 0.420944,0.20785 0.420944,0.30722 0,0.13459 -0.136391,0.0932 -0.304243,-0.0922 z m -1.657189,-1.98239 c -0.616994,-0.45049 -1.162973,-1.10687 -1.162973,-1.39813 0,-0.14525 0.02883,-0.26409 0.06411,-0.26409 0.0861,0 1.49809,1.47413 1.49809,1.56403 0,0.0389 0.02371,0.13254 0.05268,0.20805 0.07825,0.20392 -0.07228,0.16733 -0.451907,-0.10986 z m 13.418839,0.18205 c 0.004,-0.20482 0.304213,-0.87968 0.544498,-1.2239 0.153307,-0.21963 0.32111,-0.5174 0.372901,-0.66173 0.08418,-0.23458 0.140431,-0.26714 0.530657,-0.30709 0.240072,-0.0246 0.49061,-0.0883 0.556754,-0.14164 0.06615,-0.0533 0.501046,-0.12473 0.966454,-0.15868 0.903308,-0.0659 1.047808,-7.6e-4 0.607522,0.27224 -0.61873,0.38419 -1.468563,0.95096 -1.603601,1.06948 -0.08244,0.0724 -0.375352,0.25287 -0.65092,0.40115 -0.275567,0.14827 -0.506291,0.32403 -0.512717,0.39055 -0.0065,0.0665 -0.01619,0.17287 -0.0217,0.23633 -0.007,0.0813 -0.08449,0.099 -0.262115,0.06 -0.144618,-0.0317 -0.276311,-0.0162 -0.308883,0.0365 -0.06501,0.1052 -0.22074,0.12425 -0.218851,0.0268 z m -16.060787,-1.24174 c -0.103922,-0.14595 -0.165406,-0.28891 -0.136622,-0.3177 0.06238,-0.0624 0.382845,0.21424 0.498433,0.43021 0.144854,0.27068 -0.155458,0.17728 -0.361811,-0.11251 z m 39.178223,-2.63833 c -0.02833,-0.0736 -0.125326,-0.13393 -0.215689,-0.13393 -0.225703,0 -0.213138,-0.2983 0.02246,-0.53393 0.181245,-0.18124 0.190315,-0.18196 0.305679,-0.0242 0.06542,0.0894 0.09973,0.21253 0.07631,0.27358 -0.02345,0.0611 -0.009,0.11097 0.03214,0.11097 0.164628,0 0.166151,0.26174 0.0023,0.34957 -0.133831,0.0717 -0.18295,0.0624 -0.22303,-0.042 z m -19.977474,-0.7485 c 0.05709,-0.17126 0.392012,-0.36416 0.455086,-0.2621 0.02997,0.0485 -0.06827,0.15168 -0.218334,0.22927 -0.189728,0.0981 -0.26185,0.10812 -0.236752,0.0328 z m 18.382451,-0.4832 c 0,-0.15944 0.204974,-0.46269 0.34218,-0.50624 0.09821,-0.0311 0.178556,-0.11573 0.178556,-0.1879 0,-0.10154 -0.06077,-0.11789 -0.268402,-0.0723 -0.225536,0.0495 -0.263658,0.0348 -0.238672,-0.0923 0.0163,-0.0832 0.09633,-0.19317 0.177711,-0.24443 0.11586,-0.073 0.19212,-0.0517 0.351333,0.0978 0.111839,0.10507 0.329797,0.21633 0.48435,0.24724 0.276155,0.0552 0.535145,0.31168 0.535145,0.52991 0,0.17196 -0.171931,0.13112 -0.35527,-0.0844 l -0.166121,-0.19527 -0.209787,0.25319 c -0.155307,0.18745 -0.290449,0.25587 -0.520409,0.2635 -0.170835,0.005 -0.310614,0.002 -0.310614,-0.009 z m -15.25317,-0.77857 c -0.05967,-0.0261 -0.108484,-0.1028 -0.108484,-0.17043 0,-0.0849 0.104051,-0.12295 0.336531,-0.12295 0.193256,0 0.382526,-0.0554 0.444571,-0.13018 0.122924,-0.14812 0.397208,-0.17305 0.47734,-0.0434 0.02952,0.0478 0.127136,0.0868 0.216971,0.0868 0.189925,0 0.313927,0.15673 0.20507,0.25918 -0.0908,0.0855 -1.419488,0.18773 -1.571999,0.12098 z m 1.212771,-0.82941 c -0.07454,-0.0746 -0.07636,-0.13307 -0.0068,-0.21697 0.156328,-0.18837 0.334464,-0.13399 0.334464,0.10208 0,0.23006 -0.157397,0.28523 -0.327738,0.11489 z m 1.022049,-0.23578 c 0,-0.0427 0.05734,-0.0995 0.127442,-0.12642 0.07009,-0.0269 0.185265,-0.18729 0.255935,-0.35643 0.108813,-0.26042 0.170617,-0.30754 0.403417,-0.30754 0.23253,0 0.267892,0.0269 0.229356,0.17423 -0.03021,0.11547 0.01761,0.21874 0.141759,0.30621 0.15965,0.11248 0.168089,0.14424 0.05714,0.21499 -0.169318,0.10797 -0.323403,0.10752 -0.390551,-7.7e-4 -0.08189,-0.1325 -0.365634,-0.10332 -0.421937,0.0434 -0.05304,0.13823 -0.402556,0.18397 -0.402556,0.0527 z m -0.472676,-0.4031 c -0.121802,-0.092 -0.142556,-0.15393 -0.07441,-0.22207 0.116808,-0.11682 0.487845,0.0559 0.438449,0.20409 -0.05035,0.15105 -0.179405,0.15742 -0.36404,0.018 z m 11.147723,-0.12692 c 0,-0.0477 0.04138,-0.0868 0.09191,-0.0868 0.05055,0 0.06777,0.0391 0.03828,0.0868 -0.02952,0.0478 -0.07086,0.0868 -0.09191,0.0868 -0.02106,0 -0.03828,-0.0391 -0.03828,-0.0868 z m -10.804358,-0.60894 c 0.02997,-0.0485 0.09087,-0.0657 0.135309,-0.0383 0.120381,0.0744 0.09793,0.12647 -0.05452,0.12647 -0.07442,0 -0.110772,-0.0397 -0.08079,-0.0882 z m 5.249861,-0.34574 c 0,-0.0478 0.03907,-0.0868 0.08679,-0.0868 0.04772,0 0.08679,0.0391 0.08679,0.0868 0,0.0478 -0.03907,0.0868 -0.08679,0.0868 -0.04772,0 -0.08679,-0.0391 -0.08679,-0.0868 z"
       id="path828" />
  </g>
</svg>
