<svg width="353" height="366" version="1.1" viewBox="0 0 353 366" xmlns="http://www.w3.org/2000/svg">
 <style type="text/css">.st0{fill-rule:evenodd;clip-rule:evenodd;}</style>
 <g id="Vectors" transform="translate(-130 -218)" clip-rule="evenodd" fill-rule="evenodd">
  <path class="st0" d="m378 280c-3.4 1.6-25-20-25-20h-4.6s47 53 54 51c3.8-1.4-3.3-15-12-27-8.2-12-18-24-18-24h-4.4s13 19 9.9 20z"/>
  <path class="st0" d="m352 414c20 7.6 82-57 82-57s-6.2-17-13-33c-5.6-14-11-28-11-28s-5.8-7.9-12-16c-8.2-10-18-21-18-21h-3.2s9.3 11 18 21c7.7 9.8 14 20 14 20s5.2 12 9.9 25c5 14 9.5 28 9.5 28s-13 11-22 17c-5.1 3.2-8.1 3.3-10 2.4-5.3-2.5 12-30 12-30l-8.1-17-57-67h-2.8s17 21 32 40c14 17 26 34 26 34l2 5.4s-13 15-28 36c-11 14-28 35-20 38z"/>
  <path class="st0" d="m283 572 31-88s7.4-4.5 14-9.8c6.1-5.2 11-11 11-11s8.5-7.1 16-15 14-15 14-15 17-16 34-32c19-19 39-40 39-40l-30-73-27-30h-2.1l28 33 28 68s-37 39-71 67c-23 19-47 29-47 29l-39 113-22-9.7 5.8 5.2 16 6.9z"/>
  <path class="st0" d="m366 478 45-62 45-47s-8.2-20-17-42c-10-24-22-50-22-50s-3.1-3.4-6.6-7c-5-5-11-11-11-11l-3.3-0.05s7.3 7.2 13 13c3.5 3.7 6.8 7.6 6.8 7.6s11 25 21 48c8.8 20 16 40 16 40l-49 51-42 56s-23 50-37 76c-3.3 5.8-8.2 14-13 14-8.9 0-11-7.3-20-7.3-0.84 0.34-7.4 17-8.6 20l-0.14-1.7c0.42-1.2 6-17 11-28 3.5-8.8 6.1-14 6.1-14s15-1.1 25-13c16-18 30-49 30-49l38-48 56-59-35-81-23-25h-2.8l25 27 33 78s-16 17-32 33c-15 16-30 31-30 31s-9.1 11-18 22c-8.3 9.9-17 19-17 19s-9.7 18-21 30c-11 11-23 15-23 15s-5.6 13-11 28c-6 16-12 33-12 33v1.2l-6.8-2.8 7.1 6.7 9 4.9 41-25s5.4-16 13-34c9-22 20-47 20-47z"/>
  <path class="st0" d="m414 264c3.2 0-2-4.9-2-4.9h-7.1c0-0.01 5.9 4.9 9 4.9z"/>
  <path class="st0" d="m480 381c-20-40-40-80-59-120l-2.1-2.3h-2.8l4.4 4.6c18 39 37 78 57 117l-7.4 9.8c-17 35-36 73-54 113l-1.2 5 2.7-1.6 0.33-1.6c19-41 38-81 56-116z"/>
  <path class="st0" d="m432 425c-8.1 0-49 62-49 62-8 20-14 38-19 53l11-6.6c4.3-15 9.9-29 17-42 0 0 5.3-7.6 8.1-7.6s-1.3 11-1.3 11l-6.3 28 8.2-5.4 5.6-20c-0.01 0 35-72 26-72z"/>
  <path class="st0" d="m474 379s-38-71-39-71c-0.83 0 24 64 24 64s-12 12-23 22c-8.9 9-17 17-17 17-8.9 12-18 24-26 36-8 11-15 22-23 33-11 25-20 49-26 71l7.8-4.6c5.3-19 14-41 23-64 8.3-13 21-31 32-47 12-16 22-30 22-30s5.7-5.6 13-12c9.5-8.8 21-18 24-18 2.9 0.45-9.4 19-9.4 19l-48 104-4 13 3.7-2.1 2.7-8.7 51-109z"/>
  <path class="st0" d="m456 328c-16-33-33-69-34-69h-0.3c16 33 37 77 60 123l-3.2 4.3c-17 33-33 66-48 98 13-25 31-61 51-100l1.3-1.5c0.01 0.01-13-27-27-56z"/>
  <path class="st0" d="m260 219-3.1 0.17s4.8 8.1-2.1 8.1-18-7-18-7l-3.2 0.18s17 12 28 12c9.2 0.01-1.1-13-1.1-13z"/>
  <path class="st0" d="m275 244c9.5-3.8-9.5-25-9.4-25l-2 0.11s14 17 5.7 20c-10 3.6-40-18-40-18l-2.3 0.13c-0.01-0.01 37 27 48 22z"/>
  <path class="st0" d="m272 266c9.3 0 16-12 17-14 1.5-7.2-5.6-18-20-32l-1.6 0.09s24 26 13 31c-2.2 2-4.9 4-8.4 4-7.2 0-12-8.1-12-8.1-13-6.8-26-15-37-24l-1.9 0.1c11 8.8 22 17 32 22 0 0.01 6.4 22 18 22z"/>
  <path class="st0" d="m251 303s23 7.8 39-0.73c16-8.2 14-28 14-28l5.6-18c-8.7-13-20-25-32-37l-1.5 0.08c12 12 23 24 29 36-2.1 8-4.8 16-8.2 23 0 0-2.4 18-17 21-12 2.9-15 2-23 0.82-11-17-15-29-20-59l-23-18-1.8 0.1 21 17c2.8 26 8.3 47 17 63z"/>
  <path class="st0" d="m222 277c3 20 8.1 37 8.1 37s49 29 84 19c16-4.8 21-20 20-34-0.9-18-10-36-10-36l0.85-4.2s-6.3-7.2-11-12c-7-6.8-18-17-18-17s10 10 16 17c4.2 4.6 9.5 11 9.5 11l-1.4 7s21 45-10 60c-9.5 4.6-21 4-31 2.6-24-3.1-45-15-45-15s-5.3-18-8.3-37c-3.2-19-4.1-39-4.1-39l-16-14-1.9 0.11 14 14c0.01 0.01 1 22 4.1 41z"/>
  <path class="st0" d="m212 324c16 10 32 20 47 27 0 0 11 11 25 22 14 11 32 22 40 22 5.3 0 13-2.5 21-8.9 18-14 37-38 37-38l1.7-8.7s-0.48-5-1.8-10c-1.8-6.7-4.6-14-4.6-14l-41-56h-2.9l26 36s5.8 13 8.3 26c1.9 9.4 0.75 18 0.75 18s-10 40-41 39c-29 0-57-27-60-29-20-8.3-37-17-53-28-6.9-27-9.3-57-10-89l-10-11-2.9 0.16 9.3 9.6c0.93 34 3.6 66 10 92z"/>
  <path class="st0" d="m221 319c19 13 41 22 65 29 0 0 14 9.9 34 9.9s36-20 36-36c0-20-11-43-13-48l-11-14h-1.6l6.2 13s9.4 19 9.4 41-17 31-36 31c-36 0-72-20-84-28-6.8-25-10-53-11-82l-13-13-2.6 0.14 12 12c0.43 28 3.7 56 11 85z"/>
  <path class="st0" d="m240 309s37 17 60 8.4c30-12 15-49 15-49l2.7-11c-11-14-24-28-36-39l-1.2 0.08c12 11 24 24 34 38l-3.6 14s8.2 31-15 40-51-4.2-51-4.2c-7.3-17-12-40-15-68l-19-16-1.8 0.1 18 16c1.1 24 5.6 48 14 71z"/>
  <path class="st0" d="m250 269c4.5 12 11 23 19 23 20 0 32-38 32-38s-2-6-9.3-16c-6.6-8.7-17-19-17-19l-1.8 0.1s10 10 17 20c7.3 10 7 14 7 14s-11 28-24 28c-18 0-25-39-25-39l-28-20-1.8 0.1 25 19c-0.01 0 2.3 14 7.4 28z"/>
  <path class="st0" d="m284 521c0.79-17-61-34-61-34 4-12 3.9-17 2.5-26-11-12-22-25-36-25-27 0-28 60-28 60l1.6 12c2.3 1.2 27 9.8 54 15 32 6.6 67 9.4 68-2.1zm-116-16 1.2-3.4s1.6-47 23-47c15 0 24 13 24 13 3.3 6.3 3.9 13 0.85 21 0 0 56 15 55 29-1.4 18-105-10-104-13z"/>
  <path class="st0" d="m206 492s1.8-10-6.4-10-21 19-21 19c4.9 4.7 69 24 71 11 1.2-8.8-44-20-44-20z"/>
  <polygon class="st0" points="150 403 146 399 147 402 150 405"/>
  <polygon class="st0" points="150 407 148 405 150 409"/>
  <polygon class="st0" points="146 364 147 358 138 370 140 372"/>
  <polygon class="st0" points="146 370 147 367 142 375 143 376"/>
  <polygon class="st0" points="147 373 144 377 145 378 147 375"/>
  <path class="st0" d="m287 535v3.3l3.6-9.1c-9.3 4.4-33 3.1-65-1.5l2.7 2.4c16 3.8 42 6.9 58 4.8z"/>
  <polygon class="st0" points="283 545 283 547 284 547 284 543 272 543 278 545"/>
  <path class="st0" d="m312 477 0.66-1.7c-5.2-4.6-11-8.7-16-13 0 0 25-28 24-35s-9.3-10-16-23c-12-9-41-35-57-53-15-7.9-29-16-41-24-7.2-30-10-62-11-96l-7.5-7.7-3.9 0.22 6.2 6.6c-0.05 31 3.5 64 11 99 13 8.6 26 17 38 23 16 18 35 38 56 58 8 20 5.6 32-9.7 56 8.4 4 16 8.4 23 14l-2.1 6c-9.4-6.4-20-12-31-17 11-18 14-36 11-52-22-24-42-47-57-64-11-6.1-21-13-32-20-8.8-31-14-66-16-105l-4.4-3.8-10 0.58-9.4 56-4.6 27c1.8-3.3 7.4-38 16-38 7.1 0 12 33 23 67l30 18 58 68c2.1 16-1.2 33-10 50 13 5.3 26 11 37 19l-1.6 4.7c-14-8.7-28-16-42-21 7.5-14 11-30 9.7-46-13-17-37-45-61-73l-27-15s-9.8-26-18-26-15 15-15 15l-0.62 4.4-18 26 3 3.7 14-20-0.61 4.3-12 17 2.2 2.8 9-13 0.61-2.5c2.3-3.1 11-14 17-14 5.4 0 9.8 6.6 9.8 6.6 8.8 2.4 17 6.1 25 11 21 20 45 47 66 76 1.2 15-2.4 29-9.6 43 17 6.2 33 14 47 23l-1.6 4.5c-2.8-1.8-12-7.4-22-12-14-6.9-30-13-30-13s4.2-9.1 6.1-19c1.9-9.9 1.4-21 1.4-21s-14-20-30-39c-28-32-46-42-55-42-14 0-24 24-24 24l0.68 5.4-14-18 4.1 11 9.4 9.8 1.1 0.81 0.87 6.8-7.2-7.9 2 4.8 5.6 5.8 0.24 1.9c-0.01-0.07 0.01-1 3.7-7.8 3.3-6.1 9.4-19 22-19 28 0 75 67 75 67s0.61 8.1-0.85 17c-1.6 9.6-5.4 20-5.4 20s18 6.4 33 14c11 5.3 20 12 22 13l-1.8 5.2c-13-11-33-21-60-30 4-11 5.6-22 5.1-33 0 0-35-52-63-52-17 0-26 33-26 33l3 23s7.3-39 30-39c22 0 50 40 50 40 1 9.4-0.25 20-3 30 35 11 56 23 63 35l-12 34-3.6-4.3-19-8.9c8.3 0.98 17 1.2 25 1.3l0.45-2.2c-16 0.9-34-1.3-53-4.8l8.4 7.6 41 17 0.07-0.15 0.19 4-33-14 4.6 4.1 29 13z"/>
  <polygon class="st0" points="320 252 324 254 408 258"/>
  <polygon class="st0" points="371 258 325 256 327 258"/>
 </g>
</svg>
