<?xml version="1.0" encoding="UTF-8" standalone="no"?>
<svg
   xmlns:dc="http://purl.org/dc/elements/1.1/"
   xmlns:cc="http://creativecommons.org/ns#"
   xmlns:rdf="http://www.w3.org/1999/02/22-rdf-syntax-ns#"
   xmlns:svg="http://www.w3.org/2000/svg"
   xmlns="http://www.w3.org/2000/svg"
   xmlns:sodipodi="http://sodipodi.sourceforge.net/DTD/sodipodi-0.dtd"
   xmlns:inkscape="http://www.inkscape.org/namespaces/inkscape"
   role="img"
   viewBox="0 0 24 24"
   version="1.1"
   id="svg6"
   sodipodi:docname="node-dot-js.svg"
   inkscape:version="0.92.3 (2405546, 2018-03-11)">
  <metadata
     id="metadata12">
    <rdf:RDF>
      <cc:Work
         rdf:about="">
        <dc:format>image/svg+xml</dc:format>
        <dc:type
           rdf:resource="http://purl.org/dc/dcmitype/StillImage" />
      </cc:Work>
    </rdf:RDF>
  </metadata>
  <defs
     id="defs10" />
  <sodipodi:namedview
     pagecolor="#ffffff"
     bordercolor="#666666"
     borderopacity="1"
     objecttolerance="10"
     gridtolerance="10"
     guidetolerance="10"
     inkscape:pageopacity="0"
     inkscape:pageshadow="2"
     inkscape:window-width="1920"
     inkscape:window-height="1001"
     id="namedview8"
     showgrid="false"
     inkscape:zoom="0.86915209"
     inkscape:cx="209.69098"
     inkscape:cy="181.81683"
     inkscape:window-x="-9"
     inkscape:window-y="-9"
     inkscape:window-maximized="1"
     inkscape:current-layer="svg6" />
  <title
     id="title2">Node.js icon</title>
  <path
     d="m 201.32981,24 c -6.03299,0 -12.04718,-1.578725 -17.32839,-4.642203 l -55.18019,-32.645773 c -8.23192,-4.604614 -4.20993,-6.239722 -1.50354,-7.198234 10.99469,-3.815251 13.21242,-4.698585 24.95888,-11.351783 1.22164,-0.69539 2.83795,-0.43227 4.09717,0.319504 l 42.40004,25.1656252 c 1.54113,0.8457454 3.70248,0.8457454 5.11206,0 L 369.18208,-101.75295 c 1.54114,-0.88333 2.51845,-2.65 2.51845,-4.47305 v -190.76258 c 0,-1.86064 -0.9961,-3.60852 -2.57483,-4.54823 l -165.22107,-95.32491 c -1.52234,-0.88333 -3.55213,-0.88333 -5.09326,0 l -165.183483,95.3437 c -1.597519,0.92092 -2.612414,2.72518 -2.612414,4.52944 V -106.226 c 0,1.82305 1.014895,3.55213 2.612414,4.41667 l 45.275572,26.161724 c 24.564201,12.2915 39.618471,-2.180144 39.618471,-16.726965 V -280.71268 c 0,-2.6688 2.14256,-4.75497 4.81136,-4.75497 h 20.95569 c 2.61241,0 4.79256,2.10497 4.79256,4.75497 v 188.338109 c 0,32.796128 -17.85463,51.590471 -48.94047,51.590471 -9.54753,0 -17.084061,0 -38.077342,-10.355683 L 18.686384,-76.079876 C 7.9736087,-82.263215 1.358,-93.84053 1.358,-106.226 v -190.76258 c 0,-12.38547 6.634403,-23.96279 17.328384,-30.12733 l 165.296246,-95.51285 c 10.46845,-5.92022 24.35747,-5.92022 34.73195,0 l 165.27745,95.51285 c 10.71277,6.18333 17.36597,17.74186 17.36597,30.12733 V -106.226 c 0,12.38547 -6.6532,23.925197 -17.36597,30.146124 L 218.71458,19.357797 C 213.45216,22.421275 207.45676,24 201.32981,24 Z m 133.45863,-188.07499 c 0,-35.70925 -24.13194,-45.21919 -74.93305,-51.92877 -51.32735,-6.78476 -56.55218,-10.2993 -56.55218,-22.30888 0,-9.92342 4.41668,-23.17343 42.43763,-23.17343 33.96138,0 46.47841,7.311 51.62806,30.20251 0.45106,2.16135 2.42447,3.74007 4.6422,3.74007 h 21.44435 c 1.3344,0 2.59362,-0.58262 3.49575,-1.52234 0.90212,-1.01489 1.39078,-2.3117 1.25922,-3.68369 -3.3266,-39.43053 -29.52592,-57.8114 -82.46958,-57.8114 -47.13621,0 -75.25255,19.88442 -75.25255,53.24438 0,36.17911 27.96598,46.1777 73.20397,50.65075 54.1277,5.30001 58.31884,13.21242 58.31884,23.85002 0,18.47484 -14.82873,26.34967 -49.65465,26.34967 -43.73444,0 -53.35714,-10.9759 -56.58977,-32.73975 -0.37588,-2.33049 -2.36808,-4.04078 -4.75497,-4.04078 h -21.36916 c -2.65001,0 -4.77377,2.10497 -4.77377,4.75497 0,27.85322 15.14824,61.04403 87.48767,61.04403 52.39863,0.0188 82.43199,-20.5986 82.43199,-56.62736 z"
     id="path4"
     inkscape:connector-curvature="0"
     style="stroke-width:18.79434204" />
</svg>
