<svg role="img" version="1.1" viewBox="0 0 24 24" xmlns="http://www.w3.org/2000/svg">
 <title>Node.js icon</title>
 <path d="m201 452c-6 0-12-1.6-17-4.6l-55-33c-8.2-4.6-4.2-6.2-1.5-7.2 11-3.8 13-4.7 25-11 1.2-0.7 2.8-0.43 4.1 0.32l42 25c1.5 0.85 3.7 0.85 5.1 0l165-95c1.5-0.88 2.5-2.6 2.5-4.5v-191c0-1.9-1-3.6-2.6-4.5l-165-95c-1.5-0.88-3.6-0.88-5.1 0l-165 95c-1.6 0.92-2.6 2.7-2.6 4.5v191c0 1.8 1 3.6 2.6 4.4l45 26c25 12 40-2.2 40-17v-188c0-2.7 2.1-4.8 4.8-4.8h21c2.6 0 4.8 2.1 4.8 4.8v188c0 33-18 52-49 52-9.5 0-17 0-38-10l-43-25c-11-6.2-17-18-17-30v-191c0-12 6.6-24 17-30l165-96c10-5.9 24-5.9 35 0l165 96c11 6.2 17 18 17 30v191c0 12-6.7 24-17 30l-165 95c-5.3 3.1-11 4.6-17 4.6zm133-188c0-36-24-45-75-52-51-6.8-57-10-57-22 0-9.9 4.4-23 42-23 34 0 46 7.3 52 30 0.45 2.2 2.4 3.7 4.6 3.7h21c1.3 0 2.6-0.58 3.5-1.5 0.9-1 1.4-2.3 1.3-3.7-3.3-39-30-58-82-58-47 0-75 20-75 53 0 36 28 46 73 51 54 5.3 58 13 58 24 0 18-15 26-50 26-44 0-53-11-57-33-0.38-2.3-2.4-4-4.8-4h-21c-2.7 0-4.8 2.1-4.8 4.8 0 28 15 61 87 61 52 0.019 82-21 82-57z" stroke-width="19"/>
</svg>
