<?xml version="1.0" encoding="UTF-8" standalone="no"?>
<!-- Created with Inkscape (http://www.inkscape.org/) -->

<svg
   xmlns:dc="http://purl.org/dc/elements/1.1/"
   xmlns:cc="http://creativecommons.org/ns#"
   xmlns:rdf="http://www.w3.org/1999/02/22-rdf-syntax-ns#"
   xmlns:svg="http://www.w3.org/2000/svg"
   xmlns="http://www.w3.org/2000/svg"
   xmlns:sodipodi="http://sodipodi.sourceforge.net/DTD/sodipodi-0.dtd"
   xmlns:inkscape="http://www.inkscape.org/namespaces/inkscape"
   width="210mm"
   height="297mm"
   viewBox="0 0 210 297"
   version="1.1"
   id="svg8"
   inkscape:version="0.92.3 (2405546, 2018-03-11)"
   sodipodi:docname="mcgyver.svg">
  <defs
     id="defs2" />
  <sodipodi:namedview
     id="base"
     pagecolor="#ffffff"
     bordercolor="#666666"
     borderopacity="1.0"
     inkscape:pageopacity="0.0"
     inkscape:pageshadow="2"
     inkscape:zoom="0.98994949"
     inkscape:cx="213.40696"
     inkscape:cy="169.12715"
     inkscape:document-units="mm"
     inkscape:current-layer="layer1"
     showgrid="false"
     inkscape:window-width="1920"
     inkscape:window-height="1001"
     inkscape:window-x="-9"
     inkscape:window-y="-9"
     inkscape:window-maximized="1" />
  <metadata
     id="metadata5">
    <rdf:RDF>
      <cc:Work
         rdf:about="">
        <dc:format>image/svg+xml</dc:format>
        <dc:type
           rdf:resource="http://purl.org/dc/dcmitype/StillImage" />
        <dc:title></dc:title>
      </cc:Work>
    </rdf:RDF>
  </metadata>
  <g
     inkscape:label="Calque 1"
     inkscape:groupmode="layer"
     id="layer1">
    <path
       inkscape:connector-curvature="0"
       id="path828"
       d="m 34.107966,291.71035 c -0.564136,-0.40409 -1.252518,-0.89752 -1.529744,-1.09651 -0.277232,-0.199 -1.0465,-0.60373 -1.709497,-0.8994 -1.580619,-0.70488 -2.599731,-1.22059 -2.68514,-1.35878 -0.03786,-0.0613 -0.540992,-0.35461 -1.118044,-0.65182 -0.716055,-0.36881 -1.374846,-0.83309 -2.074872,-1.46225 -0.564136,-0.50702 -1.41033,-1.16777 -1.880444,-1.46833 -0.470108,-0.30057 -1.0086,-0.68643 -1.196643,-0.85748 -0.399127,-0.36305 -1.55595,-1.17125 -2.450273,-1.71186 -0.855473,-0.51711 -5.362016,-3.7881 -7.388914,-5.3631 -0.605862,-0.47078 -1.486209,-1.13555 -1.956317,-1.47727 -0.4701151,-0.34172 -1.2137396,-0.93363 -1.6525113,-1.31536 -0.4387718,-0.38173 -1.1567589,-0.96845 -1.5955306,-1.30382 -0.4387653,-0.33538 -0.9003317,-0.72439 -1.025696,-0.86448 -0.2589276,-0.28934 -2.6202703,-2.29356 -2.930486,-2.4873 -0.1910605,-0.11932 -0.2035821,-0.47803 -0.2035821,-5.83223 0,-4.40755 0.032435,-5.73942 0.1424603,-5.85608 0.1139669,-0.12081 0.1139669,-0.16146 0,-0.20324 -0.1822864,-0.0668 -0.2047192,-4.49054 -0.024487,-4.82732 0.081319,-0.15195 0.081319,-0.22044 0,-0.22044 -0.078522,0 -0.1179793,-1.06944 -0.1179793,-3.19778 0,-2.15195 0.038185,-3.1742 0.1166548,-3.12568 0.076118,0.047 0.092355,-0.0798 0.046714,-0.36521 -0.056664,-0.35426 -0.024681,-0.47824 0.1682593,-0.65287 0.1310048,-0.11855 0.2381941,-0.25942 0.2381941,-0.31302 0,-0.0536 0.1794952,-0.35285 0.398881,-0.66497 0.2193859,-0.31212 0.3988811,-0.63454 0.3988811,-0.71648 0,-0.21723 0.8301192,-0.99301 1.0625693,-0.99301 0.1090178,0 0.2259439,-0.0898 0.2598387,-0.19944 0.1123646,-0.36363 0.2392472,-0.54135 0.3864887,-0.54135 0.080033,0 0.1634264,-0.16362 0.1853166,-0.36361 0.065657,-0.5997 0.5005525,-1.30478 1.2650853,-2.05102 0.3973368,-0.38782 0.7771771,-0.86221 0.8441009,-1.05419 0.1281102,-0.3675 0.5189537,-0.51178 0.4052581,-0.1496 -0.034438,0.10969 -0.1411422,0.4815 -0.2371215,0.82625 -0.1281619,0.46031 -0.2987796,0.74337 -0.6423021,1.06559 -0.2572801,0.24133 -0.4445027,0.49945 -0.4160481,0.57359 0.028429,0.0741 0.2653758,0.14332 0.5265002,0.15374 0.416229,0.0166 0.4664122,-0.007 0.4069962,-0.1946 -0.067072,-0.21133 0.096729,-0.34559 0.8282903,-0.67895 0.142642,-0.065 0.289159,-0.19588 0.325606,-0.29084 0.03644,-0.095 0.128757,-0.17266 0.205146,-0.17266 0.07639,0 0.256783,-0.12549 0.400871,-0.27887 0.2247101,-0.23919 0.2397001,-0.30349 0.105341,-0.45191 -0.535255,-0.59129 -0.539015,-0.61043 -0.129124,-0.65774 0.3302191,-0.0381 0.4551441,-0.29842 0.3076441,-0.64104 -0.04568,-0.10603 -0.08845,-0.29536 -0.09511,-0.42072 -0.0066,-0.12536 -0.08905,-0.22793 -0.1830681,-0.22793 -0.09402,0 -0.186066,0.10257 -0.204545,0.22793 -0.05233,0.35526 -0.427549,0.78501 -0.620645,0.71091 -0.1418848,-0.0545 -0.111304,-0.19266 0.181893,-0.82216 0.300582,-0.64536 0.38643,-0.74601 0.583351,-0.68393 0.6307951,0.19889 0.7789471,0.1965 0.9589011,-0.0155 0.101045,-0.11904 0.174624,-0.19846 0.163491,-0.17651 -0.01111,0.022 0.15307,0.19208 0.364877,0.37805 0.316399,0.2778 0.425417,0.31655 0.611063,0.2172 0.124272,-0.0665 0.254967,-0.12093 0.290432,-0.12093 0.128226,0 0.06067,0.38511 -0.09836,0.56086 -0.14498,0.1602 -0.123116,0.18127 0.199447,0.19231 0.199246,0.007 0.477034,0.0511 0.617304,0.0984 0.18763,0.0633 0.274473,0.0353 0.328565,-0.10559 0.0513,-0.13374 -0.0731,-0.32834 -0.411932,-0.6443 -0.267011,-0.24898 -0.450118,-0.48804 -0.406913,-0.53124 0.04322,-0.0432 0.344589,-0.0796 0.669743,-0.0809 0.448476,-0.002 0.591195,-0.0436 0.591195,-0.17332 0,-0.13316 -0.161398,-0.17308 -0.730173,-0.1806 -0.61554,-0.008 -0.763157,-0.0504 -0.940222,-0.26905 -0.115524,-0.14267 -0.21005,-0.33272 -0.21005,-0.42234 0,-0.0896 -0.107545,-0.3084 -0.238989,-0.48619 -0.286006,-0.38683 -0.248719,-0.73713 0.08354,-0.78476 0.132601,-0.019 0.358978,-0.16004 0.50306,-0.3134 0.348064,-0.3705 0.491539,-0.35266 0.932979,0.11603 0.54945,0.58336 0.851176,0.6113 1.39326,0.12903 0.427407,-0.38024 0.439373,-0.40905 0.254683,-0.61314 -0.184709,-0.2041 -0.173745,-0.23022 0.233807,-0.5568 0.788458,-0.63184 1.168383,-0.75748 1.168383,-0.38639 0,0.12166 0.04561,0.2494 0.101374,0.28386 0.05576,0.0344 0.126553,0.2298 0.157321,0.4341 0.03075,0.2043 0.215935,0.74858 0.41148,1.20951 0.195538,0.46093 0.35552,0.96277 0.35552,1.11518 0,0.15241 0.08369,0.40484 0.18597,0.56095 0.173699,0.26509 0.172136,0.29911 -0.02371,0.5155 -0.266229,0.29419 -0.107752,0.5924 0.358479,0.67459 0.197218,0.0348 0.4203,0.19813 0.566236,0.41469 0.846182,1.25565 2.34362,2.80236 2.531347,2.61462 0.04006,-0.0401 0.0026,-0.39199 -0.08277,-0.78201 -0.08561,-0.39003 -0.167703,-0.93992 -0.182435,-1.22199 -0.01473,-0.28206 -0.08171,-0.84619 -0.148843,-1.25363 -0.06714,-0.40743 -0.199764,-1.55268 -0.294716,-2.54502 -0.155899,-1.62921 -0.2068,-1.86646 -0.524698,-2.44571 -0.589857,-1.0748 -0.777674,-1.26854 -1.683259,-1.73633 -0.479909,-0.24791 -1.061723,-0.56621 -1.292913,-0.70734 -0.436555,-0.2665 -0.41986,-0.26763 -1.273911,0.0868 -0.187074,0.0777 -0.197373,0.0596 -0.08547,-0.14944 0.191215,-0.35729 0.160887,-0.46201 -0.243163,-0.83979 -0.33365,-0.31196 -2.395909,-1.75159 -3.313091,-2.31284 -0.199273,-0.12194 -0.587655,-0.39118 -0.863065,-0.59832 -0.417728,-0.31417 -0.59942,-0.37661 -1.0959341,-0.37661 h -0.595188 l -1.525292,1.53792 c -0.8389062,0.84586 -1.781713,1.82803 -2.0951204,2.18261 -0.3134075,0.35458 -0.7342304,0.74322 -0.9351634,0.86365 -0.2009395,0.12042 -0.3970978,0.31902 -0.4359159,0.44133 -0.061186,0.1927 -1.1883342,1.12867 -1.3592426,1.12867 -0.033985,0 -0.061832,-0.20817 -0.061832,-0.4626 0,-0.27937 0.045163,-0.43469 0.1139669,-0.39215 0.066491,0.0411 0.1139669,-0.0748 0.1139669,-0.27819 0,-0.19174 -0.051301,-0.34863 -0.1139669,-0.34863 -0.075317,0 -0.1139669,-4.44467 -0.1139669,-13.10611 v -13.10609 h 4.5190774 4.519078 l -0.07129,1.22514 c -0.131431,2.25871 -0.981561,4.61844 -2.4149831,6.70332 -0.3418103,0.49716 -0.7062602,1.06519 -0.809883,1.26229 -0.2573253,0.48946 -0.1399081,0.89641 0.3032184,1.05088 0.3719706,0.12967 1.5905167,1.11413 1.5905167,1.28497 0,0.0563 -0.128213,0.0701 -0.28492,0.0308 -0.2022771,-0.0508 -0.2849141,-0.0253 -0.2849141,0.088 0,0.0877 0.7820941,1.02227 1.7379841,2.07673 0.955891,1.05444 1.825254,2.05238 1.931914,2.21761 0.106659,0.16524 0.497328,0.58249 0.868155,0.92724 0.370827,0.34475 1.212971,1.24224 1.871426,1.99442 0.658461,0.75217 1.313815,1.47016 1.456346,1.59552 0.142532,0.12536 0.406628,0.42951 0.586879,0.67588 0.180258,0.24637 0.646431,0.78487 1.035956,1.19665 0.389519,0.41178 1.010791,1.10769 1.38061,1.54646 0.369812,0.43876 0.944247,1.07983 1.276515,1.42458 2.428486,2.5197 3.581556,3.97336 3.581556,4.51524 0,0.13389 -0.07693,0.30727 -0.170954,0.3853 -0.205495,0.17055 -0.217887,0.45608 -0.03702,0.85303 0.123917,0.27196 0.559322,0.63918 1.738824,1.46655 0.254961,0.17884 0.617421,0.46705 0.805464,0.64045 0.188043,0.17341 0.577969,0.45064 0.866495,0.61607 0.288532,0.16543 0.620612,0.40688 0.737958,0.53655 0.117346,0.12966 0.432589,0.33563 0.700536,0.45769 0.635867,0.28967 0.63495,0.50731 -0.0019,0.51746 -0.439179,0.007 -0.491714,-0.0208 -0.512409,-0.27086 -0.03502,-0.42317 -0.112888,-0.48622 -0.600486,-0.48622 -0.360095,0 -0.449135,0.0415 -0.449135,0.20964 0,0.1153 0.127238,0.26761 0.28275,0.33847 0.238303,0.10857 0.271895,0.18311 0.213687,0.47415 -0.06241,0.31211 -0.04116,0.34533 0.22104,0.34533 0.230395,0 0.305738,0.0712 0.366045,0.34576 0.08615,0.39225 0.531689,0.7405 0.810484,0.63352 0.287673,-0.11039 0.519503,0.13759 0.377205,0.40347 -0.06448,0.12054 -0.166005,0.18906 -0.225537,0.15226 -0.141091,-0.0872 -0.136568,-0.0123 0.02003,0.3313 0.07054,0.15484 0.255516,0.31346 0.411047,0.35249 0.235636,0.0591 0.274745,0.12577 0.234557,0.3996 -0.03747,0.25518 0.01073,0.36018 0.215761,0.46989 0.1452,0.0777 0.264,0.18693 0.264,0.24272 0,0.0558 0.06409,0.0652 0.142453,0.021 0.113967,-0.0644 0.113967,-0.0497 0,0.0731 -0.28211,0.30393 -0.161998,0.44979 0.370395,0.44979 0.493852,0 0.512848,-0.0127 0.512848,-0.34189 0,-0.39739 0.01105,-0.40099 0.481893,-0.15749 0.270266,0.13976 0.496546,0.16401 0.934562,0.10018 0.317872,-0.0463 0.860015,-0.11649 1.204765,-0.15592 0.529181,-0.0605 0.632294,-0.11018 0.662008,-0.31879 0.02862,-0.20101 -0.109541,-0.32671 -0.740775,-0.67396 -0.833667,-0.45859 -1.744691,-1.1392 -1.744691,-1.30342 0,-0.18764 0.675706,0.18185 1.679234,0.91825 0.549437,0.40319 1.166489,0.79216 1.37124,0.8644 0.204745,0.0722 0.594736,0.33641 0.866644,0.58704 0.271908,0.25064 0.604414,0.49063 0.738902,0.53332 0.214178,0.068 0.352761,0.29018 0.180981,0.29018 -0.09126,0 -1.112578,-0.57122 -1.241367,-0.6943 -0.192378,-0.18384 -0.821468,-0.10995 -1.129991,0.13274 -0.453651,0.35684 -0.353104,0.66346 0.188128,0.5737 0.04923,-0.008 0.279105,0.11397 0.510812,0.27142 0.231701,0.15745 0.4863,0.28627 0.565771,0.28627 0.07947,0 0.144496,0.0929 0.144496,0.20644 0,0.3251 0.415318,0.68775 0.882789,0.77083 0.2353,0.0418 0.556034,0.1929 0.712735,0.33574 0.310106,0.28265 0.820479,0.3433 1.221253,0.14511 0.188573,-0.0933 0.295504,-0.0892 0.42216,0.0159 0.528768,0.43884 1.03155,0.5784 1.461205,0.40562 0.256014,-0.10296 0.399598,0.23705 0.220924,0.52315 -0.101265,0.16215 -0.09101,0.24563 0.04717,0.38378 0.0971,0.0971 0.220723,0.17656 0.274699,0.17656 0.05401,0 0.13156,0.10527 0.172394,0.23393 0.0557,0.17554 0.110924,0.2035 0.221169,0.112 0.08081,-0.0671 0.232257,-0.0892 0.336558,-0.0492 0.10872,0.0417 0.282026,-0.0109 0.40615,-0.12317 0.2292,-0.20742 0.458801,-0.15172 0.458801,0.11131 0,0.22798 0.223107,0.33183 0.650986,0.30302 0.206089,-0.0139 0.37471,0.0269 0.37471,0.0908 0,0.0638 0.177666,0.19025 0.394823,0.28098 0.257771,0.1077 0.420306,0.26648 0.468222,0.45739 0.08151,0.32478 0.29111,0.37865 0.498924,0.12825 0.183927,-0.22162 0.49488,-0.0898 0.424357,0.17989 -0.04917,0.18799 0.01609,0.21222 0.571321,0.21222 0.530964,0 0.635925,0.0349 0.686418,0.22793 0.04626,0.17696 0.155454,0.22794 0.488225,0.22794 0.241961,0 0.490402,0.0744 0.570494,0.17094 0.199724,0.24067 0.603044,0.21246 0.769326,-0.0538 0.16196,-0.25934 0.505903,-0.18909 0.471575,0.0963 -0.01228,0.10198 0.01124,0.27516 0.05221,0.38485 0.04096,0.1097 0.09853,0.27637 0.127903,0.3704 0.03702,0.11858 0.209869,0.17094 0.564168,0.17094 0.306843,0 0.547144,0.0613 0.601895,0.15336 0.168208,0.28304 0.809876,0.31848 1.318363,0.0728 0.449258,-0.21706 0.956104,-0.21171 0.819904,0.009 -0.03554,0.0574 0.0052,0.0778 0.0898,0.0452 0.176853,-0.0679 1.135438,0.32948 1.3145,0.54487 0.07481,0.09 0.410246,0.14379 0.896533,0.14379 0.735199,0 0.785098,-0.0169 0.927442,-0.31341 0.180923,-0.37693 0.275281,-0.39253 0.424383,-0.0702 0.08671,0.18746 0.225349,0.24805 0.604744,0.26427 0.428363,0.0183 0.483831,-0.006 0.427374,-0.18624 -0.215044,-0.68708 -0.218391,-0.66315 0.09278,-0.66315 0.23937,0 0.298211,0.0543 0.298211,0.27542 0,0.15148 -0.06409,0.3033 -0.14246,0.33737 -0.07835,0.0341 -0.0058,0.0339 0.161075,-3.4e-4 0.214714,-0.0441 0.373114,0.007 0.541341,0.17547 0.130791,0.13076 0.237806,0.20585 0.237806,0.16684 0,-0.039 0.07693,-0.007 0.170947,0.0709 0.222003,0.18424 0.218146,0.3419 -0.0083,0.3419 -0.231682,0 -0.169164,0.33442 0.09344,0.49979 0.147306,0.0928 0.257997,0.0885 0.425824,-0.0163 0.245592,-0.15337 0.922189,-0.19558 0.900176,-0.0562 -0.0074,0.047 -0.0074,0.1788 0,0.29285 0.02119,0.32594 0.496256,0.19303 0.679324,-0.19008 0.112662,-0.23578 0.189368,-0.29036 0.280282,-0.19944 0.21903,0.21903 0.518159,0.13533 0.672759,-0.18824 0.08697,-0.18201 0.260621,-0.32917 0.41422,-0.35102 0.341978,-0.0486 0.7021,-0.41135 0.7021,-0.70717 0,-0.12757 0.08432,-0.36064 0.187391,-0.51794 0.144312,-0.22025 0.268083,-0.27828 0.538401,-0.25242 0.308226,0.0295 0.358313,-0.007 0.410932,-0.29758 0.05392,-0.29803 0.111121,-0.33592 0.571609,-0.37873 0.606372,-0.0563 0.648508,-0.0851 0.459311,-0.31305 -0.125076,-0.1507 -0.0838,-0.1737 0.311701,-0.1737 0.552732,0 0.741628,-0.19732 0.695987,-0.72704 -0.02087,-0.24189 0.03644,-0.47746 0.14686,-0.60402 0.09956,-0.11412 0.158742,-0.26875 0.131515,-0.34362 -0.09717,-0.26724 0.197173,-0.59506 0.602573,-0.67111 0.484898,-0.091 0.578867,-0.27921 0.425746,-0.85288 -0.06293,-0.23572 -0.07801,-0.49711 -0.03353,-0.58088 0.182985,-0.34467 0.199357,-1.24346 0.02578,-1.41701 -0.240371,-0.24037 -0.116538,-0.87382 0.247595,-1.26652 0.297289,-0.32061 0.38567,-0.7598 0.178655,-0.88774 -0.06267,-0.0388 -0.11396,-0.27972 -0.11396,-0.53551 0,-0.54475 0.220092,-0.7661 0.7671,-0.77148 0.293959,-0.003 0.382314,-0.0598 0.438099,-0.28206 0.09444,-0.37628 -0.02817,-0.538 -0.390249,-0.51466 -0.618882,0.0399 -0.681768,-0.0291 -0.782651,-0.85942 -0.0305,-0.25072 -0.144244,-0.60972 -0.252829,-0.79776 -0.108591,-0.18805 -0.178293,-0.42266 -0.154898,-0.52137 0.02339,-0.0987 -0.06325,-0.42636 -0.19263,-0.72812 -0.215684,-0.50317 -0.220562,-0.57095 -0.05886,-0.81773 0.09697,-0.148 0.226415,-0.26909 0.287647,-0.26909 0.06125,0 0.111343,-0.0826 0.111343,-0.18363 0,-0.14973 -0.07715,-0.16916 -0.417902,-0.10524 -0.639039,0.11989 -1.15933,-0.17172 -1.626569,-0.91164 -0.311616,-0.49348 -0.469147,-0.6352 -0.768523,-0.69136 -0.51867,-0.0973 -0.908703,0.0213 -1.207696,0.36721 -0.362348,0.41922 -0.780591,0.60605 -1.532648,0.68466 -1.153522,0.12056 -1.706079,-0.27576 -1.903536,-1.36533 -0.136775,-0.75472 -0.387135,-1.14173 -0.872369,-1.34851 -0.389435,-0.16595 -0.501948,-0.30433 -0.83397,-1.02569 -0.439527,-0.95493 -1.160622,-2.85115 -1.257855,-3.30771 -0.04814,-0.22591 -0.196113,-0.36618 -0.552881,-0.52399 -0.731652,-0.32365 -1.448373,-1.30585 -1.448373,-1.98487 0,-0.22177 0.0065,-0.22156 0.4054,0.0139 0.503544,0.2971 1.537452,0.33145 1.808805,0.0601 0.578686,-0.57868 -0.405355,-2.03849 -1.026581,-1.52291 -0.09209,0.0764 -0.19508,0.11131 -0.228865,0.0775 -0.131024,-0.13103 -0.381365,-1.29242 -0.320437,-1.48657 0.03534,-0.1127 0.01576,-0.26655 -0.04355,-0.3419 -0.05931,-0.0753 -0.141156,-0.51215 -0.181854,-0.9707 -0.08355,-0.94134 -0.354661,-1.5659 -0.929077,-2.14031 -0.350403,-0.35041 -0.37409,-0.4156 -0.264839,-0.72899 0.146769,-0.42103 0.579726,-0.56392 0.997745,-0.32929 0.198245,0.11127 0.346643,0.352 0.470683,0.76352 0.135553,0.44972 0.277167,0.66425 0.562566,0.85222 0.209778,0.13816 0.514373,0.34069 0.676882,0.45005 0.364656,0.24541 0.580379,0.25513 0.580379,0.0262 0,-0.15585 0.03482,-0.15585 0.336241,0 0.374975,0.19391 0.645933,0.22254 0.735445,0.0777 0.135695,-0.21956 -0.676785,-1.8597 -1.279054,-2.58202 -0.156791,-0.18805 -0.450034,-0.70089 -0.651658,-1.13967 -0.201625,-0.43877 -0.529931,-0.96731 -0.729585,-1.17454 -0.412456,-0.4281 -0.427872,-0.80207 -0.03896,-0.94494 0.214055,-0.0786 0.318414,-0.0105 0.67977,0.44347 0.234789,0.29499 0.950657,1.08024 1.590814,1.74501 1.216039,1.26276 1.184993,1.20471 1.354752,2.53303 0.044,0.34438 0.343477,1.09147 0.799442,1.99442 0.580056,1.14869 0.874061,1.58865 1.438533,2.15272 0.710091,0.70957 0.905072,0.82267 0.674032,0.39098 -0.150976,-0.28211 -0.162548,-1.61892 -0.01712,-1.97782 0.05834,-0.14398 0.136251,-0.40281 0.173125,-0.57519 0.173113,-0.80927 1.316327,0.0808 1.316327,1.02492 0,0.37163 0.148662,0.58772 0.593848,0.8632 0.339504,0.21008 0.607547,0.95598 0.498979,1.38855 -0.03512,0.13995 -0.249756,0.52469 -0.476959,0.85498 -0.403238,0.58621 -0.412877,0.62533 -0.403917,1.63919 0.005,0.57125 -0.08508,1.55149 -0.200295,2.17831 -0.115212,0.62681 -0.183778,1.20726 -0.152371,1.28989 0.03141,0.0826 0.06309,0.49291 0.07042,0.91173 l 0.01332,0.7615 0.961484,0.48435 c 0.553187,0.27868 1.121702,0.48436 1.338775,0.48436 0.26588,0 0.503589,0.11204 0.804992,0.37942 0.649803,0.57644 1.675249,1.21611 1.949554,1.21611 0.302256,0 0.314222,-0.293 0.07212,-1.76648 -0.249333,-1.51751 -0.219787,-3.58783 0.07125,-4.99228 0.198814,-0.95944 0.217273,-1.22588 0.106194,-1.53306 -0.10759,-0.29754 -0.10076,-0.49108 0.03418,-0.96902 0.09275,-0.32848 0.202342,-0.82802 0.243551,-1.11009 0.04122,-0.28206 0.143778,-0.74363 0.22794,-1.02569 0.24326,-0.81531 0.309279,-1.48854 0.16322,-1.66453 -0.18314,-0.22067 -0.0261,-1.63379 0.190776,-1.71703 0.0886,-0.034 0.161094,-0.18529 0.161094,-0.33622 0,-0.35798 0.496689,-0.66044 1.365135,-0.8313 0.658532,-0.12956 0.86026,-0.25409 0.933309,-0.57615 0.02584,-0.11407 -0.08799,-0.1861 -0.359727,-0.22754 -0.461734,-0.0704 -0.581594,-0.36105 -0.284352,-0.68949 0.159091,-0.1758 0.231643,-0.18926 0.415189,-0.077 0.183708,0.11236 0.242129,0.10132 0.335717,-0.0634 0.07454,-0.1312 0.251711,-0.19944 0.517798,-0.19944 0.222467,0 0.566093,-0.0734 0.763608,-0.16317 0.537905,-0.24438 2.02896,-0.86253 2.080551,-0.86253 0.163453,0 -0.0052,0.36671 -0.246987,0.53602 -0.160616,0.11262 -0.429862,0.31288 -0.598322,0.44503 -0.16846,0.13215 -0.498608,0.30913 -0.733662,0.39329 -0.278789,0.0998 -0.427374,0.22429 -0.427374,0.35805 0,0.26575 0.285806,0.26335 1.114768,-0.009 0.86028,-0.28302 2.461076,-0.19285 2.713872,0.15287 0.126153,0.17253 0.296725,0.21703 0.815162,0.21267 1.168744,-0.01 1.886938,-0.15703 2.202504,-0.45141 0.276056,-0.25754 1.086934,-0.72543 1.257202,-0.72543 0.04271,0 0.107823,0.0786 0.14467,0.1746 0.04542,0.11835 -0.03321,0.2127 -0.244022,0.29285 -0.386198,0.14683 -0.710317,0.43248 -0.710317,0.62602 0,0.0869 0.17366,0.16078 0.427374,0.18177 0.555678,0.046 0.549359,0.25589 -0.01938,0.64302 -0.933219,0.63524 -0.485628,0.78285 0.680261,0.22434 0.65222,-0.31244 0.748716,-0.50424 0.333172,-0.66222 -0.254386,-0.0967 -0.282685,-0.14533 -0.166257,-0.28562 0.07717,-0.093 0.278078,-0.16906 0.446473,-0.16906 0.406163,0 0.726452,-0.24707 0.674576,-0.52038 -0.03101,-0.16351 -0.15349,-0.22962 -0.474418,-0.25614 l -0.432575,-0.0357 0.291071,-0.22895 c 0.356781,-0.28065 0.378316,-0.55431 0.04361,-0.55431 -0.136096,0 -0.336971,-0.081 -0.446383,-0.18003 -0.159562,-0.1444 -0.247691,-0.15395 -0.445258,-0.0482 -0.13547,0.0725 -0.314616,0.10561 -0.398093,0.0736 -0.08348,-0.032 -0.337158,-0.001 -0.563735,0.0682 -0.920775,0.2826 -0.846808,-0.50526 0.09746,-1.03818 0.340486,-0.19216 0.78148,-0.55149 0.979984,-0.7985 0.19851,-0.24701 0.45871,-0.47468 0.578227,-0.50594 0.119517,-0.0313 0.217312,-0.11291 0.217312,-0.18146 0,-0.181 -0.349925,-0.1527 -0.56955,0.0461 -0.103739,0.0939 -0.434714,0.21666 -0.73551,0.27286 -0.740866,0.13841 -1.259186,0.64877 -1.259186,1.23986 0,0.30176 -0.04956,0.42496 -0.170947,0.42496 -0.09958,0 -0.156972,-0.0833 -0.13746,-0.19944 0.03586,-0.21361 -0.255232,-0.27989 -0.375388,-0.0855 -0.118974,0.1925 -0.369012,0.12652 -0.431904,-0.11397 -0.04342,-0.16597 -0.155447,-0.22793 -0.412171,-0.22793 -0.540243,0 -0.424028,-0.23189 0.391819,-0.78181 0.476524,-0.32119 0.73717,-0.5739 0.73717,-0.71473 0,-0.11981 0.117527,-0.27139 0.261163,-0.33684 0.216517,-0.0986 0.253106,-0.18795 0.214056,-0.52243 -0.03651,-0.31266 -0.133699,-0.45454 -0.431956,-0.63051 l -0.384854,-0.22707 0.195454,-0.33088 c 0.1075,-0.18199 0.291511,-0.36136 0.408902,-0.39863 0.117405,-0.0373 0.450434,-0.17257 0.740078,-0.30069 l 0.526617,-0.23295 -0.622273,-0.19627 -0.622267,-0.19627 0.561274,-0.25782 c 0.459706,-0.21116 0.680158,-0.24539 1.21821,-0.18915 0.515142,0.0538 0.76297,0.0205 1.148218,-0.1543 0.270202,-0.12263 0.600964,-0.22408 0.735025,-0.22546 0.344136,-0.003 0.484574,-0.72714 0.201766,-1.03964 -0.107758,-0.11907 -0.264897,-0.21649 -0.349208,-0.21649 -0.0843,0 -0.153283,-0.0455 -0.153283,-0.10103 0,-0.1972 0.69925,-0.20386 1.062053,-0.0102 0.199389,0.10647 0.708832,0.23042 1.132097,0.27544 0.683427,0.0727 0.779115,0.0585 0.854749,-0.1267 0.05912,-0.14477 0.204241,-0.20854 0.474553,-0.20854 0.420183,0 0.608911,-0.23699 0.287085,-0.36048 -0.108475,-0.0416 -0.339465,-0.022 -0.513307,0.0436 -0.282297,0.10655 -0.32308,0.0914 -0.381591,-0.14172 -0.03605,-0.14356 -0.09862,-0.34731 -0.139094,-0.45277 -0.06567,-0.17114 -0.0045,-0.18313 0.567948,-0.1116 0.533743,0.0667 0.653389,0.0492 0.712107,-0.10376 0.05272,-0.13742 0.224213,-0.1839 0.678465,-0.1839 0.334342,0 0.635447,-0.0446 0.669122,-0.0991 0.03366,-0.0545 0.523903,-0.13527 1.089383,-0.1795 0.972534,-0.0761 1.032021,-0.0959 1.099701,-0.36551 0.07308,-0.29118 0.143527,-0.29837 0.856713,-0.0874 0.103087,0.0305 0.265951,-0.0231 0.361917,-0.11905 0.09747,-0.0975 0.266268,-0.1448 0.382399,-0.10722 0.151939,0.0492 0.134087,0.007 -0.0663,-0.1567 -0.313556,-0.2561 -0.261196,-0.59503 0.09193,-0.59503 0.198788,0 0.345868,0.15855 0.752121,0.81077 0.06267,0.10063 0.211716,0.33119 0.331188,0.51235 0.119478,0.18117 0.339375,0.52354 0.488664,0.76083 0.276748,0.43988 0.490758,0.47245 0.490758,0.0747 0,-0.3452 0.199602,-0.26155 0.495913,0.20784 0.465754,0.7378 0.585826,0.78823 1.064967,0.44732 0.459525,-0.32696 0.614836,-0.31378 0.521215,0.0442 -0.06808,0.26035 -0.504869,0.47656 -0.762795,0.37759 -0.102834,-0.0395 -0.226965,0.0576 -0.332022,0.25962 -0.09228,0.17746 -0.302998,0.43953 -0.468247,0.58238 -0.358376,0.30981 -0.27959,0.58513 0.09015,0.31505 0.695056,-0.50772 1.119556,-0.51069 0.64402,-0.005 -0.193328,0.2058 -0.220768,0.28447 -0.09922,0.28447 0.09241,0 0.226112,-0.0581 0.297119,-0.1291 0.071,-0.071 0.215031,-0.0961 0.320056,-0.0558 0.176329,0.0677 0.176917,0.0947 0.0076,0.35302 -0.100812,0.15386 -0.183294,0.40674 -0.183294,0.56195 0,0.1552 -0.0513,0.31389 -0.113967,0.35263 -0.279183,0.17254 -0.05712,0.27699 0.655308,0.3082 l 0.76927,0.0337 0.11818,0.61654 c 0.10215,0.53287 0.16837,0.6403 0.487964,0.79166 0.25875,0.12253 0.3483,0.22828 0.29826,0.35218 -0.0393,0.0974 -0.0977,0.24116 -0.12976,0.31951 -0.0389,0.0951 0.0547,0.14246 0.28189,0.14246 0.38479,0 0.62695,0.22465 0.57443,0.53288 -0.0496,0.29063 0.43227,0.34106 0.72524,0.0759 0.17186,-0.15552 0.21403,-0.29976 0.16893,-0.57769 -0.0474,-0.29179 -0.008,-0.40698 0.18581,-0.54267 0.13525,-0.0947 0.3558,-0.17224 0.4901,-0.17224 0.1343,0 0.38298,-0.10917 0.5526,-0.2426 0.21599,-0.16989 0.34439,-0.20663 0.42844,-0.12257 0.0841,0.084 0.23594,0.0647 0.50684,-0.0644 l 0.38682,-0.18446 0.56771,0.55917 c 0.31223,0.30755 0.5677,0.63439 0.5677,0.72632 0,0.52118 0.56151,1.82005 0.99621,2.3044 0.26298,0.29303 0.42254,0.63773 0.55391,1.19665 0.10149,0.43178 0.32683,1.16969 0.50075,1.63981 0.54701,1.47858 1.02622,2.92021 1.02622,3.08724 0,0.0884 0.25643,0.67364 0.56984,1.30046 0.3134,0.62681 0.57095,1.29351 0.57233,1.48155 0.004,0.50166 0.34064,1.15092 1.0647,2.0514 1.08122,1.34466 1.06162,1.25073 0.77286,3.7039 -0.0627,0.53279 -0.15035,1.35335 -0.19475,1.82346 -0.0923,0.97709 -0.18092,1.13966 -0.62138,1.13966 -0.19184,0 -0.34964,0.0783 -0.4021,0.19945 -0.0475,0.10969 -0.12414,0.84049 -0.17033,1.62401 -0.0976,1.65504 -0.44376,2.9077 -0.99622,3.60457 -0.2884,0.3638 -0.93684,1.99523 -0.93684,2.35704 0,0.0543 -0.17744,0.50223 -0.39431,0.99548 -0.21687,0.49325 -0.42426,1.16826 -0.46088,1.50002 -0.0366,0.33177 -0.14593,0.88677 -0.24293,1.23335 l -0.17636,0.63015 0.41711,1.19331 c 1.08729,3.11054 1.22337,3.99417 0.81105,5.26624 -0.35392,1.09192 -0.46506,1.03451 -0.62269,-0.32164 -0.14863,-1.27859 -0.27696,-1.75688 -0.47141,-1.75688 -0.15317,0 -0.17002,0.0589 -0.3999,1.39842 -0.15683,0.91388 -0.25552,1.19464 -0.55052,1.56616 -0.19769,0.24896 -0.4754,0.60289 -0.61712,0.78649 -0.14778,0.19144 -0.48805,0.4139 -0.79776,0.52156 -0.29705,0.10325 -0.90456,0.36371 -1.35001,0.57878 -0.64394,0.3109 -0.94896,0.39104 -1.48827,0.39104 -0.96458,0 -1.06282,0.10603 -1.20162,1.29688 l -0.1165,0.99942 0.3168,0.33068 c 0.17425,0.18186 0.62477,0.54986 1.00117,0.81776 1.04589,0.7444 1.50611,1.18055 2.61847,2.4815 0.56275,0.65816 1.34073,1.48834 1.72884,1.84485 0.38811,0.35651 0.89765,0.92697 1.13231,1.26768 0.23466,0.34071 0.56256,0.69008 0.72868,0.77637 0.55613,0.28892 1.54625,0.89665 1.61067,0.98863 0.035,0.05 0.22752,0.20535 0.42773,0.34514 0.38091,0.26594 1.77217,1.88444 2.38849,2.7786 0.25423,0.36884 0.48738,0.56271 0.79777,0.66338 0.2412,0.0782 1.14615,0.47157 2.01099,0.87409 1.11234,0.51771 1.67783,0.72153 1.93265,0.69655 0.30415,-0.0298 0.75105,-0.44596 2.87223,-2.67447 2.33314,-2.45119 3.56146,-3.76594 4.90402,-5.24912 0.29595,-0.32694 0.62973,-0.62352 0.74171,-0.65907 0.11199,-0.0355 0.79442,-0.74245 1.51651,-1.57092 0.72209,-0.82845 1.4841,-1.66127 1.69336,-1.85069 0.20925,-0.18942 1.04715,-1.08092 1.86201,-1.9811 0.81486,-0.90018 2.35887,-2.54017 3.43115,-3.64441 1.07227,-1.10424 2.20054,-2.28575 2.50725,-2.62558 0.65764,-0.72861 2.26426,-2.43253 3.87466,-4.10929 0.6334,-0.6595 1.58064,-1.66066 2.10497,-2.22479 1.54517,-1.66248 2.97255,-3.03309 3.11078,-2.98708 0.26329,0.0876 0.18786,0.41986 -0.19124,0.84232 -0.21483,0.2394 -0.42539,0.54716 -0.46792,0.68392 -0.0425,0.13675 -0.30029,0.37932 -0.57281,0.53903 -0.27253,0.15971 -0.83803,0.7044 -1.25667,1.21042 -0.41864,0.50603 -1.46263,1.63376 -2.31996,2.50607 -0.85733,0.87231 -1.8152,1.87724 -2.12861,2.23319 -0.61206,0.69514 -1.09167,1.18907 -1.88961,1.94603 -0.27702,0.26281 -0.88832,0.9241 -1.35842,1.46954 -0.47012,0.54544 -1.08848,1.22791 -1.37415,1.51658 -0.28567,0.28868 -0.68582,0.76881 -0.88923,1.06695 -0.21186,0.31056 -0.56195,0.6401 -0.8197,0.77159 -0.24743,0.12623 -0.44988,0.27101 -0.44988,0.32174 0,0.0507 -0.27085,0.39585 -0.60188,0.76695 -0.33104,0.3711 -0.69272,0.81805 -0.80372,0.99323 -0.11102,0.17517 -0.32738,0.36622 -0.4808,0.42455 -0.15342,0.0583 -0.27896,0.18294 -0.27896,0.2769 0,0.094 -0.1484,0.24759 -0.32978,0.34138 -0.23205,0.12 -0.35997,0.2981 -0.43157,0.6009 -0.0825,0.34895 -0.22238,0.51015 -0.73945,0.85232 -0.35072,0.23208 -0.75911,0.58432 -0.90754,0.78274 -0.14842,0.19842 -0.41629,0.49589 -0.59524,0.66106 -0.79608,0.73473 -1.79938,1.83046 -2.31435,2.52754 -0.25585,0.34632 -0.66405,0.79831 -0.90713,1.00443 -0.88441,0.74993 -1.41067,1.29179 -1.41067,1.45249 0,0.0904 -0.12256,0.22013 -0.27235,0.28838 -0.14979,0.0683 -0.32658,0.2431 -0.39285,0.38857 -0.0663,0.14546 -0.27474,0.37851 -0.46325,0.51787 -0.1885,0.13938 -0.37517,0.40108 -0.41481,0.58157 -0.0397,0.18049 -0.20365,0.41438 -0.36447,0.51975 -0.32906,0.21561 -1.73942,1.61391 -1.73877,1.72389 0,0.0392 0.0997,0.23395 0.22094,0.43286 0.24635,0.40403 1.33041,0.96595 3.48254,1.8052 1.23149,0.48023 1.71066,0.71385 3.53295,1.72251 0.93035,0.51495 1.44341,0.83842 3.2136,2.02616 1.33458,0.89546 2.0152,1.3362 2.77161,1.79483 0.72428,0.43913 1.44808,0.9586 2.37099,1.70163 0.81353,0.65497 1.06196,0.78799 1.4716,0.78799 0.66083,0 0.77957,0.51945 0.31726,1.3879 -0.24662,0.46329 -0.29246,0.73319 -0.35786,2.10747 l -0.075,1.57613 0.57999,1.13967 c 0.39793,0.78193 0.61516,1.37218 0.69201,1.88043 0.0616,0.40743 0.18698,1.03215 0.27861,1.38827 0.0916,0.35612 0.20274,0.95871 0.24688,1.3391 l 0.0803,0.69162 h -2.06974 c -1.90295,0 -2.06812,-0.0161 -2.04946,-0.19944 0.0112,-0.10969 0.0144,-0.31664 0.007,-0.45987 -0.0112,-0.22169 -0.0461,-0.24276 -0.23509,-0.14164 -0.1221,0.0653 -0.31265,0.27228 -0.42346,0.45987 -0.16619,0.28133 -0.27557,0.34108 -0.62442,0.34108 -0.30533,0 -0.43318,-0.0532 -0.45978,-0.1913 -0.0345,-0.17909 -0.049,-0.17909 -0.22816,0 -0.23731,0.23732 -1.63039,0.27651 -1.73663,0.0489 -0.0532,-0.11396 -0.0798,-0.11396 -0.13295,0 -0.0516,0.11055 -1.10758,0.14246 -4.71478,0.14246 h -4.64829 l -0.0609,-0.54064 c -0.0335,-0.29736 -0.0146,-0.6272 0.042,-0.73299 0.0567,-0.10605 0.0624,-0.38758 0.0125,-0.62751 -0.0675,-0.32504 -0.1468,-0.43517 -0.31325,-0.43517 -0.17075,0 -0.25903,0.13317 -0.37779,0.56983 -0.26304,0.96732 -0.27975,1.25297 -0.0828,1.41638 0.0995,0.0825 0.18083,0.19508 0.18083,0.25009 0,0.055 -0.86599,0.10001 -1.92444,0.10001 h -1.92443 l -0.18347,-0.37039 c -0.24272,-0.49001 -0.42668,-0.71041 -0.66876,-0.80125 -0.26851,-0.10075 -0.25904,0.14953 0.0258,0.68092 0.25726,0.47999 0.2354,0.56227 -0.10147,0.38198 -0.15792,-0.0845 -0.23771,-0.0876 -0.23771,-0.009 0,0.081 -8.82101,0.11797 -28.148524,0.11797 H 58.442339 l 0.06364,-2.47876 c 0.109638,-4.2692 0.103668,-4.19024 0.31554,-4.17243 0.103596,0.009 0.188359,-0.0298 0.188359,-0.0855 0,-0.0557 -0.08248,-0.10131 -0.1833,-0.10131 -0.140503,0 -0.16594,-0.0692 -0.108928,-0.29635 0.07889,-0.31431 0.509637,-0.95728 0.641314,-0.95728 0.112972,0 0.220749,0.62268 0.220749,1.27537 0,0.57766 0.166747,1.05522 0.332642,0.95269 0.158238,-0.0978 0.243835,-0.93344 0.301635,-2.94474 l 0.0555,-1.93119 -0.442416,-0.81293 c -0.243324,-0.44712 -0.476007,-0.94114 -0.517067,-1.09785 -0.0826,-0.31522 -0.599161,-0.99258 -0.68868,-0.90306 -0.147189,0.14719 -0.296854,2.37944 -0.343264,5.11981 -0.130468,7.70366 -0.133983,7.80194 -0.290373,8.1201 -0.152488,0.31022 -0.165436,0.3134 -1.275423,0.3134 -1.219561,0 -1.202387,0.012 -0.991924,-0.69051 0.07119,-0.23762 0.09623,-0.51859 0.05563,-0.62438 -0.126224,-0.32892 -0.387264,0.0151 -0.528794,0.69683 l -0.128311,0.6181 h -4.372857 -4.372863 l 0.163491,-0.31341 c 0.08992,-0.17238 0.163801,-0.37752 0.164189,-0.45586 0.0013,-0.2203 0.39786,-0.1683 0.624198,0.0818 0.156423,0.17285 0.251931,0.19806 0.416546,0.10995 0.225814,-0.12084 0.29279,-0.61371 0.09962,-0.73309 -0.06267,-0.0388 -0.113961,-0.1926 -0.113961,-0.34191 0,-0.1493 -0.05427,-0.30501 -0.120641,-0.34602 -0.07075,-0.0437 -0.08934,-0.21705 -0.04497,-0.41911 0.0575,-0.26193 0.03864,-0.33234 -0.07881,-0.29363 -0.08496,0.028 -0.170863,0.1623 -0.190892,0.29842 -0.02003,0.13613 -0.107978,0.2475 -0.195435,0.2475 -0.197108,0 -0.432621,-0.4167 -0.329664,-0.58329 0.04174,-0.0675 0.09139,-0.33567 0.110394,-0.59596 0.019,-0.26029 0.09216,-0.7426 0.162568,-1.0718 0.12579,-0.58818 0.121507,-0.60662 -0.247589,-1.06602 l -0.375589,-0.46748 -0.009,-3.32168 c -0.0052,-1.82692 -0.04691,-3.45445 -0.09322,-3.61672 -0.0597,-0.20932 -0.0104,-0.43657 0.16972,-0.78217 0.218979,-0.42013 0.235726,-0.53742 0.121714,-0.85271 -0.07271,-0.20108 -0.1322,-0.55588 -0.1322,-0.78845 0,-0.76533 -0.491036,-0.6705 -0.924154,0.17848 -0.358222,0.70217 -0.450492,1.38573 -0.476227,3.52794 -0.02281,1.89553 -0.03883,2.02932 -0.273032,2.27932 -0.51905,0.55399 -0.681811,1.61392 -0.264587,1.72303 0.125047,0.0327 0.260239,0.14514 0.30042,0.24986 0.08267,0.21543 -0.310028,1.04161 -0.476356,1.00219 -0.05964,-0.0142 -0.134048,-0.27056 -0.16539,-0.56984 l -0.05699,-0.54413 -0.165132,0.49779 c -0.144205,0.4347 -0.144205,0.51415 0,0.62682 0.145297,0.11352 0.180064,0.34883 0.124285,0.84131 -0.03399,0.30013 -0.244073,0.12539 -0.244073,-0.20302 0,-0.4336 -0.228141,-0.52876 -0.646095,-0.26949 -0.456617,0.28326 -0.607529,0.49751 -0.607529,0.8625 0,0.24153 0.06647,0.33463 0.276528,0.38735 0.152087,0.0382 0.365173,0.16736 0.473526,0.28709 0.108352,0.11973 0.295697,0.21768 0.416326,0.21768 0.17892,0 0.207439,-0.0577 0.15482,-0.3134 -0.05608,-0.2725 -0.01305,-0.33736 0.329773,-0.49692 0.216853,-0.10094 0.421301,-0.1565 0.45433,-0.12347 0.123142,0.12314 0.05343,0.45577 -0.150737,0.71898 -0.115937,0.14949 -0.209959,0.43847 -0.208938,0.64219 0.0013,0.20371 -0.03243,0.40466 -0.0743,0.44654 -0.117856,0.11785 -0.662616,-0.21665 -0.782953,-0.48077 -0.119349,-0.26194 -1.063429,-0.82592 -1.182771,-0.70657 -0.146945,0.14694 0.0678,0.43958 0.435244,0.59313 0.551608,0.23051 0.998811,0.61925 0.998811,0.86823 0,0.24498 -0.225537,0.29044 -0.429416,0.0866 -0.142066,-0.14206 -0.900706,-0.43216 -1.137621,-0.43501 -0.266177,-0.003 -0.143682,0.22924 0.455861,0.86504 0.725017,0.76886 1.194718,1.05462 1.296693,0.78887 0.03709,-0.0967 0.03386,-0.3549 -0.0072,-0.57381 -0.05692,-0.30333 -0.03605,-0.39802 0.08762,-0.39802 0.182293,0 0.371616,0.41417 0.483618,1.05799 0.07836,0.45042 0.805212,1.44192 1.160087,1.58246 0.132872,0.0526 0.06466,0.0814 -0.205837,0.0867 -0.22252,0.005 -0.472531,-0.0561 -0.555588,-0.13444 -0.120803,-0.11397 -0.16145,-0.11397 -0.20324,0 -0.07477,0.20391 -0.717037,0.18441 -0.717037,-0.0218 0,-0.2901 -0.22513,-0.31581 -0.637075,-0.0728 -0.315223,0.18599 -0.594962,0.23698 -1.300131,0.23698 -0.494175,0 -0.930188,-0.0513 -0.968929,-0.11396 -0.03877,-0.0627 -0.12172,-0.11397 -0.184399,-0.11397 -0.06267,0 -0.08227,0.0513 -0.04355,0.11397 0.04626,0.0749 -0.918753,0.11218 -2.813935,0.10877 l -2.884373,-0.005 -1.025696,-0.7347 z m 8.598046,0.0733 c 0.1523,-0.28458 -0.173202,-0.61399 -0.342437,-0.34654 -0.159214,0.25161 -0.126095,0.5625 0.05989,0.5625 0.09182,0 0.218953,-0.0972 0.282523,-0.21596 z m 89.541728,-0.26849 c 0.13353,-0.26634 0.40832,-0.80102 0.61061,-1.18816 0.20231,-0.38715 0.34451,-0.77178 0.31602,-0.85475 -0.0672,-0.19559 -0.73749,0.85216 -0.90689,1.41754 -0.0707,0.2358 -0.19711,0.48568 -0.28098,0.55529 -0.16127,0.13385 -0.21215,0.55459 -0.067,0.55444 0.047,-5e-5 0.19473,-0.21801 0.32826,-0.48436 z M 42.183795,291.0309 c 0.07004,-0.18252 -0.02597,-0.21337 -0.316806,-0.10178 -0.249378,0.0957 -0.226357,0.27272 0.03547,0.27272 0.118657,0 0.245256,-0.0769 0.281341,-0.17094 z m 91.815555,-0.014 c 0,-0.15143 -0.0309,-0.15923 -0.17095,-0.043 -0.094,0.078 -0.17095,0.16124 -0.17095,0.1849 0,0.0236 0.0769,0.043 0.17095,0.043 0.094,0 0.17095,-0.0832 0.17095,-0.1849 z m -3.91096,-0.4063 c -0.0364,-0.0909 -0.0634,-0.0639 -0.0689,0.0689 -0.005,0.12014 0.022,0.18745 0.0599,0.14958 0.0379,-0.0379 0.0419,-0.13617 0.009,-0.21844 z m 1.36123,-0.13161 c 0.0441,-0.13524 0.0721,-0.65617 0.0623,-1.15762 -0.01,-0.50146 0.0381,-1.08185 0.1065,-1.28976 0.11765,-0.35771 0.072,-0.59907 -0.0838,-0.44325 -0.16401,0.164 -0.63334,2.69917 -0.55745,3.0111 0.0748,0.30731 0.35642,0.23548 0.47247,-0.12047 z m -75.763783,-0.0464 c 0.222584,-0.56764 0.480543,-2.43575 0.41095,-2.97601 -0.0564,-0.43776 0.0039,-0.71307 0.349609,-1.60406 0.339607,-0.87454 0.403559,-1.16213 0.342121,-1.53854 -0.138028,-0.84556 -0.08356,-1.93135 0.15471,-3.08417 0.269046,-1.30173 0.367325,-3.02987 0.176129,-3.09709 -0.06806,-0.0239 -0.292183,0.30414 -0.498039,0.72903 -0.205856,0.4249 -0.475109,0.96686 -0.598334,1.20437 -0.172918,0.33328 -0.232838,0.71619 -0.262559,1.67785 -0.02119,0.68531 -0.07218,1.30048 -0.113327,1.36706 -0.09647,0.1561 -0.286653,3.15112 -0.359979,5.66905 -0.04878,1.67447 -0.03256,1.96591 0.109289,1.96591 0.09159,0 0.221841,-0.14103 0.28943,-0.3134 z m 58.834323,-0.0964 c 0.11142,-0.13424 0.26357,-0.16382 0.58133,-0.11301 0.41977,0.0671 0.42777,0.0619 0.32346,-0.21249 -0.0588,-0.15473 -0.20727,-0.38164 -0.32987,-0.50425 -0.30703,-0.30702 -1.0957,-0.20869 -1.34208,0.16733 -0.21633,0.33015 -0.10874,0.70036 0.22218,0.76454 0.13807,0.0267 0.28323,0.0557 0.32256,0.0642 0.0393,0.009 0.13943,-0.0663 0.22242,-0.16632 z M 61.154803,289.1125 c 0.02132,-0.10993 -0.03586,-0.19 -0.135728,-0.19 -0.211717,0 -0.339504,0.18578 -0.239299,0.34792 0.103086,0.16679 0.330639,0.071 0.375027,-0.15792 z m -12.421059,-0.57275 c 0.120848,-0.27319 0.399909,-0.63415 0.620128,-0.80212 0.220219,-0.16797 0.465275,-0.47012 0.544565,-0.67144 0.07929,-0.20131 0.260937,-0.49424 0.403656,-0.65094 0.446861,-0.49065 0.555078,-0.93375 0.848889,-3.47597 0.0652,-0.56414 0.173661,-1.23084 0.241037,-1.48157 0.06737,-0.25072 0.141271,-0.7114 0.164221,-1.02373 0.02294,-0.31233 0.11752,-0.79954 0.210159,-1.08268 0.09263,-0.28314 0.250929,-0.92509 0.351761,-1.42654 0.217919,-1.08373 0.713464,-3.24472 0.882156,-3.84692 0.146712,-0.52373 0.06358,-0.62892 -0.305815,-0.38689 -0.376397,0.24663 -1.003212,1.39055 -1.41442,2.5813 -0.490009,1.41893 -0.755468,1.95656 -1.139928,2.30865 -0.255607,0.23408 -0.430993,0.59746 -0.687614,1.42458 -0.804217,2.59213 -0.804197,2.59201 -0.6604,5.44105 0.0628,1.24455 -0.08693,2.15538 -0.407009,2.47572 -0.231293,0.23147 -0.368203,0.70063 -0.27519,0.94301 0.122612,0.31951 0.403268,0.17306 0.623804,-0.32551 z m 14.130026,-0.46827 c 0.01996,-0.23899 0.103539,-0.54274 0.185692,-0.67499 0.08726,-0.14048 0.126211,-0.41817 0.09367,-0.66784 -0.05324,-0.40834 -0.175593,-0.54007 -0.30588,-0.32926 -0.104347,0.16885 -0.394294,1.99833 -0.332532,2.09825 0.131056,0.21206 0.324946,-0.018 0.359054,-0.42616 z m 66.0071,0.45886 c 0,-0.0276 -0.0513,-0.082 -0.11396,-0.12069 -0.0627,-0.0387 -0.11397,-0.0161 -0.11397,0.0503 0,0.0664 0.0513,0.12069 0.11397,0.12069 0.0627,0 0.11396,-0.0226 0.11396,-0.0503 z m -67.548971,-0.40571 c -0.03276,-0.1253 -0.104876,-0.22783 -0.160248,-0.22783 -0.117494,0 -0.128633,0.13644 -0.03172,0.38891 0.09743,0.25392 0.26398,0.11418 0.191997,-0.16108 z m 67.443781,-0.25631 c 0.005,-0.14104 0.0329,-0.47312 0.0625,-0.73796 0.0298,-0.2671 -0.008,-0.59652 -0.0845,-0.73978 -0.0815,-0.15232 -0.14221,-0.75956 -0.14798,-1.48035 -0.008,-0.9758 -0.0478,-1.26009 -0.19826,-1.41057 -0.34835,-0.34828 -0.41871,-0.0926 -0.38695,1.4059 0.0229,1.08268 0.0782,1.53979 0.21694,1.7946 0.10239,0.18804 0.18647,0.50438 0.18685,0.70297 0.001,0.42701 0.0991,0.72161 0.24083,0.72161 0.0559,0 0.10573,-0.11539 0.11055,-0.25642 z m -20.58329,-0.30756 c 0.0882,-0.14274 -0.153,-1.13358 -0.35516,-1.45892 -0.0876,-0.14103 -0.22834,-0.25643 -0.31269,-0.25643 -0.12723,0 -0.12894,0.10194 -0.01,0.59833 0.25996,1.08509 0.47678,1.44236 0.67785,1.11702 z m 4.59834,-0.96124 c -0.0198,-0.0114 -0.13406,-0.0961 -0.25382,-0.18803 -0.20585,-0.15806 -0.20928,-0.15358 -0.0627,0.0819 0.0853,0.13698 0.19951,0.22159 0.25383,0.18803 0.0543,-0.0336 0.0825,-0.0704 0.0627,-0.0819 z m -2.94222,-0.12729 c 0,-0.094 -0.0769,-0.17095 -0.17094,-0.17095 -0.17797,0 -0.22611,0.13479 -0.095,0.26592 0.13114,0.13113 0.26592,0.083 0.26592,-0.095 z m 4.59453,-0.003 c 0.11374,-0.0788 0.30235,-0.1182 0.41913,-0.0877 0.12164,0.0318 0.42272,-0.0871 0.70492,-0.27833 0.27092,-0.18361 0.58233,-0.36651 0.69203,-0.40644 0.3317,-0.12073 0.23006,-0.39092 -0.17096,-0.45445 -0.24445,-0.0387 -0.49776,0.0145 -0.74505,0.15669 -0.50225,0.2887 -1.69553,0.67388 -2.0877,0.67388 -0.35093,0 -0.47688,0.12301 -0.38121,0.37232 0.081,0.21119 1.27213,0.22942 1.56883,0.024 z m -7.10178,-1.01093 c 0,-0.25119 -0.29598,-0.49499 -0.43371,-0.35726 -0.089,0.089 0.18345,0.62998 0.3173,0.62998 0.064,0 0.11641,-0.12273 0.11641,-0.27272 z m -1.48157,-0.37588 c 0,-0.082 -0.0458,-0.14917 -0.10177,-0.14917 -0.12027,0 -0.24161,0.28251 -0.2365,0.55067 0.003,0.164 0.0266,0.15973 0.17095,-0.0311 0.092,-0.12168 0.16732,-0.28835 0.16732,-0.37039 z m -1.01926,-0.17765 c 0.26405,-0.31653 0.28805,-0.86486 0.042,-0.95929 -0.14403,-0.0552 -0.16478,-0.176 -0.10496,-0.61094 0.0472,-0.34322 0.0295,-0.56994 -0.0484,-0.61806 -0.20523,-0.12684 -0.13779,-0.50246 0.11445,-0.63745 0.18887,-0.10109 0.2812,-0.0874 0.45161,0.0668 0.46655,0.42222 0.75886,-0.19963 0.40899,-0.87009 -0.0848,-0.16253 -0.18968,-0.49588 -0.23304,-0.74078 -0.11536,-0.65155 -0.44419,-1.41305 -0.6104,-1.41355 -0.13123,-3.4e-4 -0.36492,0.41691 -0.53037,0.94702 -0.0355,0.11367 -0.11622,0.1747 -0.17945,0.13562 -0.18031,-0.11144 -0.76555,0.60785 -0.83306,1.02388 -0.0335,0.20645 -0.009,0.5733 0.0553,0.81522 0.0639,0.24191 0.15371,0.8083 0.19953,1.25865 0.0655,0.64411 0.15297,0.91156 0.40988,1.25362 0.29675,0.39509 0.50144,0.59935 0.6053,0.60403 0.0213,6.5e-4 0.13498,-0.11364 0.25263,-0.25467 z m -0.3792,-3.68729 c -0.0457,-0.0457 -0.0831,-0.16173 -0.0831,-0.25785 0,-0.12828 0.0337,-0.14103 0.12679,-0.0479 0.0697,0.0697 0.10712,0.18576 0.0831,0.25785 -0.024,0.0721 -0.0811,0.0937 -0.12679,0.0479 z m 8.17946,3.48785 c -0.0551,-0.0892 -0.1207,-0.0958 -0.19667,-0.0198 -0.0627,0.0627 -0.0768,0.17418 -0.0313,0.24779 0.0551,0.0892 0.1207,0.0958 0.19667,0.0198 0.0627,-0.0627 0.0768,-0.17418 0.0313,-0.24778 z m 2.35109,0.22001 c 0.16532,-0.0885 0.272,-0.0851 0.3893,0.0122 0.12782,0.10608 0.33302,0.0486 0.98218,-0.27525 0.85002,-0.42402 1.06565,-0.45058 0.74041,-0.0912 -0.10409,0.11501 -0.18925,0.26918 -0.18925,0.3426 0,0.24923 0.32538,0.13489 0.56208,-0.19752 0.24703,-0.34693 0.31654,-0.80867 0.12173,-0.80867 -0.0627,0 -0.11397,-0.0513 -0.11397,-0.11396 0,-0.0627 0.12431,-0.11396 0.27624,-0.11396 0.17686,0 0.37163,-0.12813 0.54134,-0.35612 0.14581,-0.19587 0.42572,-0.52006 0.62202,-0.72044 0.22119,-0.22576 0.38551,-0.5346 0.43204,-0.81204 0.076,-0.45337 0.0227,-0.57095 -0.77175,-1.70134 -0.76237,-1.08474 -1.35291,-2.12659 -1.61912,-2.85649 -0.52021,-1.42633 -0.87787,-2.03875 -1.21405,-2.07885 -0.20352,-0.0243 -0.3609,0.0532 -0.52073,0.25643 -0.13526,0.17195 -0.34441,0.29121 -0.51071,0.29121 -0.15489,0 -0.41203,0.10257 -0.5714,0.22793 -0.15938,0.12536 -0.41748,0.22793 -0.57357,0.22793 -0.15609,0 -0.50699,0.1276 -0.77979,0.28355 -0.27279,0.15594 -0.61138,0.28416 -0.75241,0.28491 -0.31674,0.002 -0.32524,0.16285 -0.0285,0.54011 0.12536,0.15937 0.22793,0.35798 0.22793,0.44134 0,0.0834 0.10257,0.20646 0.22794,0.27355 0.18399,0.0985 0.22792,0.23863 0.22792,0.72713 0,0.46041 -0.0545,0.65448 -0.22792,0.81142 -0.24591,0.22253 -0.30506,0.67966 -0.10404,0.8039 0.0892,0.0551 0.0892,0.11125 0,0.20046 -0.20608,0.20608 -0.1415,0.42012 0.218,0.72262 0.18805,0.15823 0.3419,0.37672 0.3419,0.48555 0,0.10882 0.0902,0.2929 0.20052,0.40906 0.13963,0.14707 0.1879,0.34345 0.15897,0.64675 -0.0464,0.48684 -0.17371,0.55478 -0.36604,0.19539 -0.20267,-0.37869 -0.361,-0.0955 -0.20199,0.36133 0.31428,0.90283 0.88479,1.53455 0.72377,0.80142 -0.0858,-0.39077 0.0507,-0.50996 0.41645,-0.36347 0.14573,0.0584 0.35651,0.13503 0.46839,0.17035 0.18887,0.0596 0.1907,0.0888 0.0256,0.40815 -0.0978,0.18918 -0.22783,0.34395 -0.2889,0.34395 -0.22258,0 -0.10389,0.21346 0.14539,0.26147 0.45516,0.0877 0.5524,0.0825 0.78404,-0.0415 z m -0.43132,-1.30761 c -0.0371,-0.0967 -0.0389,-0.20443 -0.004,-0.23935 0.0998,-0.0998 0.30657,0.0695 0.30657,0.25099 0,0.21869 -0.21739,0.21032 -0.30256,-0.0116 z m -0.99023,-2.46887 c -0.0843,-0.32253 -0.0486,-0.35072 0.20737,-0.16355 0.11469,0.0839 0.17202,0.21155 0.12741,0.28374 -0.1263,0.20435 -0.26271,0.15537 -0.33478,-0.12019 z m -52.499255,3.4197 c 0,-0.23489 -0.03922,-0.32545 -0.110232,-0.25445 -0.06061,0.0606 -0.08029,0.22473 -0.04368,0.36469 0.09387,0.35895 0.153922,0.31594 0.153922,-0.11024 z m 63.031225,-0.68729 c -0.067,-0.19229 -0.12187,-0.52146 -0.12187,-0.7315 0,-0.21003 -0.0458,-0.38188 -0.10177,-0.38188 -0.21432,0 -0.21566,0.34373 -0.004,1.02381 0.12085,0.38829 0.22792,0.81682 0.23796,0.95227 0.01,0.13545 0.0392,0.0754 0.0649,-0.1334 0.0256,-0.20882 -0.008,-0.53701 -0.0752,-0.7293 z m -63.076336,-0.28474 c -0.115847,-0.11585 -0.211439,0.0585 -0.116384,0.21236 0.0718,0.11618 0.09865,0.11627 0.137247,4.5e-4 0.02643,-0.0792 0.01699,-0.17495 -0.02087,-0.21282 z m 47.341096,-0.48674 c 0,-0.35869 -0.18805,-0.4645 -0.30125,-0.1695 -0.0565,0.14725 0.12737,0.51141 0.25821,0.51141 0.0237,0 0.043,-0.15386 0.043,-0.34191 z m -2.27933,-0.16422 c 0,-0.0276 -0.0513,-0.082 -0.11397,-0.12069 -0.0627,-0.0388 -0.11397,-0.0161 -0.11397,0.0503 0,0.0664 0.0513,0.12069 0.11397,0.12069 0.0627,0 0.11397,-0.0226 0.11397,-0.0503 z m 20.62789,-0.4056 c 0,-0.1813 -0.32175,-0.48177 -0.43858,-0.40957 -0.16655,0.10293 -0.16742,0.35697 -0.003,0.66553 0.1249,0.23336 0.13391,0.23424 0.28492,0.0277 0.0858,-0.1173 0.15594,-0.24495 0.15594,-0.28367 z m -3.08552,-1.0218 c -0.15935,-0.71836 -0.26807,-0.84538 -0.39127,-0.45721 -0.097,0.30561 0.0333,0.86842 0.25163,1.08672 0.27127,0.27128 0.30538,0.11753 0.13964,-0.62951 z m -2.58289,-0.25565 c -0.005,-0.20629 -0.0461,-0.54504 -0.0907,-0.75277 -0.0567,-0.26374 -0.0192,-0.51515 0.12425,-0.83323 0.19679,-0.43639 0.19695,-0.46987 0.004,-0.79714 -0.111,-0.1879 -0.20521,-0.56731 -0.20938,-0.84315 -0.007,-0.43609 -0.061,-0.54329 -0.41698,-0.82162 -0.22517,-0.17604 -0.70867,-0.44128 -1.07447,-0.5894 l -0.66509,-0.26932 -0.30363,0.23071 c -0.406,0.30851 -0.37408,0.54885 0.26264,1.97739 0.96946,2.17511 1.09432,2.40453 1.5759,2.89589 0.40811,0.41641 0.50308,0.46576 0.64127,0.33325 0.0892,-0.0856 0.15789,-0.32433 0.15261,-0.53061 z m 8.63153,-0.30413 c 0,-0.14365 -0.33455,-0.40119 -0.41572,-0.32002 -0.11672,0.1167 0.0574,0.42003 0.24119,0.42003 0.096,0 0.17453,-0.045 0.17453,-0.10001 z m -21.85975,-1.05253 c 0.004,-0.2123 0.0797,-0.4691 0.16806,-0.57067 0.12961,-0.14897 0.13426,-0.24258 0.0241,-0.48435 -0.0751,-0.16483 -0.17509,-0.29969 -0.22221,-0.29969 -0.12558,0 -0.28761,1.3167 -0.2307,1.87474 0.028,0.27463 0.25415,-0.17636 0.26075,-0.52003 z m -1.98919,-1.21906 c -0.16047,-0.68893 -0.30231,-0.79126 -0.45631,-0.32924 -0.0889,0.26672 -0.053,0.39641 0.21843,0.78818 0.37307,0.53851 0.4401,0.40919 0.23788,-0.45894 z M 55.540366,278.61 c 0.13733,-0.28939 0.36277,-0.48413 0.831605,-0.71834 0.633509,-0.31647 0.642651,-0.32806 0.606437,-0.76942 -0.02022,-0.24646 -0.08788,-0.50971 -0.150369,-0.58499 -0.07628,-0.0919 -0.06935,-0.21955 0.02106,-0.38853 0.146027,-0.27285 0.083,-1.08821 -0.09812,-1.26933 -0.142848,-0.14284 -1.257228,0.35633 -1.327467,0.59463 -0.02772,0.094 -0.105341,0.87896 -0.172491,1.74425 -0.143953,1.855 -0.07893,2.16777 0.289327,1.39173 z m 52.628304,-0.78917 c 0.15055,-0.22975 0.15465,-0.29537 0.0252,-0.40282 -0.19317,-0.16031 -0.5207,0.12746 -0.5207,0.45749 0,0.30565 0.27964,0.2748 0.49552,-0.0547 z m -26.964171,-4.57865 c 0.326459,-0.0659 0.32589,-0.29586 -0.0019,-0.67667 -0.169229,-0.19674 -0.386114,-0.30683 -0.629949,-0.31975 -0.320075,-0.017 -0.40706,0.0412 -0.62456,0.41727 -0.243162,0.4205 -0.244823,0.44275 -0.04406,0.58956 0.19336,0.14139 0.562992,0.13843 1.300214,-0.0104 z M 7.9789119,264.47806 c 0.3591519,-0.0212 0.9086988,-0.12341 1.221215,-0.22721 0.380551,-0.12639 0.630937,-0.15362 0.758142,-0.0824 0.2031301,0.11367 1.5354821,-0.3262 1.8782741,-0.62011 0.27333,-0.23436 0.738153,-0.18867 0.923702,0.0908 0.151499,0.22817 0.181931,0.23303 0.441278,0.0705 0.153205,-0.096 0.418659,-0.20701 0.58989,-0.24671 0.336564,-0.078 0.7176,-0.65931 0.61222,-0.93392 -0.08824,-0.22996 -0.69162,-0.19895 -1.185892,0.0609 -0.853431,0.44872 -1.401479,0.69012 -1.566773,0.69012 -0.09327,0 -0.533963,0.12732 -0.979331,0.28291 -0.445362,0.15561 -0.8503751,0.25781 -0.9000221,0.22712 -0.04962,-0.0307 -0.226202,-0.004 -0.392329,0.0591 -0.4513904,0.17162 -1.8881595,0.45642 -2.3030769,0.45653 -0.3806931,9e-5 -0.5952008,0.16524 -0.3493375,0.26894 0.078741,0.0332 0.2457341,0.0337 0.3710984,10e-4 0.1253643,-0.0326 0.5217901,-0.0765 0.880942,-0.0977 z m 7.6577531,-2.32849 c 0.175334,-0.18301 0.300317,-0.38386 0.277749,-0.44634 -0.05705,-0.15794 -0.912841,0.15045 -1.090075,0.39283 -0.353059,0.48284 0.356238,0.52956 0.812326,0.0535 z m 1.713742,-0.37042 c 0.401976,-0.0448 1.102803,-0.92235 0.899214,-1.12594 -0.181627,-0.18163 -1.470257,0.83432 -1.626408,1.28226 l -0.125991,0.36142 0.257907,-0.24006 c 0.141846,-0.13204 0.409723,-0.25699 0.595278,-0.27768 z m 28.602218,-3.34264 c 0.413535,-0.21938 0.845167,-0.39888 0.95918,-0.39888 0.367305,0 0.359391,-0.13456 -0.03502,-0.59532 -0.35766,-0.41785 -2.391155,-1.90817 -2.607213,-1.91078 -0.05246,-6.5e-4 -0.308859,-0.149 -0.569828,-0.32968 -0.582576,-0.40336 -0.964116,-0.64556 -5.375048,-3.41221 -0.313407,-0.19658 -0.860234,-0.51079 -1.21518,-0.69825 -0.51151,-0.27014 -0.672759,-0.42389 -0.777525,-0.74134 -0.127581,-0.38657 -0.65328,-0.79592 -2.357686,-1.83591 -0.360011,-0.21967 -1.984358,-1.27912 -2.959238,-1.93012 -0.950056,-0.63441 -3.101537,-1.97352 -4.071357,-2.53407 -0.133958,-0.0774 -0.412857,-0.14153 -0.619772,-0.14246 -0.322906,-0.001 -0.399825,0.0549 -0.542938,0.39737 -0.13428,0.32139 -0.141723,0.49838 -0.03825,0.9094 0.165087,0.65562 0.07559,0.98797 -0.411132,1.52671 -0.412417,0.45649 -0.84706,1.29471 -0.851337,1.64181 -0.0058,0.4752 -0.73078,1.58236 -1.868194,2.85322 -0.415545,0.46429 -0.755533,0.89828 -0.755533,0.96442 0,0.18648 1.833951,1.11733 2.520266,1.2792 0.581219,0.13708 2.400955,0.89408 2.893134,1.20353 0.125358,0.0788 0.817708,0.30523 1.538544,0.50315 0.720837,0.19791 1.892921,0.58989 2.604635,0.87107 0.711713,0.28116 1.63484,0.59135 2.051392,0.68929 0.416552,0.0979 1.02273,0.27792 1.34707,0.39995 l 0.589696,0.22187 0.443772,-0.29368 c 0.325425,-0.21535 0.700039,-0.32506 1.40471,-0.41138 l 0.960936,-0.11772 2.678207,0.90236 c 1.473009,0.49629 2.960272,1.0098 3.305022,1.14112 0.344743,0.13132 0.712301,0.24044 0.81679,0.24249 0.104482,0.002 0.528322,-0.17577 0.941857,-0.39516 z M 9.7453119,256.94308 c -0.03786,-0.0379 -0.136167,-0.0419 -0.218436,-0.009 -0.09091,0.0364 -0.0639,0.0634 0.06886,0.0688 0.120137,0.005 0.187449,-0.022 0.14958,-0.0598 z m -6.1408915,-3.16519 c 0.1663728,-0.0863 0.5582565,-0.2176 0.8708563,-0.29171 0.3125998,-0.0741 0.6459462,-0.20231 0.7407819,-0.28489 0.094829,-0.0826 0.3775594,-0.2143 0.6282815,-0.2927 0.7921668,-0.24773 0.9687157,-0.33292 0.9687157,-0.46743 0,-0.17584 -0.7934202,-0.0464 -1.4102786,0.23009 -0.2585917,0.11591 -0.5983733,0.24987 -0.7550802,0.2977 -0.1567005,0.0478 -0.4387717,0.20257 -0.6268149,0.34387 -0.1880432,0.1413 -0.4402191,0.27495 -0.5603886,0.29701 -0.1201631,0.022 -0.2398287,0.1042 -0.2659186,0.18256 -0.060993,0.18318 0.035407,0.17977 0.4098455,-0.0145 z m 83.8573086,-0.12796 c 0.225027,-0.094 0.492625,-0.17124 0.594665,-0.17158 0.594225,-0.002 1.117934,-0.28752 1.795888,-0.97895 0.393622,-0.40146 0.77604,-0.72991 0.849813,-0.72991 0.07378,0 0.310377,-0.10892 0.525783,-0.24205 l 0.391638,-0.24205 -0.31112,-0.32474 c -0.389842,-0.4069 -1.287266,-0.71541 -1.84792,-0.63525 -0.231442,0.0331 -1.118393,0.14692 -1.971009,0.25293 -1.467175,0.18243 -1.566379,0.18217 -1.851952,-0.005 -0.34665,-0.22713 -0.392304,-0.48973 -0.102298,-0.5884 0.109696,-0.0374 0.587551,-0.47948 1.061904,-0.98256 l 0.862463,-0.9147 1.92971,-0.47417 1.929711,-0.47415 -0.626815,-0.2143 c -0.516066,-0.17642 -0.979202,-0.21542 -2.621227,-0.2207 l -1.994405,-0.006 -0.504642,0.3419 c -0.705511,0.47799 -1.15632,1.08435 -1.273827,1.71335 -0.09618,0.51483 -0.08279,0.55593 0.383536,1.17653 0.540359,0.71914 0.681921,0.9836 0.923746,1.72575 0.09192,0.28206 0.320502,0.85315 0.507977,1.26908 0.425759,0.94459 0.599684,1.03816 1.348381,0.72533 z m -29.306895,-1.88044 c -0.03877,-0.0627 -0.11869,-0.11397 -0.177673,-0.11397 -0.05899,0 -0.107241,0.0513 -0.107241,0.11397 0,0.0627 0.07996,0.11396 0.177673,0.11396 0.09772,0 0.145982,-0.0513 0.107241,-0.11396 z m -4.159764,-0.73264 c 0,-0.0985 -0.05679,-0.17909 -0.126159,-0.17909 -0.06939,0 -0.09562,0.0796 -0.05828,0.17686 0.03735,0.0973 0.02074,0.14773 -0.03689,0.11211 -0.134914,-0.0834 -0.26986,0.13144 -0.176982,0.28173 0.09254,0.14973 0.398345,-0.15091 0.398345,-0.39161 z M 5.2277531,250.78846 c 0.1979351,-0.2385 -0.054919,-0.19493 -0.3679906,0.0634 -0.2671203,0.22043 -0.2672366,0.22157 -0.016347,0.15863 0.1389843,-0.0349 0.3119344,-0.13478 0.3843501,-0.22203 z m 1.0724547,-0.50054 c 0.08968,-0.14509 -0.1743521,-0.14509 -0.398881,0 -0.1389778,0.0898 -0.124253,0.1108 0.078748,0.11223 0.1373367,6.4e-4 0.2813928,-0.0496 0.320133,-0.11223 z M 83.428376,246.8913 c 0.173222,-0.35705 0.314254,-0.75477 0.313408,-0.88382 -0.0019,-0.30328 0.185142,-0.52667 0.695715,-0.83055 0.495184,-0.29473 0.863562,-0.31216 1.148437,-0.0543 0.198032,0.17921 0.255148,0.17589 0.920704,-0.0536 0.390268,-0.13454 1.11986,-0.34873 1.62131,-0.47598 1.623695,-0.41204 1.829002,-0.58519 1.484297,-1.25177 -0.136232,-0.26345 -0.162141,-0.52184 -0.106653,-1.06348 0.08743,-0.85332 0.0039,-0.95969 -0.859627,-1.09621 -0.402551,-0.0636 -0.690437,-0.19289 -0.920445,-0.41325 l -0.334684,-0.32064 -0.600156,0.29595 c -0.33009,0.16277 -0.83094,0.3315 -1.113005,0.37493 -0.282071,0.0434 -0.657505,0.15305 -0.834306,0.24355 -0.36916,0.18898 -1.63358,1.13414 -1.733474,1.29579 -0.102176,0.16531 -0.880535,0.12191 -1.124422,-0.0627 -0.439631,-0.33277 -0.435612,-0.0679 0.0294,1.9374 0.130818,0.56414 0.291724,1.30906 0.357563,1.6554 0.117055,0.61576 0.48042,1.37078 0.653841,1.35858 0.04794,-0.003 0.228878,-0.29826 0.402093,-0.65531 z M 4.9041242,246.30066 c 0.6124778,-0.003 0.2066382,-0.79566 -0.4967276,-0.97013 -0.2792736,-0.0693 -0.3012542,-0.0442 -0.3626796,0.4138 -0.078644,0.58632 -0.018866,0.70947 0.3024365,0.62324 0.1339575,-0.0359 0.3845956,-0.0661 0.5569707,-0.0669 z m 86.7179888,-2.008 c 0.543002,-0.27608 0.483451,-0.70168 -0.13397,-0.95742 -0.332875,-0.13788 -0.3742,-0.12487 -0.745137,0.23466 -0.459266,0.44513 -0.467937,0.48863 -0.158955,0.79761 0.244894,0.24489 0.436342,0.23109 1.038062,-0.0748 z M 7.1544656,243.23722 c -2.649e-4,-0.0397 -0.1539029,-0.30296 -0.3414098,-0.58503 -0.3819724,-0.5746 -0.4212234,-0.77448 -0.1709471,-0.87052 0.094022,-0.036 0.1709471,-0.13704 0.1709471,-0.22435 0,-0.19604 0.00323,-0.19611 -0.4910031,0.0104 -0.3923359,0.16393 -0.4040757,0.18652 -0.3791295,0.72951 0.027007,0.58851 0.1974828,0.89409 0.5770129,1.03449 0.2386335,0.0883 0.6353694,0.0292 0.6345295,-0.0945 z m 1.2208011,-1.23174 c 0.4779,-0.28007 0.5314558,-0.28932 0.6596762,-0.11397 0.119704,0.16371 0.399333,0.2697 0.399333,0.15138 0,-0.12841 -0.374045,-0.7583 -0.450292,-0.7583 -0.05046,0 -0.2758103,0.0769 -0.5008366,0.17095 -0.5463164,0.22827 -0.7288612,0.21551 -0.8153427,-0.057 -0.0398,-0.12536 -0.1395334,-0.22793 -0.2216602,-0.22793 -0.1954411,0 -0.4992474,0.36584 -0.3481745,0.41927 0.3478192,0.123 0.4527858,0.25622 0.3124577,0.39654 -0.4250807,0.42508 0.2492813,0.43839 0.9648391,0.0191 z m 67.9231623,-0.29351 c -0.03243,-0.20372 -0.143539,-0.98581 -0.246929,-1.73799 -0.195429,-1.42184 -0.409878,-1.93743 -0.805832,-1.93743 -0.299665,0 -0.418148,0.53711 -0.337101,1.52806 0.07254,0.887 0.224071,1.29915 0.604034,1.64301 0.126049,0.11409 0.291381,0.35757 0.367389,0.54108 0.196385,0.4741 0.495565,0.44784 0.418439,-0.0368 z M 9.6387629,240.64998 c 0.256601,-0.17973 0.246613,-0.39108 -0.01848,-0.39108 -0.239202,0 -0.567755,0.29919 -0.481609,0.43857 0.107603,0.17411 0.195635,0.16575 0.500081,-0.0475 z m 71.4537461,-1.01906 c 0.04077,-0.3033 -0.378929,-0.96755 -0.611308,-0.96755 -0.152242,0 -0.17107,0.0759 -0.105522,0.42527 0.04387,0.23391 0.129977,0.51907 0.191319,0.63369 0.142163,0.26563 0.485569,0.20589 0.525511,-0.0914 z m 6.277066,-0.26393 c 0.891292,-0.61317 1.867652,-1.04552 2.361071,-1.04552 0.660464,0 1.758156,-0.54415 2.119408,-1.05063 0.316276,-0.44344 0.335226,-1.22354 0.04885,-2.01229 -0.09958,-0.27428 -0.181046,-0.68052 -0.181046,-0.90276 0,-0.22224 -0.08487,-0.49786 -0.188612,-0.61249 -0.421204,-0.46542 -1.64899,-0.0773 -2.091896,0.66137 -0.145388,0.24246 -0.341132,0.53099 -0.434992,0.64119 -0.158659,0.18629 -0.18522,0.18719 -0.377948,0.0128 -0.169034,-0.15297 -0.239247,-0.16108 -0.380383,-0.0439 -0.242587,0.20133 -0.215638,0.45764 0.04814,0.45764 0.121662,0 0.248771,0.0446 0.282459,0.0991 0.126108,0.20405 -0.427213,1.51695 -0.858993,2.03819 -0.578118,0.69788 -0.936844,1.43657 -0.842305,1.73445 0.08969,0.28259 0.116958,0.28385 0.496243,0.0229 z m -4.199157,-0.7606 c 0,-0.094 -0.04827,-0.17096 -0.107241,-0.17096 -0.143708,0 -0.246633,0.17797 -0.155583,0.26902 0.128349,0.12835 0.262824,0.0782 0.262824,-0.0981 z m -4.832705,-2.28763 c -0.163601,-0.35734 -0.329838,-0.93759 -0.369419,-1.28942 -0.08346,-0.74184 -0.290406,-1.20936 -0.611334,-1.38112 -0.323558,-0.17316 -0.280087,-0.43783 0.08666,-0.52759 0.388737,-0.0951 0.480388,-0.22668 0.48261,-0.69269 0.0026,-0.53739 0.421282,-1.51694 0.830094,-1.94192 0.38811,-0.40347 1.369548,-0.82598 1.91861,-0.82598 0.189814,0 0.449898,-0.0561 0.577963,-0.12462 0.128065,-0.0685 0.940668,-0.17886 1.80578,-0.24516 1.230209,-0.0943 1.560208,-0.15369 1.514554,-0.27268 -0.03418,-0.0891 0.05744,-0.19618 0.221215,-0.25844 0.15378,-0.0585 0.445368,-0.31561 0.647981,-0.57141 0.23433,-0.29588 0.461172,-0.46512 0.62341,-0.46512 0.14027,0 0.492263,-0.0808 0.78221,-0.17962 0.436607,-0.14877 0.549683,-0.24782 0.658164,-0.57654 0.100121,-0.30335 0.09847,-0.47543 -0.007,-0.73005 -0.07589,-0.18324 -0.10726,-0.41323 -0.06971,-0.5111 0.04406,-0.11485 -0.07257,-0.30162 -0.328921,-0.5267 -0.457696,-0.40187 -0.490208,-0.55413 -0.162063,-0.75906 0.147461,-0.0921 0.221835,-0.24043 0.19944,-0.3978 -0.03237,-0.22743 -0.121177,-0.25781 -0.947426,-0.32406 -0.501451,-0.0402 -1.219438,-0.12374 -1.595531,-0.18562 -0.415847,-0.0684 -1.130371,-0.0754 -1.823458,-0.0179 -1.670847,0.1387 -1.96668,0.12852 -2.132375,-0.0734 -0.605189,-0.73767 -0.86778,-0.82848 -1.769792,-0.61209 -0.60915,0.14613 -0.63745,0.1424 -0.842841,-0.11125 -0.116887,-0.14435 -0.212524,-0.37871 -0.212524,-0.52079 0,-0.30488 -0.272031,-0.56537 -0.499338,-0.47815 -0.347722,0.13344 -0.783399,0.87538 -0.818005,1.39304 -0.02197,0.32833 -0.160906,0.71997 -0.384214,1.0829 -0.192411,0.3127 -0.349835,0.6447 -0.349835,0.73778 0,0.19594 0.241198,0.22436 0.416487,0.049 0.08426,-0.0843 0.139308,0.0652 0.184186,0.50003 0.03521,0.3411 0.152062,0.79046 0.259677,0.99857 0.211575,0.40914 0.201405,0.88447 -0.08589,4.01427 -0.12329,1.34305 -0.11754,1.49161 0.07129,1.84224 0.242174,0.4497 0.177473,0.61844 -0.208822,0.54459 -0.248674,-0.0476 -0.289553,-0.004 -0.36288,0.38568 -0.109037,0.57962 -0.112157,1.58765 -0.0065,2.12025 0.06073,0.30624 0.14352,0.42737 0.292137,0.42737 0.114071,0 0.337223,0.10212 0.495894,0.22693 0.158672,0.1248 0.511756,0.32485 0.78464,0.44454 0.272884,0.1197 0.598638,0.29545 0.723906,0.39058 0.12526,0.0951 0.245915,0.15478 0.268115,0.13258 0.02223,-0.0222 -0.09349,-0.33274 -0.25708,-0.69008 z m -62.544122,0.27043 c 0.199376,-0.19938 0.167685,-0.31911 -0.08445,-0.31911 -0.250457,0 -0.396865,0.17164 -0.29164,0.3419 0.09326,0.15089 0.209442,0.14385 0.376086,-0.0228 z m -0.03418,-1.3448 c 0.03877,-0.0627 0.01913,-0.11397 -0.04355,-0.11397 -0.06267,0 -0.145658,0.0513 -0.184399,0.11397 -0.03877,0.0627 -0.01912,0.11396 0.04355,0.11396 0.06267,0 0.145665,-0.0513 0.184399,-0.11396 z m -2.006287,-0.33215 c 0.216801,-0.13728 0.07172,-0.46562 -0.205746,-0.46562 -0.294096,0 -0.407255,0.19522 -0.234092,0.40387 0.158962,0.19155 0.221079,0.20026 0.439838,0.0618 z m -0.899847,-0.79356 c 0,-0.19012 -0.339717,-0.38108 -0.539888,-0.30349 -0.188075,0.0729 -0.186776,0.0883 0.02035,0.24069 0.247628,0.18224 0.519555,0.21511 0.519555,0.0628 z m 79.851634,-0.84247 c -0.207071,-0.4956 -0.417185,-0.64504 -0.417185,-0.29673 0,0.23679 0.439043,0.83815 0.53897,0.73823 0.02429,-0.0243 -0.0305,-0.223 -0.121785,-0.4415 z m -1.253868,-0.79389 c -0.09122,-0.77017 -0.377528,-1.15944 -0.885181,-1.2035 -0.315217,-0.0274 -0.458736,0.0386 -0.759855,0.34928 -0.399734,0.41242 -0.626091,0.98888 -0.480685,1.22416 0.06112,0.0989 0.230984,0.12323 0.529008,0.0759 0.241443,-0.0384 0.515916,-0.0209 0.609938,0.0388 0.09402,0.0597 0.370414,0.10939 0.614197,0.11034 l 0.443249,0.002 -0.07067,-0.5967 z m -75.805592,0.19938 c 0,-0.25142 -0.354313,-0.37663 -0.540088,-0.19086 -0.191552,0.19155 -0.0026,0.4943 0.283157,0.45372 0.168117,-0.0239 0.256931,-0.11473 0.256931,-0.26286 z m 88.314489,-0.0138 c 0.31757,-0.12186 0.20688,-0.38669 -0.16163,-0.38669 -0.20893,0 -0.3419,0.0591 -0.3419,0.15196 0,0.28113 0.17276,0.36166 0.50353,0.23473 z m -38.368743,-0.24423 c 0.02978,-0.0894 -0.06213,-0.14246 -0.24698,-0.14246 -0.287634,0 -0.374752,0.10961 -0.214495,0.26987 0.117245,0.11724 0.406617,0.0373 0.461475,-0.12741 z m 33.164112,-2.03774 c 0.518712,-0.13901 0.156455,-0.61197 -0.468725,-0.61197 -0.156345,0 -0.361194,-0.0769 -0.455215,-0.17095 -0.234679,-0.23468 -0.415163,-0.21431 -0.415163,0.0468 0,0.25386 0.613673,0.80861 0.891984,0.80634 0.104883,-6.5e-4 0.306087,-0.0325 0.447119,-0.0703 z m -4.302224,-1.06784 c 0,-0.0627 -0.04826,-0.11396 -0.107241,-0.11396 -0.05899,0 -0.138933,0.0513 -0.177673,0.11396 -0.03877,0.0627 0.0095,0.11397 0.107241,0.11397 0.09772,0 0.177673,-0.0513 0.177673,-0.11397 z m -4.76706,-1.10034 c 0.272948,-0.24701 0.292732,-1.30631 0.02933,-1.56973 -0.200409,-0.2004 -0.681495,-0.24008 -0.789627,-0.0651 -0.03877,0.0627 -0.169978,0.11397 -0.29164,0.11397 -0.26891,0 -0.270287,0.0298 -0.03127,0.67999 0.196404,0.53421 0.562598,1.0295 0.761166,1.0295 0.06248,0 0.207401,-0.0849 0.322033,-0.18861 z M 74.1671,228.18515 c 0,-0.19745 -0.200591,-0.23398 -0.342941,-0.0625 -0.117198,0.14122 -0.100237,0.16969 0.101051,0.16969 0.13304,0 0.24189,-0.0483 0.24189,-0.10724 z m 16.923983,-0.46259 c 0.11345,-0.12537 0.32947,-0.22794 0.480045,-0.22794 0.496579,0 1.269718,-0.24793 1.339401,-0.42951 0.116609,-0.3039 -0.125823,-0.4214 -0.44199,-0.21424 -0.534764,0.35038 -0.719886,0.25667 -0.810723,-0.41043 -0.109024,-0.80067 -0.404508,-0.98848 -0.851647,-0.54135 -0.180587,0.18058 -0.227934,0.37989 -0.227934,0.9594 0,1.09104 0.121772,1.2962 0.512848,0.86407 z m -17.03795,-0.16422 c 0,-0.0277 -0.0513,-0.082 -0.113967,-0.1207 -0.06267,-0.0388 -0.113967,-0.0161 -0.113967,0.0503 0,0.0664 0.0513,0.12069 0.113967,0.12069 0.06267,0 0.113967,-0.0226 0.113967,-0.0503 z m 11.317164,-5.01968 c 0.01234,-0.0618 -0.06727,-0.12969 -0.176969,-0.15082 -0.124744,-0.024 -0.19944,0.0319 -0.19944,0.14926 0,0.19827 0.336803,0.19967 0.376409,10e-4 z m -3.282544,-0.0983 0.569828,-0.14933 -0.789847,-0.0649 c -0.79824,-0.0656 -1.090597,-0.0269 -1.090597,0.14433 0,0.0816 0.241399,0.16089 0.626815,0.20594 0.06267,0.007 0.370394,-0.0539 0.683801,-0.13601 z m 2.72682,-0.1391 c 0.221396,-0.2214 0.07127,-0.56549 -0.297842,-0.68265 -0.182881,-0.058 -0.304595,-0.0111 -0.455991,0.17586 -0.352975,0.43591 -0.242723,0.62914 0.383672,0.67243 0.105212,0.007 0.271785,-0.0673 0.370161,-0.16564 z M 76.265961,221.837 c 0.09541,-0.24864 -0.03127,-0.36421 -0.165888,-0.15134 -0.134772,0.2131 -0.13764,0.3386 -0.0078,0.3386 0.05595,0 0.134106,-0.0843 0.173628,-0.18726 z m 7.474303,-0.66228 c 0.504223,-0.0253 0.728319,-0.12108 1.376752,-0.58859 0.4928,-0.3553 1.032351,-1.20527 0.868873,-1.36874 -0.102511,-0.10252 -2.356394,0.19479 -2.78769,0.36772 -0.229039,0.0918 -0.415227,0.2709 -0.486332,0.46772 -0.06338,0.17541 -0.216891,0.5054 -0.34117,0.73331 -0.124279,0.22792 -0.225963,0.45303 -0.225963,0.50024 0,0.0472 0.269246,0.0459 0.598321,-0.003 0.329082,-0.0489 0.777823,-0.0978 0.997209,-0.10875 z m 2.570947,-4.32779 c 0.191945,-0.14125 0.197424,-0.17204 0.04142,-0.23258 -0.235752,-0.0915 -0.823005,0.13409 -0.732072,0.28122 0.101361,0.164 0.433486,0.14062 0.690637,-0.0486 z M 3.4417435,216.48468 c 0.1661725,-0.0638 0.2628689,-0.38669 0.1157954,-0.38669 -0.1483592,0 -0.5053531,0.24435 -0.5053531,0.34591 0,0.12628 0.1310048,0.13999 0.3895577,0.0408 z m 81.8323555,-5.05931 c 0.471768,0 0.76545,-0.10342 0.681127,-0.23987 -0.08777,-0.14201 -2.180685,-0.12839 -2.45039,0.016 -0.121242,0.0649 -0.220439,0.21764 -0.220439,0.33945 0,0.19588 0.03353,0.20622 0.289747,0.0895 0.248797,-0.11336 0.324857,-0.0969 0.538182,0.11641 l 0.248429,0.24844 0.2642,-0.28493 c 0.18131,-0.19554 0.384957,-0.28492 0.649144,-0.28492 z m 3.594639,-3.46924 c 0,-0.12029 -0.218707,-0.17082 -0.283764,-0.0656 -0.03935,0.0637 0.0084,0.11583 0.106091,0.11583 0.09772,0 0.177673,-0.0226 0.177673,-0.0503 z M 8.3724819,207.07336 c -0.036376,-0.0909 -0.063383,-0.0639 -0.068856,0.0689 -0.00517,0.12013 0.021968,0.18744 0.05983,0.14958 0.037862,-0.0379 0.041932,-0.13617 0.00898,-0.21844 z m 86.1740051,-0.68199 c -0.0418,-0.28423 -0.194478,-0.36283 -0.423413,-0.21802 -0.222391,0.14067 -0.0686,0.46552 0.220393,0.46552 0.180949,0 0.230544,-0.0605 0.20302,-0.2475 z m -35.242524,77.07602 c -0.04911,-0.0794 -0.05847,-0.17521 -0.02087,-0.21282 0.102001,-0.102 0.213209,0.048 0.158116,0.21328 -0.03864,0.11581 -0.06544,0.11572 -0.137246,-4.6e-4 z m 1.472111,-31.92584 c -0.0954,-0.15435 0.03334,-0.3419 0.23466,-0.3419 0.09032,0 0.164221,0.10257 0.164221,0.22794 0,0.23594 -0.274945,0.3145 -0.398881,0.11396 z m -0.626815,-0.79776 c 0,-0.0627 0.0513,-0.11397 0.113967,-0.11397 0.06267,0 0.113967,0.0513 0.113967,0.11397 0,0.0627 -0.0513,0.11397 -0.113967,0.11397 -0.06267,0 -0.113967,-0.0513 -0.113967,-0.11397 z m -9.148252,-0.8667 c -0.124124,-0.12413 0.02585,-0.27296 0.275106,-0.27296 0.133887,0 0.2108,0.0598 0.183275,0.14245 -0.05421,0.16275 -0.34371,0.24517 -0.458381,0.13051 z m 16.100192,-1.98919 c 0,-0.0664 0.0513,-0.089 0.113967,-0.0503 0.06267,0.0388 0.113966,0.0931 0.113966,0.12069 0,0.0276 -0.0513,0.0503 -0.113966,0.0503 -0.06267,0 -0.113967,-0.0543 -0.113967,-0.1207 z m -26.55413,-2.8994 c -0.147216,-0.15671 -0.374116,-0.28492 -0.504223,-0.28492 -0.200965,0 -0.863374,-0.65112 -0.863374,-0.84866 0,-0.16251 0.349047,-0.0233 1.026646,0.40935 0.406912,0.25984 0.856855,0.54416 0.99989,0.63183 0.143029,0.0877 0.22975,0.20842 0.192715,0.26835 -0.126166,0.20414 -0.583306,0.10969 -0.851654,-0.17595 z m -7.904882,-5.12848 c -0.03831,-0.0998 -0.0019,-0.17096 0.08782,-0.17096 0.08438,0 0.21726,0.0769 0.29529,0.17096 0.118135,0.14233 0.103436,0.17094 -0.08782,0.17094 -0.126327,0 -0.259212,-0.0769 -0.29529,-0.17094 z m 10.412141,-0.94592 c 0,-0.25914 0.215167,-0.47867 0.469159,-0.47867 0.242393,0 0.331123,0.22014 0.195228,0.48436 -0.139773,0.27177 -0.664387,0.26727 -0.664387,-0.006 z m -30.125074,-6.25295 c -0.155241,-0.15525 -0.06844,-0.76407 0.16214,-1.13715 0.301371,-0.48763 0.554257,-0.62254 0.96232,-0.51341 0.339684,0.0908 0.529026,0.35894 0.253506,0.35894 -0.226396,0 -0.603115,0.43708 -0.810387,0.94022 -0.163258,0.3963 -0.385241,0.53374 -0.567579,0.3514 z m 15.358031,-3.19191 c -0.441705,-0.47661 -0.741492,-1.0204 -0.668049,-1.21179 0.03689,-0.0961 0.434921,-0.45679 0.884586,-0.80163 1.936449,-1.48504 3.219613,-3.6102 3.681521,-6.09728 0.100793,-0.54271 0.203408,-1.75602 0.228025,-2.69624 0.04109,-1.56893 0.06248,-1.71237 0.260058,-1.74443 0.314422,-0.051 1.0107,0.61338 1.15119,1.0985 0.238155,0.82237 0.272651,3.18456 0.06151,4.21262 -0.51657,2.51523 -1.535249,4.45511 -3.250859,6.19066 -0.893088,0.90347 -1.511142,1.3532 -1.860654,1.35393 -0.112681,2.2e-4 -0.331983,-0.13672 -0.487328,-0.30434 z m 25.416404,-8.21064 c -0.587635,-0.39726 -2.83202,-2.36039 -3.126348,-2.73456 -0.526138,-0.66888 -0.191351,-0.64612 0.776273,0.0528 0.412217,0.29774 1.002623,0.67004 1.312012,0.82734 0.475955,0.24199 0.641663,0.42211 1.076745,1.17036 0.282827,0.48639 0.490932,0.90765 0.462465,0.93612 -0.02849,0.0285 -0.253985,-0.0849 -0.501147,-0.25204 z m 4.222598,-2.54001 c -0.113799,-0.12576 -0.182765,-0.25279 -0.153244,-0.2823 0.07543,-0.0754 0.552758,0.27293 0.552758,0.40342 0,0.17673 -0.179101,0.12243 -0.399514,-0.12112 z m -2.176123,-2.60316 c -0.8102,-0.59156 -1.527147,-1.45348 -1.527147,-1.83595 0,-0.19073 0.03786,-0.34678 0.08419,-0.34678 0.113069,0 1.967204,1.93574 1.967204,2.05379 0,0.0511 0.03114,0.17404 0.06917,0.2732 0.102757,0.26777 -0.09491,0.21972 -0.593417,-0.14426 z m 17.620829,0.23905 c 0.0052,-0.26895 0.399475,-1.15514 0.715002,-1.60715 0.201314,-0.2884 0.421663,-0.67942 0.489672,-0.86894 0.110543,-0.30804 0.184406,-0.3508 0.696827,-0.40326 0.315249,-0.0323 0.644241,-0.11598 0.731097,-0.18599 0.08686,-0.07 0.657944,-0.16379 1.269091,-0.20837 1.18617,-0.0865 1.375919,-0.001 0.797762,0.35749 -0.81248,0.50449 -1.928431,1.24875 -2.105755,1.40438 -0.108256,0.095 -0.49289,0.33205 -0.854749,0.52676 -0.361859,0.19471 -0.664832,0.4255 -0.67327,0.51285 -0.0085,0.0873 -0.02126,0.227 -0.02849,0.31034 -0.0092,0.10675 -0.110943,0.13003 -0.344194,0.0788 -0.189904,-0.0417 -0.362835,-0.0213 -0.405607,0.0479 -0.08537,0.13814 -0.289863,0.16316 -0.287382,0.0352 z M 52.280914,214.7239 c -0.136464,-0.19165 -0.217202,-0.37938 -0.179404,-0.41718 0.08191,-0.0819 0.502729,0.28132 0.654513,0.56493 0.190214,0.35543 -0.204138,0.23279 -0.475109,-0.14775 z m 51.446536,-3.46449 c -0.0372,-0.0967 -0.16457,-0.17587 -0.28323,-0.17587 -0.29638,0 -0.27988,-0.39171 0.0295,-0.70113 0.238,-0.238 0.24991,-0.23894 0.4014,-0.0318 0.0859,0.11743 0.13096,0.27908 0.1002,0.35924 -0.0308,0.0802 -0.0118,0.14572 0.0422,0.14572 0.21618,0 0.21818,0.34371 0.003,0.45904 -0.17574,0.0941 -0.24024,0.0819 -0.29287,-0.0552 z m -26.233244,-0.98289 c 0.07496,-0.22489 0.514767,-0.47819 0.597592,-0.34418 0.03935,0.0637 -0.08965,0.19918 -0.286704,0.30107 -0.249139,0.12884 -0.343845,0.14197 -0.310888,0.0431 z m 24.138754,-0.63451 c 0,-0.20937 0.26916,-0.60758 0.44933,-0.66476 0.12896,-0.0409 0.23447,-0.15197 0.23447,-0.24675 0,-0.13333 -0.0798,-0.1548 -0.35245,-0.0949 -0.29616,0.065 -0.34622,0.0457 -0.31341,-0.12119 0.0214,-0.10922 0.12649,-0.25366 0.23336,-0.32097 0.15214,-0.0958 0.25228,-0.0679 0.46135,0.12849 0.14686,0.13797 0.43307,0.28407 0.63602,0.32466 0.36263,0.0725 0.70272,0.40929 0.70272,0.69585 0,0.22581 -0.22577,0.17218 -0.46652,-0.11084 l -0.21814,-0.25642 -0.27548,0.33248 c -0.20394,0.24614 -0.3814,0.33599 -0.68337,0.34601 -0.22433,0.007 -0.40788,0.002 -0.40788,-0.0116 z m -20.029567,-1.02237 c -0.07835,-0.0343 -0.142454,-0.135 -0.142454,-0.2238 0,-0.11153 0.136633,-0.16145 0.441912,-0.16145 0.253772,0 0.50231,-0.0728 0.583784,-0.17095 0.161417,-0.1945 0.52159,-0.22724 0.626815,-0.057 0.03877,0.0627 0.166948,0.11396 0.284914,0.11396 0.249398,0 0.41223,0.20581 0.269285,0.34035 -0.119233,0.11224 -1.863988,0.24651 -2.064256,0.15886 z m 1.592539,-1.08913 c -0.09788,-0.0979 -0.100269,-0.17474 -0.0089,-0.28492 0.205281,-0.24735 0.439198,-0.17595 0.439198,0.13405 0,0.3021 -0.206684,0.37455 -0.430366,0.15087 z m 1.342095,-0.30962 c 0,-0.056 0.0753,-0.13067 0.167349,-0.166 0.09204,-0.0353 0.243279,-0.24594 0.336079,-0.46805 0.142887,-0.34197 0.224044,-0.40384 0.529744,-0.40384 0.305344,0 0.351779,0.0353 0.301176,0.22878 -0.03967,0.15163 0.02313,0.28724 0.18615,0.4021 0.209643,0.14771 0.220724,0.18941 0.07503,0.28231 -0.222338,0.14179 -0.424673,0.1412 -0.512848,-0.001 -0.107538,-0.174 -0.480129,-0.13568 -0.554063,0.057 -0.06965,0.18151 -0.528613,0.24157 -0.528613,0.0692 z m -0.62069,-0.52933 c -0.159944,-0.12079 -0.187196,-0.20213 -0.09771,-0.29161 0.153386,-0.15339 0.640609,0.0734 0.575746,0.268 -0.06612,0.19835 -0.235584,0.20672 -0.478036,0.0236 z M 98.55587,206.5249 c 0,-0.0627 0.05434,-0.11397 0.120693,-0.11397 0.06638,0 0.08899,0.0513 0.05027,0.11397 -0.03877,0.0627 -0.09305,0.11397 -0.120693,0.11397 -0.02765,0 -0.05027,-0.0513 -0.05027,-0.11397 z m -14.187646,-0.79962 c 0.03935,-0.0637 0.119329,-0.0863 0.177679,-0.0503 0.158077,0.0977 0.128595,0.16608 -0.07159,0.16608 -0.09772,0 -0.145459,-0.0521 -0.106091,-0.11583 z m 6.893807,-0.45401 c 0,-0.0627 0.0513,-0.11397 0.113967,-0.11397 0.06267,0 0.113967,0.0513 0.113967,0.11397 0,0.0627 -0.0513,0.11397 -0.113967,0.11397 -0.06267,0 -0.113967,-0.0513 -0.113967,-0.11397 z"
       style="fill:#6d6d6d;stroke-width:0.11396622" />
  </g>
</svg>
